/* XPM */
static char *smaller_axe[] = {
/* columns rows colors chars-per-pixel */
"58 50 158 2 ",
"   c None",
".  c #030303",
"X  c #0A0505",
"o  c #0C0B0A",
"O  c #120E0D",
"+  c #120706",
"@  c #18120E",
"#  c #13110F",
"$  c #141313",
"%  c #1C1512",
"&  c #1E1813",
"*  c #2D100B",
"=  c #34130D",
"-  c #38160F",
";  c #231B14",
":  c #281E17",
">  c #2A1F18",
",  c #231C18",
"<  c #3C1711",
"1  c #292017",
"2  c #2E241C",
"3  c #33261E",
"4  c #36281E",
"5  c #38291F",
"6  c #3B2C21",
"7  c #3F3128",
"8  c #3D3021",
"9  c #3D3D3F",
"0  c #401711",
"q  c #401B14",
"w  c #451F18",
"e  c #521E15",
"r  c #592018",
"t  c #512119",
"y  c #64261B",
"u  c #412F24",
"i  c #423324",
"p  c #44342A",
"a  c #4D3A2A",
"s  c #473A2A",
"d  c #513D2C",
"f  c #543C27",
"g  c #632920",
"h  c #742023",
"j  c #7B2522",
"k  c #5D422E",
"l  c #5C4333",
"z  c #60452D",
"x  c #624735",
"c  c #634834",
"v  c #6A4C36",
"b  c #654B3A",
"n  c #6D4F3B",
"m  c #6F503A",
"M  c #74533D",
"N  c #353446",
"B  c #4F4F51",
"V  c #515254",
"C  c #565659",
"Z  c #5B5B5D",
"A  c #6D5947",
"S  c #7B5940",
"D  c #7C6551",
"F  c #494860",
"G  c #5A5977",
"H  c #735D75",
"J  c #636268",
"K  c #6A6973",
"L  c #636273",
"P  c #797A7D",
"I  c #852E1E",
"U  c #892F1E",
"Y  c #8D301F",
"T  c #93321F",
"R  c #862B20",
"E  c #8A2E20",
"W  c #8F3020",
"Q  c #933220",
"!  c #9B3523",
"~  c #963827",
"^  c #9B3926",
"/  c #973A29",
"(  c #A13927",
")  c #AB3927",
"_  c #A43A29",
"`  c #AE3A28",
"'  c #A5412E",
"]  c #B2412E",
"[  c #BD422E",
"{  c #AA4432",
"}  c #BA4936",
"|  c #C0422F",
" . c #C34D3A",
".. c #C54B37",
"X. c #C9523E",
"o. c #834040",
"O. c #974845",
"+. c #855F44",
"@. c #A24E4A",
"#. c #A1504D",
"$. c #BD5441",
"%. c #B65C4B",
"&. c #A75753",
"*. c #A75853",
"=. c #A85853",
"-. c #A85753",
";. c #876045",
":. c #896146",
">. c #8C6348",
",. c #956A45",
"<. c #956949",
"1. c #9A6D4B",
"2. c #A4744D",
"3. c #A8774E",
"4. c #AC7A4F",
"5. c #AE7B50",
"6. c #B07D51",
"7. c #9F7E63",
"8. c #AA6462",
"9. c #B47069",
"0. c #C35542",
"q. c #C65A46",
"w. c #CB614C",
"e. c #D3624E",
"r. c #AE8869",
"t. c #BA8D65",
"y. c #C6827B",
"u. c #666587",
"i. c #717091",
"p. c #7E7D9D",
"a. c #866F87",
"s. c #8C7388",
"d. c #927A8E",
"f. c #83828F",
"g. c #878693",
"h. c #9D8698",
"j. c #9A8194",
"k. c #92929E",
"l. c #8382A2",
"z. c #8C8CAA",
"x. c #9B9BA4",
"c. c #9192AE",
"v. c #9D9EA9",
"b. c #9696A2",
"n. c #9496B2",
"m. c #989BB7",
"M. c #989BB8",
"N. c #9FA0AB",
"B. c #A0A1AC",
"V. c #A4A4BC",
"C. c #A4A5B0",
"Z. c #C6A180",
"A. c #A6A7C0",
"S. c #ABADC5",
"D. c #AFB0C6",
"F. c #B7B7CA",
"G. c #B9B9C7",
"H. c #D6D6E2",
/* pixels */
"                                                                                                                    ",
"                        % o o                                                                                       ",
"                        f t.D o     X O %                                                                           ",
"                    O k 6.t.7.u . * ! [ ! .                                                                         ",
"                  . k 6.6.t.7.x i * ! | ..%.$                                                                       ",
"                . z 5.6.t.r.>.S i * !  .w.! _ .                                                                     ",
"                . A Z.Z.r.>.>.l = Y ' q.Q Q ! _ o                                                                   ",
"                  $ 6 n S >.k - Y ' q.Q E j Q ! ` .                                                                 ",
"                    O 3 b p < Y { q.Q E h h j Q ! ` o                                                               ",
"                    o . $ q U { 0.! E h h h h j Q ! { .                                                             ",
"                    $ w I I { $.^ E h h h h h h j Q ! ( O                                                           ",
"                    g ` [  .$.^ E h h h h h h h h j Q ! ( X                                                         ",
"                  g ] [ X.$.^ E j R j R h E h h h h j Q ! ! %                                                       ",
"                y ` [ X.$.^ Q Q E Q E Q E Q E h h h h j Q [ +                                                       ",
"            o y ` 0.e.0._ Q Q Q Q Q Q Q Q Q Q E h h h E Q =                                                         ",
"      o . J g.9.e.0.} ] ) ! Q Q Q Q Q Q Q Q Q W h h E Q *                                                           ",
"      K g.G.H.y.} ] ` ` ` ) ! Q Q Q Q / Q Q Q W h E Q * i .                                                         ",
"  o K G.H.F.V.8.` ` ` ` ` ` ) ! Q Q / Q Q Q Q j E Y = i x i O                                                       ",
"  o x.F.V.z.l.s.@.` ` ` ` ` ` ) _ ~ Q Q Q Q Q E Y = u c ,.,.x O                                                     ",
"    V C.n.z.c.n.d.@.` ` ` ` ` ` ` ( Q Q Q Q Q U = 2 x S 1.6.2.x %                                                   ",
"      B v.A.m.m.n.j.&.` ` ` ` ` ` ) ! Q Q Q I < 1 i a >.>.1.5.2.x @                                                 ",
"        V B.S.m.m.m.h.&.` ` ` ` ` ` ) ! Q I q   & i i c >.>.1.5.2.x ,                                               ",
"          Z v.S.M.m.m.h.*.` ` ` ` ` ` ) W 0       ; i s c >.>.1.5.2.l %                                             ",
"            C x.S.m.m.m.h.=.` ` ` ` ` ! t           2 i i c >.>.1.4.2.k 2                                           ",
"              Z v.S.m.m.n.d.#.` ` ` ` R o           $ ; i i M >.>.1.5.2.x ;                                         ",
"                C x.D.n.z.l.s.#.` ` ! e                 ; a d M >.>.1.5.2.k 2                                       ",
"                  J v.V.l.l.l.a.O.` I .                 $ 3 a x M >.>.1.4.2.x :                                     ",
"                    C b.m.l.p.i.H o.r                       5 l x M >.>.1.4.2.k 2                                   ",
"                      V x.c.i.u.u.F $                       . 5 l x M >.>.1.4.2.k 2                                 ",
"                        V k.l.u.G N                           . 6 l b M >.>.1.4.2.x 2                               ",
"                          9 k.c.L .                             . p l x M >.>.1.4.2.x 2                             ",
"                            V x.P $                               $ 6 l x M >.>.1.4.2.x :                           ",
"                              .                                     . 6 l x M ;.>.1.4.2.x 2                         ",
"                                                                      $ 6 l x M ;.>.1.5.2.x ;                       ",
"                                                                        . 6 l x M ;.>.1.4.2.c ;                     ",
"                                                                          $ 6 l x M >.>.1.4.2.v %                   ",
"                                                                            . 6 l b M >.>.1.4.2.v %                 ",
"                                                                              $ 7 a d m +.>.1.5.2.v %               ",
"                                                                                  4 s i x +.>.1.5.2.v @             ",
"                                                                                    ; 8 i c >.>.1.4.3.m &           ",
"                                                                                      ; i d M >.>.<.5.3.M O         ",
"                                                                                        2 d d M >.>.<.5.3.M O       ",
"                                                                                          2 l x M >.>.<.5.4.M o     ",
"                                                                                            > x b m >.>.<.6.6.,.o   ",
"                                                                                              2 b x n >.>.<.6.,.o   ",
"                                                                                                ; x x n >.>.<.,.o   ",
"                                                                                                  ; x x n <.,.X     ",
"                                                                                                    2 >.>.M %       ",
"                                                                                                      o o o         ",
"                                                                                                                    "
};
