/* XPM */
static char *smaller_beer[] = {
/* columns rows colors chars-per-pixel */
"50 50 157 2 ",
"   c None",
".  c #000000",
"X  c #060606",
"o  c #070707",
"O  c #0B0B0B",
"+  c #0C0C0C",
"@  c #0D0D0C",
"#  c #1B1A16",
"$  c #1C1B18",
"%  c #1C1C19",
"&  c #313131",
"*  c #333333",
"=  c #393832",
"-  c #4B3901",
";  c #544000",
":  c #554100",
">  c #504931",
",  c #4A4A4A",
"<  c #4B4B4B",
"1  c #4B4C4B",
"2  c #4C4C4B",
"3  c #4C4C4C",
"4  c #514E42",
"5  c #514F42",
"6  c #535148",
"7  c #535248",
"8  c #545249",
"9  c #55534A",
"0  c #716F63",
"q  c #747265",
"w  c #867233",
"e  c #E48E05",
"r  c #E59904",
"t  c #EC9F03",
"y  c #ED9F03",
"u  c #E5A303",
"i  c #E6A403",
"p  c #E6A803",
"a  c #E6AE02",
"s  c #E7AF02",
"d  c #E7AF03",
"f  c #EEAE02",
"g  c #F0AC02",
"h  c #EAB102",
"j  c #EEB501",
"k  c #EFB501",
"l  c #EEB502",
"z  c #EFB502",
"x  c #F5B102",
"c  c #F6B102",
"v  c #F1B701",
"b  c #F6BB01",
"n  c #F6BC01",
"m  c #FBBC01",
"M  c #F9BE01",
"N  c #EAB718",
"B  c #EEBC1D",
"V  c #F0B814",
"C  c #F2BE17",
"Z  c #EAA635",
"A  c #EDB530",
"S  c #EFB430",
"D  c #EBBB33",
"F  c #EFB833",
"G  c #F5BE39",
"H  c #F6BE3B",
"J  c #FEC200",
"K  c #FBC114",
"L  c #FEC81C",
"P  c #FEC91C",
"I  c #FEC91D",
"U  c #F5C72F",
"Y  c #FBCC36",
"T  c #FFCF3A",
"R  c #8E8B7B",
"E  c #BAA76A",
"W  c #DDB743",
"Q  c #DDB843",
"!  c #D9BB5D",
"~  c #E8AD48",
"^  c #EDB24D",
"/  c #D7BD6E",
"(  c #EAC244",
")  c #EAC344",
"_  c #EAC345",
"`  c #E9C246",
"'  c #ECC546",
"]  c #EEC74B",
"[  c #F1C946",
"{  c #F5CD4B",
"}  c #FAD251",
"|  c #FFD553",
" . c #FFD656",
".. c #F1D164",
"X. c #FAD86D",
"o. c #ECD071",
"O. c #F1D472",
"+. c #FADA76",
"@. c #9D9D9D",
"#. c #A29D84",
"$. c #AAA794",
"%. c #ACA995",
"&. c #BDB79A",
"*. c #B5B5B5",
"=. c #D2C188",
"-. c #D3C188",
";. c #D3C189",
":. c #DCCA92",
">. c #DECC92",
",. c #EDD78C",
"<. c #EDD88C",
"1. c #EFDA8C",
"2. c #F8DC85",
"3. c #F8DC86",
"4. c #F2DC8B",
"5. c #F4DD89",
"6. c #F4DD8A",
"7. c #F4DD8B",
"8. c #F4DE8B",
"9. c #F5DE8B",
"0. c #E3D091",
"q. c #E4D091",
"w. c #EFDC9D",
"e. c #F6D695",
"r. c #F7E196",
"t. c #F2E09C",
"y. c #C4C0A8",
"u. c #C6C2AC",
"i. c #C7C3AC",
"p. c #EEDEA1",
"a. c #EFDEA6",
"s. c #F0E0A1",
"d. c #EFE2B8",
"f. c #F2E7BA",
"g. c #C9C9C9",
"h. c #D7D7D7",
"j. c #E4E0C6",
"k. c #EAE4CF",
"l. c #F3EBC6",
"z. c #F3EBC7",
"x. c #F7EEC5",
"c. c #F9EFC3",
"v. c #FCEEC5",
"b. c #F2EBC9",
"n. c #F0EBCE",
"m. c #F7F0CD",
"M. c #EAE6D8",
"N. c #F5F0D3",
"B. c #F8F3D6",
"V. c #FBF5D5",
"C. c #FBF5D6",
"Z. c #FAF5D8",
"A. c #FCF7D8",
"S. c #FDF8DB",
"D. c #FFFADD",
"F. c #FFFADE",
"G. c #E8E8E8",
/* pixels */
"                                                                                                    ",
"                                                                                                    ",
"                                                                                                    ",
"                    + + + + + + + +                                                                 ",
"                    . . . . . . . .                                                                 ",
"                + . . 9 D.D.D.D.$.. . .     . . . . . . . .                                         ",
"                . . 9 R D.D.D.D.u.9 $ .   & . = 9 9 9 9 $ .                                         ",
"              . . . D.D.D.D.D.D.D.D.9 . . . . %.D.D.D.D.9 . . . .                                   ",
"          + . . 0 $.D.D.D.D.D.D.D.D.u.%.%.%.%.j.D.D.Z.m.y.%.%.q . . +                               ",
"          . . . $.D.D.D.D.D.D.D.D.D.D.D.D.D.D.D.D.D.V.z.V.D.D.%.. . .                               ",
"          . 4 z.V.D.D.D.D.D.D.D.D.D.D.D.D.D.D.D.D.D.V.z.z.z.D.D.D.9 .                               ",
"          . 4 z.V.D.D.D.D.D.D.D.D.D.D.D.D.D.D.D.D.Z.z.t.f.b.Z.c.r.> .                               ",
"          . 4 z.V.D.D.D.D.D.D.D.D.D.D.D.D.D.D.D.D.b.s.[ s.b.b.,.a - . . . . . . . . . . .           ",
"        + . 4 z.V.D.D.D.D.D.D.D.D.D.D.D.D.D.D.D.D.' ' [ ..O.b.4.b E @.@.@.@.@.@.@.@.@.& .           ",
"      + . . 4 z.V.D.D.D.D.D.D.D.D.D.D.D.D.D.D.D.D.a N [ [ [ b.4.J w.G.G.G.G.G.G.G.G.G.3 .           ",
"      + . z.z.z.z.z.D.D.D.D.D.D.D.D.D.D.D.D.D.] a a B | { [ [ U J w.G.G.G.G.G.G.G.G.G.3 .           ",
"      + . z.z.z.z.z.Z.Z.Z.D.D.D.D.D.D.D.D.c.e.D a j V G D A [ U J w.G.@.@.@.@.@.G.G.G.3 .           ",
"      + . z.z.z.z.z.b.b.b.Z.D.D.D.D.D.D.D.e.e u a J x e e e [ U J w.G.. . . . . G.G.G.3 .           ",
"      + . z.z.z.z.z.' o.b.Z.D.D.D.D.D.D.^ Z e g b J x e e e | Y J w 3 . .   . . G.G.G.3 .           ",
"      + . z.z.z.z.z.a ' b.Z.D.D.D.D.D.D.e e e x J J x e e e | T J : . . +   + . G.G.G.3 .           ",
"      + . . 4 z.z.z.a a a 1.b.D.D.D.D.D.e e e x J J x e e e | T J : .       + . G.G.G.3 .           ",
"        + . 4 z.z.z.a j j 1.b.D.D.D.D.D.e e e x J J x e e e | T J : .       + . G.G.G.3 .           ",
"          . 4 z.z.z.a j J 4.b.D.D.D.D.D.e e e x J J x e e e | T J : .       + . G.G.G.3 .           ",
"          . # 4 &.z.a j J 4.b.N.V.D.V.N.e e e x J J x e e e | T J : .       + . G.G.G.3 .           ",
"          . . . #.z.a j J 4.b.b.N.D.N.b.e e e x J J x e e e | T J : .       + . G.G.G.3 .           ",
"              . . . d j J t e b.b.b.' a e e e x J J x e e e | T J : .       + . G.G.G.3 .           ",
"              + . . a j J t e b.b.b.' a e e e x J J x e e e | T J : .       + . G.G.G.3 .           ",
"                + . a j J i e b.b.b.' a e e e x J J x e e e | T J : .       + . G.G.G.3 .           ",
"                + . d j J t e b.p.' V b e e e x J J x e e e | T J : .       + . G.G.G.3 .           ",
"                + . d j J t e b.,.a b J e e e x J J x e e e | T J : .       + . G.G.G.3 .           ",
"                + . a j J i e b.4.J J J e e e x J J x e e e | T J : .       + . G.G.G.3 .           ",
"                + . a j J t e b.4.J J J e e e x J J x e e e | T J : .       + . G.G.G.3 .           ",
"                + . d j J t e b.4.J J J e e e x J J x e e e | T J : .       + . G.G.G.3 .           ",
"                + . a j J t e ~ A J J J e e e x J J x e e e | T J : .       + . G.G.G.3 .           ",
"                + . a j J i e e t J J J e e e x J J x e e e | T J : .       + . G.G.G.3 .           ",
"                + . a a a r e e t J J J e e e x J J x e e e | T J : . . +   + . G.G.G.3 .           ",
"                + . d a a r e e t J J J e e e x J J x e e e | T J w 3 . .   . . G.G.G.3 .           ",
"                + . a a a r e e t J J J e e e x J J x e e e | T J w.G.. . . . . G.G.G.3 .           ",
"                + . ;.! a a u u d J J J x x x M J J K G G G | X.w.k.G.@.@.@.@.@.G.G.G.3 .           ",
"                + . g.;.a d d a j J J J J J J J J J P | | | | 2.G.G.G.G.G.G.G.G.G.G.G.3 .           ",
"                + . g.g.g.Q a a a a b J J J J J J J P | | | G.G.G.G.G.G.G.G.G.G.G.G.G.3 .           ",
"                + . g.g.g./ W a a a b b b M J J J J P | +.2.G.G.G.*.@.@.@.@.@.@.@.@.@.& .           ",
"                + . g.g.g.g.g.a a a a a a j J J J J P | d.G.G.G.G.3 . . . . . . . . . . .           ",
"                + . g.g.g.g.g.;.;.;.;.;.:.:.q.q.q.w.p.d.M.G.G.G.G.3 .                               ",
"                + . g.g.g.g.g.g.g.g.g.g.h.h.h.h.h.G.G.G.G.G.G.G.G.3 .                               ",
"                + . . . . . . . . . . . . . . . . . . . . . . . . . .                               ",
"                  + + + + + + + + + + + + + + + + + + + + + + + + + +                               ",
"                                                                                                    ",
"                                                                                                    ",
"                                                                                                    "
};
