/* XPM */
static char *beer[] = {
/* columns rows colors chars-per-pixel */
"65 70 199 2 ",
"   c #1E1E1B",
".  c #221E1D",
"X  c #221D15",
"o  c #1F211B",
"O  c #22211C",
"+  c #34291A",
"@  c #231F21",
"#  c #272822",
"$  c #383C28",
"%  c #3D3B3C",
"&  c #2E3523",
"*  c #493B1A",
"=  c #4C3E22",
"-  c #374126",
";  c #394326",
":  c #3B4429",
">  c #3D4929",
",  c #3B4726",
"<  c #3F4139",
"1  c #754C1E",
"2  c #7A4F1E",
"3  c #79501F",
"4  c #4D4120",
"5  c #404A28",
"6  c #514121",
"7  c #495A2C",
"8  c #47572C",
"9  c #58592C",
"0  c #414738",
"q  c #4F583E",
"w  c #754C21",
"e  c #7A4F22",
"r  c #724B28",
"t  c #7C5322",
"y  c #74512D",
"u  c #715033",
"i  c #665524",
"p  c #5D7B2E",
"a  c #566E30",
"s  c #5C7635",
"d  c #54602A",
"f  c #6F7530",
"g  c #454444",
"h  c #494749",
"j  c #4B494A",
"k  c #785E47",
"l  c #596643",
"z  c #6F6F70",
"x  c #686668",
"c  c #845A1D",
"v  c #9E7316",
"b  c #8A601C",
"n  c #A27615",
"m  c #87643D",
"M  c #956F2C",
"N  c #A67B2C",
"B  c #A97F2A",
"V  c #A87B22",
"C  c #A07336",
"Z  c #A0743A",
"A  c #8B6344",
"S  c #8A6446",
"D  c #907153",
"F  c #8B7050",
"G  c #8E7D6F",
"H  c #688C2F",
"J  c #65872E",
"K  c #6C922F",
"L  c #6E9A29",
"P  c #678A30",
"I  c #6A8D31",
"U  c #6F9631",
"Y  c #769C36",
"T  c #79A13C",
"R  c #7CA341",
"E  c #7F8278",
"W  c #BF910E",
"Q  c #AF8212",
"!  c #AC801C",
"~  c #B08112",
"^  c #BE9114",
"/  c #A9802A",
"(  c #A1882E",
")  c #B5892A",
"_  c #BE932D",
"`  c #BD9D2D",
"'  c #A58932",
"]  c #A78D36",
"[  c #CE9B02",
"{  c #C1910C",
"}  c #C99709",
"|  c #CD9D0E",
" . c #D19F07",
".. c #D19F08",
"X. c #C18F10",
"o. c #C19210",
"O. c #D4A209",
"+. c #D9A70E",
"@. c #D0A007",
"#. c #DBA910",
"$. c #D5A718",
"%. c #CEA109",
"&. c #E0AE16",
"*. c #E3B117",
"=. c #E3B219",
"-. c #E9B61E",
";. c #C1942F",
":. c #C69F2B",
">. c #C19430",
",. c #DCAD22",
"<. c #D5A627",
"1. c #D7A535",
"2. c #D8A638",
"3. c #C8A32C",
"4. c #EAB927",
"5. c #F1BE26",
"6. c #E9BB39",
"7. c #E2B638",
"8. c #F5C32C",
"9. c #FACA2E",
"0. c #F8C52D",
"q. c #FDCB32",
"w. c #F1C33A",
"e. c #F6C93B",
"r. c #FACB3D",
"t. c #F4C436",
"y. c #EFC438",
"u. c #85814E",
"i. c #B19549",
"p. c #B29953",
"a. c #8AA94C",
"s. c #A4866B",
"d. c #A49779",
"f. c #A6986D",
"g. c #9BB572",
"h. c #9FB77A",
"j. c #92B167",
"k. c #ACAD7C",
"l. c #DAB544",
"z. c #DBBC5B",
"x. c #CCB55D",
"c. c #E6BA43",
"v. c #C3AA6B",
"b. c #F6CB42",
"n. c #EEC94F",
"m. c #898785",
"M. c #97948D",
"N. c #949595",
"B. c #959599",
"V. c #98979B",
"C. c #9A9A9C",
"Z. c #999796",
"A. c #928D90",
"S. c #A89C86",
"D. c #B49B8A",
"F. c #9FB182",
"G. c #ADA280",
"H. c #A5B987",
"J. c #BCA492",
"K. c #B4A291",
"L. c #BAA38E",
"P. c #A19FA4",
"I. c #A3A3A3",
"U. c #A9AAAB",
"Y. c #AEB0B1",
"T. c #BCBDBD",
"R. c #B5B5B5",
"E. c #C1AA97",
"W. c #C2A998",
"Q. c #C1BCB8",
"!. c #BEC0BF",
"~. c #C6C887",
"^. c #DACCA4",
"/. c #C8CFBE",
"(. c #BEBFC0",
"). c #C0BFC0",
"_. c #BFC0C1",
"`. c #C2C3C4",
"'. c #C5C6C8",
"]. c #C7C8C9",
"[. c #CACACC",
"{. c #D2D1CC",
"}. c #CECED0",
"|. c #D2D3D4",
" X c #DBDCDD",
".X c #D7D7D7",
"XX c #CDD3C9",
"oX c #DBE3CB",
"OX c #EDE6DE",
"+X c #FBF4CD",
"@X c #DDDEE0",
"#X c #DFE0E2",
"$X c #E3E3E4",
"%X c #EBEBEB",
"&X c #EBEAE7",
"*X c #F3F3F3",
"=X c #FDFEFD",
"-X c #F9F8F6",
";X c #F2F0EE",
/* pixels */
"L L L L L L L L L L L L L L L L L L L L L L L L L L L L L L L L L L L L L L L L L L L L L L L L L L L L L L L L L L L L L L L L L ",
"L L L L L L L L L L L L L L L L L L L L L L L L L L L L L L L L L L L L L L L L L L L L L L L L L L L L L L L L L L L L L L L L L ",
"L L L L L L L L L L L L L L L L L L L L L L L L L L L L L L L L L L L L L L L L L L L L L L L L L L L L L L L L L L L L L L L L L ",
"L L L L L L L L L L L L L L L L L L L L L L L L L L L L L L L L L L L L L L L L L L L L L L L L L L L L L L L L L L L L L L L L L ",
"L L L L L L L L L L L L L L L L L L L L L L L L L L L L L L L L L L L L L L L L L L L L L L L L L L L L L L L L L L L L L L L L L ",
"L L L L L L L L L L L L L L L L L L L L L L L L L L L L L L L L L L L L L L L L L L L L L L L L L L L L L L L L L L L L L L L L L ",
"L L L L L L L L L L L L L L L L L L L L L L L L L L L L L L L L L L L L L L L L L L L L L L L L L L L L L L L L L L L L L L L L L ",
"L L L L L L L L L L L L L L L L L L L L L L L L L L L L L L L L L L L L L L L L L L L L L L L L L L L L L L L L L L L L L L L L L ",
"L L L L L L L L L L L L L L L L L L L L L L L L L L L L L L L L L L L L L L L L L L L L L L L L L L L L L L L L L L L L L L L L L ",
"L L L L L L L L L L L L L L L L L L L L L L L L p p p p p p p J L L L L L L L L L L L L L L L L L L L L L L L L L L L L L L L L L ",
"L L L L L L L L L L L L L L L L L L L L L L L I . @ @ .   . # > L L L L L L L L L L L L L L L L L L L L L L L L L L L L L L L L L ",
"L L L L L L L L L L L L L L L L L p - - - - - q '.R.U.U.P.V.C.E - ; - - - , U L L L L L L L L L L L L L L L L L L L L L L L L L L ",
"L L L L L L L L L L L L L H P H P s j h h h h x =X&X X X}.'.].P.< % % % % < I I P L L L L L L L L L L L L L L L L L L L L L L L L ",
"L L L L L L L L L L L L H         m.=X=X=X=X=X=X=X=X=X=X-X*X*X$X`.!.!.!._.T.#   o I L L L L L L L L L L L L L L L L L L L L L L L ",
"L L L L L L L L L L L L I o z I.P.].*X*X-X=X=X=X=X=X=X=X-X*X*X%X$X|.].!.!._.I.P.I.l a L L L L L L L L L L L L L L L L L L L L L L ",
"L L L L L L L L L L L L I O P.-X-X*X%X*X-X=X=X=X=X=X=X=X-X*X*X*X=X X}.T._._.*X-X;Xg : L L L L L L L L L L L L L L L L L L L L L L ",
"L L L L L L L L L L L L K O x C.V.C.B.;X;X|.*X=X*X*X*X;X*X*X;X%X@X_._._.#X=XV.s.u + 5 L L L L L L L L L L L L L L L L L L L L L L ",
"L L L L L L L L L L L L I O F v.k.k.B.'.}.}.#X%X$X#X$X X@X$X X|.[._._._._.[.B.M.F $ > L L L L L L L L L L L L L L L L L L L L L L ",
"L L L L L L L L L L L L I . ' q.9.x.M.N.U.|.|.|.|.}.|._.].|._.(._._._.|.R.B.B.!.oX< : L L L L L L L L L L L L L L L L L L L L L L ",
"L L L L L L L L L L L L I O ' 9.9.r.n.S.Y.-X X|.|.%X-X*X@X_.}.}._.#X*X=X_.B.Z.L.n.4 > L L L L L L L L L L L L L L L L L L L L L L ",
"L L L L L L L L L L L L H . ' q.8.8.r.G.U. X#X#X#X X X X'.R._._._.#X*X=X`.N.G p.b.4 > U L L L L L L L L L L L L L L L L L L L L L ",
"L L L L L L L L L L L L H O ' 9.[ =.r.d.B.B.#X=X=XT.N.N.N.B.B.I.|.|.|.=X`.N.u B b.6 > L L L L L L L L L L L L L L L L L L L L L L ",
"L L L L L L L L L L L L I O ' 9.[ &.q.` p.N.U.Y.Y.I.M.z.p.k A.B.U._.}.Y.P.M.u / b.= & > : : : : , L L L L L L L L L L L L L L L L ",
"L L L L L L L L L L L L H O ' 9.[ =.e.%.` G.d.d.S.d.f.r._ r d.S.B._._.B.M.d.y / b.9 - $ : $ : : ; K U L L L L L L L L L L L L L L ",
"L L L L L L L L L L L L I O ' 9.[ &.q.%.#.r.$.$.e.,.| q.;.1 7.z.N.B.N.N.i.o.t ( r.a.L L L L L U U & 7 L L L L L L L L L L L L L L ",
"L L L L L L L L L L L L I O ' 9.-.8.9.%.#.q.+.O.q.#.[ q.;.r 6.l.k m.B.N.i.{ t / r.~.H.G.F.H.H.a.L p s 7 K L L L L L L L L L L L L ",
"L L L L L L L L L L L L I O ' q.q.q.q.@.#.q.+...q.&.[ q.;.w 6.1.y s.M.N.i.} 3 / r.^.[.Q.T.Q.|.XXR L p # P U L L L L L L L L L L L ",
"L L L L L L L L L L L L K O ' 9.q.q.9. .#.q.+.O.q.&.[ q.;.w 6.1.y ! ^ i v } t / q.Z A m A D {.|.XXY L U > > L L L L L L L L L L L ",
"L L L L L L L L L L L L H O ' q.q.q.q. .#.q.+.O.q.&.[ q.;.w 6.1.w ~ X.w n } 3 / r.C D L.L.L.D.T.XXa.Y h.0 : L L L L L L L L L L L ",
"L L L L L L L L L L L L H O ' q.q.q.q. .#.q.+.O.q.&.[ q.;.w 6.1.w ~ X.w n } 3 / r.C s.=X=X&XS K.{.T j.|.g : L L L L L L L L L L L ",
"L L L L L L L L L L L L H O ' 9.q.q.q. .#.q.+.O.q.&.[ q.;.w 7.1.e ~ W w n } 3 / r.C s.=X=X=XOXJ.D Y g.|.g : L L L L L L L L L L L ",
"L L L L L L L L L L L L K O ' 9.5.0.9. .#.q.+.O.q.&.[ q.;.w 6.1.w ~ ^ w n [ 3 V r.C s.=X=X=X=XJ.S Y g.|.g : L L L L L L L L L L L ",
"L L L L L L L L L L L L I O ( 9.[ =.q. .#.q.+.O.q.&.[ 0.;.w 6.1.w ~ W w n } 2 B r.C s.=X=X=X=XW.m Y g..Xg : L L L L L L L L L L L ",
"L L L L L L L L L L L L I O ' 9. .=.q...#.q.+.O.q.&.[ q.;.w 6.1.1 ~ W w n } 2 B r.C s.=X=X=X=XW.m Y h..Xg - L L L L L L L L L L L ",
"L L L L L L L L L L L L I O ' 0.[ &.q.@.#.q.+.O.q.&.[ q.;.w 6.1.w ~ } 1 n } 2 B r.C s.-X=X=X=XW.m Y H.|.g : L L L L L L L L L L L ",
"L L L L L L L L L L L L I O ' 9. .*.q. .#.q.+.O.q.&.[ q.;.w 6.1.e n { 2 n } t B r.C s.=X=X=X=XE.m Y H.|.g > L L L L L L L L L L L ",
"L L L L L L L L L L L L I O ' 9.[ &.q. .#.q.+.O.q.&. .q.;.w 7.1.w ~ X.1 n } 2 B r.C s.=X=X;XJ.K.K.g. X|.g - L L L L L L L L L L L ",
"L L L L L L L L L L L L I O ' 9.[ &.q. .#.q.+.O.q.&.[ q.;.w 6.1.w Q W w n } 2 B r.C s.-X-X&XS D.|.-X%X|.g ; L L L L L L L L L L L ",
"L L L L L L L L L L L L K O ' 9. .*.9...#.q.+.O.q.&.[ q.;.w 6.1.w Q o.w v } 2 B r.C A A A D Q.Q./.|.|.|.g - L L L L L L L L L L L ",
"L L L L L L L L L L L L I O ' 9.[ *.q...#.q.+...q.&.[ 9.;.w 6.1.w ~ { 1 n } 2 B r.v.D.D.D.J..X}.`.|.R.A.% - L L L L L L L L L L L ",
"L L L L L L L L L L L L I O ' 9.[ &.q. .#.q.+.O.q.&.[ q.;.w 6.1.w ~ { w n } t B r.+X=X=X=X=X=X$X|.|.A.o @ ; L L L L L L L L L L L ",
"L L L L L L L L L L L L I O ' 9.[ *.q...#.q.+.O.q.&.[ q.;.w 6.1.w ~ o.w n } 1 B r.^.[.].[.].].`._.j l I P K L L L L L L L L L L L ",
"L L L L L L L L L L L L I O ' 9.[ *.9...#.q.+.O.q.&.[ q.;.w 7.1.w Q { 1 n } e B r.G.V.B.V.V.V.V.N.8 a L L L L L L L L L L L L L L ",
"L L L L L L L L L L L L I O ' 9.[ &.q...#.q.+.O.q.&.[ q.;.w 6.1.w ~ { 1 n } e B b.4 @ @ @ @ @ @ # U L L L L L L L L L L L L L L L ",
"L L L L L L L L L L L L I O ' 9.[ =.q.@.#.q.+.O.q.&.[ q.;.w 6.1.w ~ { 1 ) 4.3 B b.4 $ p p p p J p L L L L L L L L L L L L L L L L ",
"L L L L L L L L L L L L I o ' 9...=.0.+.&.9.+.O.q.&.[ q.;.w 6.2.w ~ { c ;.t.b ) b.* 5 L L L L L L L L L L L L L L L L L L L L L L ",
"L L L L L L L L L L L L H O ( q.q.-.} 8.q.q.+.@.q.&.[ 9.;.1 6.1.w n O.r.=.[ t.r.r.4 , L L L L L L L L L L L L L L L L L L L L L L ",
"L L L L L L L L L L L L H O ' 9.q.<.n / ) ) ,.-.=.=.-.q.7._ $.<._ <.-.) V v ) <.r.4 , L L L L L L L L L L L L L L L L L L L L L L ",
"L L L L L L L L L L L L K O ( e.r._ 3 3 2 2 2.8.} 4.q.e.e.r.| $.9.y.n.1 e e t / b.6 , L L L L L L L L L L L L L L L L L L L L L L ",
"L L L L L L L L L L L L L L d * r.q.y.y.y.w.M t t t t t t c t t t * * b.y.y.e.] + I L L L L L L L L L L L L L L L L L L L L L L L ",
"L L L L L L L L L L L L L L p 7 ] ] ] ' :.r._ N N B N N B N N N ( t t ] ] ' ' f 7 K L L L L L L L L L L L L L L L L L L L L L L L ",
"L L L L L L L L L L L L L L L L O X . O i b.r.r.r.b.r.r.r.r.r.b.b.r.l.X O X O 7 L L L L L L L L L L L L L L L L L L L L L L L L L ",
"L L L L L L L L L L L L L L L L H H H H f = 6 6 6 4 6 6 6 6 4 6 6 6 9 I P P P K L L L L L L L L L L L L L L L L L L L L L L L L L ",
"L L L L L L L L L L L L L L L L L L L L J ; ; ; : ; - $ ; $ : $ > , 8 L L L L L L L L L L L L L L L L L L L L L L L L L L L L L L ",
"L L L L L L L L L L L L L L L L L L L L L L L L L L L L L L L L L L L L L L L L L L L L L L L L L L L L L L L L L L L L L L L L L ",
"L L L L L L L L L L L L L L L L L L L L L L L L L L L L L L L L L L L L L L L L L L L L L L L L L L L L L L L L L L L L L L L L L ",
"L L L L L L L L L L L L L L L L L L L L L L L L L L L L L L L L L L L L L L L L L L L L L L L L L L L L L L L L L L L L L L L L L ",
"L L L L L L L L L L L L L L L L L L L L L L L L L L L L L L L L L L L L L L L L L L L L L L L L L L L L L L L L L L L L L L L L L ",
"L L L L L L L L L L L L L L L L L L L L L L L L L L L L L L L L L L L L L L L L L L L L L L L L L L L L L L L L L L L L L L L L L ",
"L L L L L L L L L L L L L L L L L L L L L L L L L L L L L L L L L L L L L L L L L L L L L L L L L L L L L L L L L L L L L L L L L ",
"L L L L L L L L L L L L L L L L L L L L L L L L L L L L L L L L L L L L L L L L L L L L L L L L L L L L L L L L L L L L L L L L L ",
"L L L L L L L L L L L L L L L L L L L L L L L L L L L L L L L L L L L L L L L L L L L L L L L L L L L L L L L L L L L L L L L L L ",
"L L L L L L L L L L L L L L L L L L L L L L L L L L L L L L L L L L L L L L L L L L L L L L L L L L L L L L L L L L L L L L L L L ",
"L L L L L L L L L L L L L L L L L L L L L L L L L L L L L L L L L L L L L L L L L L L L L L L L L L L L L L L L L L L L L L L L L ",
"L L L L L L L L L L L L L L L L L L L L L L L L L L L L L L L L L L L L L L L L L L L L L L L L L L L L L L L L L L L L L L L L L ",
"L L L L L L L L L L L L L L L L L L L L L L L L L L L L L L L L L L L L L L L L L L L L L L L L L L L L L L L L L L L L L L L L L ",
"L L L L L L L L L L L L L L L L L L L L L L L L L L L L L L L L L L L L L L L L L L L L L L L L L L L L L L L L L L L L L L L L L ",
"L L L L L L L L L L L L L L L L L L L L L L L L L L L L L L L L L L L L L L L L L L L L L L L L L L L L L L L L L L L L L L L L L ",
"L L L L L L L L L L L L L L L L L L L L L L L L L L L L L L L L L L L L L L L L L L L L L L L L L L L L L L L L L L L L L L L L L ",
"L L L L L L L L L L L L L L L L L L L L L L L L L L L L L L L L L L L L L L L L L L L L L L L L L L L L L L L L L L L L L L L L L "
};
