/* XPM */
static char *burp[] = {
/* columns rows colors chars-per-pixel */
"50 31 187 2 ",
"   c #12160E",
".  c #121411",
"X  c #181B16",
"o  c #0A0C0A",
"O  c #19220F",
"+  c #1C2313",
"@  c #1E2812",
"#  c #232C16",
"$  c #272D1D",
"%  c #212718",
"&  c #263412",
"*  c #2C3C15",
"=  c #2C371C",
"-  c #1F2022",
";  c #2C2D2A",
":  c #262826",
">  c #2D3228",
",  c #353B2F",
"<  c #2D2B33",
"1  c #343533",
"2  c #333239",
"3  c #38373F",
"4  c #3C3C3D",
"5  c #373B35",
"6  c #304217",
"7  c #334618",
"8  c #384A1D",
"9  c #374A1A",
"0  c #3E541C",
"q  c #3B442D",
"w  c #3E4537",
"e  c #425B1E",
"r  c #40571C",
"t  c #49661F",
"y  c #4C6A1F",
"u  c #46621E",
"i  c #455927",
"p  c #41433F",
"a  c #464E3A",
"s  c #495A35",
"d  c #465338",
"f  c #4B6624",
"g  c #4E6A24",
"h  c #476022",
"j  c #506E24",
"k  c #516A2C",
"l  c #547323",
"z  c #5A7D26",
"x  c #5C7E28",
"c  c #577826",
"v  c #516535",
"b  c #56653C",
"n  c #5E723E",
"m  c #3C3B44",
"M  c #3D3B4B",
"N  c #454B42",
"B  c #494946",
"V  c #44454D",
"C  c #4A4B4A",
"Z  c #414142",
"A  c #4A5345",
"S  c #475042",
"D  c #454551",
"F  c #4B4959",
"G  c #4F5452",
"H  c #535455",
"J  c #5A5A56",
"K  c #54525B",
"L  c #5A5E57",
"P  c #605F5C",
"I  c #616E4C",
"U  c #62615D",
"Y  c #646C53",
"T  c #565562",
"R  c #5C5D64",
"E  c #5C5A6C",
"W  c #565269",
"Q  c #5D5C74",
"!  c #605F62",
"~  c #5D616B",
"^  c #646363",
"/  c #696B66",
"(  c #64646B",
")  c #6B6B6C",
"_  c #74766C",
"`  c #636274",
"'  c #65637A",
"]  c #706E78",
"[  c #757573",
"{  c #777870",
"}  c #7A7A75",
"|  c #747379",
" . c #7E7D7B",
".. c #78777B",
"X. c #5E8227",
"o. c #5D8028",
"O. c #618627",
"+. c #618628",
"@. c #658C29",
"#. c #679028",
"$. c #6A942A",
"%. c #6E9A29",
"&. c #748359",
"*. c #7F807F",
"=. c #81827C",
"-. c #888C7C",
";. c #8C9578",
":. c #686683",
">. c #6D6B85",
",. c #6A6887",
"<. c #75738B",
"1. c #7D7B83",
"2. c #757395",
"3. c #7B7993",
"4. c #7C7A9B",
"5. c #827E99",
"6. c #817EA3",
"7. c #858581",
"8. c #898985",
"9. c #83828D",
"0. c #8D8D8C",
"q. c #878783",
"w. c #908F8E",
"e. c #8F9088",
"r. c #92928B",
"t. c #838392",
"y. c #8A8998",
"u. c #908D9E",
"i. c #939493",
"p. c #9B9B95",
"a. c #9D9D9A",
"s. c #969595",
"d. c #9FA097",
"f. c #A1A197",
"g. c #A3A39C",
"h. c #8582A6",
"j. c #8683AA",
"k. c #8A86AD",
"l. c #8B88AD",
"z. c #8C8AA7",
"x. c #9B99A4",
"c. c #9E9CA8",
"v. c #8E8CB5",
"b. c #908CB5",
"n. c #9491B6",
"m. c #9996BC",
"M. c #9693BC",
"N. c #A4A4A2",
"B. c #ABACA4",
"V. c #ADADA9",
"C. c #AFB0A5",
"Z. c #B3B3AB",
"A. c #B5B5AB",
"S. c #BCBCB4",
"D. c #BFBFB9",
"F. c #BFC0B3",
"G. c #C2C2B6",
"H. c #C3C3BC",
"J. c #C7C8BC",
"K. c #C9CABE",
"L. c #9C99C3",
"P. c #9E9AC7",
"I. c #A19ECB",
"U. c #A4A1CD",
"Y. c #A9A5D1",
"T. c #C6C7C1",
"R. c #CBCBC3",
"E. c #CECFC8",
"W. c #CFD0C3",
"Q. c #D5D5CB",
"!. c #DBDCCD",
"~. c #D3D3C5",
"^. c #DBDCD2",
"/. c #E4E5D5",
"(. c #E3E3DA",
"). c #E7E8DB",
"_. c #EAEBDB",
"`. c #EFF0DF",
"'. c #ECECE4",
"]. c #EFF1E0",
"[. c #F4F5E4",
"{. c #F7F8E6",
"}. c #F8FAE7",
"|. c #F5F5ED",
" X c #F7F8EE",
".X c #F9F9E9",
"XX c #FDFDF4",
/* pixels */
"%.%.%.%.%.%.%.%.%.%.%.#.%.%.z g t g c z +.@.$.%.%.%.%.$.N h %.%.%.%.%.%.%.%.%.%.%.%.%.%.%.%.%.%.%.%.",
"%.%.%.%.%.%.%.%.%.g q C # r ; N.g.g.d.i.q. .) L B m 1 $ m + * 7 0 w H z $.%.%.%.%.%.%.%.%.%.%.%.%.%.",
"%.%.%.%.%.%.%.%.0 /  XXXT.; B...^ XXXXXXXXXXXXXX(.F ^ H.XX'.(.E.H.8.| 8./ a 9 l %.%.%.%.%.%.%.%.%.%.",
"%.%.%.%.%.%.%.u _ XXXXXXXX XXXg.g.XXXXXXXXXXXXXXXX XS.D XXXXXXXXXXXXXXXXXXXX*.1 > 0 #.%.%.%.%.%.%.%.",
"%.%.%.%.%.%.O.N  XXXXXXX XV w.XXXXXXXXXXXXXXXXXXXXXXR.) XXXXXXXXXXXXXXXXXX XE T |.d.: y %.%.%.%.%.%.",
"%.%.%.%.%.%.= ^.XXXXXXXXXXa.Q. XXXXXXXXXXXXXXXXXXXXXXXXXXX|.'. XXXXXXXXXXXXXV.K.H.i.*.  o.%.%.%.%.%.",
"%.%.%.%.%.l { E.p.q.w.Q.XXXX|.(.(. XXXXXXX'.S.V.).XXT.=.J P L C / '.(.p.=. .f.=.A._._.d.# z q I v f ",
"%.%.%.%.$.= =.A./.[._.p.B.'.P f.r.} { XXXXU S.J.} N.4 Z.[.{..X.XW.^ _ ).[./.} }.}..X}.}.F.Q i..X{.Y ",
"%.%.%.c &.). X}.}.}.}.}.d.( s..X}.{.{ XXXXr.}.}.q.2 g.{.{.{.}..X{.Q.e.}.}.}.{.}.[.{.}.}..Xx.B.}./.t ",
"%.%.$.-.}.{..X}././.}..X!.m x..X{.{.d.H. Xr.}.}./.>.B..X{.r.g.}.{.{.{ }.}.}.{.{.K ) }.}..Xf.S.{.C.#.",
"%.%.z ) }.}..X{.=.p.{.}.A.M c.}.}.}.{.p.=.!.}..X.Xu.B.{.}.B.f.{.}.}.D ).}.}.}.}.s.G.{.}..Xp.!.{.;.%.",
"%.%.l >.[..X}.{.}.}.}.g.Z D u.}.}.}.{.}.}.}.}..X.Xa.B.{.}.}.{..X{.S.3.B.}.}.}.}.{.{./._.}.f.{.}.&.%.",
"%.%.g l.B.{.{.`.}.}..X/..X/.g.Q.}.}.}.}..X}..X}.}.g.A.}.}.}.}.~.J 5.I.i.}.}.}.}..X{.{.).[. .{.{.n %.",
"%.%.o.4.t.{..X]._.}..X.X{..X}.J.}.}.}.}.}.}.}.}.}.A.S.}.}.}.{._.K 4.I.t.}.}.}.g./.{.{._.9.0.}.].g %.",
"%.%.%.( z.!.{.{.}.}.}.}.}.}.}.~.[.}.}.}.}.}.}.}.}.C.K.{.{./.{.}.g.' I.5.[.}..X5.2.<.R D l.Z.[.G.X.%.",
"%.%.%.v P.a.{.{.}..X! B.}.}.}.^./.}.}..X}.!.}.}.}.=.!..X/./ }.}.}.0.I.b.K.}.{.K.b.>.8.H R   i h %.%.",
"%.%.%.X.2.t.{.}.}.}.F.W..X.X.XF.{.}.}.}..X_._.}._.K _.}.K.<./.}.[.).y.I.V. X{.{.U D.XX0.Z 8.v %.%.%.",
"%.%.%.%.L k.W.{.}.}.}.}..X.X].] N.{.}.}.}.{.{.[.) ' A.F.} L.r.K.B.p.K U.x..X{.{.g.Z.Q.` a./.b %.%.%.",
"%.%.%.%.h L.d.}..X}..X.X.X/.K n.n.9.K.{.[.).Z.z.,.I.b.m.< v.h.m.I.:.H Y.5.r.9.3.m Q.|.T + q #.%.%.%.",
"%.%.%.%.X.,.3.[.}.}..XQ.N.4.V 2.U.I.k.5.3.4.I.,.F 4.k.4.a.E h.2.,...V.h.2.I.I.,.D.XXXXp O $.%.%.%.%.",
"%.c A #.%.A M.<.9.9.3.j.L.E R.i.>.Y.U.I.I.I.' Z.^.H.V.g. XB.Z.E.^.XX'.m K ~ ) p.XXXX} o z %.%.%.%.%.",
"%.o.s %.%.c :.v.L.M.6.' | (.XXXXR...E Q `  .(.XXXXXXXXXXXXXXXXXXXXXXXX XXXXXXXXX(.} . ` d %.%.%.%.%.",
"%.%.%.o.$.%.X.u i 0 : T.XXXXXXXXXXXXXXXXXXXXXXXXXXXXXXXXXXXXXXXXXXXXXXXXXXXXXXR.T @ X.l z %.%.%.%.%.",
"v A o.: @.%.%.%.%.%.X.6 p *.F. XXXXXXXXXXXXXXXXXXXXXXXXXXXXXXXXXXXXXXXXXXX'.q.2 h.l %.@.#.%.%.%.%.%.",
"V G $.%.z ~ N %.%.%.%.%.#.u * 1 XXXXF p.XXd.7.V.R...X e. XXXXXXXXXXX'.V.~ O 6 f 0 %.X.Q S %.%.%.%.%.",
"X.j d %.f k.E $.%.%.%.%.%.%.t H XXXXw.T.B @ i 7 & 7 X.r = , 5 Z 5 : O * t #.%.%.%.%.$.s k %.%.%.%.%.",
"%.g W #.$.f o.%.%.%.%.%.%.%.& S.XXXXT.> i : #.%.%.%.%.%.%.%.%.$.$.%.%.%.%.%.%.%.%.%.%.%.%.%.%.%.%.%.",
"%.%.o.%.%.%.%.%.%.%.%.%.%.j B XX Xq.@ X.%.o.%.%.%.%.%.%.%.%.%.%.%.%.%.%.%.%.%.%.%.%.%.%.%.%.%.%.%.%.",
"%.%.%.%.%.%.%.%.%.%.%.%.#.+ Q.T.5 6 $.%.%.%.%.%.%.%.%.%.%.%.%.%.%.%.%.%.%.%.%.%.%.%.%.%.%.%.%.%.%.%.",
"%.%.%.%.%.%.%.%.%.%.%.%.* C H @ c %.%.%.%.%.%.%.%.%.%.%.%.%.%.%.%.%.%.%.%.%.%.%.%.%.%.%.%.%.%.%.%.%.",
"%.%.%.%.%.%.%.%.%.%.%.e   * l %.%.%.%.%.%.%.%.%.%.%.%.%.%.%.%.%.%.%.%.%.%.%.%.%.%.%.%.%.%.%.%.%.%.%."
};
