/* XPM */
static char *bush[] = {
/* columns rows colors chars-per-pixel */
"70 60 147 2 ",
"   c #020402",
".  c #030A04",
"X  c #0A0D06",
"o  c #050F08",
"O  c #031206",
"+  c #0C1206",
"@  c #031807",
"#  c #061509",
"$  c #0E1608",
"%  c #051D0B",
"&  c #081E0C",
"*  c #101707",
"=  c #101807",
"-  c #101609",
";  c #121B0A",
":  c #06240D",
">  c #09240E",
",  c #07290F",
"<  c #092C0F",
"1  c #14220C",
"2  c #1A240D",
"3  c #1C2A0E",
"4  c #092510",
"5  c #072910",
"6  c #092C11",
"7  c #1F2D10",
"8  c #0A3413",
"9  c #0B3C16",
"0  c #0C3E18",
"q  c #113614",
"w  c #1D3113",
"e  c #193F17",
"r  c #103B1A",
"t  c #183F19",
"y  c #212E10",
"u  c #233111",
"i  c #273812",
"p  c #0C4117",
"a  c #0D4B17",
"s  c #0D4519",
"d  c #0D4A1A",
"f  c #10441A",
"g  c #1C4719",
"h  c #114B1D",
"j  c #1B4F1E",
"k  c #0F531D",
"l  c #0E5A1E",
"z  c #10541E",
"x  c #11591F",
"c  c #324616",
"v  c #354B19",
"b  c #3B541A",
"n  c #3E5B1B",
"m  c #134A20",
"M  c #0F5620",
"N  c #0F5B20",
"B  c #135521",
"V  c #125D22",
"C  c #0F6221",
"Z  c #126222",
"A  c #146B26",
"S  c #1B652A",
"D  c #166F28",
"F  c #196E2A",
"G  c #147127",
"H  c #157329",
"J  c #1A762D",
"K  c #177B2B",
"L  c #197D2E",
"P  c #1D7631",
"I  c #1B7E31",
"U  c #326721",
"Y  c #2F772C",
"T  c #357E2A",
"R  c #207533",
"E  c #207B32",
"W  c #405B1C",
"Q  c #46631D",
"!  c #4A671E",
"~  c #4B6A1E",
"^  c #496620",
"/  c #4C6D21",
"(  c #506E22",
")  c #477125",
"_  c #527223",
"`  c #557922",
"'  c #5A7E24",
"]  c #16842D",
"[  c #19822E",
"{  c #168A2F",
"}  c #18892F",
"|  c #1B8431",
" . c #178A30",
".. c #1A8C32",
"X. c #179032",
"o. c #1C9435",
"O. c #1C9936",
"+. c #1D9438",
"@. c #1E9D39",
"#. c #258033",
"$. c #218838",
"%. c #338933",
"&. c #209837",
"*. c #22953A",
"=. c #28963B",
"-. c #219C3A",
";. c #1CA537",
":. c #1EA239",
">. c #1EAC3D",
",. c #1EB13F",
"<. c #22A33C",
"1. c #20B13F",
"2. c #5D8325",
"3. c #608725",
"4. c #628B27",
"5. c #648D28",
"6. c #688E2C",
"7. c #6A952A",
"8. c #6E9A29",
"9. c #6D9631",
"0. c #1FB341",
"q. c #1FB943",
"w. c #28A546",
"e. c #23AE41",
"r. c #22B343",
"t. c #22B944",
"y. c #27BC49",
"u. c #2ABC4C",
"i. c #23C247",
"p. c #24C549",
"a. c #2DC34F",
"s. c #24C849",
"d. c #28CB4D",
"f. c #25D14D",
"g. c #28D14F",
"h. c #28CD51",
"j. c #26D750",
"k. c #29D551",
"l. c #2BDD55",
"z. c #2FDF59",
"x. c #33DB59",
"c. c #27E154",
"v. c #2BE456",
"b. c #29EA57",
"n. c #2DE458",
"m. c #2BEA59",
"M. c #31E35B",
/* pixels */
"8.8.8.8.8.8.8.8.8.8.8.8.8.8.8.8.8.8.8.8.8.8.8.8.8.8.8.8.8.8.8.8.8.8.8.8.8.8.8.8.8.8.8.8.8.8.8.8.8.8.8.8.8.8.8.8.8.8.8.8.8.8.8.8.8.8.8.8.8.8.",
"8.8.8.8.8.8.8.8.8.8.8.8.8.8.8.8.8.8.8.8.8.8.8.8.8.8.8.8.8.8.8.8.8.8.8.8.8.8.8.8.8.8.8.8.8.8.8.8.8.8.8.8.8.8.8.8.8.8.8.8.8.8.8.8.8.8.8.8.8.8.",
"8.8.8.8.8.8.8.8.8.8.8.8.8.8.8.8.8.8.8.8.8.8.8.8.8.8.8.8.8.8.8.8.8.8.8.8.8.8.8.7.8.8.8.8.8.8.8.8.8.8.8.8.8.8.8.8.8.8.8.8.8.8.8.8.8.8.8.8.8.8.",
"8.8.8.8.8.8.8.8.8.8.8.8.8.8.8.8.8.8.8.8.8.8.8.8.8.8.8.8.8.8.8.8.8.8.8.8.8.8.8.8.b 2 2 4.8.8.8.8.8.8.8.8.8.8.8.8.8.8.8.8.8.8.8.8.8.8.8.8.8.8.",
"8.8.8.8.8.8.8.8.8.8.8.8.8.8.8.8.8.8.8.8.8.( ~ ~ ~ / ` 8.8.8.8.8.8.8.8.8.8.2./ / %.| #.) ~ ~ ~ ~ _ 8.8.8.8.8.8.8.8.8.8.8.8.8.8.8.8.8.8.8.8.8.",
"8.8.8.8.8.8.8.8.8.8.8.8.8.8.8.8.8.8.8.8.8.< # @ @ . 2 8.8.8.8.8.8.9.8.8.8.v   o i.v.m.9 @ @ @ @ > 8.8.8.8.8.8.8.8.8.8.8.8.8.8.8.8.8.8.8.8.8.",
"8.8.8.8.8.8.8.8.8.8.8.8.8.8.8.8.b # $ $ e z.v.l.l.m   - - - - $ ; $ $ - - X 4 L [ o.<.k.v.l.v.v.x.e $ $ - v 8.8.8.8.8.8.8.8.8.8.8.8.8.8.8.8.",
"8.8.8.8.8.8.8.8.8.8.8.8.8.2.W n Y I I | o.v.f.i.i.V &     4 I I I | I V     # f x G o.1.t.i.s.f.b.o.L I # 7 W 8.8.8.8.8.8.8.8.8.8.8.8.8.8.8.",
"8.8.8.8.8.8.8.8.8.8.8.8.8.W . . @.b.m.m.m.n.t.@.<.V r     f m.m.m.m.m.r.        q B I [ ..<.<.1.b.b.b.m.4 . . 8.8.8.8.8.8.8.8.8.8.8.8.8.8.8.",
"8.8.8.8.8.8.8.8.8.8.8.8.1 =.M.M.n.c.] { { ] C d d #     w.k.;.:.:.;.;...s s q     , Z C A [ o.O.@.l.b.b.M.u.E : X 2 8.8.8.8.8.8.8.8.8.8.8.8.",
"8.8.8.8.8.8.8.8.8._ ( ` E i.m.q.t.r...[ [ [ B s s m B B <.t.K K H H Z m 5 > 4 5 4 9 Z V Z G o.X.] >.t.t.v.j.r.z f j _ 5.8.8.8.8.8.8.8.8.8.8.",
"8.8.8.8.8.8.8.7.7.@ + 8 n.v.l.] ] [ O...[ ] V d d [ @.@.-...s d d p # . # . # s s d Z V Z x ..[ A K L [ k.b.v.X.[ L # ! 8.8.8.8.8.8.8.8.8.8.",
"8.8.8.8.8.8.8.^ 7 x.v.v.m.1.} [ ..O.O...K Z Z V Z k d d V Z Z V m .   r z.s   .   % f d d d Z K X.A Z Z } o.<.:.o.L O * 2 2 Q 8.8.8.8.8.8.8.",
"8.8.8.8.8.8./ T ..b.b.c.t.O.[ ..o.o...H V z V V z d d d k z k s s B J -.m.@.J B B h 4 9 s s x H o.[ L ] } } [ o.o.*.V x B B U ^ ^ 5.8.8.8.8.",
"8.8.8.8.8.8.+ ..v.v.v.l.[ [ } O.+.X.] B 9 9 z B s s s s s s f : 9 :.f.v.v.m.h.@.:.I . 9 s s x H +.o.+.+.O.[ C L } @.:.:.:.:.A O   ^ 8.8.8.8.",
"8.8.8.8./ $   Z :.{ } } O.o.O.O.K Z Z d p d : .     # s %     J @.@.Z z C k d a X.| s s d s d k C C A C o.O.o.A G [ @.-.:.:.@.o.O X i 8.8.8.",
"8.8.8.8.! . f L @.| ....O.X...A B d h 8 & 4 o & E 6 X 4 o . 4 B K ] Z z Z B z z A V 4 4 4 4 4 8 k 9 f z J [ O.A A A L X.:.:.:.@.V 8 2 8.8.8.",
"8.8.8.8.! O L o.:.[ ..O.+...K 9 9 9 0 & . . . 9 m.B . . . # s f h V Z V Z V V Z m 8 . . . .   & f : < s C H O.A C Z Z L <.@.@.:.:.V 2 8.8.8.",
"8.8.8.8.! O L [ [ [ ..o.A d p 9 p 8   =.n.n.z.v.m.n.n.n.M.u.. . O s s a d d a s # B n.v.x.M.8     @ % % $.O.O.o.o.&.A Z Z Z K :.:.-.*.1 ` 8.",
"8.8.8.8.! O L D Z H K K k p 9 p 6 :   -.c.s.s.s.s.p.p.s.l.j.I V h 4 p s s s p >   k m.y.t.t...I E > O O B Z Z K } o.K A Z Z H o.o.o...o ( 8.",
"8.8.8.8.! O L x d V V B p 9 9 9 #   O -.l.;.@.@.:.@.:.:.d.m.m.>.J O 9 s d s 8   o B m.X.[ ] k.c.n.s o   @ # % z G o.O.[ C x G L [ [ L o ( 8.",
"8.8.8.8.~ . f a s d 9 9 9 s r     # *.:.e.@.:.@.[ [ [ [ O.O. .o.O.o.6 # d #     I X.@.@.O.O... .{ k.*.    o # : 9 A o.o.o.A C A o...J O ( 8.",
"8.8.8.8.! . s p 9 9 9 8 p 8 :   0 S @.O.+.X.X.X...X.X...] K G [ ..O.V t , f z B ..+.......L [ [ [ r...h . # 8 % 9 C L } &.Z x Z K L L . ( 8.",
"8.8.8.8.~ . s 9 8 8 8 8 s :   O A @.@...] I [ | +.o.o.+.H N V K | O. .S   P O.o.+...L | H N K [ [ L [ I # & f : 8 C x L o.Z Z Z Z G L . _ 8.",
"8.8.8.8.~ . s 9 8 8 9 9 d : # -.@.O.A V Z Z C Z Z C Z Z Z Z V Z D O.| Z   P  .s d d a Z C Z V Z C C l a s s s p a a d k A V V Z Z H J o _ 8.",
"8.8.8.8.! . s p 9 9 9 9 s 8 8 L [ L C V V Z Z Z Z Z Z Z Z V Z Z Z K H Z 8 F Z 5 p d M N V M M M d d s 9 9 9 9 9 9 9 s d k k l Z Z Z A o _ 8.",
"8.8.8.8.! . f s s s 9 8 s s d N Z V V Z V Z V C V V V Z V Z V Z Z V Z Z Z V h   9 d N C B s s p 8 8 8 < 8 8 8 8 8 8 f s s s z V Z Z B . _ 8.",
"8.8.8.8.!     < s s 9 8 d s d s d d s d d s d s d d s d N Z Z Z Z Z Z Z Z k s s 8 8 9 8 8 8 8 8 8 : % % % % % % > 8 8 8 8 8 s Z Z Z Z . _ 8.",
"8.8.8.8.3.Q X > d s 8 5 8 8 8 8 9 9 9 9 p 0 9 9 9 9 9 9 a N Z V Z Z x k B d s s 8 8 9 8 6 9 9 8 , % , < 8 8 8 % < 9 8 8 8 9 s z k d g ~ 5.8.",
"8.8.8.8.8.8.X < s s 6 % : % % % 5 8 8 8 8 8 8 6 6 6 < 6 9 d Z V V V a s s s s s 9 8 9 8 9 9 9 8 # % < 9 s d a % < s 9 8 8 a s s s 5 2 8.8.8.",
"8.8.8.8._ ;   < s 8 , : N 8 % % 8 s s s s s 8 6 8 9 9 9 8 8 a N x p 9 9 < : : % % : 8 8 8 9 8 8 6 8 8 9 s s s : , 8 s s s s a s s 6 2 8.8.8.",
"8.8.8.8.!   < 8 9 5 : : V s 8 8 p s d 8 5 5 % : 9 9 8 9 8 8 p d d 8 9 8 < % % , , 5 9 0 p p 8 8 8 8 8 9 9 9 9 % , 8 9 9 9 9 p s 6 n ' 8.8.8.",
"8.8.8.8.^ . 0 9 8 % % < V z p f s s s %   # . o r 9 6 8 < 8 9 9 9 < < < < : : < < 8 s s s s 8 8 8 8 8 8 6 8 8 % 5 8 8 8 8 6 9 s   ~ 8.8.8.8.",
"8.8.8.w     % % % # 8 s f d 9 .         8 x.B       X 8 8 8 < : % % % % < < < < s f a s s d s s s 9 8 8 8 8 8 % % % 8 8 6 .       ~ 8.8.8.8.",
"8.8.8.2 # 4 , , 6 8 9 s s 8 8 R P P P P | d.I B R 6   & 8 8 < < : : < < < 8 8 @ : 4 4 4 8 s s s 9 8 8 9 9 9 9 6 5 % 9 6 #   y b b 3.8.8.8.8.",
"8.8.8.2 4 s 8 9 9 s s s f : < v.m.m.b.m.l.:.:.,.m.B .   8 f < < < < 9 9 < p 8   . . o O : d d p 8 8 9 9 p p p 9 6 % p 6     b 8.8.8.8.8.8.8.",
"8.8.8.2 4 d s s s s d p .   # } s.m.b.i.:.:.:.,.m.-.S     O < < < < p 8 .       I r.l.v.d.-.d 9 9 s s d s s s s 8 % s s m   b 8.8.8.8.8.8.8.",
"8.8.8.2 5 s 9 9 8 s s s f f d | O.e.i.0.:.:.:.:.r.o.J h # o 9 9 9 < < &   S J x r.f.m.r.+.H d s s 6 5 4 , < < s 9 8 s s s   b 8.8.8.8.8.8.8.",
"8.8.8.2 < p 8 : % s s k [ ] ] L D A @.@.@.@.@.o.L [ L [ 9 % d d p < & # O t.k.-.j.c.v.H k 9 0 9 s o   O # o   r s d s s s   b 8.8.8.8.8.8.8.",
"8.8.8.2 < s 8 , % 9 s a L ] L A N Z C k l o.K A Z K [ [ L L L z 9   e.h.&.:.o.A A C d p 9 p s 8     0 O.j.+.    8 V d s h   o 7 8.8.8.8.8.8.",
"8.8.8.2 : 9 9 , % 6 9 d H A k d k M z 9 4 h B V L L [ [ [ [ L x p 8 i.v.p.| A Z k d 9 s s 0 6 &   J @.p.i.&.f . 5 k M B M 5 # + 8.8.8.8.8.8.",
"8.8.8.2 % 8 9 5 % % 8 d B s 8 8 0 s f &     6 z *.} L [ L [ [ x z C s.v.m.D k V s 9 9 s f f o   O d.v.b.>.o.| @ & s V V V d < + 8.8.8.8.8.8.",
"8.8.8.2 % 8 8 8 6 s s s 8 8 8 s & .           . . 8 d Z z z [ o.&.o.&.o.] A N 9 9 0 s #       0 &.:.O.] @.<.<.%   . B Z Z Z 9 + 8.8.8.8.8.8.",
"8.8.8.2 , 9 9 8 8 s s 9 < 8 9 , o o P P P P P S   8 d z a f x A A ] K K H Z N p p s s s h m B F @.@.} G [ } -.z 6   V V Z V 9 . W 3.8.8.8.8.",
"8.8.8.2 > s a 9 9 9 8 6 % 8 9   . 4 m.v.v.b.m.a.  8 p s s s 8 8 9 V V Z V Z B d s d s H ..:.:.@.o.O.[ C Z L @.} x O x x V V 9     ! 7.8.8.8.",
"8.8.8.2   . s 9 8 9 9 6 % 8 s   m I  .O.,.b.>.K   . @ s s p 8 8 8 9 8 9 d a s 9 s s d N A  . .| ] o.O.O.Z Z C O.-.&.z z Z Z 8     ! 8.8.8.8.",
"8.8.8.` c   > 6 8 9 9 8 8 9 d h A [ [ [ | >...K s f f s s s 9 9 8 , , < p p 9 9 9 9 9 0 s M V Z Z G D D z z z L [ L x x V Z 8 X ~ 5.8.8.8.8.",
"8.8.8.8._ 2   : 8 9 9 9 s s h L L [ [ A V Z H I [ L K s d s d 9 8 % % : 9 8 8 8 8 8 8 & % % 9 s f s d d d d a V Z Z Z Z Z V 9 $ 8.8.8.8.8.8.",
"8.8.8.8.8.9.+ % 8 8 8 6 . . O d l Z A V Z V Z A Z Z l d s s f # O 9 9 9 9 s 9 % % % % % : 8 9 9 p s d Z Z Z Z Z V Z Z k d a 4 + 8.8.8.8.8.8.",
"8.8.8.8.8.8.+ , 9 9 9 9 5 O o s B N k k k k N Z V Z V s f 9 < o O s s s p s p 6 < , , , < 8 9 8 6 8 9 z k h 9 z z z k k s a 6 + 8.8.8.8.8.8.",
"8.8.8.8.8.8.X < s s s s s & . s B V s 0 9 s B V Z Z x s s 9     # s s s d s s 9 8 8 8 8 8 8 8 < % # < d s 8 # s s a s s s p 4 $ 8.8.8.8.8.8.",
"8.8.8.8.8.8.+   . s 4           8 s s s 9 p p p s p 9 d #             # s s s s 9 9 9 9 9 9 9 9 0 : % % % % % p s s s s s .   + 8.8.8.8.8.8.",
"8.8.8.8.8.8.Q y . > O - W W W   # 4 d s p p 9 9 a 9 9 : . 2 W W W W ; . 4 5 4 > 9 9 p p p s p 8 : O o o . o o : > > > > < n W Q 8.8.8.8.8.8.",
"8.8.8.8.8.8.8.Q - * * i 7.8.9.; . . s s a s p 9 9 9 9 $ - v 8.8.8.8.c - $ $ $   9 s s s p p s 8   - * * * * = = ; ; ; ; 2 7.8.8.8.8.8.8.8.8.",
"8.8.8.8.8.8.8.8.8.8.8.8.8.8.8.8.c     .     . .     7 8.9.8.8.8.8.8.8.8.8.8.5.    .   . . . .   $ 9.8.8.8.8.8.8.8.8.8.8.8.8.8.8.8.8.8.8.8.8.",
"8.8.8.8.8.8.8.8.8.8.8.8.8.8.8.8.2./ / / / / ( ~ / / ` 8.8.8.8.8.8.8.8.8.8.8.8./ / / / / ( ( ~ ( ( 8.8.8.8.8.8.8.8.8.8.8.8.8.8.8.8.8.8.8.8.8.",
"8.8.8.8.8.8.8.8.8.8.8.8.8.8.8.8.8.8.8.8.8.8.8.8.8.8.8.8.8.8.8.8.8.8.8.8.8.8.8.8.8.8.8.8.8.8.8.8.8.8.8.8.8.8.8.8.8.8.8.8.8.8.8.8.8.8.8.8.8.8.",
"8.8.8.8.8.8.8.8.8.8.8.8.8.8.8.8.8.8.8.8.8.8.8.8.8.8.8.8.8.8.8.8.8.8.8.8.8.8.8.8.8.8.8.8.8.8.8.8.8.8.8.8.8.8.8.8.8.8.8.8.8.8.8.8.8.8.8.8.8.8.",
"8.8.8.8.8.8.8.8.8.8.8.8.8.8.8.8.8.8.8.8.8.8.8.8.8.8.8.8.8.8.8.8.8.8.8.8.8.8.8.8.8.8.8.8.8.8.8.8.8.8.8.8.8.8.8.8.8.8.8.8.8.8.8.8.8.8.8.8.8.8.",
"8.8.8.8.8.8.8.8.8.8.8.8.8.8.8.8.8.8.8.8.8.8.8.8.8.8.8.8.8.8.8.8.8.8.8.8.8.8.8.8.8.8.8.8.8.8.8.8.8.8.8.8.8.8.8.8.8.8.8.8.8.8.8.8.8.8.8.8.8.8."
};
