/* XPM */
static char *char_1_left[] = {
/* columns rows colors chars-per-pixel */
"37 70 233 2 ",
"   c #040304",
".  c #0A0304",
"X  c #090D05",
"o  c #02030B",
"O  c #0B0A0B",
"+  c #070A06",
"@  c #140404",
"#  c #130709",
"$  c #120C0B",
"%  c #1C0B0C",
"&  c #130705",
"*  c #0C1306",
"=  c #0D1509",
"-  c #121A07",
";  c #12140C",
":  c #19110C",
">  c #131B0B",
",  c #101606",
"<  c #0C0B13",
"1  c #060717",
"2  c #150C12",
"3  c #131314",
"4  c #1C1B1C",
"5  c #181516",
"6  c #270D0D",
"7  c #33100F",
"8  c #211A13",
"9  c #261D17",
"0  c #341415",
"q  c #2D0E10",
"w  c #1D2A0C",
"e  c #182409",
"r  c #1D2812",
"t  c #252618",
"y  c #273613",
"u  c #2F3114",
"i  c #0C0F2B",
"p  c #070A26",
"a  c #181A25",
"s  c #0A0E35",
"d  c #0D1136",
"f  c #12163E",
"g  c #291B20",
"h  c #222123",
"j  c #2A2A27",
"k  c #2A2A2B",
"l  c #262726",
"z  c #342A27",
"x  c #2E3A23",
"c  c #38322B",
"v  c #333433",
"b  c #3C3C3D",
"n  c #393838",
"m  c #2E3134",
"M  c #441A1B",
"N  c #482223",
"B  c #582629",
"V  c #443B37",
"C  c #50322F",
"Z  c #69282C",
"A  c #683636",
"S  c #7A3536",
"D  c #6D2E30",
"F  c #2F4313",
"G  c #354B17",
"H  c #3C551B",
"J  c #3D581B",
"K  c #3B5117",
"L  c #364627",
"P  c #3E403E",
"I  c #415C1B",
"U  c #45611C",
"Y  c #4B6A1E",
"T  c #51741F",
"R  c #455C25",
"E  c #41413E",
"W  c #4B423A",
"Q  c #57493D",
"!  c #555834",
"~  c #4D6D20",
"^  c #4B6727",
"/  c #517221",
"(  c #5B7B26",
")  c #576939",
"_  c #597430",
"`  c #79433E",
"'  c #121642",
"]  c #151A4C",
"[  c #161A4A",
"{  c #161C53",
"}  c #181E58",
"|  c #0E1443",
" . c #192152",
".. c #2D3257",
"X. c #1A236C",
"o. c #192467",
"O. c #162473",
"+. c #192372",
"@. c #1A257C",
"#. c #1A2979",
"$. c #253175",
"%. c #414142",
"&. c #4B4744",
"*. c #584B43",
"=. c #5C534A",
"-. c #575658",
";. c #454B50",
":. c #654A45",
">. c #67574B",
",. c #715C4C",
"<. c #6A5D53",
"1. c #75554D",
"2. c #776657",
"3. c #6E6A4D",
"4. c #796764",
"5. c #7D7569",
"6. c #727272",
"7. c #8D3E3E",
"8. c #873C3C",
"9. c #953B3B",
"0. c #9A3B3A",
"q. c #A23D3D",
"w. c #874A3D",
"e. c #A4403F",
"r. c #B43E40",
"t. c #984948",
"y. c #AA4546",
"u. c #B14949",
"i. c #BB4746",
"p. c #AA5554",
"a. c #866A5C",
"s. c #8E715F",
"d. c #91715F",
"f. c #8D536F",
"g. c #8C7163",
"h. c #85776A",
"j. c #927866",
"k. c #837469",
"l. c #A76364",
"z. c #BA6967",
"x. c #B25F64",
"c. c #CD4746",
"v. c #CC4846",
"b. c #C44B4A",
"n. c #CA4A4A",
"m. c #C74847",
"M. c #CD5252",
"N. c #CB5B5A",
"B. c #CA5959",
"V. c #CB4F50",
"C. c #CD6967",
"Z. c #CC6969",
"A. c #CE6462",
"S. c #D16565",
"D. c #C56C70",
"F. c #5C8224",
"G. c #628B26",
"H. c #628829",
"J. c #6C952B",
"K. c #6E9A29",
"L. c #689227",
"P. c #779937",
"I. c #6E9431",
"U. c #79A034",
"Y. c #688840",
"T. c #81A439",
"R. c #91A749",
"E. c #ABA755",
"W. c #9D836C",
"Q. c #988676",
"!. c #8A8075",
"~. c #A4897A",
"^. c #AC9576",
"/. c #B79779",
"(. c #ABA770",
"). c #BCC471",
"_. c #1B2984",
"`. c #1C2985",
"'. c #1E338F",
"]. c #23329C",
"[. c #233493",
"{. c #24328C",
"}. c #2435A5",
"|. c #2435AA",
" X c #223CA9",
".X c #1F38AA",
"XX c #284995",
"oX c #2649AC",
"OX c #2749B1",
"+X c #345DB8",
"@X c #2B54B1",
"#X c #356BBC",
"$X c #336BBB",
"%X c #416EB9",
"&X c #3A73C1",
"*X c #396AC1",
"=X c #9F7480",
"-X c #A57B86",
";X c #9D8F83",
":X c #91918F",
">X c #A78D86",
",X c #A49286",
"<X c #A89287",
"1X c #B49A88",
"2X c #B69D90",
"3X c #B7A595",
"4X c #B7A38C",
"5X c #C3A688",
"6X c #D9B38D",
"7X c #C8B29C",
"8X c #D7B594",
"9X c #C8AE96",
"0X c #E3BD98",
"qX c #C4B3A1",
"wX c #CCBAA6",
"eX c #D3BDA4",
"rX c #D2B9A9",
"tX c #CBBDB0",
"yX c #DCC0A3",
"uX c #D8C9B5",
"iX c #F6CDA6",
"pX c #FDD2A6",
"aX c #FCD3AB",
"sX c #E2CEB6",
"dX c #F6D9B6",
"fX c #EACDAC",
"gX c #EFD2AE",
"hX c #BBC8D2",
"jX c #E5D7C2",
"kX c #F6DEC3",
"lX c #F9E5C8",
"zX c #F7E9D6",
"xX c #DFD7C5",
/* pixels */
"K.K.K.K.K.K.K.K.K.K.K.K.K.K.K.K.K.K.K.K.K.K.K.K.K.K.K.K.K.K.K.K.K.K.K.K.K.",
"K.K.K.K.K.K.K.K.K.K.K.K.K.K.K.K.K.K.K.K.K.K.K.K.K.K.K.K.K.K.K.K.K.K.K.K.K.",
"K.K.K.K.K.K.K.K.K.K.K.K.K.K.F.T ~ ~ ~ ~ ~ ~ ~ / J.K.K.K.K.K.K.K.K.K.K.K.K.",
"K.K.K.K.K.K.K.K.K.K.K.K.K.J.* O $ $ O = $ $ X 3 H.K.J.K.K.K.K.K.K.K.K.K.K.",
"K.K.K.K.K.K.K.K.K.K.K.K.T -   k.qXqXqXwXqXqXwX3XL > w L.K.K.K.K.K.K.K.K.K.",
"K.K.K.K.K.K.K.K.K.K.K./ y 2 h.3XyXyXwX3X!.3XyXuX&.l l R G.K.K.K.K.K.K.K.K.",
"K.K.K.K.K.K.K.K.K.K.K.- # V lXsXyXwXqX,XL ;XqXqX<.V ..: J K.K.K.K.K.K.K.K.",
"K.K.K.K.K.K.K.K.K.K.K.- !.kXlXlXkXyXW     m W W %.b x j t w J.K.K.K.K.K.K.",
"K.K.K.K.K.K.K.K.K.K.K.= Q.zXlXlXkXrX=.h   m W E E P n k a + J.K.K.K.K.K.K.",
"K.K.K.K.K.K.K.K.K.K.K.= !.xXsXsXsX8X2.v   k ..V E E E m 4 + I.K.K.K.K.K.K.",
"K.K.K.K.K.K.K.K.K.K.J.- o   . . 8 1X<.v     X k b E P m j k = ~ K.K.K.K.K.",
"K.K.K.K.K.K.K.K.K.K.K.G.F a :Xn X V P &.<.<.*.3 k n P P v k O U K.K.K.K.K.",
"K.K.K.K.K.K.K.K.K.K.K.J.H a hX;.+ h n >.5X5Xj.  h c P b n k o J K.K.K.K.K.",
"K.K.K.K.K.K.K.K.K.K.K.w o     + l zX,Xj.lXlX3X  h m %.m k k + J K.K.K.K.K.",
"K.K.K.K.K.K.K.K.K.K.J.= &.!.,X,X2XzXuX3X=.*.V   h k v k k k + J K.K.K.K.K.",
"K.K.K.K.K.K.K.K.K.K.K., <.3XkXdXjXlXzXtX9 O   + h j k k k k + J K.K.K.K.K.",
"K.K.K.K.K.K.K.K.K.K.K.-   9 rX3X2XrXeXrX>Xj O k k k l k k k X J K.K.K.K.K.",
"K.K.K.K.K.K.K.K.K.K.K.F.G 5 f.=X>X2X2X2X>Xz O k k k k k h < ' m G G F.K.K.",
"K.K.K.K.K.K.K.K.K.K.K.J.H 2 f.=X>X>X>X>X>Xz O k k k k h a p  . .<   U K.K.",
"K.K.K.K.K.K.K.K.K.K.K.>   5 >X>X>X>X>X~.g.9 O k k k k = i o.;.%.E X U K.K.",
"K.K.K.K.K.K.K.K.K.K.J.= W 4.>X>X>X<Xj.j.g.9 O k l h = ) ) p n b v + I K.K.",
"K.K.K.K.K.K.K.K.K.K.J.= &.5.>XQ.>X>Xj.a.>.4 O k h h x Y._   m n k   J K.K.",
"K.K.K.K.K.K.K.K.K.K.K.e o % g.g.d.g.d.<..   O k X L Y.I._ + h k k   I K.K.",
"K.K.K.K.K.K.K.K.K.K.K.J.H : g.s.d.d.d.g.k.h   O 1 3 L L ! Y.t 4 k + U K.K.",
"K.K.K.K.K.K.K.K.K.K.K.K.^ $ g.s.g.g.d.g.2.g # M M M 0 2 L I.J v 4   G G.K.",
"K.K.K.K.K.K.K.K.K.K.K.K.U : g.g.g.d.g.<.  . 7 i.b.u.t.q L P.Y.H.X X X e K.",
"K.K.K.K.K.K.K.K.K.K.K.K.U : g.s.g.g.C 5   :.p.n.c.m.7.S ` w.x ^ J.L.J.L.K.",
"K.K.K.K.K.K.K.K.K.K.K.K.U X *.:.=.:.5 # N p.A.M.c.e.0.7.0.8.6 H K.K.K.K.K.",
"K.K.K.K.K.K.K.K.K.K.K.K.U . . . . .   0 D.Z.Z.S.V.m.0.0.0.7.6 H K.K.K.L.K.",
"K.K.K.K.K.K.K.K.K.K.K.R 1.p.e.e.9.S S 8.Z.C.Z.C.n.m.i.0.9.7.6 I K.K.T.U.K.",
"K.K.K.K.K.K.K.K.G.F.( C t.A.n.c.m.0.9.q.Z.Z.Z.Z.V.c.v.S B B : I K.K.E.E.U.",
"K.K.K.K.K.K.K.K.w % q z.Z.S.n.v.i.0.7.t.Z.Z.Z.S.V.c.b.7 . . + I K.K.T.R.U.",
"K.K.K.K.K.K.( x l.x.x.Z.B.V.m.r.q.9.M M Z.p.y.n.v.c.m.7 u W.W.3.F K.K.K.K.",
"K.K.K.K.K.L.! Z x.N.N.N.i.r.r.r.9.9.B N :.Z Z S S S D 6 c /.^.W.W ( L.K.K.",
"K.K.K.K.K.u D b.n.n.n.n.y.7.7.8.8.9.9.D @ @ # # # # & X C /./././.8 U K.K.",
"K.K.K.K.K.w B 0.r.0.0.0.9.8.q 6 7 9.0.9.S S B . 2.<XyXyXyXiXpX0X/.6 U K.K.",
"K.K.K.K.K.t 0 B N B B B B N < g Z y.e.e.0.9.S M *.a.8XdXdXpXpX0X/.8 U K.K.",
"K.K.K.K.K.> O 3 < # 2 % 6 % % Z 0.m.v.m.0.0.9.8.q z ;XxXkXpXpX0X/.9 I K.K.",
"K.K.K.K.K.e =.1X2 B 8.r.u.i.u.i.m.c.c.i.0.9.0.9.8.B # 5 :.aXpXpXpX^.3.y P.",
"K.K.K.L.~ <.1.2.A t.p.N.N.M.N.N.M.c.c.m.y.0.0.9.9.8.M # j h.0XpXpX~.>.: E.",
"K.K.K.T t 9X,.6 l.z.z.z.z.z.Z.Z.S.v.v.v.n.q.q.0.9.9.t.% . : 6XiXaXj.W : P.",
"K.K.J a.0X8X,.O & & & & & 7 z.D.Z.A.M.v.v.n.i.0.9.9.8.6 z ^.fXaXaX/.,.- J.",
"K.K.w 2.dX,.c 5 5.!.!.h.g.a.A A ` N.V.n.c.c.i.0.9.S N 4.Q.6XdXgX8X,.V - J.",
"K.K.w a.jX9 $ 4 xXlXlXlXdX8X: O 6 y.u.u.u.y.y.0.9.D & wXkXfXlXfX<X9 $ - K.",
"K.K.y 5.zX7X<.X # j.aXaXaXiX6XW # @ @ @ @ @ 7 9.7.A . wX4X: uXlXaX1X,.- K.",
"K.K.G.3.2.=.z 3 V ~.aXaXpXiX6XW.2.2.2.2.2.,.1.N M 0 . =.Q X 1X8X6X/.,.- J.",
"K.K.K.F.w e > 5 <.2XfXpXaXiX6X6X6X5X5X5X5X5XQ.&         + 8 W.^.~.^.3.F K.",
"K.K.K.K.K.I.~ 5 4.a.a.8X6X6X6X6X1X. . . o .             &.lX5X2.& $ I K.K.",
"K.K.K.K.K.K.Y + j z c *.*.Q Q Q W o i | | | ' f | | | ' ..<.Q _ F.( J.K.K.",
"K.K.K.K.K.K.Y     1 1 1 1 1 1 1 1 p } @.@._.@.@.@.@.O.X.]   w T K.K.K.K.K.",
"K.K.K.K.K.K.( =   { {.+.o.o.X.X.O.[.}..X}.}.|.|.}.[.O.O.] + I.K.K.K.K.K.K.",
"K.K.K.K.K.K.K.F.= i ] `.@.o.d X.[.+X+X+X+XoX|.|.|.].O.X.] + J.K.K.K.K.K.K.",
"K.K.K.K.K.K.K.U.: 1 | #.X.{ p _.oX&X$X*X*XOX|.|.}.{.O.+.]   J.K.K.K.K.K.K.",
"K.K.K.K.K.K.T.E.: } $.1 o p {.+X&X&XOX.X|.|.|.|.`.O.O.+.[ - J.K.K.K.K.K.K.",
"K.K.K.K.K.K.U.).^.-.d o ' $.+X#X*XOX|.|.|.[.`.`.O.O.+.| L G.K.K.K.K.K.K.K.",
"K.K.K.K.K.K.K.T.(.! + p #.oX&X#X+X].}.].].`.X.} } } { L F.K.K.K.K.K.K.K.K.",
"K.K.K.K.K.K.K.K.5 o 1 [.$X#X&X@X].+.+.O.@.X.{ o   1 3 J.K.K.K.K.K.K.K.K.K.",
"K.K.~ G G G G L  .XXXX+X@XoXoX[._.+.+.+.+.s 1 1 f | 3 J.K.K.K.K.K.K.K.K.K.",
"K.K.w X 5 4 a s XX$X#X#XOX}.]._.+.+.X.o.{ i p s } } a H.K.K.K.K.K.K.K.K.K.",
"K.K.w k -.-...X.%X&X&X X|.].@.+.+.X.X.{ 1 ] o.X.O.O.o.a ~ K.K.K.K.K.K.K.K.",
"K.K.w 4 n -.m s {.XXoX_.@._.+.+.o.p i i < { X.+.O.O.o.i t U K.K.K.K.K.K.K.",
"K.K.w < h ;.l < ' +.'.#.} { ] { ' o O 1 < ' { [ { { { a < > K.K.K.K.K.K.K.",
"K.K.F X   k k l o f X.X.d o o + O > > 3 < 1 < 1 O 1 1 l h = K.K.K.K.K.K.K.",
"K.K.L.^   3 4 k h 3 p 1 o w F.L.L.L.J.F.= O 1 O O 4 ;.m h ; J.K.K.K.K.K.K.",
"K.K.K.F.H = 4 k k 4 O   y T K.K.K.K.K.F.+ < 3 k h m -.v a 3 K.K.K.K.K.K.K.",
"K.K.K.K.K.e 3 k k k l * F.K.K.K.K.K.T X O O l 6.-.-.-.v h ; J.K.K.K.K.K.K.",
"K.K.K.K.K.w O 3 l 5 w L.K.K.K.K.K.K.U + + O 3 a a a 4 3 < > J.K.K.K.K.K.K.",
"K.K.K.K.K.T y 1 r 1 e K.K.K.K.K.K.K.G.I J J H H H H H H J ~ K.K.K.K.K.K.K.",
"K.K.K.K.K.K.~ * * X F K.K.K.K.K.K.K.K.K.K.K.K.K.K.K.K.K.K.K.K.K.K.K.K.K.K.",
"K.K.K.K.K.K.K.J.J.J.L.K.K.K.K.K.K.K.K.K.K.K.K.K.K.K.K.K.K.K.K.K.K.K.K.K.K."
};
