/* XPM */
static char *char_2_left[] = {
/* columns rows colors chars-per-pixel */
"34 70 232 2 ",
"   c #040304",
".  c #0A0403",
"X  c #060A04",
"o  c #0A0906",
"O  c #05050A",
"+  c #0A0609",
"@  c #0B0A0B",
"#  c #070A0C",
"$  c #15060D",
"%  c #130B0A",
"&  c #1B0A09",
"*  c #180607",
"=  c #0D1407",
"-  c #14120D",
";  c #131A0B",
":  c #19140D",
">  c #07091D",
",  c #090A1C",
"<  c #070715",
"1  c #140912",
"2  c #151415",
"3  c #1B1B1B",
"4  c #181816",
"5  c #280B0B",
"6  c #290E12",
"7  c #241817",
"8  c #361818",
"9  c #211D0C",
"0  c #1A250C",
"q  c #1D290D",
"w  c #17230B",
"e  c #1D2711",
"r  c #1E300C",
"t  c #28221C",
"y  c #36251D",
"u  c #243111",
"i  c #2A3C12",
"p  c #273911",
"a  c #20310E",
"s  c #070922",
"d  c #090A23",
"f  c #090C2C",
"g  c #0D102D",
"h  c #181926",
"j  c #0E133C",
"k  c #0D1134",
"l  c #121939",
"z  c #060A32",
"x  c #201E38",
"c  c #1B262D",
"v  c #242424",
"b  c #292523",
"n  c #292926",
"m  c #2A2A2A",
"M  c #262729",
"N  c #352D28",
"B  c #3A322B",
"V  c #322F31",
"C  c #353535",
"Z  c #3D3D3D",
"A  c #3B3732",
"S  c #2F2E30",
"D  c #4B1C1C",
"F  c #52201D",
"G  c #421B20",
"H  c #492523",
"J  c #572826",
"K  c #47372C",
"L  c #473D37",
"P  c #722D2C",
"I  c #6A3434",
"U  c #7C3638",
"Y  c #793738",
"T  c #6A2B2C",
"R  c #2D4112",
"E  c #334916",
"W  c #3C531D",
"Q  c #3E5321",
"!  c #3E4F31",
"~  c #435B1E",
"^  c #43401E",
"/  c #49671E",
"(  c #52751F",
")  c #4B433C",
"_  c #48413B",
"`  c #52463B",
"'  c #455731",
"]  c #4B6A21",
"[  c #537422",
"{  c #567923",
"}  c #54752B",
"|  c #587133",
" . c #606930",
".. c #0E1241",
"X. c #151B49",
"o. c #171E55",
"O. c #0F1558",
"+. c #1A2259",
"@. c #3D3D41",
"#. c #283156",
"$. c #171F60",
"%. c #1B2264",
"&. c #1A236C",
"*. c #192E68",
"=. c #192372",
"-. c #1D2A7D",
";. c #182573",
":. c #1E3E69",
">. c #212974",
",. c #272D72",
"<. c #443D45",
"1. c #6A3752",
"2. c #2C4E7A",
"3. c #414141",
"4. c #494948",
"5. c #574C47",
"6. c #5D524B",
"7. c #535353",
"8. c #474B53",
"9. c #784545",
"0. c #665445",
"q. c #69574A",
"w. c #6B5A4C",
"e. c #6C625B",
"r. c #746254",
"t. c #78675B",
"y. c #73725C",
"u. c #7B7065",
"i. c #5C646B",
"p. c #873838",
"a. c #943C3C",
"s. c #9D3C3B",
"d. c #A43D3D",
"f. c #AA403E",
"g. c #843E41",
"h. c #A33E40",
"j. c #9B4648",
"k. c #915454",
"l. c #A84344",
"z. c #BB4A4B",
"x. c #B84645",
"c. c #B85F5F",
"v. c #A45859",
"b. c #816D5D",
"n. c #8E715E",
"m. c #9C615D",
"M. c #8E7262",
"N. c #867669",
"B. c #937766",
"V. c #8C706C",
"C. c #B36363",
"Z. c #925970",
"A. c #CD4746",
"S. c #CB4946",
"D. c #CA4B4B",
"F. c #C54848",
"G. c #CC5757",
"H. c #C94F4F",
"J. c #CE5F60",
"K. c #CD6969",
"L. c #C86867",
"P. c #D06666",
"I. c #5D8325",
"U. c #5E812B",
"Y. c #638C27",
"T. c #658B2A",
"R. c #618429",
"E. c #6B942A",
"W. c #6E9A29",
"Q. c #628535",
"!. c #75944E",
"~. c #87B33F",
"^. c #97816F",
"/. c #9A8577",
"(. c #8C8175",
"). c #A3876F",
"_. c #A68C76",
"`. c #AB927B",
"'. c #AA9175",
"]. c #B5967A",
"[. c #B89678",
"{. c #B8997A",
"}. c #C39F7C",
"|. c #1C2983",
" X c #1D2C93",
".X c #232D82",
"XX c #253498",
"oX c #253187",
"OX c #2435A3",
"+X c #2435AC",
"@X c #2D55B5",
"#X c #3763B7",
"$X c #3776BC",
"%X c #335C92",
"&X c #3775C1",
"*X c #AC7E87",
"=X c #949290",
"-X c #A58D84",
";X c #A88E88",
":X c #AB9684",
">X c #BEA38A",
",X c #BAA496",
"<X c #BDB09F",
"1X c #BDB1A6",
"2X c #C7A686",
"3X c #C2AE9D",
"4X c #CCAF91",
"5X c #DEB994",
"6X c #D9B493",
"7X c #D7B28D",
"8X c #E2BC96",
"9X c #C9B8A5",
"0X c #D3BDA5",
"qX c #D1BFAA",
"wX c #C8BEB2",
"eX c #B3C590",
"rX c #D7C2A8",
"tX c #C8C0AB",
"yX c #F5CDA5",
"uX c #FDD3A7",
"iX c #FCD3AA",
"pX c #F5D2AA",
"aX c #EAD5BD",
"sX c #F9D8B2",
"dX c #ECC9A5",
"fX c #B1BBC3",
"gX c #EDDBC3",
"hX c #F9DFC2",
"jX c #FCE3C3",
"kX c #FAE9CB",
"lX c #FAEBD0",
"zX c #EDE1D0",
/* pixels */
"W.W.W.W.W.W.W.W.W.W.W.W.Y.{ { { ( ( { { { [ T.W.W.W.W.W.W.W.W.W.W.W.",
"W.W.W.W.W.W.W.W.W.W.W.W.R   + o o . o o o o ] W.W.W.W.W.W.W.W.W.W.W.",
"W.W.W.W.W.W.W.W.W.W.E.a o _ <X3X<X<X<X3X3X<Xy.0 q { W.W.W.W.W.W.W.W.",
"W.W.W.W.W.W.W.W.W.I.~ X w./.0X0X0X0X^.:X0X0XN.3 h Q I.W.W.W.W.W.W.W.",
"W.W.W.W.W.W.W.W.W.i   2 tXaXrX0XqX<XA e.9X9X(._ _ v q W.W.W.W.W.W.W.",
"W.W.W.W.W.W.W.W.W.p ` aXjXjXhXrXN.%   v 4.4.4.@.m m n q I.W.W.W.W.W.",
"W.W.W.W.W.W.W.W.W.p 6.kXjXjXjXrX(.v O 3 3.3._ 3.C C n O ] W.W.W.W.W.",
"W.W.W.W.W.W.W.W.W.p 5.zXgXhXgXrX/.<.O h ! _ <.3.3.C M X ( W.W.W.W.W.",
"W.W.W.W.W.W.W.W.W.i X 2 % % : /.N.L O   o M C 3.3.C M M e R W.W.W.W.",
"W.W.W.W.W.W.W.W.E.!.7.O i.8.. ) 5.L 5.5.5.7 v A @.Z C m 2 0 W.W.W.W.",
"W.W.W.W.W.W.W.W.W.eX=X# fX=X  o v ) _.>X`.: 2 m ! @.@.S 2 e W.W.W.W.",
"W.W.W.W.W.W.W.W.W.E <   < o o wX1Xt.aXhXaX4 2 m <.C m S 2 w W.W.W.W.",
"W.W.W.W.W.W.W.W.W.p 7 e.u.u.N.gXgX,Xu.u.u.% 2 m C S m m 3 w W.W.W.W.",
"W.W.W.W.W.W.W.W.W.p L 9XgXjXgXlXlXzXM +   O 2 m m m m m 2 w W.W.W.W.",
"W.W.W.W.W.W.W.W.W.i   - ,X3X:XqXrXqX-X6.  v M M m m m m 2 w W.E.W.W.",
"W.W.W.W.W.W.W.W.W.{ W o Z.*X;X,X,X,X;X6.  v m m m m v h g x ] ] { W.",
"W.W.W.W.W.W.W.W.W.W.R.. 1.Z.;X;X;X-X-X6.  b m m m n M > l %.,   q W.",
"W.W.W.W.W.W.W.W.W.W = O V.;X;X;X;X;XB.5.  v m m M 2 O +.#.<.e.B q W.",
"W.W.W.W.W.W.W.W.W.i 3 5.-X-X;X;X-XB.B.L   M m M 3 ! | l h 7 ) v e W.",
"W.W.W.W.W.W.W.W.W.p N -X-X-X-X-XB.V.N.L   M n v h Q.~.w + o m 4 e W.",
"W.W.W.W.W.W.W.W.W.p   o r.M.M.M.M.N.&     v 3 = !.!.!.e ; m n 2 q W.",
"W.W.W.W.W.W.W.W.W.R.]   r.n.M.M.n.M.6.V   % - # ' ! ' } Q 2 n 2 q W.",
"W.W.W.W.W.W.W.W.W.W.R.  r.M.M.M.M.M./.5.  $ 5 6 6 1 e W.{ e n 2 w W.",
"W.W.W.W.W.W.W.W.W.W.T.  r.M.M.m.B.b.&   * j.z.z.g.H ; W.W.W.w     = ",
"W.W.W.W.W.W.W.W.W.W.Y.. r.n.n.n.w.B + 8 g.z.A.F.s.P J ~ I.W.I.{ { { ",
"W.W.W.W.W.W.W.W.W.W.Y.. q.t.t.b.L . 1 I K.G.S.A.s.a.p.& ( W.W.W.W.W.",
"W.W.W.W.W.W.W.W.W.W.T.  . . . .   * m.K.K.P.G.F.s.a.j.o [ E.W.W.W.W.",
"W.W.W.W.W.W.W.W.W.{  .9.p.P P J J T c.K.K.K.G.D.f.f.p.& ( W.W.W.W.W.",
"W.W.W.W.W.W.W.E.W.^ I L.H.D.F.s.a.a.L.L.L.P.G.D.A.l.Y & ( W.W.W.W.W.",
"W.W.W.W.W.W./ 0 9 m.L.P.H.S.F.s.a.a.L.P.K.P.G.F.A.P . o ( W.W.W.W.W.",
"W.W.W.W.E./ 0.9.j.C.P.G.A.F.d.s.T D C.c.l.G.H.F.A.P . o ( W.W.W.W.W.",
"W.W.W.W.R.8 z.P.J.J.G.x.F.l.s.a.T 5 k.k.U l.l.l.l.J . o ( W.W.W.W.W.",
"W.W.E./ H z.D.D.A.D.h.h.a.a.a.a.a.9.5 . . & & & * % # o [ W.W.W.W.W.",
"W.W.W.E 8 l.h.h.h.h.h.g.F G G p.a.p.& N r.r.r.r.r.K + o i / W.W.W.W.",
"W.W.W.E 6 Y p.U p.p.U Y 6 1 6 p.s.a.5 ` 2X}.{.[.].0.o + o 0 W.W.W.W.",
"W.W.W.R o 1 1 1 $ $ $ $ 1 G a.z.D.z.5 y.kXpX5X[.{.0.o o   0 W.W.W.W.",
"W.W.W.R b V.t 7 I U p.p.p.s.x.S.A.z.5 t.kXsX8X[.[.q.o     w W.W.W.W.",
"W.W.T.~ ` :XJ J h.H.D.D.D.H.H.S.A.z.6 r.jXiX5X[.[.0.X     0 W.W.W.W.",
"W.E.- _.B.@ m.C.K.K.K.K.K.P.P.F.S.x.5 r.uXuX5X[.].0.+ .   0 W.W.W.W.",
"I. .].2XB.O y H H H H H C.K.K.J.j.F ).7XuXuX5X].].0.% J 8 0 W.W.W.W.",
"E _ sX>Xt.  v N B V N N k.m.v.v.9.y dXyXuXiX6X_.^.` * p.D w W.W.W.W.",
"E ) kXK   X tXlXlXlXjXpX8     . K {.pXiXiXiX2Xr.: . & p.D w W.W.W.W.",
"E ) lX:Xw.# _ N.sXsXiXiX).q.o   L {.yX8X>X0.A b * 8 T p.D 0 W.W.W.W.",
"{ | 9X:Xt.o - 0.iXiXiXiX5X^.N o ` }.yX5X_.B 7 O . 8 P p.F 0 W.W.W.W.",
"W.Y.= o     6._.iXiXuXuX8X6X4Xt 0.iXuX8X].].q..     . U H q W.W.W.W.",
"W.W.I.{ [   6.N.).6X8X8X7X).K r.].uXiX'.B B t o     . 6 % q W.W.W.W.",
"W.W.W.W.U.  L 6.6.^._._.'.b.K ].5XuXiX).t % X # < s > s > v E.W.W.W.",
"W.W.W.W.I.    O O   O . + 0.sXiXiXuXiX8X`.9 O s +.&.&.&.&.+.; I.W.W.",
"W.W.W.W.I.    f %.o.X.X., 0.yXq.n.uXuX5X'.9 g o.&.=.=.=.;.%.< ] W.W.",
"W.W.W.W.E.E ; f >.-.|.;.d ` >Xt 0.dXdX7X'.7 j =.=.&.=.=.;.%.< / W.W.",
"W.W.W.W.W.W.i O f >.+XXXf X . o K [.[.[.'.7 ..=.=.=.=.&.%.+.# { W.W.",
"W.W.W.W.W.W.R , X.j *.#X%X#.- /.>X].K B V #.-.=.=.=.$.z d c T.W.W.W.",
"W.W.W.W.W.W.R , X.l :.$X$X2.@ /.`.N.x k j .X.X=.=.$.X.< q / W.W.W.W.",
"W.W.W.W.W.W.E O > %X$X$X$X2.< @ @ d >.oX%.&.&.&.=.X., @ { W.W.W.W.W.",
"W.W.W.W.W.W.R g ;.#X$X$X@XOX-.-.>.>...f s d d d z , ; T.W.W.W.W.W.W.",
"W.W.W.W.W.W.i j OX#X#X@X@X+X+X+XXX;...s     < d < O 0 W.W.W.W.W.W.W.",
"W.W.W.W.W.W.E l XXOXOXOXOX+X+X+X=.z .Xo.O # j o.f # 0 W.W.W.W.W.W.W.",
"W.W.W.W.W.W.W.Q.#.k O.|.|. X+X+XXX.XOX$.O O k &.o.g e W.W.W.W.W.W.W.",
"W.W.W.W.W.W.W.W.[ ; > X.&.|. XOXOX+X|.X.#   k &.;.j q W.W.W.W.W.W.W.",
"W.W.W.W.W.W.W.W.W.R X O X.&.&.=.>.XXd 2 M O k &.%...p W.W.W.W.W.W.W.",
"W.W.W.W.W.W.W.W.W.W.U.  > > s s d g @.A n O O > d , u W.W.W.W.W.W.W.",
"W.W.W.W.W.W.W.W.W.W.Y.          @ 3 3.@.m O         u W.W.W.W.W.W.W.",
"W.W.W.W.W.W.W.W.W.W.Y.=         n 7.V m M @ O       u W.W.W.W.W.W.W.",
"W.W.W.W.W.W.W.W.W.W.E.E.Q 4   C 4.7.V h 2 O - h v 4 u W.W.W.W.W.W.W.",
"W.W.W.W.W.W.W.W.W.W.W.W.I.W   4.7.4.S 3     - c v 2 a W.W.W.W.W.W.W.",
"W.W.W.W.W.W.W.W.W.W.W.W.W.I.  4.3.m n 3   = = ; 2 ; E W.W.W.W.W.W.W.",
"W.W.W.W.W.W.W.W.W.W.W.W.W.I.X m S m @ O ; Y.E.E.E.E.E.W.W.W.W.W.W.W.",
"W.W.W.W.W.W.W.W.W.W.W.W.W.I.X 3 3 3 X   ; E.W.W.W.W.W.W.W.W.W.W.W.W.",
"W.W.W.W.W.W.W.W.W.W.W.W.W.Y.= X X X X X r W.W.W.W.W.W.W.W.W.W.W.W.W.",
"W.W.W.W.W.W.W.W.W.W.W.W.W.W.W.E.E.E.E.E.E.W.W.W.W.W.W.W.W.W.W.W.W.W."
};
