/* XPM */
static char *char_1[] = {
/* columns rows colors chars-per-pixel */
"37 70 232 2 ",
"   c #040304",
".  c #0A0303",
"X  c #050B04",
"o  c #02030A",
"O  c #0B0A0B",
"+  c #0B0A06",
"@  c #150404",
"#  c #120C0C",
"$  c #1D090C",
"%  c #120808",
"&  c #0C1305",
"*  c #0D150A",
"=  c #13130C",
"-  c #19110C",
";  c #131B0B",
":  c #121A06",
">  c #0C0B14",
",  c #050617",
"<  c #150C12",
"1  c #131314",
"2  c #1C1B1C",
"3  c #171517",
"4  c #260C0D",
"5  c #211A13",
"6  c #281A16",
"7  c #341516",
"8  c #2F0F10",
"9  c #19250B",
"0  c #1D2A0C",
"q  c #162208",
"w  c #1E2616",
"e  c #28360F",
"r  c #24251A",
"t  c #273513",
"y  c #37301B",
"u  c #090B27",
"i  c #181B26",
"p  c #0A0E35",
"a  c #0D1136",
"s  c #11153D",
"d  c #291B20",
"f  c #1F2022",
"g  c #222123",
"h  c #2A2A2B",
"j  c #282826",
"k  c #322A27",
"l  c #372A29",
"z  c #2E3A23",
"x  c #38322B",
"c  c #2F2E34",
"v  c #343433",
"b  c #3B3B3C",
"n  c #393838",
"m  c #2D3534",
"M  c #441A1B",
"N  c #482223",
"B  c #592629",
"V  c #443B36",
"C  c #513230",
"Z  c #69282C",
"A  c #683636",
"S  c #7B3536",
"D  c #6D2E30",
"F  c #344A16",
"G  c #3D551A",
"H  c #3E581A",
"J  c #3A5117",
"K  c #2E4214",
"L  c #364627",
"P  c #3E403F",
"I  c #425C1B",
"U  c #45611C",
"Y  c #4C6C1E",
"T  c #48621C",
"R  c #51731F",
"E  c #41413E",
"W  c #4B433A",
"Q  c #57493D",
"!  c #4F5A2F",
"~  c #4D6D20",
"^  c #4B6626",
"/  c #516F22",
"(  c #517221",
")  c #5A7C25",
"_  c #576939",
"`  c #5A7532",
"'  c #79433D",
"]  c #0E1442",
"[  c #121642",
"{  c #151A4C",
"}  c #161A48",
"|  c #161C53",
" . c #181E58",
".. c #1A2152",
"X. c #303255",
"o. c #1A236C",
"O. c #1A2567",
"+. c #172473",
"@. c #182372",
"#. c #1A257C",
"$. c #1A297A",
"%. c #23306D",
"&. c #424141",
"*. c #4A4745",
"=. c #584B42",
"-. c #5C534A",
";. c #575658",
":. c #654A45",
">. c #66564B",
",. c #725B4B",
"<. c #6A5D53",
"1. c #735D51",
"2. c #764443",
"3. c #6D644A",
"4. c #766657",
"5. c #6F6E4E",
"6. c #776663",
"7. c #7D7569",
"8. c #727273",
"9. c #8C3D3D",
"0. c #863E3E",
"q. c #943B3B",
"w. c #9B3B3B",
"e. c #993937",
"r. c #A43D3D",
"t. c #854F3B",
"y. c #A4403F",
"u. c #A03E40",
"i. c #984948",
"p. c #AA4546",
"a. c #B84746",
"s. c #AA5554",
"d. c #866A5C",
"f. c #8E715F",
"g. c #90715F",
"h. c #8E5370",
"j. c #8C7162",
"k. c #847669",
"l. c #927A68",
"z. c #827169",
"x. c #A86364",
"c. c #BB6867",
"v. c #B25F64",
"b. c #CE4745",
"n. c #CB4846",
"m. c #C54B4A",
"M. c #CA4A4A",
"N. c #C74847",
"B. c #CD5252",
"V. c #CB5B5A",
"C. c #CA5958",
"Z. c #CD6967",
"A. c #CC6969",
"S. c #CE6462",
"D. c #D16565",
"F. c #C56C70",
"G. c #5C8224",
"H. c #638B26",
"J. c #618728",
"K. c #6B952A",
"L. c #6E9A29",
"P. c #689327",
"I. c #779937",
"U. c #6E9234",
"Y. c #79A034",
"T. c #6B8E40",
"R. c #80A439",
"E. c #91A74A",
"W. c #ACA656",
"Q. c #9D836C",
"!. c #988676",
"~. c #8A8074",
"^. c #A4897A",
"/. c #AB9574",
"(. c #B79779",
"). c #ABA770",
"_. c #BCC471",
"`. c #1B2885",
"'. c #1C2984",
"]. c #1F3391",
"[. c #253387",
"{. c #23339C",
"}. c #233392",
"|. c #222F8F",
" X c #2435A5",
".X c #2435AA",
"XX c #223CAA",
"oX c #1F38AA",
"OX c #284995",
"+X c #2649AC",
"@X c #2749B1",
"#X c #345DB8",
"$X c #2C54B1",
"%X c #356BBD",
"&X c #336BBA",
"*X c #426EB8",
"=X c #3973C2",
"-X c #3A6BC2",
";X c #A27883",
":X c #979089",
">X c #A58D85",
",X c #A78E87",
"<X c #A79387",
"1X c #B59B87",
"2X c #B59D90",
"3X c #B8A594",
"4X c #B7A38B",
"5X c #C3A688",
"6X c #D7B38D",
"7X c #C8B29C",
"8X c #D7B594",
"9X c #C8AE95",
"0X c #E3BE97",
"qX c #C4B4A1",
"wX c #CBBBA8",
"eX c #D3BDA4",
"rX c #D2B9A9",
"tX c #DDC0A3",
"yX c #DACAB5",
"uX c #F6CDA6",
"iX c #FDD2A6",
"pX c #FCD3AB",
"aX c #E2CEB6",
"sX c #F6D9B6",
"dX c #E9CBA8",
"fX c #EFD2AE",
"gX c #BBC8D2",
"hX c #E7D7C1",
"jX c #F5DEC3",
"kX c #F9E5C8",
"lX c #F8E9D5",
"zX c #DFD7C5",
/* pixels */
"L.L.L.L.L.L.L.L.L.L.L.L.L.L.L.L.L.L.L.L.L.L.L.L.L.L.L.L.L.L.L.L.L.L.L.L.L.",
"L.L.L.L.L.L.L.L.L.L.L.L.L.L.L.L.L.L.L.L.L.L.L.L.L.L.L.L.L.L.L.L.L.L.L.L.L.",
"L.L.L.L.L.L.L.L.L.L.L.L.K.~ ~ ~ ~ ~ ~ ( ~ Y G.L.L.L.L.L.L.L.L.L.L.L.L.L.L.",
"L.L.L.L.L.L.L.L.L.L.L.L.J.= # # # O * 1 # O & K.L.L.L.L.L.L.L.L.L.L.L.L.L.",
"L.L.L.L.L.L.L.L.L.P.0 q L qXqXqX7XqXqX3XqXk.  * ( L.L.L.L.L.L.L.L.L.L.L.L.",
"L.L.L.L.L.L.L.L.G.^ g r *.eXtX3Xk.7XtXtXtX3Xk.# t ( L.L.L.L.L.L.L.L.L.L.L.",
"L.L.L.L.L.L.L.L.H 1 X.W <.qXqX:Xn <X7XeXtXaXkXV # ; L.L.L.L.L.L.L.L.L.L.L.",
"L.L.L.L.L.L.L.0 w h h b E *.W v     W eXjXkXkXjX!.* L.L.L.L.L.L.L.L.L.L.L.",
"L.L.L.L.L.L.K.X f h n X.W E E m   f -.eXkXkXkXlX!.: L.L.L.L.L.L.L.L.L.L.L.",
"L.L.L.L.L.K.K.& w m E E P P b h   v 4.rXyXaXyXzX~.* K.L.L.L.L.L.L.L.L.L.L.",
"L.L.L.L.L.~ * h h c V &.b h +     v <.<X5   . X o q L.L.L.L.L.L.L.L.L.L.L.",
"L.L.L.L.L.H o h v b &.n h = =.3.3.*.V V O n :Xu F G.L.L.L.L.L.L.L.L.L.L.L.",
"L.L.L.L.L.I + h n b V m f   l.5X4X>.V w O *.gXw G K.L.L.L.L.L.L.L.L.L.L.L.",
"L.L.L.L.L.H . h h m &.x g   9XjXkX~.>XlXj   o   o 0 L.L.L.L.L.L.L.L.L.L.L.",
"L.L.L.L.L.H + h h h v h i   V -.-.3XyXlX3X:X:X~.=.& K.L.L.L.L.L.L.L.L.L.L.",
"L.L.L.L.L.H o h h h h h g X   O 2 wXlXkXhXsXjX3X<.& K.L.L.L.L.L.L.L.L.L.L.",
"L.L.L.L.L.H O h h h j j h h O k >XqXtXwX<X3XrXr   : K.L.L.L.L.L.L.L.L.L.L.",
"L.L.G.F F m [ > g h j m h h + h ,X2X2X2X<X;Xh.4 K J.L.L.L.L.L.L.L.L.L.L.L.",
"L.L.U   = ..O.> i g h h j h O k >X>X>X,X,X;Xh.< G K.L.L.L.L.L.L.L.L.L.L.L.",
"L.L.U O E &.X.%.u O h m h h O r j.^.>X,X,X,X,X3   ; L.L.L.L.L.L.L.L.L.L.L.",
"L.L.I o v b b u _ _ > i h h O g j.l.l.>X,X,X,X6.E * K.L.L.L.L.L.L.L.L.L.L.",
"L.L.I + j v m   ` T.L g g h O 5 1.j.l.>X>X^.>Xz.W & L.L.L.L.L.L.L.L.L.L.L.",
"L.L.I o h h r   ` I.I.z % h O   . 1.g.j.g.j.j.# X 9 L.L.L.L.L.L.L.L.L.L.L.",
"L.L.I o j 1 w U.! z z 3 O O   g z.z.g.g.j.g.j.< H P.L.L.L.L.L.L.L.L.L.L.L.",
"L.H.J   2 z ! U.L # 7 M M M % 6 6.j.j.g.j.g.j.$ U L.L.L.L.L.L.L.L.L.L.L.L.",
"K.q + X X ` U.I.L 4 i.a.m.m.7   . <.j.g.j.f.j.= U L.L.L.L.L.L.L.L.L.L.L.L.",
"L.K.K.K.K.^ z t.' S 9.a.b.n.s.:.  3 V d.j.f.j.$ U L.L.L.L.L.L.L.L.L.L.L.L.",
"L.L.L.L.L.H 4 9.q.e.r.y.M.B.D.s.N @ 2 :.-.:.=.+ U L.L.L.L.L.L.L.L.L.L.L.L.",
"L.L.L.L.L.J $ 9.q.q.w.N.M.D.A.A.F.7 . . . . @ . U L.L.L.L.L.L.L.L.L.L.L.L.",
"L.Y.R.L.L.I 8 t.q.r.a.N.B.A.A.A.Z.0.D S w.r.i.s.,.G L.L.L.L.L.L.L.L.L.L.L.",
"L.W.W.L.L.I @ B B S b.b.M.Z.A.A.A.i.e.e.N.b.N.S.i.C ` G.H.L.L.L.L.L.L.L.L.",
"Y.W.Y.L.L.I . . . 8 m.n.B.Z.D.A.A.i.q.e.a.n.N.D.A.c.7 $ r L.L.L.L.L.L.L.L.",
"L.L.L.P.K 5.Q.Q.k 8 m.b.n.m.y.s.D.M M q.r.p.M.M.C.Z.c.x.x.y G.K.L.L.L.L.L.",
"L.L.P.) Q l.(.(.x 4 D S S S Z Z 2.N B q.e.u.a.a.a.V.V.V.V.Z ! J.L.L.L.L.L.",
"L.L.T 5 /.(.(.(.C   @ % < %   . @ D q.q.9.0.9.q.p.N.N.m.M.m.Z t L.L.L.L.L.",
"L.L.T 5 (.0XuXuX0XtXeX>X6.. A S S q.q.q.7 $ 8 S w.r.w.e.r.y.B t L.L.L.L.L.",
"L.L.U 5 (.0XiXiXsXsX8Xz.=.M S q.w.y.p.p.B 7 < N B B B B B B 7 w L.L.L.L.L.",
"L.L.T 6 (.0XpXpXkXaX^.l 8 9.e.q.w.a.b.b.r.D $ $ $ $ $ > O 1 O 9 L.L.L.L.L.",
"I.e 3./.uXiXiXpX:.1 # A 9.e.w.q.e.a.b.b.N.a.a.a.a.p.9.N $ 1X>.q L.L.L.L.L.",
"W.= :./.pXiXdXj.r % M S q.q.q.r.p.N.b.b.B.C.C.C.V.C.s.i.A 4.,.>.( P.L.L.L.",
"I.- W l.pXiX8X- X 4 i.9.q.e.e.r.b.b.b.M.D.A.A.c.c.c.c.c.x.5 1.9Xr / L.L.L.",
"L.; 4.(.pXpXdX/.x 4 0.q.q.e.a.N.b.b.B.D.A.A.c.8 @ @ @ @ @ O 1.8XdX5.I L.L.",
"L.; C ,.8XdXsX6X!.6.N S q.e.a.b.b.b.B.V.S A A d.k.~.k.k.7.3 x 3.sX4.9 L.L.",
"K.; O 6 <XyXkXdXsXeX@ D q.q.p.a.p.a.p.s.4 O < 8XsXkXlXkXhX2 # 5 hXz.9 L.L.",
"L.: 1.1XuXkXyX= 4XwX+ A q.q.8 @ @ @ @ @ > Q 9XuXpXpXpXl.O O <.9XkX7.t K.L.",
"K.: ,.(.6X8X1X+ *.-.. 7 M M ,.4.1.1.4.4.4.Q.6XiXpXiXpX/.V 1 k >.4.T.H.L.L.",
"L.K 3./././.Q.5 O       o % !.5X5X5X5X5X6X6X6XuXiXuXuX1X<.3 ; q 0 G.L.L.L.",
"L.L.T % @ 4.4XkX*.        o . . + . . @ 1X6X6X6X6X8Xj.6.6.< Y L.K.L.L.L.L.",
"L.L.K.G.G._ Q <.X.s ] s ] s ] ] ] s u o V Q =.Q Q Q l l h O Y L.L.L.L.L.L.",
"L.L.L.L.L.( t   [ o.+.#.#.#.#.'.#.#. .u u , , , , , , ,     Y L.L.L.L.L.L.",
"L.L.L.L.L.L.K.X { @.+.|. X X X.X X X X}.+.o.O.O.O.o.|.| o * G.L.L.L.L.L.L.",
"L.L.L.L.L.L.K.X { @.+.{..X.X.X+X#X#X&X#X}.o.p O.'.|.| u ; G.L.L.L.L.L.L.L.",
"L.L.L.L.L.L.K.X { @.#.|. X.X.XXX-X-X%X=X+X$.p { o.%.{ u = K.L.L.L.L.L.L.L.",
"L.L.L.L.L.L.L.: [ o.@.@.`. X.X.XoXoX@X-X%X#X}.u o , %.| $ W.Y.L.L.L.L.L.L.",
"L.L.L.L.L.L.L.H.L { o.@.#.`.`.{. XoX+X$X%X&X#X$.[ o a ;./._.Y.L.L.L.L.L.L.",
"L.L.L.L.L.L.L.L.) L |  . . .o.`.{.{.{.{.%X%X=X@X#.u o Q ).E.L.L.L.L.L.L.L.",
"L.L.L.L.L.L.L.L.L.P.1 , o o { o.@.+.+.#.{.+X-X=X$XOX> X ; K.L.L.L.L.L.L.L.",
"L.L.L.L.L.L.L.L.L.P.; s s , , s @.+.@.@.'.].+X@X$X&XOX[.%.J F F F F Y L.L.",
"L.L.L.L.L.L.L.L.K.G.s .. .a u p | O.@.@.@.`.{..X+X%X%X&XOXp i 3 1 O 0 L.L.",
"L.L.L.L.L.L.L.L.~ i O.@.+.o.o.} o | @.@.o.@.#.{. XXX=X%X%X+.X.;.;.h 0 L.L.",
"L.L.L.L.L.L.L.T w p o.+.+.o.o.| , u u u  .+.+.$.$.'.+XOX[.p c ;.n 3 9 L.L.",
"L.L.L.L.L.L.K.1 1 i { | ......[ , > O O [ | | {  .+.|.#.{ > h *.g 1 0 L.L.",
"L.L.L.L.L.L.K.* f g > > O , , > > 1 1 ; O X o o s o.o.s o j h h   O K L.L.",
"L.L.L.L.L.L.K.= g m &.i O O > O * G.P.K.P.P.J.9 O , , u w h i 1   U L.L.L.",
"L.L.L.L.L.L.L.1 g v ;.c g h 1 > O G.K.L.L.L.L.R e X > 3 h h 2 * J G.L.L.L.",
"L.L.L.L.L.L.L.; i v ;.;.;.8.f > O + ( L.L.L.L.L.G.& j h h h 1 9 L.L.L.L.L.",
"L.L.L.L.L.L.K.; > 3 2 2 i f 1 O O O U L.L.L.L.L.L.P.0 3 h 1 O 0 L.L.L.L.L.",
"L.L.L.L.L.L.L.~ G G J H H G G G H U G.L.L.L.L.L.L.L.q > 3 > t R L.L.L.L.L.",
"L.L.L.L.L.L.L.L.L.L.L.L.L.L.L.L.L.L.L.L.L.L.L.L.L.L.K & & & Y L.L.L.L.L.L.",
"L.L.L.L.L.L.L.L.L.L.L.L.L.L.L.L.L.L.L.L.L.L.L.L.L.L.P.K.K.K.L.L.L.L.L.L.L."
};
