/* XPM */
static char *char_3_left[] = {
/* columns rows colors chars-per-pixel */
"36 70 236 2 ",
"   c #040404",
".  c #0A0404",
"X  c #060A03",
"o  c #0B0A05",
"O  c #03030A",
"+  c #070A0C",
"@  c #0B0A0C",
"#  c #0B0609",
"$  c #130C0B",
"%  c #1B0A0B",
"&  c #140807",
"*  c #0E1408",
"=  c #14110D",
"-  c #131B0A",
";  c #181509",
":  c #060A15",
">  c #0A0A13",
",  c #090A1A",
"<  c #050617",
"1  c #1C0910",
"2  c #170A10",
"3  c #141313",
"4  c #1C1513",
"5  c #1C1C1C",
"6  c #191817",
"7  c #270B0B",
"8  c #251B19",
"9  c #351717",
"0  c #24110D",
"q  c #17240B",
"w  c #182111",
"e  c #26261A",
"r  c #243312",
"t  c #2C3C13",
"y  c #283614",
"u  c #39261F",
"i  c #0A0C28",
"p  c #0B1226",
"a  c #0A0F35",
"s  c #0E113A",
"d  c #0C1236",
"f  c #12163A",
"g  c #13192A",
"h  c #311E22",
"j  c #232323",
"k  c #2C2523",
"l  c #2A2926",
"z  c #252628",
"x  c #2A2A2A",
"c  c #28282B",
"v  c #332C26",
"b  c #39332D",
"n  c #363129",
"m  c #353634",
"M  c #3C3C3C",
"N  c #3B3634",
"B  c #2D2F31",
"V  c #471B1B",
"C  c #43201B",
"Z  c #462525",
"A  c #552829",
"S  c #433625",
"D  c #413C39",
"F  c #5A3333",
"G  c #583330",
"H  c #752E2E",
"J  c #783637",
"K  c #6D2D2F",
"L  c #2E4116",
"P  c #324516",
"I  c #364C16",
"U  c #364B19",
"Y  c #384D18",
"T  c #3C5519",
"R  c #3E5819",
"E  c #385017",
"W  c #364926",
"Q  c #425C1B",
"!  c #48661D",
"~  c #41413F",
"^  c #48463A",
"/  c #55453A",
"(  c #495129",
")  c #567823",
"_  c #4D6525",
"`  c #617D33",
"'  c #604937",
"]  c #0F1441",
"[  c #0D1549",
"{  c #151B4C",
"}  c #141945",
"|  c #181D53",
" . c #171D59",
".. c #1A235A",
"X. c #1C3556",
"o. c #273051",
"O. c #151E61",
"+. c #1A2362",
"@. c #1B236C",
"#. c #1A2666",
"$. c #192574",
"%. c #1B277B",
"&. c #1A287D",
"*. c #172574",
"=. c #1E317D",
"-. c #272F7F",
";. c #7C3E4F",
":. c #423847",
">. c #2B4264",
",. c #424242",
"<. c #4B4A4A",
"1. c #544B44",
"2. c #5A4C46",
"3. c #575450",
"4. c #624E44",
"5. c #665649",
"6. c #6E5950",
"7. c #766456",
"8. c #776F50",
"9. c #665F6E",
"0. c #786F68",
"q. c #843A3A",
"w. c #853739",
"e. c #933C3C",
"r. c #9A3B3C",
"t. c #A73E3E",
"y. c #8C403D",
"u. c #AB423E",
"i. c #A73E42",
"p. c #8A4140",
"a. c #984848",
"s. c #A84646",
"d. c #B34243",
"f. c #BB4849",
"g. c #A35C5C",
"h. c #B25453",
"j. c #886E59",
"k. c #886E63",
"l. c #8D7262",
"z. c #8A7767",
"x. c #927666",
"c. c #8E7B70",
"v. c #967C70",
"b. c #996B7C",
"n. c #B16869",
"m. c #CE4745",
"M. c #CA4846",
"N. c #C54B4A",
"B. c #CA4A4B",
"V. c #CD4649",
"C. c #CB5959",
"Z. c #D15C5A",
"A. c #C3605D",
"S. c #CE6967",
"D. c #CD6969",
"F. c #C96666",
"G. c #D26565",
"H. c #5C8224",
"J. c #5C8028",
"K. c #658C29",
"L. c #638A26",
"P. c #6A9429",
"I. c #6E9A29",
"U. c #679127",
"Y. c #709B2E",
"T. c #6F9534",
"R. c #6E8C44",
"E. c #7C8372",
"W. c #9A826B",
"Q. c #98887A",
"!. c #A38971",
"~. c #A68A76",
"^. c #B4967B",
"/. c #BD9B7B",
"(. c #B79776",
"). c #A7937F",
"_. c #B3B466",
"`. c #C69B6E",
"'. c #C1A07F",
"]. c #E1BD7A",
"[. c #ADC46A",
"{. c #CBC776",
"}. c #1D2A86",
"|. c #1E2C91",
" X c #1F339A",
".X c #232E84",
"XX c #23348A",
"oX c #24359A",
"OX c #202E96",
"+X c #2533A3",
"@X c #2335AA",
"#X c #233BA8",
"$X c #2F5195",
"%X c #325BB7",
"&X c #2C51AE",
"*X c #3769A8",
"=X c #366BBD",
"-X c #3665B9",
";X c #3A72BC",
":X c #3774BD",
">X c #717D82",
",X c #3772C2",
"<X c #A57B87",
"1X c #998A82",
"2X c #9B9185",
"3X c #A88F86",
"4X c #A68E89",
"5X c #A78C86",
"6X c #A99788",
"7X c #B29683",
"8X c #B59E90",
"9X c #BCAF9D",
"0X c #C09E80",
"qX c #C7AC94",
"wX c #DBBB9B",
"eX c #D8B694",
"rX c #CCAE8E",
"tX c #E1BD97",
"yX c #C8B8A4",
"uX c #D2BDA5",
"iX c #D0BAA7",
"pX c #CFAAA8",
"aX c #ECCB92",
"sX c #D8C2AB",
"dX c #EECAA6",
"fX c #F3CDA5",
"gX c #FBD2A6",
"hX c #FCD3AA",
"jX c #F6D1A9",
"kX c #F5DAB7",
"lX c #E6D1B9",
"zX c #E7E69D",
"xX c #C9D3CE",
"cX c #EEDBC4",
"vX c #FBE4C8",
"bX c #F8EAD5",
/* pixels */
"I.I.I.I.I.I.I.I.I.I.I.I.I.I.I.I.I.I.I.I.I.I.I.I.I.I.I.I.I.I.I.I.I.I.I.I.",
"I.I.I.I.I.I.I.I.I.I.I.I.I.I.R P P I I P P P I Q I.I.I.I.I.I.I.I.I.I.I.I.",
"I.I.I.I.I.I.I.I.I.I.I.I.P.) X l n b b n m v n ^ K.H.U.I.I.I.I.I.I.I.I.I.",
"I.I.I.I.I.I.I.I.I.I.I.I.E   . 6XyXsXsXsXsXsXsX9X-   t I.I.I.I.I.I.I.I.I.",
"I.I.I.I.I.I.I.I.I.I.I.E * N yXiXuXuXuX!./ 9XuXyXM m m L K.I.I.I.I.I.I.I.",
"I.I.I.I.I.I.I.I.I.I.P.o D z.vXlXsXsXQ.3.e Q.6X2X<.M m * ! P.I.I.I.I.I.I.",
"I.I.I.I.I.I.I.I.I.I.U.o 9XvXvXkXlXiX5   O M ,.,.~ m c x 3 I I.I.I.I.I.I.",
"I.I.I.I.I.I.I.I.I.I.U.o 9XvXvXvXkXiX1.j   m ~ ,.~ M M x 3 L I.I.I.I.I.I.",
"I.I.I.I.I.I.I.I.I.I.U.o 0.1XQ.1X6XqX1.l   j x M ~ ~ ~ x 5 y ) I.I.I.I.I.",
"I.I.I.I.I.I.I.I.I.I.P.-     @   b 6X1.x X X 4 l M ~ ~ x x j   H.I.I.I.I.",
"I.I.I.I.I.I.I.I.I.I.Y.xXm M xXc @ = m 6.!.Q.1.o x m ~ ~ m z   H.I.I.I.I.",
"I.I.I.I.I.I.I.I.I.I.P.E.j z >Xg x 0.3.c.wXwX7.  c m ~ m B j   H.I.I.I.I.",
"I.I.I.I.I.I.I.I.I.I.U.X + + o o 3.bXQ.6XcXcX0.  c m ~ x l z   H.I.I.I.I.",
"I.I.I.I.I.I.I.I.I.I.K.o 1XsXcXcXcXbXbX1X$ = o   z x x x l z   ) I.I.I.I.",
"I.I.I.I.I.I.I.I.I.I.U.. D z.lXuXsXlXcX8X1.@ + 6 l x x x x z X J.I.I.I.I.",
"I.I.I.I.I.I.I.I.I.I.P.r o D pX3X8XpXyXqX1X3 3 x x x x x l j : ) P.I.I.I.",
"I.I.I.I.I.I.I.I.I.I.I.I.L 9 ;.<X5X4X3X3X5X3 3 l B z x c 3 , +.j * - U.I.",
"I.I.I.I.I.I.I.I.I.I.I.! w h b.5X4X4X3X~.c.2 3 l c x z - g { o.:.b   K.I.",
"I.I.I.I.I.I.I.I.I.I.P.X 3 M 5X4X4X5X5Xv.k.$ 3 x B z j 5 } ..N 2.1.X K.I.",
"I.I.I.I.I.I.I.I.I.I.K.X 0.4X5X4X3X5Xx.l.k.3 3 x c 3 q R.W +   6 j   L.I.",
"I.I.I.I.I.I.I.I.I.I.U.X k 1.v.v.v.v.x.5.k   3 x 3 ( ` T.W O 5 j e   L.I.",
"I.I.I.I.I.I.I.I.I.I.P.I ; 8 l.l.l.l.l.4.8   > j O ( R.R._ t e z j   K.I.",
"I.I.I.I.I.I.I.I.I.I.I.I.L e l.l.l.l.l.v.1X3   . & # o o ) Y.- 5 j   L.I.",
"I.I.I.I.I.I.I.I.I.I.I.I.L h l.l.g.l.l.4.k # V e.r.w.F . ) I.P.T +   t ! ",
"I.I.I.I.I.I.I.I.I.I.I.I.L e l.j.l.l.5.b . 9 w.M.M.d.w.9 _ L.I.H.I I E ) ",
"I.I.I.I.I.I.I.I.I.I.I.I.L e l.l.l.l.=   % g.C.N.V.d.r.q.C L I.I.I.I.I.I.",
"I.I.I.I.I.I.I.I.I.I.I.I.P o 4 8 4 4 # Z g.F.S.Z.B.u.r.e.V t I.I.I.I.I.I.",
"I.I.I.I.I.I.I.I.I.I.I.L.' C V V V 9 9 J D.D.D.G.B.u.u.e.V t I.I.I.I.I.I.",
"I.I.I.I.I.I.I.I.I.I.K.% a.F.V.V.d.e.e.h.F.D.D.G.B.m.N.q.Z t I.I.I.I.I.I.",
"I.I.I.I.I.I.I.P.P r ( n.F.G.m.m.f.e.q.h.D.D.D.S.B.m.f.7 & t I.I.I.I.I.I.",
"I.I.I.I.I.I.U.` K F J D.A.C.M.i.t.e.K p.D.h.C.C.V.m.d.& # y I.I.I.I.I.I.",
"I.I.I.I.I.I.Q V F.S.D.S.C.M.N.t.r.q.7 A n.a.s.f.N.h.s.% # t I.I.I.I.I.I.",
"I.I.I.I.I.P J s.V.B.B.B.t.r.r.e.e.e.w.A % . % 7 7 7 7 o > t I.I.I.I.I.I.",
"I.I.I.I.I.- J d.d.f.i.i.r.J A A K e.r.A . / 4.2.2.2./ $ > t Y.I.I.I.I.I.",
"I.I.I.I.P.* A q.q.q.w.w.w.F 2 2 V t.r.A % !././.(.(.!.$ > P I.I.I.I.I.I.",
"I.I.I.I.I.- $ 1 1 2 1 1 1 1 $ K r.N.M.H ; wXfXfX'.(.!.= > t I.I.I.I.I.I.",
"I.I.I.I.I.) t O @ Z A H H H J s.f.m.V.H ; tXgXgX/.(.!.$ > t Y.I.I.I.I.I.",
"I.I.I.I.I.I.R # 0 J i.B.N.B.B.B.m.m.m.J % wXgXgX`.^.!.$ $ t I.I.I.I.I.I.",
"I.I.I.I.I.I.T 8 n.n.D.D.D.D.S.G.C.m.m.H 7 wXgXgX'.(.!.3 > t I.I.I.I.I.I.",
"I.I.I.I.I.I.T 2 F A A A A J D.G.G.C.H 5.~.fXgXjX/.(.!.% > P I.I.I.I.I.I.",
"I.I.I.I.I.I.T @ l l k v e G g.g.g.g.C j.gXgXgXgX^.W.z.$ > L I.I.I.I.I.I.",
"I.I.I.I.I.I.R x bXbXbXvXkX^.. . . . v.rXgXgXhXjXk.S o & @ L I.I.I.I.I.I.",
"I.I.I.I.I.I.Q 3 ^ qXkXkXhXtXW.e O . W.eXgXrXz./ k 4 % F 9 w Q U.I.I.I.I.",
"I.I.I.I.I.I.! @ 8 /.gXgXhXfXrX/ 8 . ~.tXgX^.7.k 3 @ % F 9 @ * L.I.I.I.I.",
"I.I.I.I.I.I.T 3 7.pXhXgXgXaXeXeXz.& wXhXgX'.^.6Xn 6 > # @ + * L.I.I.I.I.",
"I.I.I.I.I.I.Q = 7.z.^.wXtXtXrX' / l.dXgXdXG v e 3 f | | | } + L.I.I.I.I.",
"I.I.I.I.I.I.Q $ 1.1.5.v.v.W.W.4.j.'.gXgXfX/ 8 @ i | @.$. .] + H.I.I.I.I.",
"I.I.I.I.I.I.T         O O . * rXhXgXgXgXgX'.5.: ..*.*.@.d O * L.I.I.I.I.",
"I.I.I.I.I.I.Q X O ] |  .| f > rX/.n tXgXgX/.5., +.$.*.@.a r K.I.I.I.I.I.",
"I.I.I.I.I.J.U : s } O.}.}...@ k.6.& rXtXtX/.6.f &.}.}.{ , t I.I.I.I.I.I.",
"I.I.I.I.T.- : s XX[ [ oX+X%.<   o ; W.^.^.^.9.%.+X+X.XO X E I.I.I.I.I.I.",
"I.I.I.) r X >.$X+XXX@.a .XoX.Xp ^ wX'.7.8 4 ..+X+XO., O ) I.I.I.I.I.I.I.",
"I.I.I.! > f $X=X X|.@.: { +...i n x.7.3.X.X.XXoX+.a - ! P.I.I.I.I.I.I.I.",
"I.I.I.! p XX%X-X X-...> @ @ # @ : , : X.;X;X&X Xi O r I.I.I.I.I.I.I.I.I.",
"I.I.I.! p XX#X+X}.] > + @ o X > f XX*X*X,X&X@X+XO.i r I.I.I.I.I.I.I.I.I.",
"I.I.I.! , { %.|.%.a , ] ] d @   ] +X,X,X,X#X@X+X*.s r T.I.I.I.I.I.I.I.I.",
"I.I.I.H.r   ] $.%.s s *.&...i   s #X=X:X:X&X@X+X*.d r I.I.I.I.I.I.I.I.I.",
"I.I.I.I.I.q + a $.$.*.&.}.%.#.< X.;X:X:X=X#X@X+X*.a r I.I.I.I.I.I.I.I.I.",
"I.I.I.I.I.J.P > f #.&.&.&.@.f < p X.*X-X&X@X X|.*.a r I.I.I.I.I.I.I.I.I.",
"I.I.I.I.I.I.H.t > { @.#.#.} +   + a *X%X@X@X|.*.@.s r I.I.I.I.I.I.I.I.I.",
"I.I.I.I.I.I.I.U.q @ > : : < @   s oX:X%X@X@X|.*.$.s y I.I.I.I.I.I.I.I.I.",
"I.I.I.I.I.I.I.I.L.) ) * + * 5 O ] oX=X%X@X@X|.*.@.a r I.I.I.I.I.I.I.I.I.",
"I.I.I.I.I.I.I.I.I.I.K.* @ 6 x @ s }.$X$X}.-.$. . .i r I.I.I.I.I.I.I.I.I.",
"I.I.I.I.I.I.I.I.I.I.P.* j l z @ O O O O O O O O O   r I.I.I.I.I.I.I.I.I.",
"I.I.I.I.I.I.I.I.I.I.P.* j j > ,.<.M M ~ ~ j 5 5   5._.{._.I.I.I.I.I.I.I.",
"I.I.I.I.I.I.I.I.I.I.P.* 5 3   3.9.<.<.<.<.B x z   j.`.aX[.I.I.I.I.I.I.I.",
"I.I.I.I.I.I.I.I.I.I.U.q * *   ,.,.x l l l x x c o j.]._.I.I.I.I.I.I.I.I.",
"I.I.I.I.I.I.I.I.I.I.I.U.L.H.  3 3 @ * + @ + @ + o 8.zX[.I.I.I.I.I.I.I.I.",
"I.I.I.I.I.I.I.I.I.I.I.I.I.I.R E E E I E I I I E Q P.Y.I.I.I.I.I.I.I.I.I.",
"I.I.I.I.I.I.I.I.I.I.I.I.I.I.I.I.I.I.I.I.I.I.I.I.I.I.I.I.I.I.I.I.I.I.I.I."
};
