/* XPM */
static char *char_2[] = {
/* columns rows colors chars-per-pixel */
"34 70 237 2 ",
"   c #040303",
".  c #0A0403",
"X  c #060904",
"o  c #0A0906",
"O  c #05050A",
"+  c #0B0A0B",
"@  c #08080B",
"#  c #15060D",
"$  c #130B0B",
"%  c #1B0A0A",
"&  c #180607",
"*  c #0D1507",
"=  c #1A110E",
"-  c #131B0B",
";  c #15150C",
":  c #0C0C12",
">  c #07091D",
",  c #0A0A1C",
"<  c #040616",
"1  c #140912",
"2  c #151415",
"3  c #1D1915",
"4  c #1A1B1B",
"5  c #161817",
"6  c #270B0B",
"7  c #241817",
"8  c #361818",
"9  c #271210",
"0  c #1A250C",
"q  c #1D2A0D",
"w  c #17230A",
"e  c #1C2612",
"r  c #1F310E",
"t  c #283A0F",
"y  c #28221C",
"u  c #243111",
"i  c #2A3C11",
"p  c #273810",
"a  c #37241C",
"s  c #060922",
"d  c #090A23",
"f  c #0A0D2D",
"g  c #0E112D",
"h  c #0E133C",
"j  c #0D1134",
"k  c #121939",
"l  c #11132B",
"z  c #201F2D",
"x  c #1B262D",
"c  c #242424",
"v  c #292623",
"b  c #292926",
"n  c #2A2A2A",
"m  c #272729",
"M  c #322E2C",
"N  c #362B24",
"B  c #3C3229",
"V  c #332F32",
"C  c #353434",
"Z  c #3D3D3E",
"A  c #3B3833",
"S  c #2F2F30",
"D  c #4B1C1C",
"F  c #411B20",
"G  c #4A2624",
"H  c #582725",
"J  c #48382D",
"K  c #463D38",
"L  c #722D2C",
"P  c #6A3435",
"I  c #7C3639",
"U  c #793638",
"Y  c #6A2B2C",
"T  c #51201C",
"R  c #2D4112",
"E  c #344B15",
"W  c #314414",
"Q  c #3C531C",
"!  c #3E5321",
"~  c #3E4F30",
"^  c #42501D",
"/  c #49671D",
"(  c #50721F",
")  c #4B433C",
"_  c #49413A",
"`  c #52463A",
"'  c #455730",
"]  c #4A6920",
"[  c #537421",
"{  c #567A22",
"}  c #57772D",
"|  c #5C6E3D",
" . c #60692F",
".. c #0E1241",
"X. c #151B49",
"o. c #171E55",
"O. c #0F1558",
"+. c #1A225A",
"@. c #3D3D41",
"#. c #283156",
"$. c #171E61",
"%. c #1A2264",
"&. c #1A236C",
"*. c #182E68",
"=. c #192472",
"-. c #1A2777",
";. c #1E3E68",
":. c #212974",
">. c #272D72",
",. c #443D45",
"<. c #6B3652",
"1. c #2C4E79",
"2. c #414141",
"3. c #494948",
"4. c #574C47",
"5. c #5E524D",
"6. c #595145",
"7. c #535453",
"8. c #474C53",
"9. c #784545",
"0. c #665445",
"q. c #68564A",
"w. c #6E5C4C",
"e. c #6D625B",
"r. c #746254",
"t. c #78675A",
"y. c #74725C",
"u. c #7B7064",
"i. c #5C646B",
"p. c #873838",
"a. c #943C3C",
"s. c #9C3C3B",
"d. c #A33D3D",
"f. c #AA403E",
"g. c #853E41",
"h. c #9B4648",
"j. c #925454",
"k. c #A94344",
"l. c #BC4A4A",
"z. c #B84545",
"x. c #AA5A5A",
"c. c #8E725E",
"v. c #8C6B5D",
"b. c #B3605F",
"n. c #8E7262",
"m. c #867768",
"M. c #907162",
"N. c #947C68",
"B. c #8E736E",
"V. c #B96465",
"C. c #A16260",
"Z. c #935970",
"A. c #CC4746",
"S. c #CB4846",
"D. c #CA4B4A",
"F. c #C64848",
"G. c #CA4E51",
"H. c #CC5757",
"J. c #C8504D",
"K. c #CE5F60",
"L. c #CD6969",
"P. c #CA6766",
"I. c #D06666",
"U. c #C36F70",
"Y. c #5D8424",
"T. c #5E8228",
"R. c #638C26",
"E. c #658C29",
"W. c #628329",
"Q. c #6B952A",
"!. c #6E9A29",
"~. c #699427",
"^. c #628633",
"/. c #75954E",
"(. c #86B33D",
"). c #97816E",
"_. c #9B8675",
"`. c #8C8175",
"'. c #A3876E",
"]. c #A78C76",
"[. c #AB937B",
"{. c #AA9175",
"}. c #B5967A",
"|. c #B89678",
" X c #B89879",
".X c #C49F7C",
"XX c #1B2983",
"oX c #1D2C93",
"OX c #232D83",
"+X c #253497",
"@X c #243092",
"#X c #2435A3",
"$X c #2435AC",
"%X c #2C56B5",
"&X c #3762B7",
"*X c #3776BC",
"=X c #335B93",
"-X c #3675C1",
";X c #AB7E87",
":X c #958F8C",
">X c #A58D84",
",X c #A88D88",
"<X c #AB9684",
"1X c #BDA28B",
"2X c #BAA597",
"3X c #BDB09E",
"4X c #BDB0A6",
"5X c #C5A686",
"6X c #DBB48E",
"7X c #C2AE9D",
"8X c #CCAE91",
"9X c #DEB993",
"0X c #D8B593",
"qX c #D0AD8D",
"wX c #E1BB95",
"eX c #C9B8A5",
"rX c #D3BDA5",
"tX c #D1BFAA",
"yX c #C8BEB1",
"uX c #B3C590",
"iX c #E6C09D",
"pX c #D7C2A8",
"aX c #C8C0AB",
"sX c #F5CDA4",
"dX c #FDD3A6",
"fX c #FCD3AA",
"gX c #F5D1AB",
"hX c #E8D4BD",
"jX c #F8D9B4",
"kX c #EDC9A5",
"lX c #B0BBC3",
"zX c #EDDAC3",
"xX c #F9DFC2",
"cX c #FCE3C3",
"vX c #FAE9CB",
"bX c #FAEBD0",
"nX c #EDE1D0",
/* pixels */
"!.!.!.!.!.!.!.!.!.!.!.E.[ { [ [ [ { [ { { E.!.!.!.!.!.!.!.!.!.!.!.!.",
"!.!.!.!.!.!.!.!.!.!.Q.] @ o o @ o o o o   i !.!.!.!.!.!.!.!.!.!.!.!.",
"!.!.!.!.!.!.!.!.{ 0 0 y.7X7X7X7X3X7X3X3X) X q Q.!.!.!.!.!.!.!.!.!.!.",
"!.!.!.!.!.!.!.Y.! c e m.rXrX<X`.tX0XrXrX_.e.X Q Y.!.!.!.!.!.!.!.!.!.",
"!.!.!.!.!.!.!.q c @.2.`.eXeXe.A 3XrXrXpXhXpX= o R !.!.!.!.!.!.!.!.!.",
"!.!.!.!.!.Y.q v n S 2.3.3.4.y X 2 m.pXxXcXxXhX3.t !.!.!.!.!.!.!.!.!.",
"!.!.!.!.!.( O m S C @.2.2.2.4 X c `.pXcXcXcXbX6.t !.!.!.!.!.!.!.!.!.",
"!.!.!.!.!.(   m C 2.2.2.K Z 4 @ 2._.pXzXhXcXnX3.t !.!.!.!.!.!.!.!.!.",
"!.!.!.!.R y m n C 2.@.C m .   @ K m._.= $ 2 2 @ t !.!.!.!.!.!.!.!.!.",
"!.!.!.!.w 2 n C ~ 2.C c 4 4.4.4.K ` ) . 8.i.O 7./.!.!.!.!.!.!.!.!.!.",
"!.!.!.!.w 2 S @.,.@.n 2 = }. X{.3.c +   :XlXO :XuX!.!.!.!.!.!.!.!.!.",
"!.!.!.!.w 5 n n C @.S 2 7 hXcXhXt.4XyXO O : X @ W !.!.!.!.!.!.!.!.!.",
"!.!.!.!.e 2 n n S C n 2 + u.u.m.2XhXzXm.m.m.e.y p !.!.!.!.!.!.!.!.!.",
"!.!.!.!.w 2 n n n n n 2     O v nXbXnXxXxXhX7XK p !.!.!.!.!.!.!.!.!.",
"Q.Q.!.!.e 5 n n n n n m c   5.>XrXtXtX,X7X1X% X t !.!.!.!.!.!.!.!.!.",
"!.[ ] ] x l 5 b n n n n m   5.,X2X2X2X,X>XZ.. Q { !.!.!.!.!.!.!.!.!.",
"Q.r X , +.k , v m n n n m   5.>X>X,X>X,XZ.<.# } !.!.!.!.!.!.!.!.!.!.",
"!.q C e.,.#.+.< 5 n n n c   ` B.>X,X,X,X,XB.. * ^ !.!.!.!.!.!.!.!.!.",
"!.e c ) y l z w.~ 5 b b c   ) n.).>X,X,X,XB.5.7 i !.!.!.!.!.!.!.!.!.",
"!.e 2 b @ X w (.} w b b m   K v.M._.>X,X,X].:XM t !.!.!.!.!.!.!.!.!.",
"!.0 5 n n 2 - /././.* 4 c     = v.n.n.n.N.r.o   t !.!.!.!.!.!.!.!.!.",
"!.q 5 m 5 Q T.' ~ ' : : :   C q.m.n.n.c.M.r.  / Y.!.!.!.!.!.!.!.!.!.",
"Q.w 5 c e Y.!.5 : 6 6 6 %   4.`.n.M.M.M.n.r.. W.!.!.!.!.!.!.!.!.!.!.",
"* X X w Q.!.!.- G a.l.F.h.& . = v.M.M.n.n.r.  E.!.!.!.!.!.!.!.!.!.!.",
"{ { { Y.!.R.^ H U s.F.S.F.9.8 @ C w.M.c.M.r.. E.!.!.!.!.!.!.!.!.!.!.",
"!.!.!.!.!.[ % p.a.s.S.S.J.L.P %   K v.t.t.q.. R.!.!.!.!.!.!.!.!.!.!.",
"!.!.!.!.!.[ % g.s.f.F.H.I.P.U.C.& .     . .   E.!.!.!.!.!.!.!.!.!.!.",
"!.!.!.!.!.[ = p.f.f.D.H.I.P.P.V.H H H L L L 9. .Y.!.!.!.!.!.!.!.!.!.",
"!.!.!.!.!.( % P k.F.A.H.L.L.P.P.s.a.s.F.A.G.P.Y ^ E.~.!.!.!.!.!.!.!.",
"!.!.!.!.!.( o . L A.A.H.I.L.P.P.a.a.d.S.A.G.I.U.C.9 ; / !.!.!.!.!.!.",
"!.!.!.!.!.( X X Y A.A.D.H.l.b.V.D L s.d.F.A.G.I.V.h.9.0./ ~.!.!.!.!.",
"!.!.!.!.!.( + o H f.k.k.h.I j.j.6 H a.s.k.F.F.H.K.I.P.x.8 W.!.!.!.!.",
"!.!.!.!.!.{ o @ $ & % % & . . 6 g.g.d.g.s.d.g.z.D.A.A.F.l.G / !.!.!.",
"!.!.!.!.( i @ @ J r.r.r.r.r.N % g.s.p.D D H g.d.k.d.k.k.k.8 W !.!.!.",
"!.!.!.!.0   X @ 0.}.|. X.X1X` 6 g.d.p.6 < 6 U U I I U I U 9 W !.!.!.",
"!.!.!.Q.0   o o 0. X|.9XjXvXt.6 F.A.F.g.F 1 # # & & 1 $ $   W !.!.!.",
"!.!.!.!.0     o 0. X|.9XjXbXt.6 l.A.A.z.s.p.p.p.p.Y 7 c m.N W !.!.!.",
"!.!.!.!.0     . 0. X|.9XfXcXt.6 F.A.A.G.G.G.G.D.l.h.H H [._ ^ ~.!.!.",
"!.!.!.!.0   X o 0.|.|.6XdXfXr.6 F.G.F.I.L.I.L.U.L.L.U.j.. ).{.* ~.Q.",
"!.!.!.!.0 9 H & 0.|.|.9XdXdX6XN.T g.K.L.L.V.G G G F G a   ).qX{. .Y.",
"!.!.!.!.0 D p.& ` ).{.0XfXfXdXiXN 9.x.j.x.j.N N M M M v . t.1XjX_ E ",
"!.!.!.!.0 D p.& o ; r.5XfXfXdXsX1XJ   .   a kXcXbXbXbXaX. X B vX) E ",
"!.!.!.!.0 D p.Y 8 + y J 0.1XwXsX|.J . . 0.].gXjXjXjXm.Z @ q.[.vX) E ",
"!.!.!.!.0 T p.L 8 X @ 3 B ].rXsX.XK $ N ).wXfXfXfXfX0.1 @ t.<XaX| { ",
"!.!.!.!.0 D I &     . q.[.}.wXdXfX0.y 8X6X9XfXdXfXfX].5.    X X E.!.",
"!.!.!.!.0 6 6       . y B J {.fXdX|.t.J '.6XwXwX6X'.m.5.  ( Y.R.!.!.",
"!.!.!.Q.e , > > s > @ o o a '.fXfX6X[.J v.].{.].).5.5.K X Y.!.!.!.!.",
"!.!.T.5 %.&.&.&.&.+.s X 3 [.wXdXdXfXgXjX0.. O X   O O   X { !.!.!.!.",
"!.!.] < &.=.=.=.=.%.O.g 0 {.wXdXdXN.0.sX0.: X.X.o.&.d   X Y.!.!.!.!.",
"!.!.( < $.=.=.=.=.=.=.h 3 {.qXkXiX0.u 5X` d =.XX-.-.f ; E R.!.!.!.!.",
"!.!.[ @ +.*.&.=.=.=.=.h 4 {.|.|.}._ o o   f +X#X:.f O R !.!.!.!.!.!.",
"!.!.Q.E.x d f &.=.=.=.=.>.V B J }..X_.: #.=X&X*...X., R !.!.!.!.!.!.",
"!.!.!.!.] r O X.%.=.=.XX:.h j z m.[._.: 1.-X*X;.k +.> R !.!.!.!.!.!.",
"!.!.!.!.!.{ o , ..=.&.&.&.%.OXOX> : @ < 1.*X*X*X=X< @ R !.!.!.!.!.!.",
"!.!.!.!.!.Q.~.- d g , d d d g ..:.:.-.-.#X%X-X-X&X-.f R !.!.!.!.!.!.",
"!.!.!.!.!.!.Q.w O : d <     d ..:.+X$X$X$X$X&X&X&X#Xh R !.!.!.!.!.!.",
"!.!.!.!.!.!.!.0 O f %.k : O o.@Xf =.$X$X$X#X#X#X+X+Xk E !.!.!.!.!.!.",
"!.!.!.!.!.!.!.0 g o.%.j     $.+XOX+X$X$XoXXXXXO.k #.^.!.!.!.!.!.!.!.",
"!.!.!.!.!.!.!.u ..-.&.j O : X.OX#X#X+XoXXX%.X.s - [ !.!.!.!.!.!.!.!.",
"!.!.!.!.!.!.!.u ..%.&.j O m 1 s @XXX=.&.&.O.<   R Q.!.!.!.!.!.!.!.!.",
"!.!.!.!.!.!.!.u < > s O O v A @.f d d s s < X T.Q.!.!.!.!.!.!.!.!.!.",
"!.!.!.!.!.!.!.r O       O n @.2.4 +           R.!.!.!.!.!.!.!.!.!.!.",
"!.!.!.!.!.!.!.u       O : n n S 7.m         * R.!.!.!.!.!.!.!.!.!.!.",
"!.!.!.!.!.!.!.r 2 c c 2 O : c S 7.3.C   2 ! ~.!.!.!.!.!.!.!.!.!.!.!.",
"!.!.!.!.!.!.!.u 5 c c :   @ 4 S 3.7.3.  Q T.!.!.!.!.!.!.!.!.!.!.!.!.",
"!.!.!.!.!.!.!.E - - 2 * X   5 n n 3.3.X Y.!.!.!.!.!.!.!.!.!.!.!.!.!.",
"!.!.!.!.!.!.!.!.~.~.~.~.~.- X + m C m   R.!.!.!.!.!.!.!.!.!.!.!.!.!.",
"!.!.!.!.!.!.!.!.!.!.!.!.Q.-     4 4 5   Y.!.!.!.!.!.!.!.!.!.!.!.!.!.",
"!.!.!.!.!.!.!.!.!.!.!.!.!.q X X X   X * R.!.!.!.!.!.!.!.!.!.!.!.!.!.",
"!.!.!.!.!.!.!.!.!.!.!.!.!.!.~.Q.Q.Q.Q.Q.!.!.!.!.!.!.!.!.!.!.!.!.!.!."
};
