/* XPM */
static char *char_4[] = {
/* columns rows colors chars-per-pixel */
"36 70 230 2 ",
"   c #040404",
".  c #0D0303",
"X  c #060A04",
"o  c #0B0C06",
"O  c #03030B",
"+  c #06090B",
"@  c #0B0B0A",
"#  c #09070D",
"$  c #120605",
"%  c #130A05",
"&  c #1A0A07",
"*  c #120B0A",
"=  c #1A0A0A",
"-  c #180507",
";  c #0D1308",
":  c #13120D",
">  c #131B0A",
",  c #141907",
"<  c #030412",
"1  c #060A14",
"2  c #070819",
"3  c #1D0C12",
"4  c #140D11",
"5  c #141212",
"6  c #1C1512",
"7  c #1C1C1C",
"8  c #1A1819",
"9  c #0F1215",
"0  c #251716",
"q  c #381818",
"w  c #29100D",
"e  c #1A260C",
"r  c #192611",
"t  c #1E3116",
"y  c #28350F",
"u  c #25221D",
"i  c #272518",
"p  c #263510",
"a  c #2B3D13",
"s  c #2A351B",
"d  c #30311E",
"f  c #090C28",
"g  c #0B1328",
"h  c #1D1D22",
"j  c #131221",
"k  c #0E1338",
"l  c #101339",
"z  c #080D38",
"x  c #1B253F",
"c  c #232323",
"v  c #2A2A2A",
"b  c #292825",
"n  c #362C26",
"m  c #39332E",
"M  c #2D2F31",
"N  c #343435",
"B  c #3D3D3C",
"V  c #3A3938",
"C  c #451B1A",
"Z  c #40251F",
"A  c #59282A",
"S  c #443B34",
"D  c #443D39",
"F  c #503129",
"G  c #743434",
"H  c #783739",
"J  c #682C2D",
"K  c #2E4114",
"L  c #344A17",
"P  c #3F5A1A",
"I  c #3A5318",
"U  c #37422F",
"Y  c #425D1A",
"T  c #47561D",
"R  c #45631C",
"E  c #4C6C1E",
"W  c #48671E",
"Q  c #4E701F",
"!  c #52751F",
"~  c #42413E",
"^  c #4A423B",
"/  c #58483C",
"(  c #405B20",
")  c #4B6921",
"_  c #4F7120",
"`  c #527422",
"'  c #567822",
"]  c #597D23",
"[  c #566625",
"{  c #606638",
"}  c #604834",
"|  c #151A49",
" . c #151C57",
".. c #0E1341",
"X. c #19215E",
"o. c #17235A",
"O. c #1A214E",
"+. c #31384F",
"@. c #171E61",
"#. c #1A236C",
"$. c #192467",
"%. c #192473",
"&. c #1A267C",
"*. c #1A2A7C",
"=. c #152774",
"-. c #1C337C",
";. c #21286D",
":. c #473E42",
">. c #7D3F60",
",. c #3F4041",
"<. c #2C506F",
"1. c #414142",
"2. c #494A4B",
"3. c #584B44",
"4. c #5B5349",
"5. c #4F4E51",
"6. c #555555",
"7. c #644C45",
"8. c #64564A",
"9. c #665B53",
"0. c #7B5349",
"q. c #6A625A",
"w. c #756352",
"e. c #7B6859",
"r. c #706A4E",
"t. c #6F6B69",
"y. c #863B3B",
"u. c #8A3B3B",
"i. c #833837",
"p. c #953A3A",
"a. c #973938",
"s. c #A43B39",
"d. c #B23B3B",
"f. c #93433E",
"g. c #A8413F",
"h. c #8E3E41",
"j. c #AB3F40",
"k. c #9E4141",
"l. c #9C5053",
"z. c #AA4344",
"x. c #B84544",
"c. c #AC5D5D",
"v. c #856D5B",
"b. c #89725E",
"n. c #846F63",
"m. c #8D7262",
"M. c #897665",
"N. c #927867",
"B. c #8C7E76",
"V. c #986D7B",
"C. c #CC4847",
"Z. c #CB4949",
"A. c #CA4846",
"S. c #C85756",
"D. c #CF5756",
"F. c #C96767",
"G. c #D06261",
"H. c #C66B70",
"J. c #D1625D",
"K. c #5C8224",
"L. c #648C27",
"P. c #628827",
"I. c #6A942A",
"U. c #6E9A29",
"Y. c #689227",
"T. c #7A914C",
"R. c #9D826C",
"E. c #8D8173",
"W. c #988675",
"Q. c #A68B77",
"!. c #AC9278",
"~. c #B99676",
"^. c #B5967A",
"/. c #B99679",
"(. c #B99978",
"). c #A4A071",
"_. c #C19F7E",
"`. c #C6A37E",
"'. c #1A2885",
"]. c #1F3295",
"[. c #1C348A",
"{. c #25328A",
"}. c #242F91",
"|. c #243297",
" X c #222C87",
".X c #2435A4",
"XX c #2335AA",
"oX c #223CA6",
"OX c #244C96",
"+X c #2A4E8F",
"@X c #2744AC",
"#X c #2A4AB2",
"$X c #325AB1",
"%X c #3967A9",
"&X c #3467BA",
"*X c #3774BD",
"=X c #737D83",
"-X c #3A6EC1",
";X c #3675C1",
":X c #426EC0",
">X c #9F9184",
",X c #A88E85",
"<X c #A78C87",
"1X c #A89285",
"2X c #B49C85",
"3X c #B89A91",
"4X c #B9A694",
"5X c #C19F81",
"6X c #CAA887",
"7X c #DAB793",
"8X c #C7AF94",
"9X c #E3BD96",
"0X c #CEBBA5",
"qX c #C5B4A1",
"wX c #D3BDA5",
"eX c #D2BDA8",
"rX c #CCACA2",
"tX c #E7C19A",
"yX c #D6C7B2",
"uX c #F5CDA4",
"iX c #F8CFA9",
"pX c #FDD3A7",
"aX c #FCD3A9",
"sX c #F7D1AA",
"dX c #EBD3BA",
"fX c #EBCFB1",
"gX c #B1BDC8",
"hX c #ECD9C2",
"jX c #F9E3C7",
"kX c #F5E7D5",
/* pixels */
"U.U.U.U.U.U.U.U.U.U.U.U.U.U.U.U.U.U.U.U.U.U.U.U.U.U.U.U.U.U.U.U.U.U.U.U.",
"U.U.U.U.U.U.U.U.U.U.U.U.U.U.U.U.U.U.U.U.U.U.U.U.U.U.U.U.U.U.U.U.U.U.U.U.",
"U.U.U.U.U.U.U.U.U.U.U.U.U.U.U.U.U.U.U.U.U.U.U.U.U.U.U.U.U.U.U.U.U.U.U.U.",
"U.U.U.U.U.U.U.U.U.U.U.U.U.U.U.U.U.U.U.U.U.U.U.U.U.U.U.U.U.U.U.U.U.U.U.U.",
"U.U.U.U.U.U.U.U.U.U.U.U.U.U.U.U.U.U.U.U.U.U.U.U.U.U.U.U.U.U.U.U.U.U.U.U.",
"U.U.U.U.U.U.U.U.U.U.U.U.U.U.U.U.U.U.U.U.U.U.U.U.U.U.U.U.U.U.U.U.U.U.U.U.",
"U.U.U.U.U.U.U.U.U.U.U.U.U.U.U.U.U.U.U.U.U.U.U.U.U.U.U.U.U.U.U.U.U.U.U.U.",
"U.U.U.U.U.U.U.U.U.U.U.U.U.E p p p a p p y y I U.U.U.U.U.U.U.U.U.U.U.U.U.",
"U.U.U.U.U.U.U.U.U.U.I._ ) r.4.9.9.9.8.8.8.B o ) I.U.U.U.U.U.U.U.U.U.U.U.",
"U.U.U.U.U.U.U.U.U.U.` # @ E.0XyXqX0XeXeXeXE.6   ` U.U.U.U.U.U.U.U.U.U.U.",
"U.U.U.U.U.U.U.U.U.P u U U 1X0X0X4.E.7X0XeXfXhX5 X I U.U.U.U.U.U.U.U.U.U.",
"U.U.U.U.U.U.U.U.P s b N 1.6.e.q.r b 3.0XdXdXjX4X^ K U.U.U.U.U.U.U.U.U.U.",
"U.U.U.U.U.U.U.I.o c M N 1.1.1.1.# @ v yXdXjXjXkXq.a U.U.U.U.U.U.U.U.U.U.",
"U.U.U.U.U.U.U.Y.X c N 1.1.1.2.U # r 4.wXdXjXjXkXq.K U.U.U.U.U.U.U.U.U.U.",
"U.U.U.U.U.U.! t b v V ,.,.N h #   c 3.^.S 6 6 6 @ K U.U.U.U.U.U.U.U.U.U.",
"U.U.U.U.U.U.Y + v N U ,.N 0 b 7.4.3.~ / 6 M =X@ I K.U.U.U.U.U.U.U.U.U.U.",
"U.U.U.U.U.U.P # v B B ,.v 9 n 6X4Xn.U M * 2.gX9 _ U.U.U.U.U.U.U.U.U.U.U.",
"U.U.U.U.U.U.Y X v v N ,.v @ ^ jXjX>X6.kX1.        I U.U.U.U.U.U.U.U.U.U.",
"U.U.U.U.U.U.P # v v v M v : : m m E.yXkXyX8XqX1XD K U.U.U.U.U.U.U.U.U.U.",
"U.U.U.U.U.U.P # v v v v v 7 @   m W.hXhXyXyXdXE.m K U.U.U.U.U.U.U.U.U.U.",
"U.U.U.U.U.U.( 1 b v v v v v 0   B.4XeXeX2X3XrX5 @ P U.U.U.U.U.U.U.U.U.U.",
"U.U.U.L., , x O.O c v v v v h   B.<X<X<X<XV.l.* ` U.U.U.U.U.U.U.U.U.U.U.",
"U.U.U.] O c +.+.| g h v b v 7 . n.<X<X<X<X<XV.< a ] U.U.U.U.U.U.U.U.U.U.",
"U.U.U.P.O N D +.O.L s c v v 7   e.N.W.<X<X<X<Xv 5 K U.U.U.U.U.U.U.U.U.U.",
"U.U.U.]   b V N X I.' ; v v 7   e.m.N.,X,X,X,X<X~ a U.U.U.U.U.U.U.U.U.U.",
"U.U.U.K.  b M c X Y.U.I.> h 7   4 :.m.N.N.N.m.0 * K U.U.U.U.U.U.U.U.U.U.",
"U.U.U.K.  b 0 s ) U.U.U.> 5 5   S 0.m.m.m.m.v.% L K.U.U.U.U.U.U.U.U.U.U.",
"U.U.U.]   h s P U.U.U.U.L ;     t.V.m.m.m.m.n.@ ' U.U.U.U.U.U.U.U.U.U.U.",
"U.U.I ;     ! U.U.U.U.U.U.(     o D m.m.m.m.m.@ ' U.U.U.U.U.U.U.U.U.U.U.",
"U.U.I.L.L.L.U.U.U.U.U.U.Q p @ O   6 m m.m.m.n.. ' U.U.U.U.U.U.U.U.U.U.U.",
"U.U.U.U.U.U.U.U.U.U.I.K.> w q C C w @ 3.7.7.3.. ' U.U.U.U.U.U.U.U.U.U.U.",
"U.U.U.U.U.U.U.U.U.U.K.; % J s.A.A.J . . $ $ $ $ ' U.U.U.U.U.U.U.U.U.U.U.",
"U.U.U.U.U.U.U.U.U.U.P.& H j.C.C.G.F.c.i.h.x.x.c.} R U.I.U.U.U.U.U.U.U.U.",
"U.U.U.U.U.U.U.U.U.P.L = u.A.C.C.G.F.F.p.A.Z.Z.F.z.7.) ) L.U.U.U.U.U.U.U.",
"U.U.U.U.U.U.U.U.U.K & w u.x.C.C.D.F.S.H z.A.Z.G.F.c.q q [ I.U.U.U.U.U.U.",
"U.U.U.U.U.U.U.U.U.a C u.a.x.C.C.Z.Z.j.- G s.Z.Z.J.F.H.H.0.y U.U.U.U.U.U.",
"U.U.U.U.U.U.U.U.Y , C a.a.a.d.C.C.C.x.$ w A a.s.x.S.Z.S.x.k.I Y.U.U.U.U.",
"U.U.U.U.U.U.U.` o   q a.a.a.s.g.x.j.a.$ # 0 J p.z.x.x.g.x.k.4 ] U.U.U.U.",
"U.U.U.U.U.U.R O % * C i.y.i.i.y.y.y.H $ # @ = H y.u.u.u.h.H 3 ] U.U.U.U.",
"U.U.U.L.e > o i Q.0 o - & & & - & & - @ o # @ & = = 3 3 3 =   ] U.U.U.U.",
"U.E Y L   . S v./.0 @ 4 9.w.w.w.w.m.W.R.n 0 J A J A A 3 @ > ] U.U.U.U.U.",
"U.> i i i i v.!.m.n 0 0 !.~.^.~.`.9XpXaXw.F G G G G z.Z 0 > U.U.U.U.U.U.",
"I., M.^.^.^.!.m.$ G A 6 1X(.~.(.uXpXaXaXaXQ.% % * q x.F.7.> U.U.U.U.U.U.",
"U., M.v.6 6 v.N.$ G u.G q b.~.(._.7XpXpXpXtX7X7X/ % q w 3 - a a ! U.U.U.",
"U., b.w.. ^ m.N.$ G a.u.A } e.^./.6X7X7XuXaXpXpX!.w.r.6 i / w.b p K.! U.",
"U., e.9.% Q.!.v.$ G a.a.u.q n Q.~.(.(.~.9XiXuXpXpXaXaX^ 7.6XtX/ X e o E ",
"I., - o , !./ o % G a.a.u.q o - R.(.~.(.~.~.(.aXaXaXaXsXsXtXw @ s T.p E ",
"U.Y.L.Q o m 6 X . H p.u.q * i v.S e.^.M.Q.~.^.Q._.6X6XuXpXsX(.N.E.).6 E ",
"U.U.U.I.R Y Y P @ A J F     0 e.6 S w.3.N._.^.4.M.~./.7XtXtXpX6X!.e.R K.",
"U.U.U.U.U.U.U.I.o O O O O O O 1 O O O   v.^.!.6 w.^.^./.~._.aX6Xb., U.U.",
"U.U.U.U.U.U.U.I.: O.X. .X.X.X.X. .@.| O # = 4 O 4 0 8 N.(./._.(.b., U.U.",
"U.U.U.U.U.U.U.Y.+ o.&.&.%.%.%.%.=.=.$.....l k ....| | 1./ / / / { ! U.U.",
"U.U.U.U.U.U.U.I.  $.'.'.'.'.&.&.'.&.&.-.&.@. . .#.&. .# > a a K ! U.U.U.",
"U.U.U.U.U.U.U.Y.+ X.&.'.|.XX.XXXoXoXoX-X[.| < O @. Xf O R U.U.U.U.U.U.U.",
"U.U.U.U.U.U.U.Y.X  .&.'.XXXX@X&X&X&X&X*X&X+X| < X..X+Xg R U.U.U.U.U.U.U.",
"U.U.U.U.U.U.U.I.@ l | @..XXXXX&X*X*X*X*X&X@X*.< l *.%Xh W U.U.U.U.U.U.U.",
"U.U.U.U.U.U.U.I.;   < z |.XXXXoX;X*X*X-X@X.X X2 O z ].g ) U.U.U.U.U.U.U.",
"U.U.U.U.U.U.U.I.X   ..|.XXXX#X-X*XOX=.=.].%.2 O  .}.].g > K U.U.U.U.U.U.",
"U.U.U.U.U.U.L.I   k %.XXXX#X&X-XOX-.%.&. .f # k $.'.].+X<.<.) Y.U.U.U.U.",
"U.U.U.U.U.U.W O f $.].XX@X&X*X%X*.$. . .2 1 f #.=.&.[.&X;X%X9 ` U.I.U.U.",
"U.U.U.U.U.U.Y 2 %.].XXoX-X;X$X$.%.l O # o k ;.'.&.%.=.&X*X%X+   X + o ! ",
"U.U.U.U.U.Y r f %..X#X-X;XOX$.2 2 2 # @ # 1 g =.&.&.#.'.+X%X< M 5.9.@ W ",
"U.U.U.U.U.e O < k }.#X$X$X$.f O X L ) R W I 1 #.'.&.%.| o.<.j 1.6.t.@ W ",
"U.U.U.U.U.e     O #.{.].{.k   X e ] U.U.U.P.t X.$.%.=.2   X v 1.5.2.@ W ",
"U.U.U.U.U.e       O < O # O @ ; I.U.U.U.U.U.U.r < z $.2 9 v v v c     _ ",
"U.U.U.U.U.e 5 7 7 V B +.5.u @ @ L K.U.U.U.U.U.K.L + g j c v b 7 + + K.I.",
"U.U.U.U.U.e 7 v v 1.2.2.t.V 8 # o ` U.U.U.U.U.U.K.L   8 h h r L L ) U.U.",
"U.U.U.U.U.r 8 b v v b v 6.6.U 1 @ ` U.U.U.U.U.U.U.U.e ; ; ; > K.U.U.U.U.",
"U.U.U.U.U.e         + : : : : + X ! U.U.U.U.U.U.U.U.U.U.U.U.U.U.U.U.U.U.",
"U.U.U.I.U.K._ _ E E Q Q _ Q Q Q ! Y.U.U.U.U.U.U.U.U.U.U.U.U.U.U.U.U.U.U."
};
