/* XPM */
static char *char_4_left[] = {
/* columns rows colors chars-per-pixel */
"36 70 234 2 ",
"   c #040304",
".  c #0C0403",
"X  c #060A04",
"o  c #0A0C06",
"O  c #03030B",
"+  c #06090B",
"@  c #0B0A0A",
"#  c #08070B",
"$  c #120504",
"%  c #1A0A07",
"&  c #130C0C",
"*  c #1A0A0A",
"=  c #140906",
"-  c #0D1407",
";  c #13120D",
":  c #131B0A",
">  c #141907",
",  c #040411",
"<  c #060914",
"1  c #070818",
"2  c #1D0C12",
"3  c #130E10",
"4  c #131213",
"5  c #1B1512",
"6  c #1C1C1C",
"7  c #19171A",
"8  c #0E1215",
"9  c #251716",
"0  c #381818",
"q  c #2A100D",
"w  c #1A260C",
"e  c #1B2414",
"r  c #1E3115",
"t  c #29360F",
"y  c #25221C",
"u  c #272618",
"i  c #263510",
"p  c #2B3D14",
"a  c #2A351B",
"s  c #31261E",
"d  c #090C28",
"f  c #0B1328",
"g  c #1D1D22",
"h  c #131221",
"j  c #0E1338",
"k  c #11133A",
"l  c #080D38",
"z  c #201F20",
"x  c #1B253F",
"c  c #242423",
"v  c #2A2A2A",
"b  c #292826",
"n  c #362C26",
"m  c #37342B",
"M  c #2D2F31",
"N  c #343435",
"B  c #3D3D3C",
"V  c #3A3836",
"C  c #451B1A",
"Z  c #47231F",
"A  c #59282A",
"S  c #443B34",
"D  c #413E3C",
"F  c #4A3D34",
"G  c #51392D",
"H  c #743434",
"J  c #783738",
"K  c #692E2E",
"L  c #2E4215",
"P  c #334A16",
"I  c #354819",
"U  c #3F5A1B",
"Y  c #3A5318",
"T  c #374230",
"R  c #415C1B",
"E  c #44501A",
"W  c #44621C",
"Q  c #4B6B1F",
"!  c #48641D",
"~  c #4F711F",
"^  c #43413D",
"/  c #4A423B",
"(  c #58483C",
")  c #455C21",
"_  c #4D6D21",
"`  c #486621",
"'  c #4F7120",
"]  c #527423",
"[  c #557822",
"{  c #5A7D24",
"}  c #587725",
"|  c #576526",
" . c #605736",
".. c #141B4B",
"X. c #151846",
"o. c #161D58",
"O. c #0E1341",
"+. c #1A215E",
"@. c #17235B",
"#. c #1A214C",
"$. c #3C3D44",
"%. c #2A3554",
"&. c #171E60",
"*. c #1A236B",
"=. c #192467",
"-. c #192473",
";. c #1A267C",
":. c #1B2B7C",
">. c #162776",
",. c #1B337C",
"<. c #22286C",
"1. c #473F42",
"2. c #793940",
"3. c #3F4041",
"4. c #2D4F6F",
"5. c #414141",
"6. c #494A4B",
"7. c #574B45",
"8. c #5B5349",
"9. c #4F4E51",
"0. c #555555",
"q. c #644C46",
"w. c #65564A",
"e. c #665B53",
"r. c #7B4D51",
"t. c #69625A",
"y. c #756352",
"u. c #7B6758",
"i. c #7E7059",
"p. c #6B6749",
"a. c #716B67",
"s. c #863B3C",
"d. c #8A3B3B",
"f. c #833837",
"g. c #953A3A",
"h. c #973938",
"j. c #A43B39",
"k. c #B23B3B",
"l. c #93433F",
"z. c #A8413F",
"x. c #8E3F41",
"c. c #AB3E40",
"v. c #9D4141",
"b. c #9C5054",
"n. c #AA4344",
"m. c #B84545",
"M. c #AC5D5D",
"N. c #8C735E",
"B. c #846C59",
"V. c #846F62",
"C. c #8D7262",
"Z. c #897564",
"A. c #937969",
"S. c #8C7E76",
"D. c #986D7B",
"F. c #CC4847",
"G. c #CA4949",
"H. c #CA4847",
"J. c #C75756",
"K. c #CF5756",
"L. c #C86768",
"P. c #D06261",
"I. c #D2615D",
"U. c #5C8225",
"Y. c #5D8128",
"T. c #648B28",
"R. c #638A27",
"E. c #6A942A",
"W. c #6E9A29",
"Q. c #689327",
"!. c #7A914E",
"~. c #8D8173",
"^. c #988675",
"/. c #9E846C",
"(. c #A68B77",
"). c #AA9278",
"_. c #B99676",
"`. c #B4967A",
"'. c #B89679",
"]. c #BA9A7A",
"[. c #B69777",
"{. c #A3A172",
"}. c #C19F7E",
"|. c #C6A37F",
" X c #1A2785",
".X c #1F3295",
"XX c #1C348A",
"oX c #24328A",
"OX c #242F91",
"+X c #25339A",
"@X c #222C87",
"#X c #2535A4",
"$X c #2335AA",
"%X c #213CA7",
"&X c #244D96",
"*X c #2B4F8F",
"=X c #2744AC",
"-X c #2A4AB3",
";X c #325AB1",
":X c #3967A8",
">X c #3467BA",
",X c #3675BE",
"<X c #3973BC",
"1X c #426EBF",
"2X c #747D83",
"3X c #3A6DC1",
"4X c #3774C1",
"5X c #9E9184",
"6X c #A78D87",
"7X c #A89285",
"8X c #B49A84",
"9X c #B89A91",
"0X c #B9A594",
"qX c #C7A686",
"wX c #DAB793",
"eX c #C9AE92",
"rX c #E3BD96",
"tX c #CDBBA5",
"yX c #C6B3A1",
"uX c #D3BDA5",
"iX c #D1BDA8",
"pX c #CCACA3",
"aX c #E6C19A",
"sX c #D1C6B2",
"dX c #F5CDA4",
"fX c #FDD3A6",
"gX c #FCD3A9",
"hX c #F7D0AA",
"jX c #E2CAB3",
"kX c #EDD2B4",
"lX c #B1BDC7",
"zX c #ECD9C2",
"xX c #F9E3C7",
"cX c #F5E8D4",
/* pixels */
"W.W.W.W.W.W.W.W.W.W.W.W.W.W.W.W.W.W.W.W.W.W.W.W.W.W.W.W.W.W.W.W.W.W.W.W.",
"W.W.W.W.W.W.W.W.W.W.W.W.W.W.W.W.W.W.W.W.W.W.W.W.W.W.W.W.W.W.W.W.W.W.W.W.",
"W.W.W.W.W.W.W.W.W.W.W.W.W.W.W.W.W.W.W.W.W.W.W.W.W.W.W.W.W.W.W.W.W.W.W.W.",
"W.W.W.W.W.W.W.W.W.W.W.W.W.W.W.W.W.W.W.W.W.W.W.W.W.W.W.W.W.W.W.W.W.W.W.W.",
"W.W.W.W.W.W.W.W.W.W.W.W.W.W.W.W.W.W.W.W.W.W.W.W.W.W.W.W.W.W.W.W.W.W.W.W.",
"W.W.W.W.W.W.W.W.W.W.W.W.W.W.W.W.W.W.W.W.W.W.W.W.W.W.W.W.W.W.W.W.W.W.W.W.",
"W.W.W.W.W.W.W.W.W.W.W.W.W.W.W.W.W.W.W.W.W.W.W.W.W.W.W.W.W.W.W.W.W.W.W.W.",
"W.W.W.W.W.W.W.W.W.W.W.W.W.Y t t i i i i i i ' W.W.W.W.W.W.W.W.W.W.W.W.W.",
"W.W.W.W.W.W.W.W.W.W.W.Q._ o S w.w.e.w.w.e.0.p.' ' Q.W.W.W.W.W.W.W.W.W.W.",
"W.W.W.W.W.W.W.W.W.W.W.] X 7 ~.sXuXuXtXyXwXsX~.# o ] W.W.W.W.W.W.W.W.W.W.",
"W.W.W.W.W.W.W.W.W.W.Y X 4 zXjXwXuXuX~.8.iXuX5X5.B y U W.W.W.W.W.W.W.W.W.",
"W.W.W.W.W.W.W.W.W.W.L / 0XxXzXkXtX7.v y t.a.e.T N b a U W.W.W.W.W.W.W.W.",
"W.W.W.W.W.W.W.W.W.W.p t.xXxXxXkXtXb o @ 1.5.5.5.N v b o E.W.W.W.W.W.W.W.",
"W.W.W.W.W.W.W.W.W.W.p t.cXxXxXkXtX8.y @ $.5.5.5.B N c X E.W.W.W.W.W.W.W.",
"W.W.W.W.W.W.W.W.W.W.L @ 5 5 6 S 8X6.z   X c N 5.3.N v c e [ W.W.W.W.W.W.",
"W.W.W.W.W.W.W.W.W.W.U.Y 8 2XM 5 ( D 7.w.q.c e N 3.B N v o R W.W.W.W.W.W.",
"W.W.W.W.W.W.W.W.W.W.W.] 8 lX6.@ v T V.9XqXm @ v $.1.V v + U W.W.W.W.W.W.",
"W.W.W.W.W.W.W.W.W.W.Y o       / cX0.5XxXxX/ ; v 1.N v v + U W.W.W.W.W.W.",
"W.W.W.W.W.W.W.W.W.W.p D 7X0XyXsXcXsX~.V V ; ; v M v v v o R E.W.W.W.W.W.",
"W.W.W.W.W.W.W.W.W.W.L m S.kXjXjXzXzX5Xm   @ 7 v v v v v # U W.W.W.W.W.W.",
"W.W.W.W.W.W.W.W.W.W.U @ 1 pX9X9XiXiX0XS.  6 v v v v v b < R W.W.W.W.W.W.",
"W.W.W.W.W.W.W.W.W.W.W.] & r.D.6X6X6X6XS.  6 v v v v c O ..#.: w R.W.W.W.",
"W.W.W.W.W.W.W.W.W.W.} a & D.6X6X6X6X(.V.X 6 v v v z h X.%.%.c O U.W.W.W.",
"W.W.W.W.W.W.W.W.W.W.L & v 6X6X6X6X6XA.u.  6 v v c a I ..$.D N X U.W.W.W.",
"W.W.W.W.W.W.W.W.W.W.L ^ 6X6X6X6X6XA.C.a.  6 b v : [ E.X N $.c O U.W.W.W.",
"W.W.W.W.W.W.W.W.W.W.L o 9 A.A.A.A.C.F *   6 z : E.W.E.X c M c   U.W.W.W.",
"W.W.W.W.W.W.W.W.W.W.U.P $ V.N.C.C.C.y.D   4 4 : E.W.E.Q a e b   U.W.W.W.",
"W.W.W.W.W.W.W.W.W.W.W.[ $ V.N.C.N.N.D.a.    ; I W.W.W.W.U i c   { W.W.W.",
"W.W.W.W.W.W.W.W.W.W.W.[ . N.C.C.C.C.F       R W.W.W.W.W.W.] X   - P W.W.",
"W.W.W.W.W.W.W.W.W.W.W.[ @ V.C.C.A.Z ;   O X i Q W.W.W.W.W.W.R.R.R.E.W.W.",
"W.W.W.W.W.W.W.W.W.W.W.[ . 7.q.q.8.& 2 C C 0 q > R.Q.W.W.W.W.W.W.W.W.W.W.",
"W.W.W.W.W.W.W.W.W.W.W.[ . $ $ . . . K H.G.j.K % @ U.W.W.W.W.W.W.W.W.W.W.",
"W.W.W.W.W.W.W.W.W.W.R ( M.n.m.n.J M.L.P.G.H.n.J % { W.W.W.W.W.W.W.W.W.W.",
"W.W.W.W.W.W.W.Q.Q Q q.M.P.F.F.z.h.L.L.P.F.F.m.d.* P U.W.W.W.W.W.W.W.W.W.",
"W.W.W.W.W.W.E.| 0 0 M.L.I.G.H.n.J J.P.I.F.F.m.g.0 % L W.W.W.W.W.W.W.W.W.",
"W.W.W.W.W.W.t r.L.P.L.I.G.G.n.K % n.F.F.F.F.m.h.d.C L W.W.W.W.W.W.W.W.W.",
"W.W.W.W.Q.E l.m.J.K.F.H.c.c.A 2 $ n.F.F.F.k.h.h.h.C - U W.W.W.W.W.W.W.W.",
"W.W.W.W.{ * v.m.z.z.m.n.g.A 9 O $ g.c.H.m.j.h.h.h.C X X ] E.W.W.W.W.W.W.",
"W.W.W.W.{ 3 2.s.d.d.s.s.J * # O . H d.d.s.f.f.s.s.0 . . X W W.W.W.W.W.W.",
"W.W.W.W.[ O * 2 2 2 * % * & # X . % % % % % % % % & y (.y o : w Q.W.W.W.",
"W.W.W.W.W.{ : . 4 A A A K A q n ^.(.Z.y.y.y.y.e.4 # u `.u.S     P R Q W.",
"W.W.W.W.W.E.: 9 A n.J H H H G y.gXfXrX}._._._.).9 2 Z Z.).B.s u s u > W.",
"W.W.W.W.W.W.: q.L.m.0 o . % (.gXgXgXgXdX].]._.).5 A H $ C.[.[.[.`.Z.> W.",
"W.W.W.~ p p = 2 q q $ 8.wXeXdXfXfXfXrX}.[.`.B.0 H d.H $ A.u.5 9 B.Z.> E.",
"E.[ ] p n y.7.u 5 y.y.[.fXfXfXdXrXwXqX].'.u.( Z d.g.H $ A.N./ . y.N.> E.",
"_ - : ; ( rXqXq.G gXgXfXfXdXdXaX_.`.].`.(.n C g.h.g.H $ B.).(.= e.u.> W.",
"Q r !.p o q aXgXgXgXgXgXhX_._._._.[.]./.= . 0 l.g.g.H = @ ( (.; X o : E.",
"Q 9 {.~.Z.`.dXgXfXqXqX].(.].].).C.).u.F i.y $ 0 d.g.H o o 5 m - ' T.Q.W.",
"U.` i.(.qXfXaXaXrX_._.Z.q.`._.A.7.y.S 4 u.9     A K Z & U W R W E.W.W.W.",
"W.W.- N.eXgX}._.[.`.`.y.5 7X8XB.    O O < +   O O O O - E.W.W.W.W.W.W.W.",
"W.W.- N.].}.'.'.A.9 9 3 O 3 ; & O ..=.+.+.=.o.+.=.+...; E.W.W.W.W.W.W.W.",
"W.W.{ | ( ( ( ( 5.X.X.O.k k k k O.=.*.*.-.-.-.-.-.;.+.@ T.W.W.W.W.W.W.W.",
"W.W.W.} L p p : O @.>.*.o.o.=.>.,.;. X;.;.;. X X;.;.o.+ E.W.W.W.W.W.W.W.",
"W.W.W.W.W.W.W.W O d @X@., , ..XX3X%X$X$X$X#X#X#X X;.=.X Q.W.W.W.W.W.W.W.",
"W.W.W.W.W.W.W.W h *X+X=.+ ..*X;X4X>X>X3X>X%X$X$X X;.o.+ T.W.W.W.W.W.W.W.",
"W.W.W.W.W.W.W.Q f :X:.j 1 >.=X>X4X4X4X3X;X-X$X#X&...j o E.W.W.W.W.W.W.W.",
"W.W.W.W.W.W.W.Q f OXl O 1 @X+X=X4X<X<X3X%X$X$X+Xl ,   - E.W.W.W.W.W.W.W.",
"W.W.W.W.W.W.P w j +XOX..O 1 -..X>.>.&X4X3X-X$X$X+XO.  X E.W.W.W.W.W.W.W.",
"W.W.W.W.Q.` 4.4.*X.X X*.k O d o.>.*.,.&X4X>X-X$X$X-.j   U T.W.W.W.W.W.W.",
"W.E.E.E.] < :X,X:X.X X-.*.d O d @.o.=. X:X>X>X=X$XOX*.d O W W.W.W.W.W.W.",
"' X X X X < :X,X:X>.-.-. X*.k # + O k -.=.:X<X4X%X$X+X*.1 R W.W.W.W.W.W.",
"` - t.9.M < :X&XXX-. X:.-.f @ # # # 1 1 1 =.&X4X3X-X+X-.d w R W.W.W.W.W.",
"` 8 t.0.3.h %.@...-.:. X*.1 Y ` ` W I X O d =.;X;X=XOXO.,   w W.W.W.W.W.",
"Q < 9.9.3.b +   1 -.*.*.+.r T.W.W.W.{ w +   l oX.XOX<.O     w W.W.W.W.W.",
"Q X   c v v v 8 1 -.l < : W.W.W.W.W.W.E.- + + , , , O       w E.W.W.W.W.",
"Q.U.- + 7 v b c g d + P U.W.W.W.W.W.Y.P o + y 9.$.B V 6 6 4 w W.W.W.W.W.",
"W.W.W P I e g g 6 + P Y.W.W.W.W.W.W.] + + 6 N a.6.6.5.v v 6 e W.W.W.W.W.",
"W.W.W.W.U.- - - - w E.W.W.W.W.W.W.W.' - + 3.0.0.v v v v v 6 w W.W.W.W.W.",
"W.W.W.W.W.W.W.W.W.W.W.W.W.W.W.W.W.W.[ - X @ ; ; @ X   X     w W.W.W.W.W.",
"W.W.W.W.W.W.W.W.W.W.W.W.W.W.W.W.W.W.E.' ' ' ' ' ] _ _ Q Q _ U.W.W.W.W.W."
};
