/* XPM */
static char *char_3[] = {
/* columns rows colors chars-per-pixel */
"36 70 233 2 ",
"   c #040404",
".  c #0B0504",
"X  c #070A04",
"o  c #0A0A05",
"O  c #03030A",
"+  c #070A0C",
"@  c #0B0A0B",
"#  c #0B0608",
"$  c #130C0B",
"%  c #170808",
"&  c #0E1408",
"*  c #13120D",
"=  c #131B0A",
"-  c #19150A",
";  c #060A15",
":  c #0A0A12",
">  c #090A1A",
",  c #050617",
"<  c #1C0910",
"1  c #170A10",
"2  c #141313",
"3  c #1C1513",
"4  c #1C1C1C",
"5  c #191818",
"6  c #270B0B",
"7  c #251B19",
"8  c #351718",
"9  c #24110E",
"0  c #17230B",
"q  c #182110",
"w  c #222E0F",
"e  c #27241C",
"r  c #243311",
"t  c #2C3C13",
"y  c #2B3619",
"u  c #322C19",
"i  c #0A0D28",
"p  c #0A1226",
"a  c #0A0F34",
"s  c #0D1135",
"d  c #0E113A",
"f  c #0B1538",
"g  c #12163A",
"h  c #12192A",
"j  c #281F24",
"k  c #391D23",
"l  c #232323",
"z  c #2B2622",
"x  c #2A2925",
"c  c #252628",
"v  c #2A2A2A",
"b  c #27292B",
"n  c #39322D",
"m  c #363129",
"M  c #353635",
"N  c #3D3C3D",
"B  c #3A3634",
"V  c #322C26",
"C  c #471B1B",
"Z  c #43201B",
"A  c #462525",
"S  c #552829",
"D  c #433625",
"F  c #423B37",
"G  c #5A3334",
"H  c #583330",
"J  c #752E2E",
"K  c #793637",
"L  c #6D2D2F",
"P  c #2E4215",
"I  c #324515",
"U  c #354C16",
"Y  c #364B19",
"T  c #384D17",
"R  c #3C5519",
"E  c #3E5919",
"W  c #3B5517",
"Q  c #364926",
"!  c #435B1B",
"~  c #48661C",
"^  c #53761F",
"/  c #41413F",
"(  c #4A453A",
")  c #56463A",
"_  c #49502C",
"`  c #557723",
"'  c #4D6524",
"]  c #617D32",
"[  c #604936",
"{  c #0F1441",
"}  c #0D1549",
"|  c #151A48",
" . c #171D56",
".. c #1B2B53",
"X. c #283254",
"o. c #151E61",
"O. c #1B2362",
"+. c #1A236C",
"@. c #1A2667",
"#. c #192474",
"$. c #1B277C",
"%. c #1A287C",
"&. c #172574",
"*. c #1F317D",
"=. c #7C3E4E",
"-. c #423846",
";. c #2A4264",
":. c #424242",
">. c #4B4A4A",
",. c #534B43",
"<. c #594C46",
"1. c #5B5853",
"2. c #514E4C",
"3. c #614E44",
"4. c #665649",
"5. c #6E5950",
"6. c #766456",
"7. c #776F50",
"8. c #665F6E",
"9. c #786F67",
"0. c #84393B",
"q. c #853738",
"w. c #943C3C",
"e. c #9B3B3B",
"r. c #A73E3D",
"t. c #8C403E",
"y. c #AB423E",
"u. c #A73E42",
"i. c #984242",
"p. c #904C49",
"a. c #A84646",
"s. c #B34243",
"d. c #BB4849",
"f. c #A35C5C",
"g. c #B25453",
"h. c #886F58",
"j. c #8D7262",
"k. c #8C7767",
"l. c #937767",
"z. c #8E7B70",
"x. c #967C70",
"c. c #8B6D6A",
"v. c #B16869",
"b. c #CE4745",
"n. c #CA4846",
"m. c #C54B4A",
"M. c #CB4A4B",
"N. c #CD4649",
"B. c #CC5959",
"V. c #CA605C",
"C. c #CE6966",
"Z. c #CC6969",
"A. c #C96666",
"S. c #D26666",
"D. c #5C8224",
"F. c #638B26",
"G. c #658C28",
"H. c #608624",
"J. c #6A9429",
"K. c #6E9A29",
"L. c #679028",
"P. c #709B2D",
"I. c #6F9535",
"U. c #6E8C43",
"Y. c #7C8273",
"T. c #9A826B",
"R. c #97887B",
"E. c #A38972",
"W. c #A68A76",
"Q. c #B4967B",
"!. c #BD9B7B",
"~. c #B79678",
"^. c #AA9277",
"/. c #B3B566",
"(. c #C09F7D",
"). c #CD9660",
"_. c #E1BD79",
"`. c #ADC46A",
"'. c #CBC776",
"]. c #1D2A86",
"[. c #1E2C91",
"{. c #1F339A",
"}. c #242E83",
"|. c #23348A",
" X c #24359B",
".X c #202E96",
"XX c #2533A3",
"oX c #2435AA",
"OX c #233BA8",
"+X c #2E5295",
"@X c #325BB7",
"#X c #2C52AE",
"$X c #3769A9",
"%X c #3669BB",
"&X c #3774BD",
"*X c #3C72BB",
"=X c #717D82",
"-X c #3772C2",
";X c #366BC0",
":X c #A57C87",
">X c #9A8B82",
",X c #9C9185",
"<X c #A78F86",
"1X c #A98E86",
"2X c #A78C88",
"3X c #A89788",
"4X c #B29683",
"5X c #B59E90",
"6X c #BBAF9D",
"7X c #C09E80",
"8X c #C7AC94",
"9X c #DCBB9A",
"0X c #D7B594",
"qX c #CCAE8E",
"wX c #E1BC97",
"eX c #C9B9A5",
"rX c #D3BDA5",
"tX c #D0B9A6",
"yX c #CFAAA8",
"uX c #D8C2AB",
"iX c #EDCAA6",
"pX c #F3CCA3",
"aX c #F9CFAB",
"sX c #FBD2A6",
"dX c #FCD3AA",
"fX c #F6D1A9",
"gX c #F6DAB7",
"hX c #E6D0B7",
"jX c #E6D992",
"kX c #C9D3CE",
"lX c #ECD9C3",
"zX c #FBE4C8",
"xX c #F8EAD5",
/* pixels */
"K.K.K.K.K.K.K.K.K.K.K.K.K.P.K.K.K.K.K.K.K.K.K.K.K.K.K.K.K.K.K.K.K.K.K.K.",
"K.K.K.K.K.K.K.K.K.K.K.K.~ P I I I I I U I E J.K.K.K.K.K.K.K.K.K.K.K.K.K.",
"K.K.K.K.K.K.K.K.K.J.D.G.( M M n m m m m x X ` J.K.K.K.K.K.K.K.K.K.K.K.K.",
"K.K.K.K.K.K.K.K.K.t X & 6XrXrXrXuXeXuXuX3XX   W K.K.K.K.K.K.K.K.K.K.K.K.",
"K.K.K.K.K.K.K.F.P m M N eXrX6X) R.uX9XuXeXeXB & W K.K.K.K.K.K.K.K.K.K.K.",
"K.K.K.K.K.K.J.~ & M N >.,X3XR.e 1.R.eXuXhXzXk.n @ L.K.K.K.K.K.K.K.K.K.K.",
"K.K.K.K.K.K.U 2 v v M :./ / M X   7 eXgXzXzXzX6XX J.K.K.K.K.K.K.K.K.K.K.",
"K.K.K.K.K.K.t * v N N / :.:.N O l ,.eXfXzXzXxX6XX G.K.K.K.K.K.K.K.K.K.K.",
"K.K.K.K.J.` y 4 v :.:./ M v c   c <.6X3XW.>X,X9.X L.K.K.K.K.K.K.K.K.K.K.",
"K.K.K.K.D.X l v v / / / v 5 # X v ,.^.n   + X   & J.K.K.K.K.K.K.K.K.K.K.",
"K.K.K.K.D.  l M / / M v X ,.R.E.5.N $ # v kXX.M kXK.K.K.K.K.K.K.K.K.K.K.",
"K.K.K.K.D.  l m M :.M b   6.9X9Xz.1.9.l 4 =Xb l T.K.K.K.K.K.K.K.K.K.K.K.",
"K.K.K.K.` X l x v N M x   9.lXlX2Xz.xX1.o @ o X X L.K.K.K.K.K.K.K.K.K.K.",
"K.K.K.K.D.  c v v v v c   X $ - R.xXxXxXlXlXuX>XX F.K.K.K.K.K.K.K.K.K.K.",
"K.K.K.K.D.  c v v v v x 5 @ @ <.3XlXlXrXrXhXk.( X L.K.K.K.K.K.K.K.K.K.K.",
"K.K.K.J.` ; l x v v v v v 2 2 >X6XtXtX5X4XyXM X w J.K.K.K.K.K.K.K.K.K.K.",
"K.L.= & h O.: 2 b b b v v 5 2 2X<X^.1X1X:Xp.j V K.K.K.K.K.K.K.K.K.K.K.K.",
"P.D.X M / X.| h 2 c v v b 2 2 z.W.2X2X1X2Xc.j 5 ~ K.K.K.K.K.K.K.K.K.K.K.",
"P.L.  >.<.n ....l r b v v 2 * 6.x.2X2X<X2X2XF < o L.K.K.K.K.K.K.K.K.K.K.",
"K.L.  e 5     _ U.0 5 b b 5 2 c.j.k.<X1X1X1X2X9.o G.K.K.K.K.K.K.K.K.K.K.",
"K.F.  j l 4 O Y J.D./ & b 2 # z 4.j.x.l.x.x.,.l X G.K.K.K.K.K.K.K.K.K.K.",
"K.F.  l c l y ' 7.I._ + j 2   7 3.j.l.j.j.j.e - U J.K.K.K.K.K.K.K.K.K.K.",
"K.F.  l 4 = P.` @ % # #     * >Xv.j.j.j.j.j.7 I K.K.K.K.K.K.K.K.K.K.K.K.",
"~ t   @ E J.K.` . G q.w.w.C . l 4.j.j.j.j.j.e I K.K.K.K.K.K.K.K.K.K.K.K.",
"^ U U U D.K.F.' 8 q.y.b.n.q.8   n 5.j.j.j.j.e P K.K.K.K.K.K.K.K.K.K.K.K.",
"K.K.K.K.K.K.t Z w.w.s.N.M.B.v.%   - j.j.j.j.e P K.K.K.K.K.K.K.K.K.K.K.K.",
"K.K.K.K.K.K.t C w.e.y.M.V.S.A.f.A   3 3 7 9 . t K.K.K.K.K.K.K.K.K.K.K.K.",
"K.K.K.K.K.K.t C w.y.s.M.C.Z.Z.Z.K 8 8 C C C C _ F.K.K.K.K.K.K.K.K.K.K.K.",
"K.K.K.K.K.K.t C t.m.b.M.S.Z.Z.Z.a.t.w.s.N.m.A.f.- L.K.K.K.K.K.K.K.K.K.K.",
"K.K.K.K.K.K.t $ 6 s.M.M.S.Z.Z.Z.g.w.e.d.b.b.A.A.v.D t T J.K.K.K.K.K.K.K.",
"K.K.K.K.K.K.t O % s.b.M.B.g.g.Z.t.S w.u.s.N.B.B.A.K G G ] G.K.K.K.K.K.K.",
"K.K.K.K.K.K.t + % a.d.d.m.a.p.Z.H 6 0.e.r.M.m.M.S.C.Z.Z.C ! K.K.K.K.K.K.",
"K.K.K.K.K.K.t : X 6 6 6 6 < % % S 0.w.w.w.e.e.u.M.M.m.M.g.K I K.K.K.K.K.",
"K.K.K.K.K.K.P @ @ ) <.3.3.[ ( $ S w.w.L S S q.e.s.s.s.s.y.J = K.K.K.K.K.",
"K.K.K.K.K.K.I : * E.~.~.!.!.E.$ S r.e.C % 1 G q.0.0.q.q.q.S & K.K.K.K.K.",
"K.K.K.K.K.K.y @ $ E.~.!.pXpX0X9 J m.m.i.L 1 1 < < 1 < < < @ = K.K.K.K.K.",
"K.K.K.K.K.K.t : * E.~.(.pXsXwX- J N.b.n.a.J J J J S A : O t ` K.K.K.K.K.",
"K.K.K.K.K.K.t 1 * E.~.(.sXsX9X- J N.b.N.M.M.M.m.m.a.K 6 . W P.K.K.K.K.K.",
"K.K.K.K.K.K.t : < E.~.(.sXsX9X9 J m.N.B.A.S.Z.A.Z.Z.Z.v.7 W K.K.K.K.K.K.",
"K.K.K.K.K.P.I # - x.~.(.aXsXpXW.3.L B.S.A.A.=.H S A S H $ E K.K.K.K.K.K.",
"K.K.K.K.K.K.I : $ j.T.Q.pXsXsXdXh.8 f.f.f.f.H e V z V e o ! K.K.K.K.K.K.",
"K.K.K.K.K.K.y @ % o F h.fXdXdXdX0XT..   . . Q.gXzXxXxXxXV W K.K.K.K.K.K.",
"K.K.K.K.K.! q 8 G < 3 z ( l.qXsXqXx..   7 l.wXdXgXgX8X( 2 E K.K.K.K.K.K.",
"K.K.K.K.F.& o 8 G % $ * V 5.4XsXwXW.% 8 ) 0XpXdXdXdX4X3 @ ~ K.K.K.K.K.K.",
"K.K.K.K.D.& + : # O 5 n ^.Q.7XsXsX0X% l.0X0XpXsXsXaX0X9.2 E K.K.K.K.K.K.",
"K.K.K.K.H.: g  . . .g 2 V V H pXsXpXh.) ) 0XwXwXwX^.k.6.2 E K.K.K.K.K.K.",
"K.K.K.K.H.+ { O.&.+. .p + e ) pXdXsXqX7.3.T.T.l.x.4.,.>.2 E K.K.K.K.K.K.",
"K.K.K.K.F.&   a +.&.+.O.; 3.(.sXsXdXdXdXqXo   . O         E K.K.K.K.K.K.",
"K.K.K.K.K.L.w s @.&.&.O., 4.(.fXsXwXA !.qX+ g  . . .{ O O ~ K.K.K.K.K.K.",
"K.K.K.K.K.K.r > | ].].%.d 5.!.9XwXqXo 5.j.+ o.].}.o.| d ; I D.K.K.K.K.K.",
"K.K.K.K.K.K.W X , }.XXXX$.8.Q.Q.~.T.% o X , $.XX X} } |.a + = I.K.K.K.K.",
"K.K.K.K.K.K.K.`   , O.XXXX..4 7 7.!.9X( p }. X*.a +.|. X$X;.O w ` K.K.K.",
"K.K.K.K.K.K.K.K.~ = a o. X*.X.X.2.6.T.m > O.@.| , +..X X%X+X{ ; ~ K.K.K.",
"K.K.K.K.K.K.K.K.K.r O i .X@X-X&XX.> > ; + @ : + @  .$. X%X@X|.i ~ K.K.K.",
"K.K.K.K.K.K.K.K.K.w a O.XXoX#X&X$X$X|.g : X X + @ > g ].XXOX|.i ~ K.K.K.",
"K.K.K.K.K.K.K.K.K.r d &.oXoXOX-X-X;XOX{   @ h } { > s $.[.#.| > ~ K.K.K.",
"K.K.K.K.K.K.K.K.K.r d &.XXoXOX-X&X&XOXf X p  .%.$.f g %.+.|   w H.K.K.K.",
"K.K.K.K.K.K.K.K.K.r a #.XXoXOX-X-X&X&X| ; @.$.].$.$.#.&.s + 0 K.K.K.K.K.",
"K.K.K.K.K.K.K.K.K.r d #.].XXoX@X$X$XX.p , f +.%.$.%.+.{ : I H.K.K.K.K.K.",
"K.K.K.K.K.K.K.K.K.r d #.&.[.oXoX@X$Xf ;   + | @.O.+.| + t D.K.K.K.K.K.K.",
"K.K.K.K.K.K.K.K.K.r d +.&.[.oXoX@X%X Xg   + , > ; : + 0 J.K.K.K.K.K.K.K.",
"K.K.K.K.K.K.K.K.K.r a &.&.[.oXoX@X;X X} O 4 * X & ` D.D.K.K.K.K.K.K.K.K.",
"K.K.K.K.K.K.K.K.P.w i  . .+.].].+X+X*.a @ v 2 * & L.K.K.K.K.K.K.K.K.K.K.",
"K.K.K.K.K.K.K.K.P.w O O O O , O O O O O # v x l & L.K.K.K.K.K.K.K.K.K.K.",
"K.K.K.K.K.K.K.`.'.~.4.  4 7 l / N X.( ,.:.: l l & J.K.K.K.K.K.K.K.K.K.K.",
"K.K.K.K.K.K.K.`.jX).h.. x x v 2.>.>.>.8.1.  5 4 & J.K.K.K.K.K.K.K.K.K.K.",
"K.K.K.K.K.K.K.K.`._.h.@ x v x x x x x :.:.  X & 0 J.K.K.K.K.K.K.K.K.K.K.",
"K.K.K.K.K.K.K.K.`.jX7.@ + @ + + @ @ + = 2 X D.L.L.K.K.K.K.K.K.K.K.K.K.K.",
"K.K.K.K.K.K.K.K.P.P.G.! W T T U T T T T W W J.K.K.K.K.K.K.K.K.K.K.K.K.K.",
"K.K.K.K.K.K.K.K.K.K.P.K.K.K.K.K.K.K.K.K.K.K.K.K.K.K.K.K.K.K.K.K.K.K.K.K."
};
