/* XPM */
static char *gameboy[] = {
/* columns rows colors chars-per-pixel */
"50 50 148 2 ",
"   c #141E1F",
".  c #152223",
"X  c #192325",
"o  c #243134",
"O  c #34383F",
"+  c #5E7D39",
"@  c #333C42",
"#  c #3B464C",
"$  c #54415B",
"%  c #4A515D",
"&  c #6D5F50",
"*  c #675C5A",
"=  c #695E5B",
"-  c #5F7456",
";  c #6B645C",
":  c #7C6D5C",
">  c #617755",
",  c #657B57",
"<  c #627758",
"1  c #657A5A",
"2  c #4C4E65",
"3  c #534360",
"4  c #4C5564",
"5  c #4F5867",
"6  c #535464",
"7  c #545965",
"8  c #595A65",
"9  c #555E6E",
"0  c #5A5A6A",
"q  c #565F70",
"w  c #5E6165",
"e  c #576070",
"r  c #596272",
"t  c #616369",
"y  c #647466",
"u  c #697C60",
"i  c #68756F",
"p  c #6C7E6A",
"a  c #7A7065",
"s  c #616673",
"d  c #646D7E",
"f  c #687670",
"g  c #973344",
"h  c #963C4C",
"j  c #994E5F",
"k  c #847159",
"l  c #8B755A",
"z  c #8D576C",
"x  c #985164",
"c  c #837665",
"v  c #867966",
"b  c #8F7D64",
"n  c #907E65",
"m  c #8A6378",
"M  c #95687F",
"N  c #6E992E",
"B  c #668B34",
"V  c #688E35",
"C  c #65853E",
"Z  c #6A8D3B",
"A  c #6C9532",
"S  c #6F9931",
"D  c #6C9138",
"F  c #709931",
"G  c #698256",
"H  c #71895E",
"J  c #6D816A",
"K  c #73856D",
"L  c #758771",
"P  c #778A72",
"I  c #788B73",
"U  c #9F8664",
"Y  c #A08663",
"T  c #A18865",
"R  c #615D89",
"E  c #676E83",
"W  c #6B7483",
"Q  c #6E7789",
"!  c #707987",
"~  c #7E748B",
"^  c #71798D",
"/  c #7B7B8E",
"(  c #6D6A97",
")  c #706E9B",
"_  c #767E93",
"`  c #787E94",
"'  c #787F98",
"]  c #807589",
"[  c #8F7A8D",
"{  c #90788E",
"}  c #A0788C",
"|  c #798194",
" . c #7C829B",
".. c #7F87A1",
"X. c #7F88A1",
"o. c #81869B",
"O. c #848B9C",
"+. c #928397",
"@. c #89909C",
"#. c #8187A2",
"$. c #838AA4",
"%. c #8887A9",
"&. c #878EA9",
"*. c #888FAA",
"=. c #8383A9",
"-. c #8A91A5",
";. c #8B92AE",
":. c #9096AE",
">. c #9299AD",
",. c #8D94B0",
"<. c #9294B5",
"1. c #959CB4",
"2. c #989EB5",
"3. c #9496B8",
"4. c #9A9BBD",
"5. c #A199AE",
"6. c #A99DB3",
"7. c #A39BB1",
"8. c #9AA1B5",
"9. c #9EA3BA",
"0. c #A1A7BC",
"q. c #A2A9BF",
"w. c #9C9FC0",
"e. c #A1A4C2",
"r. c #A4AAC2",
"t. c #A8AEC6",
"y. c #A7ABC8",
"u. c #A9ABCA",
"i. c #AAB1C6",
"p. c #AEB4CA",
"a. c #B1B6CD",
"s. c #B1B6CB",
"d. c #B1B8CD",
"f. c #B2B7D1",
"g. c #B3B9D1",
"h. c #B3B9D0",
"j. c #B3B9D2",
"k. c #B3BAD1",
"l. c #B4B9D1",
"z. c #B4B9D1",
"x. c #B4B9D2",
"c. c #B5B9D2",
"v. c #B3B9D1",
"b. c #B8BFD3",
"n. c #B8BFD3",
"m. c #BCC2D7",
"M. c #BBC1D5",
"N. c #BEC3D8",
/* pixels */
"F F F F F F F F F F F F F F F F F F F S N N N N N N N N N N N N N N N N N N N N N N N N N N N N N N ",
"F F F F F F F F F F F F F F F F F F F S N N N N N N N N N N N N N N N N N N N N N N N N N N N N N N ",
"F F F F F F F F F F F F F F F F F F F S N N N N N N N N N N N N N N N N N N N N N N N N N N N N N N ",
"F F F F F F F F F F F F F F F F F F F S N N N N N N N N N N N N N N N N N N N N N N N N N N N N N N ",
"F F F F F F F F F F F F F F F F F F F S N N N N N N N N N N N N N N N N N N N N N N N N N N N N N N ",
"F F F F F F F F F F F F F F F F F F F S N N N N N N N N N N N N N N N N N N N N N N N N N N N N N N ",
"F F F F F F F F F F F F F F F F F F F S N N N N N N N N N N N N N N N N N N N N N N N N N N N N N N ",
"F F F F F F F F F F F F F F F F F F F S N N N N N N N N N N N N N N N N N N N N N N N N N N N N N N ",
"F F F F F F F F F F F F F F F F F F F S N N N N N N N N N N N N N N N N N N N N N N N N N N N N N N ",
"F F F F F F F F F F F F F F F F F F F S N N N N N N N N N N N N N N N N N N N N N N N N N N N N N N ",
"N N N N N N N N N N N N N N N N S V S N N N N N N N N N N N N N N N N N N N N N N N N N N N N N N N ",
"N N N N N N N N N N N N N N N S G >.J Z N N N N N N N N N N N N N N N N N N N N N N N N N N N N N N ",
"N N N N N N N N N N N N N N N H 2.r.>.8.K Z N N N N N N N N N N N N N N N N N N N N N N N N N N N N ",
"N N N N N N N N N N N N N N H 0.r.~ 2 e $.8.P B N N N N N N N N N N N N N N N N N N N N N N N N N N ",
"N N N N N N N N N N N N S H q.r./ 3 4 4 4 e -.2.P Z N N N N N N N N N N N N N N N N N N N N N N N N ",
"N N N N N N N N N N N S H 0.q.o.8 & * 7 4 4 4 e -.8.K Z N N N N N N N N N N N N N N N N N N N N N N ",
"N N N N N N N N N N N H q.r. .8 k Y Y l * 6 4 4 4 e $.8.I B N N N N N N N N N N N N N N N N N N N N ",
"N N N N N N N N N N H r.q.| 7 k Y Y Y Y U l = 6 4 4 4 ^ x.0.L Z N N N N N N N N N N N N N N N N N N ",
"N N N N N N N N N H r.r. .0 k Y Y Y Y Y Y Y Y l * 6 4 5 t.x.x.8.K Z N N N N N N N N N N N N N N N N ",
"N N N N N N N N H q.r.~ 6 k Y Y Y T Y Y Y Y Y Y Y : 4 e a.x.x.x.x.0.K V S N N N N N N N N N N N N N ",
"N N N N N N N H q.r.~ $ k T Y Y Y T Y Y Y Y Y Y b 7 9 r.x.x.x.x.x.M z +.L Z N N N N N N N N N N N N ",
"N N N N N N G 9.0.] 3 ; U T Y Y T T Y T Y Y T b 7 9 2.r.p.x.x.x.a.h h } 0.9.K Z N N N N N N N N N N ",
"N N N N N G i.r.-.4 4 4 w v U Y T Y Y T T T n 7 q ;.R u.x.x.x.x.6.m { a.x.x.x.0.K Z N N N N N N N N ",
"N N N N N f ;.p.M.8.d 5 4 5 t c T Y Y T Y b 7 e *.( w.x.x.x.x.x.x g j e.x.x.r.9.9.@.Z N N N N N N N ",
"N N N N N i $.;.2.a.b.8.W 9 4 4 w v U T b 7 e <.) 4.x.x.x.x.x.x.7.[ 5.a.x.x.8.;.;.2.8.B N N N N N N ",
"N N N N N y  .;.;.;.2.a.M.2.d 7 4 4 8 a 7 9 9.<.3.x.x.x.x.x.x.x.x.x.x.a.a.x.8.;.;.2.p.u N N N N N N ",
"N N N N N C ` $.$.;.` ` 2.p.N.2.d 4 4 5 e 0.%.<.x.x.x.x.x.x.x.x.x.x.x.>. .f.x.x.x.9.t.` F N N N N N ",
"N N N N N N D < W ` $.`  .,.2.a.M.8.d 9 9.#.<.x.x.q.t.p.W p.x.x.x.x.x.^ <.f.x.x.x.d.2.^ F N N N N N ",
"N N N N N N N N D 1 | $.$.;.;.;.2.a.b.i.=.<.x.x.r.@ o # X / x.x.x.r.$.0.e.d.2.r.p.,.;.E F N N N N N ",
"N N N N N N N N N N V 1 | $.#.;.;.;.2.p.N.x.x.x.x.s X X X ! x.x.x.$.*.y.x.2.;.>.;.;.$.Q F N N N N N ",
"N N N N N N N N N N N N V 1 | $.$.;.;.;.2.a.M.x.x.4   O X % x.x.x.8.3.x.x.r.i. .;.$.*.1 N N N N N N ",
"N N N N N N N N N N N N N N V 1 | $.$.;.;.;.2.d.M.q.O.p.>.p.x.x.x.x.x.x.x.p.*.% $.*.p D N N N N N N ",
"N N N N N N N N N N N N N N N N V 1 | ' #.;.;.;.2.p.M.x.x.x.x.x.x.x.x.x.p.;.$.E ;.p A N N N N N N N ",
"N N N N N N N N N N N N N N N N N N B > ^  ...;.;.;.2.p.M.x.x.x.x.x.x.p.;.;.$.;.p D N N N N N N N N ",
"N N N N N N N N N N N N N N N N N N N N D > W  ...;.;.;.2.a.M.x.x.x.p.,.;.$.*.p S N N N N N N N N N ",
"N N N N N N N N N N N N N N N N N N N N N N V 1 W  .#.;.;.;.2.p.N.p.;.;.$.;.J D N N N N N N N N N N ",
"N N N N N N N N N N N N N N N N N N N N N N N N B 1 ^  .#.;.;.;.;.;.;.$.;.p D N N N N N N N N N N N ",
"N N N N N N N N N N N N N N N N N N N N N N N N N N D - ` $.$.;.;.;.$.;.p S N N N N N N N N N N N N ",
"N N N N N N N N N N N N N N N N N N N N N N N N N N N N D 1 | $.X.$.*.J D N N N N N N N N N N N N N ",
"N N N N N N N N N N N N N N N N N N N N N N N N N N N N N N V 1 | ;.p D N N N N N N N N N N N N N N ",
"N N N N N N N N N N N N N N N N N N N N N N N N N N N N N N N N V + S N N N N N N N N N N N N N N N ",
"N N N N N N N N N N N N N N N N N N N N N N N N N N N N N N N N N N N N N N N N N N N N N N N N N N ",
"N N N N N N N N N N N N N N N N N N N N N N N N N N N N N N N N N N N N N N N N N N N N N N N N N N ",
"N N N N N N N N N N N N N N N N N N N N N N N N N N N N N N N N N N N N N N N N N N N N N N N N N N ",
"N N N N N N N N N N N N N N N N N N N N N N N N N N N N N N N N N N N N N N N N N N N N N N N N N N ",
"N N N N N N N N N N N N N N N N N N N N N N N N N N N N N N N N N N N N N N N N N N N N N N N N N N ",
"N N N N N N N N N N N N N N N N N N N N N N N N N N N N N N N N N N N N N N N N N N N N N N N N N N ",
"N N N N N N N N N N N N N N N N N N N N N N N N N N N N N N N N N N N N N N N N N N N N N N N N N N ",
"N N N N N N N N N N N N N N N N N N N N N N N N N N N N N N N N N N N N N N N N N N N N N N N N N N ",
"N N N N N N N N N N N N N N N N N N N N N N N N N N N N N N N N N N N N N N N N N N N N N N N N N N "
};
