/* XPM */
static char *lad[] = {
/* columns rows colors chars-per-pixel */
"70 75 208 2 ",
"   c #040202",
".  c #0B0603",
"X  c #0C0B06",
"o  c #0C0E09",
"O  c #060B03",
"+  c #130B05",
"@  c #130D08",
"#  c #110704",
"$  c #0D1007",
"%  c #13150C",
"&  c #1D130C",
"*  c #161B0D",
"=  c #1B1D0D",
"-  c #1D1207",
";  c #181C10",
":  c #161C10",
">  c #22190E",
",  c #28180E",
"<  c #241A11",
"1  c #2C1E12",
"2  c #301F13",
"3  c #1B240D",
"4  c #1E280E",
"5  c #1D2413",
"6  c #1F2618",
"7  c #222A0F",
"8  c #222613",
"9  c #2D2115",
"0  c #202814",
"q  c #272818",
"w  c #352615",
"e  c #392614",
"r  c #332519",
"t  c #3D2C1A",
"y  c #362919",
"u  c #263113",
"i  c #293815",
"p  c #2F3E1B",
"a  c #2B3618",
"s  c #313D1B",
"d  c #3B341D",
"f  c #422E1B",
"g  c #432B13",
"h  c #42311E",
"j  c #4A341D",
"k  c #45391E",
"l  c #523B1D",
"z  c #453321",
"x  c #4A3521",
"c  c #463A22",
"v  c #4E3E29",
"b  c #533C24",
"n  c #5A3E27",
"m  c #513D2A",
"M  c #33421C",
"N  c #364919",
"B  c #3A4D1D",
"V  c #354917",
"C  c #3F571C",
"Z  c #3C4D21",
"A  c #42591D",
"S  c #41571C",
"D  c #6B491E",
"F  c #46601F",
"G  c #464824",
"H  c #544027",
"J  c #5E4525",
"K  c #55412B",
"L  c #5D4629",
"P  c #584B28",
"I  c #425425",
"U  c #445B21",
"Y  c #445229",
"T  c #4D5929",
"R  c #4C5825",
"E  c #57582B",
"W  c #5A5633",
"Q  c #634624",
"!  c #654923",
"~  c #694A23",
"^  c #614629",
"/  c #654A2C",
"(  c #6A4D2C",
")  c #63542D",
"_  c #6F522C",
"`  c #75542A",
"'  c #795728",
"]  c #644B32",
"[  c #685A34",
"{  c #705432",
"}  c #765A33",
"|  c #785933",
" . c #74593A",
".. c #7C5C39",
"X. c #4C6325",
"o. c #4E6924",
"O. c #4C6329",
"+. c #526F27",
"@. c #556F2B",
"#. c #56672D",
"$. c #55712B",
"%. c #5B7A2B",
"&. c #577528",
"*. c #5B6431",
"=. c #5E7A31",
"-. c #607F2F",
";. c #636B35",
":. c #686137",
">. c #7A653A",
",. c #617D31",
"<. c #795D41",
"1. c #7E6442",
"2. c #815F2F",
"3. c #815E33",
"4. c #89632B",
"5. c #90662E",
"6. c #856232",
"7. c #8B6533",
"8. c #88653E",
"9. c #8C6A3C",
"0. c #81623F",
"q. c #926B35",
"w. c #936B39",
"e. c #9E733C",
"r. c #9D7235",
"t. c #AB7A37",
"y. c #A2763B",
"u. c #A6793B",
"i. c #AB7A39",
"p. c #A67638",
"a. c #B17D3A",
"s. c #B17C37",
"d. c #8C6945",
"f. c #856642",
"g. c #946E44",
"h. c #8C7047",
"j. c #9E7543",
"k. c #9E7849",
"l. c #997546",
"z. c #A47A41",
"x. c #AA7D43",
"c. c #A27C4B",
"v. c #A17540",
"b. c #A37F52",
"n. c #5F8326",
"m. c #5E8328",
"M. c #63862E",
"N. c #658A2D",
"B. c #688D2E",
"V. c #6E9A27",
"C. c #6B942D",
"Z. c #6E9A29",
"A. c #709A2D",
"S. c #628130",
"D. c #678C30",
"F. c #698C32",
"G. c #6A8734",
"H. c #6E9433",
"J. c #709633",
"K. c #719B32",
"L. c #72933C",
"P. c #B4823D",
"I. c #B9843F",
"U. c #AC834D",
"Y. c #BB8642",
"T. c #BD8943",
"R. c #B3854A",
"E. c #B98B4D",
"W. c #B68646",
"Q. c #A28151",
"!. c #AD8855",
"~. c #B28654",
"^. c #B48A55",
"/. c #B58958",
"(. c #BA8D56",
"). c #BC945C",
"_. c #C28D45",
"`. c #C38E4A",
"'. c #C49047",
"]. c #C49049",
"[. c #CA944B",
"{. c #CE9A4F",
"}. c #D1974D",
"|. c #CE9A52",
" X c #C5965A",
".X c #C5995D",
"XX c #CA9856",
"oX c #D69D52",
"OX c #D99E54",
"+X c #D59F59",
"@X c #D49A54",
"#X c #DBA357",
"$X c #D4A25E",
"%X c #DCA45C",
"&X c #DCA85F",
"*X c #E1A75A",
"=X c #E2AA5C",
"-X c #E0A657",
";X c #DDA561",
":X c #DDAA63",
">X c #D6A665",
",X c #E5AD63",
"<X c #EBAE64",
"1X c #E3AE68",
"2X c #E6B062",
"3X c #E9B164",
"4X c #E5B069",
"5X c #E7B170",
/* pixels */
"Z.Z.Z.Z.Z.Z.Z.Z.Z.V.Z.Z.Z.Z.Z.Z.Z.Z.Z.Z.Z.Z.Z.Z.Z.Z.Z.+.                O.Z.Z.Z.Z.Z.Z.Z.Z.Z.Z.Z.Z.Z.Z.Z.Z.J.%               M Z.Z.Z.Z.Z.Z.Z.",
"Z.Z.Z.Z.Z.Z.Z.Z.Z.Z.Z.Z.Z.Z.Z.Z.Z.Z.Z.Z.Z.Z.Z.Z.Z.V.%.*.0./ J L J J L L *.@.Z.Z.Z.Z.Z.Z.Z.Z.Z.Z.Z.Z.V.A.M.#.f.{ L L L L J L W X.C.V.Z.Z.Z.Z.",
"Z.Z.Z.Z.Z.Z.Z.Z.Z.Z.Z.Z.Z.Z.Z.Z.Z.Z.Z.Z.Z.Z.Z.Z.Z.Z.s x 2XI.t.t.i.i.i.u.b 5 Z.Z.Z.Z.Z.Z.Z.Z.Z.Z.Z.Z.V.Z.U & 1X`.i.i.i.t.i.t.}   B.V.Z.Z.Z.Z.",
"Z.Z.Z.Z.Z.Z.Z.Z.Z.Z.Z.Z.Z.Z.Z.Z.Z.Z.Z.Z.Z.Z.Z.Z.Z.Z.M x ,XI.i.i.i.i.u.i.l 5 Z.Z.Z.Z.Z.Z.Z.Z.Z.Z.Z.Z.Z.V.A % :X].u.t.t.u.i.i.}   H.V.Z.Z.Z.Z.",
"Z.Z.Z.Z.Z.Z.Z.Z.Z.V.Z.Z.Z.Z.Z.Z.Z.Z.Z.Z.Z.Z.Z.Z.Z.Z.s x ,Xa.i.t.i.i.p.i.l 8 Z.Z.Z.Z.Z.Z.Z.Z.Z.Z.Z.Z.V.V.U & ;X`.p.i.t.i.i.t.|   B.V.V.Z.Z.Z.",
"Z.Z.Z.Z.Z.Z.Z.Z.Z.V.A.Z.Z.Z.Z.Z.Z.Z.Z.Z.Z.Z.Z.Z.Z.N.T ( ,Xa.t.t.i.i.i.7.W Y Z.Z.Z.Z.Z.Z.Z.Z.Z.Z.Z.Z.V.B.O.h +X_.t.t.i.i.p.w. .s H.Z.Z.Z.V.Z.",
"Z.Z.Z.Z.Z.Z.Z.Z.Z.Z.Z.Z.Z.V.Z.Z.Z.Z.Z.Z.Z.Z.Z.Z.M.O !.+Xi.t.i.t.i.i.y.# X.Z.Z.Z.Z.Z.Z.Z.Z.Z.Z.Z.Z.Z.A.*  .,Xa.t.i.i.i.t.i.2 s Z.Z.Z.Z.Z.Z.Z.",
"Z.Z.Z.Z.Z.Z.Z.Z.Z.Z.Z.Z.Z.Z.Z.Z.Z.Z.Z.Z.Z.Z.Z.Z.N.  ~.OXp.t.i.u.i.t.y.. +.Z.Z.Z.Z.Z.Z.Z.Z.Z.Z.Z.Z.A.A.*  .,Xa.i.i.t.t.i.i.2 s Z.Z.Z.Z.Z.Z.Z.",
"Z.Z.Z.Z.V.Z.Z.Z.Z.Z.V.Z.Z.Z.Z.Z.Z.Z.Z.Z.Z.Z.Z.Z.N.  ~.OXt.t.i.t.i.t.y.. o.V.V.Z.Z.Z.Z.Z.Z.Z.Z.Z.Z.Z.Z.*  .=Xt.P.i.i.i.i.i.9 p V.V.C.V.V.V.A.",
"Z.Z.Z.Z.Z.Z.Z.Z.Z.Z.Z.Z.Z.Z.Z.Z.Z.Z.Z.Z.V.Z.Z.Z.D.. ~.oXt.i.t.i.i.p.v.@ o.V.Z.Z.Z.Z.Z.Z.Z.Z.Z.Z.Z.Z.A.3 } &Xt.u.i.i.i.i.U.9 M V.V.V.V.A.V.V.",
"Z.Z.Z.Z.Z.Z.Z.Z.Z.Z.Z.Z.Z.Z.Z.Z.Z.Z.Z.Z.A.Z.Z.U d  XY.a.t.i.t.i.i.( 9 S.C.Z.Z.Z.Z.V.Z.Z.Z.Z.Z.Z.Z.%.7 E.E.P.t.t.i.i.i.5., ,.C.V.V.A.V.A.C.Z.",
"Z.Z.Z.Z.Z.Z.Z.Z.Z.Z.Z.Z.Z.Z.Z.Z.Z.Z.Z.Z.V.V.Z.M y 3XI.u.t.i.i.i.i.L $ C.Z.Z.Z.Z.Z.Z.Z.Z.Z.Z.Z.Z.Z.$.$ $X[.t.t.u.i.i.i.6.  B.V.V.V.A.V.V.V.V.",
"Z.Z.Z.Z.Z.Z.Z.Z.V.Z.Z.Z.Z.Z.Z.Z.Z.Z.Z.Z.A.V.A.M y <XY.i.i.i.t.i.i.L $ C.V.V.Z.Z.Z.Z.Z.Z.Z.Z.Z.Z.Z.$.@ $X[.t.i.t.i.i.t.4.  D.Z.Z.A.V.V.V.Z.Z.",
"Z.Z.Z.Z.Z.Z.Z.Z.A.Z.Z.Z.Z.Z.Z.Z.Z.Z.Z.Z.V.V.A.M r <XY.i.t.i.i.t.i.L o C.Z.V.Z.Z.Z.Z.Z.Z.Z.Z.Z.Z.Z.$.+ >X[.i.P.u.a.i.i.|   B.Z.Z.Z.Z.A.V.Z.Z.",
"Z.Z.Z.Z.Z.Z.Z.Z.V.V.Z.Z.Z.Z.Z.Z.Z.Z.Z.Z.V.A.O.:.8.[.a.i.i.i.i.i.Q E X.Z.Z.Z.Z.V.Z.Z.Z.Z.Z.Z.Z.Z.$.;...].I.t.i.i.a.i.` P A C.Z.Z.Z.Z.Z.Z.Z.Z.",
"Z.Z.Z.Z.Z.Z.Z.Z.Z.Z.Z.Z.Z.Z.Z.Z.Z.Z.Z.Z.V.H.X c.#Xt.p.e.e.e.e.l.+ O.A.K.K.K.K.K.K.K.K.K.K.K.K.K.5 L ,XP.P.t.t.i.i.u.t 4 Z.Z.Z.Z.Z.Z.Z.Z.Z.Z.",
"Z.Z.Z.Z.Z.Z.Z.Z.Z.Z.Z.Z.Z.Z.Z.Z.Z.Z.Z.Z.Z.J.+ c.#Xi.e # . . . .   O $ $ $ X X $ $ X $ $ o o o o   / ,Xa.t.i.t.t.i.i.t 4 Z.Z.Z.Z.Z.Z.Z.Z.Z.Z.",
"Z.Z.Z.Z.Z.Z.Z.Z.Z.Z.Z.Z.Z.Z.Z.Z.V.Z.Z.Z.Z.C.X k.XXx <.d.d.d.d.d.d.d.d.d.d.d.d.d.d.d.d.d.d.d.d.f.% / ,Xa.i.t.i.t.i.i.t 8 Z.Z.Z.Z.Z.Z.Z.Z.Z.Z.",
"Z.Z.Z.Z.Z.Z.Z.Z.Z.Z.Z.Z.Z.Z.Z.Z.Z.Z.Z.Z.C.L.r c.R.  b.&X*X*X*X,X-X*X%X&X*X*X&X&X*X*X=X&X#X*X%X Xf } *Xi.i.i.t.i.u.q.G N Z.Z.Z.Z.Z.Z.Z.Z.V.Z.",
"Z.Z.Z.Z.Z.Z.Z.Z.Z.Z.Z.Z.Z.Z.Z.Z.Z.Z.Z.Z.B 9 1XT.4.. 3.i.i.i.i.i.i.i.P.i.i.i.P.t.i.i.i.t.t.u.` + .X@Xi.i.i.t.i.i.w.. ,.A.Z.Z.Z.Z.Z.Z.Z.Z.Z.Z.",
"Z.Z.Z.Z.Z.Z.Z.Z.Z.Z.Z.Z.Z.Z.Z.Z.Z.Z.Z.Z.V < <XT.q.j g y y w y y y y w y y y r r y y w w y y < X  X@Xi.i.i.t.i.t.w.  ,.Z.Z.Z.Z.Z.Z.Z.Z.Z.Z.Z.",
"Z.Z.Z.Z.Z.Z.Z.Z.Z.Z.Z.Z.Z.Z.Z.Z.Z.Z.Z.Z.V < 2XT.y.' r - - & o   u u u u u u u u u u u u u u 5 .  X{.t.t.i.i.i.t.q.. S.Z.Z.Z.Z.Z.Z.Z.Z.Z.Z.V.",
"Z.Z.Z.Z.Z.Z.Z.Z.Z.Z.Z.Z.Z.Z.Z.Z.Z.Z.Z.Z.N < 2XT.t.i.' ! ! / h   C.Z.Z.Z.Z.Z.Z.Z.Z.V.V.V.Z.Z.S.#  X{.t.t.t.i.t.i.9.. S.Z.Z.Z.Z.Z.Z.Z.Z.Z.Z.Z.",
"Z.Z.Z.Z.Z.Z.Z.Z.Z.Z.Z.Z.Z.Z.Z.Z.Z.Z.K.M >.(.P.W.u.t.r.7.~ , Y L.Z.Z.Z.Z.Z.Z.Z.Z.Z.V.V.V.Z.N W (.W.P.i.i.i.i.i.n d L.Z.Z.Z.Z.Z.Z.Z.Z.Z.Z.Z.Z.",
"Z.Z.Z.Z.Z.Z.Z.Z.Z.Z.Z.Z.Z.Z.Z.Z.Z.Z.K.% 8.*Xi.i.i.t.i.r.' - I V.Z.Z.Z.Z.Z.Z.Z.Z.Z.Z.Z.Z.Z.4 v ,XP.t.i.i.i.i.u.j 3 Z.Z.Z.Z.Z.Z.Z.Z.Z.Z.Z.Z.Z.",
"Z.Z.Z.Z.Z.Z.Z.Z.Z.Z.Z.Z.Z.Z.Z.Z.Z.Z.K.% 9.-Xa.i.i.i.i.u.i.= Z Z.Z.Z.Z.Z.Z.Z.Z.Z.Z.Z.Z.Z.Z.4 m ,XP.t.i.i.i.i.i.j * Z.Z.Z.Z.Z.Z.Z.Z.Z.Z.Z.Z.Z.",
"Z.Z.Z.Z.Z.Z.Z.Z.Z.Z.Z.Z.Z.Z.Z.Z.Z.Z.K.% 9.&Xi.t.t.u.i.i.u.> Z V.Z.Z.Z.Z.Z.Z.Z.Z.Z.Z.Z.Z.Z.3 m ,Xa.i.i.i.t.i.t.j 3 Z.Z.Z.Z.Z.Z.Z.Z.Z.Z.Z.Z.Z.",
"Z.Z.Z.Z.Z.Z.Z.Z.Z.Z.Z.Z.Z.Z.Z.Z.Z.m.O.[ z.[.i.u.u.t.t.w./ T %.Z.Z.Z.Z.Z.Z.Z.Z.Z.Z.Z.Z.C.X.W 8.}.a.t.i.i.i.p.^ E X.Z.Z.Z.Z.Z.Z.Z.Z.Z.Z.Z.Z.Z.",
"Z.Z.Z.Z.Z.Z.Z.Z.Z.Z.Z.Z.Z.Z.Z.Z.Z.A % :X_.i.i.i.t.t.t.|   C.Z.Z.Z.Z.Z.Z.Z.Z.Z.Z.Z.Z.Z.D.  E.oXt.t.t.i.i.i.e.. @.Z.Z.Z.Z.Z.Z.Z.Z.Z.Z.Z.Z.Z.Z.",
"Z.Z.Z.Z.Z.Z.Z.Z.Z.Z.Z.Z.Z.Z.Z.Z.Z.U - ;X'.i.i.i.i.t.t.}   B.Z.Z.Z.Z.Z.Z.Z.Z.Z.Z.Z.Z.Z.D.  E.oXs.i.i.i.i.t.e.X @.Z.Z.Z.Z.Z.Z.Z.Z.Z.Z.Z.Z.Z.Z.",
"Z.Z.Z.Z.Z.Z.Z.Z.Z.Z.Z.Z.Z.Z.Z.Z.Z.A & 1X_.t.t.t.t.u.t.|   B.V.Z.Z.Z.Z.Z.Z.Z.Z.Z.Z.Z.Z.D.. E.@Xi.t.i.i.i.t.e.. $.Z.Z.Z.Z.Z.Z.Z.Z.Z.Z.Z.Z.V.Z.",
"Z.Z.Z.Z.Z.Z.Z.Z.Z.Z.Z.Z.Z.Z.Z.V.C.U r $X_.i.i.i.P.u.e.[ % C.V.V.Z.Z.Z.Z.Z.Z.Z.Z.Z.Z.C.G.& E.@Xt.t.t.i.t.y.9.= &.Z.Z.Z.Z.Z.Z.Z.Z.Z.Z.Z.Z.Z.Z.",
"Z.Z.Z.Z.Z.Z.Z.Z.Z.Z.Z.Z.Z.Z.Z.K.q  .:Xs.i.i.i.i.i.u.e s A.V.Z.A.Z.Z.A.Z.Z.Z.Z.Z.Z.Z.Z c :XY.t.t.t.t.i.i.H ; A.V.A.V.Z.Z.Z.Z.Z.Z.Z.Z.Z.Z.Z.Z.",
"Z.Z.Z.Z.Z.Z.Z.Z.Z.Z.Z.Z.Z.Z.Z.Z.:  .=Xi.` h h h h z @ ; B B B B B B Z Z Z C Z Z Z Z ; h 4XY.t.t.t.t.i.i.H * A.A.A.V.Z.Z.Z.Z.Z.Z.Z.Z.Z.Z.Z.Z.",
"Z.Z.Z.Z.Z.Z.Z.Z.Z.Z.Z.Z.Z.Z.Z.K.:  .,X7.n 1 r 1 9 9 w 1 r 9 9 1 9 9 9 9 9 9 q 9 1 1 X f 3XI.t.t.i.i.i.x.H * A.Z.V.A.V.Z.Z.V.Z.Z.Z.Z.Z.Z.Z.Z.",
"Z.Z.Z.Z.Z.Z.Z.Z.Z.Z.Z.Z.Z.Z.Z.J.;  .;X+ d.3X<X<X<X3X<X<X3X3X3X3X2X3X3X3X3X3X3X3X<X5Xm f 3XY.t.i.i.i.i.p.H = A.A.V.V.V.Z.Z.V.A.V.Z.Z.Z.Z.Z.Z.",
"Z.Z.Z.Z.Z.Z.Z.Z.Z.Z.Z.Z.Z.Z.S.Z Q.R.u.X ` Y.Y.Y._.Y.Y.Y.I.Y._.Y.T.T.T.T.T.T.T.T.p.x h.U.T.a.i.i.t.i.p.g E S.V.V.Z.Z.Z.Z.Z.Z.Z.Z.Z.Z.Z.Z.Z.Z.",
"Z.Z.Z.Z.Z.Z.Z.Z.Z.Z.Z.Z.Z.Z.@.@ >X[.y., b | | | | | | | } } | | | } } ` | } } } / . c.%Xi.i.t.i.i.i.y.@ U Z.Z.Z.Z.Z.Z.Z.Z.Z.Z.Z.Z.Z.Z.Z.Z.Z.",
"Z.Z.Z.Z.Z.Z.Z.Z.Z.Z.Z.Z.Z.Z.@.+ ;X[.p.D 1                                           b.OXi.i.i.i.i.i.v.@ A V.Z.Z.V.Z.Z.Z.Z.Z.Z.Z.Z.Z.Z.Z.Z.Z.",
"Z.Z.Z.Z.Z.Z.Z.Z.Z.Z.Z.Z.Z.Z.@.@ +X[.t.r.` l b l f   ,.M.N.N.N.N.N.M.M.N.N.N.N.N.-.. b.+Xt.t.i.t.i.i.y.@ A Z.Z.Z.Z.Z.Z.Z.Z.Z.Z.Z.Z.Z.Z.V.Z.Z.",
"Z.Z.Z.Z.Z.Z.Z.Z.Z.Z.Z.Z.Z.&.=.L  XT.i.i.5.' Q l k I H.Z.Z.Z.Z.Z.V.Z.Z.Z.Z.Z.Z.N.=.L U.].t.i.i.i.t.q._ T %.Z.Z.Z.Z.Z.Z.Z.Z.Z.Z.Z.Z.Z.Z.Z.Z.Z.",
"Z.Z.Z.Z.Z.Z.Z.Z.Z.Z.Z.Z.Z.3 / 2Xa.t.t.i.i.e.D , 4 Z.V.Z.Z.Z.Z.Z.Z.Z.Z.Z.Z.Z.V.I 1 1X_.t.i.i.i.i.t.! % K.A.Z.Z.Z.Z.Z.Z.Z.Z.Z.Z.Z.Z.Z.Z.Z.Z.Z.",
"Z.Z.Z.Z.Z.Z.Z.Z.Z.Z.Z.Z.A.= / 2Xa.t.t.i.i.i.y.y 3 Z.Z.Z.Z.Z.Z.Z.Z.Z.Z.Z.Z.Z.V.I 9 3XI.t.t.t.i.t.t.! % K.V.V.Z.Z.Z.Z.Z.Z.V.V.Z.Z.Z.Z.Z.Z.Z.Z.",
"Z.Z.Z.Z.Z.Z.Z.Z.Z.Z.Z.V.A.= / =Xa.i.i.t.t.i.u.t 4 Z.Z.Z.Z.Z.Z.Z.Z.Z.Z.Z.Z.Z.V.I 9 3XI.t.u.i.i.i.i.! % K.Z.Z.Z.Z.Z.Z.Z.Z.V.A.Z.Z.Z.Z.Z.Z.Z.Z.",
"Z.Z.Z.Z.Z.Z.Z.Z.Z.Z.Z.A.C.7 { =XP.t.i.t.i.u.y.c i Z.Z.Z.Z.Z.Z.Z.Z.Z.V.Z.Z.Z.C.I e =XY.t.t.i.i.u.u.) 5 K.Z.Z.Z.Z.Z.Z.Z.Z.Z.Z.Z.Z.Z.Z.Z.Z.Z.Z.",
"Z.Z.Z.Z.Z.Z.Z.Z.Z.Z.V.-.# ).XXt.t.i.t.i.t.q.# ,.C.Z.Z.Z.Z.Z.Z.Z.Z.Z.Z.Z.Z.C.O h.&Xs.t.i.i.t.i.z., N C.Z.V.Z.Z.Z.Z.Z.Z.Z.Z.Z.Z.Z.Z.Z.Z.Z.Z.Z.",
"Z.Z.Z.Z.Z.V.Z.Z.V.Z.A.-..  X}.t.t.i.i.t.t.w.. =.Z.Z.Z.Z.Z.Z.Z.Z.Z.Z.Z.Z.Z.C.  g.-Xi.t.t.i.t.i.u.& V A.V.Z.Z.Z.Z.Z.Z.Z.Z.Z.Z.Z.Z.Z.Z.Z.Z.Z.Z.",
"Z.Z.Z.Z.Z.Z.Z.Z.V.A.V.M.X  X{.i.t.i.t.i.i.q.  S.Z.Z.Z.Z.Z.Z.Z.Z.Z.Z.Z.Z.Z.C.  g.*Xi.i.i.t.i.i.u.& V V.A.Z.Z.Z.Z.Z.Z.Z.Z.Z.Z.Z.Z.Z.V.Z.Z.Z.Z.",
"Z.Z.Z.Z.Z.Z.Z.Z.Z.Z.V.S.X  X}.t.i.t.i.i.i.q.. m.Z.Z.Z.Z.Z.Z.Z.Z.Z.V.V.Z.V.C.  g.-Xi.i.i.i.t.i.z.& V V.V.Z.Z.Z.Z.Z.V.Z.Z.Z.Z.Z.Z.Z.Z.V.V.Z.Z.",
"Z.Z.Z.Z.Z.Z.Z.Z.Z.Z.R *.k.T.P.t.i.s.t.i./ k +.C.Z.Z.Z.Z.Z.Z.Z.Z.Z.Z.Z.V.%.G l.W.T.i.i.i.i.a.3.d @.M.V.V.Z.Z.Z.Z.Z.Z.Z.Z.Z.Z.Z.Z.Z.Z.V.V.Z.Z.",
"Z.Z.Z.Z.Z.Z.Z.Z.Z.V.7 b ,XP.e.6.3.6.6.6.t = D.N.B.B.D.N.N.B.B.N.D.D.B.D.I & 1X`.i.i.i.i.i.i.` o H.Z.V.Z.Z.Z.Z.Z.Z.Z.Z.Z.Z.Z.Z.Z.Z.Z.Z.Z.Z.Z.",
"Z.Z.Z.Z.Z.Z.Z.Z.Z.Z.5 m ,XW.!     . . .                                   & 1X`.i.i.i.t.a.t.` o H.Z.Z.Z.Z.Z.Z.Z.Z.Z.Z.Z.Z.Z.Z.Z.Z.Z.Z.Z.Z.Z.",
"Z.Z.Z.Z.Z.Z.Z.Z.Z.Z.8 m 2Xz ] /./././././././.^.~.^.^.^.^.^.^././././.^.K & 4X_.i.i.i.i.i.i.` o H.Z.Z.Z.V.Z.Z.Z.Z.Z.Z.Z.Z.Z.Z.Z.Z.Z.Z.Z.Z.Z.",
"Z.Z.Z.Z.Z.Z.V.V.Z.M.P 3.+X< L +XOX+XOXOXOXOXOXOXOXOXoXoXoXoXoXOXoXOX+Xx. .J $XY.i.i.i.i.i.3.[ Z C.Z.Z.Z.V.A.Z.Z.Z.Z.Z.Z.Z.Z.Z.Z.Z.Z.Z.Z.Z.Z.",
"Z.A.V.Z.Z.Z.Z.V.F.  ^.+Xu.& z u.u.u.u.u.u.u.u.u.p.p.p.p.i.i.p.p.u.u.e.. f.2Xt.t.u.u.i.i.u.< M Z.A.V.V.Z.V.Z.Z.Z.Z.Z.Z.Z.Z.Z.Z.Z.Z.Z.Z.Z.Z.Z.",
"Z.Z.V.V.Z.Z.Z.A.F.  E.+Xp.Q t > & & > & & & & & & > & > & & & & & & &   >.=Xt.t.t.P.i.i.u., V Z.V.A.Z.Z.Z.Z.Z.Z.Z.Z.Z.Z.Z.Z.Z.Z.Z.V.Z.Z.Z.Z.",
"Z.Z.Z.Z.Z.Z.Z.Z.F.  E.oXt.2.J 2 1 1 <   a B B N B B N B N B B B B B B O f.=Xi.i.t.i.i.i.i., V Z.Z.Z.Z.Z.Z.Z.Z.Z.Z.Z.Z.Z.Z.Z.Z.Z.Z.Z.Z.Z.Z.Z.",
"Z.Z.Z.Z.Z.Z.Z.Z.F.@ E.oXt.i.5.D ! ! L * %.Z.Z.Z.Z.Z.Z.Z.Z.Z.Z.Z.Z.Z.H.= 8.#Xt.i.i.i.i.i.j.y B V.Z.Z.Z.Z.Z.Z.Z.Z.Z.Z.Z.Z.Z.Z.Z.Z.Z.Z.Z.Z.Z.Z.",
"Z.Z.Z.Z.Z.Z.Z.Z c >XY.i.t.i.p.y.~ t 5 K.Z.Z.Z.Z.Z.Z.Z.Z.Z.Z.Z.Z.Z.+.= .X`.a.t.i.i.t.t.6.% S.A.A.Z.Z.Z.Z.Z.Z.Z.Z.Z.Z.Z.Z.Z.Z.Z.Z.Z.Z.Z.Z.Z.Z.",
"Z.Z.Z.Z.Z.Z.Z.s h 3XY.i.i.t.t.i.4.z * K.Z.Z.Z.Z.Z.Z.Z.Z.Z.Z.Z.Z.Z.o.@ ;X[.i.i.t.t.i.t.3.. S.A.V.Z.Z.Z.Z.Z.Z.Z.Z.Z.Z.Z.Z.Z.Z.Z.Z.Z.Z.Z.Z.Z.Z.",
"Z.Z.Z.Z.Z.Z.Z.p h 3XI.i.i.i.i.i.i.H * K.Z.Z.Z.Z.Z.Z.Z.Z.Z.Z.Z.Z.Z.o.+ ;X[.i.i.i.i.i.i.... N.Z.Z.Z.Z.Z.Z.Z.Z.Z.Z.Z.Z.Z.Z.Z.Z.Z.Z.Z.Z.Z.Z.Z.Z.",
"Z.Z.Z.Z.Z.Z.Z.s h 3XI.i.i.i.a.i.i.H : Z.Z.Z.Z.Z.Z.Z.Z.Z.Z.Z.Z.Z.V.X.+ ;X[.i.i.a.i.a.i.6.  M.Z.Z.Z.Z.Z.Z.Z.Z.Z.Z.Z.Z.Z.Z.Z.Z.Z.Z.Z.V.Z.Z.Z.Z.",
"Z.Z.Z.Z.Z.C.V >.j.`.P.u.a.i.i.u.b T $.Z.Z.Z.Z.Z.Z.Z.Z.Z.Z.Z.Z.Z.U [ g._.Y.i.i.i.i.i./ P +.Z.Z.Z.Z.Z.Z.Z.Z.Z.Z.Z.Z.Z.Z.Z.Z.Z.Z.Z.Z.Z.Z.Z.Z.Z.",
"Z.Z.Z.Z.Z.D.  b.%Xt.i.i.i.i.i.y.@ C Z.Z.Z.Z.Z.Z.Z.V.Z.Z.Z.Z.Z.Z.6 { 1Xi.i.i.i.i.i.u.r s Z.V.Z.Z.Z.Z.Z.Z.Z.Z.Z.Z.Z.Z.Z.Z.Z.Z.Z.Z.Z.Z.Z.Z.Z.Z.",
"Z.Z.Z.Z.Z.B.  Q.#Xt.t.t.i.i.i.u.@ S Z.Z.Z.Z.Z.Z.Z.Z.Z.Z.Z.Z.Z.Z.6 [ =Xs.t.i.i.a.i.i.y M Z.Z.Z.Z.Z.Z.Z.Z.Z.Z.Z.Z.Z.Z.Z.Z.Z.Z.Z.Z.Z.Z.Z.Z.Z.Z.",
"Z.Z.Z.Z.Z.B.  Q.#Xt.t.i.i.i.u.y.@ S C.Z.Z.Z.Z.Z.Z.Z.Z.Z.Z.Z.Z.Z.q { ,Xa.i.i.i.i.i.x.e s Z.Z.Z.Z.Z.Z.Z.Z.Z.Z.Z.Z.Z.Z.Z.Z.Z.Z.Z.Z.Z.Z.Z.Z.Z.Z.",
"Z.Z.Z.Z.Z.C.  l.@Xt.i.i.i.i.i.u.@ A A.Z.Z.Z.Z.Z.Z.Z.Z.Z.Z.Z.Z.Z.q / +Xa.i.i.i.i.i.i.r s Z.Z.Z.Z.Z.Z.Z.Z.Z.Z.Z.Z.Z.Z.Z.Z.Z.Z.Z.Z.Z.Z.Z.Z.Z.Z.",
"Z.Z.Z.Z.Z.B.O  .i.x.u.i.a.x.i.z.@ A Z.V.Z.Z.Z.Z.Z.V.Z.Z.Z.Z.Z.Z.0 m i.i.u.i.x.a.x.x.y M Z.Z.Z.Z.Z.Z.Z.Z.Z.Z.Z.Z.Z.Z.Z.Z.Z.Z.Z.Z.Z.Z.Z.Z.Z.Z.",
"Z.Z.Z.Z.Z.Z.L.G < < ; < > > > q L.Z.Z.Z.Z.Z.Z.Z.Z.Z.Z.Z.Z.Z.Z.Z.H.@.< < > > < > < < ,.C.Z.V.Z.Z.Z.Z.Z.Z.Z.Z.Z.Z.Z.Z.Z.Z.Z.Z.Z.Z.Z.Z.V.Z.Z.Z.",
"Z.Z.Z.Z.Z.Z.Z.U i i i i i i i M K.Z.Z.Z.Z.Z.Z.Z.Z.Z.Z.Z.Z.Z.Z.Z.Z.&.i i i i i i i i M.V.Z.Z.Z.Z.Z.Z.Z.Z.Z.Z.Z.Z.Z.Z.Z.Z.Z.Z.Z.Z.Z.Z.Z.Z.Z.Z.",
"Z.Z.Z.Z.Z.Z.Z.Z.V.Z.V.V.A.V.Z.V.Z.Z.Z.Z.Z.Z.Z.Z.Z.Z.Z.Z.Z.Z.Z.Z.Z.Z.Z.Z.Z.Z.Z.Z.A.V.V.V.Z.Z.Z.Z.Z.Z.Z.Z.Z.Z.Z.Z.Z.Z.Z.Z.Z.Z.Z.Z.Z.Z.Z.Z.Z.Z.",
"Z.Z.Z.Z.Z.Z.Z.V.Z.Z.V.V.V.V.Z.Z.Z.Z.Z.Z.Z.Z.Z.Z.Z.Z.Z.Z.Z.Z.Z.Z.Z.Z.Z.Z.Z.Z.Z.Z.V.V.A.V.Z.Z.Z.Z.Z.Z.Z.Z.Z.Z.Z.Z.Z.Z.Z.Z.Z.Z.Z.Z.Z.Z.Z.Z.Z.Z.",
"Z.Z.Z.Z.Z.Z.Z.Z.Z.Z.Z.Z.Z.Z.Z.Z.Z.Z.Z.Z.Z.Z.Z.Z.Z.Z.Z.Z.Z.Z.Z.Z.Z.Z.Z.Z.Z.Z.Z.Z.Z.Z.Z.Z.Z.Z.Z.Z.Z.Z.Z.Z.Z.Z.Z.Z.Z.Z.Z.Z.Z.Z.Z.Z.Z.Z.Z.Z.Z.Z.",
"Z.Z.Z.Z.Z.Z.V.Z.Z.Z.Z.Z.Z.Z.Z.Z.Z.Z.Z.Z.Z.Z.Z.Z.Z.Z.Z.Z.Z.Z.Z.Z.Z.Z.Z.Z.Z.Z.Z.Z.Z.Z.Z.Z.Z.Z.Z.Z.Z.Z.Z.Z.Z.Z.Z.Z.Z.Z.Z.Z.Z.Z.Z.Z.Z.Z.Z.Z.Z.Z.",
"Z.Z.Z.Z.Z.Z.Z.Z.Z.Z.Z.Z.Z.Z.Z.Z.Z.Z.Z.Z.Z.Z.Z.Z.Z.Z.Z.Z.Z.Z.Z.Z.Z.Z.Z.Z.Z.Z.Z.Z.Z.Z.Z.Z.Z.Z.Z.Z.Z.Z.Z.Z.Z.Z.Z.Z.Z.Z.Z.Z.Z.Z.Z.Z.Z.Z.Z.Z.Z.Z."
};
