/* XPM */
static char *lad[] = {
/* columns rows colors chars-per-pixel */
"46 50 154 2 ",
"   c None",
".  c #030203",
"X  c #080403",
"o  c #0D0907",
"O  c #080708",
"+  c #0C0A09",
"@  c #120D0B",
"#  c #15100E",
"$  c #1A130C",
"%  c #100F10",
"&  c #141313",
"*  c #1B1510",
"=  c #1E1C1C",
"-  c #21170F",
";  c #241B0F",
":  c #241A12",
">  c #2A1F13",
",  c #2A1F18",
"<  c #2D2115",
"1  c #2D2219",
"2  c #332415",
"3  c #3C2B17",
"4  c #32261A",
"5  c #36291D",
"6  c #3C2C1B",
"7  c #3E301E",
"8  c #1F1F20",
"9  c #201F20",
"0  c #212021",
"q  c #292725",
"w  c #312B26",
"e  c #3B2E21",
"r  c #332D29",
"t  c #402E1B",
"y  c #44321C",
"u  c #4A341C",
"i  c #543C1D",
"p  c #443422",
"a  c #483620",
"s  c #4D3A24",
"d  c #453829",
"f  c #4C3C2A",
"g  c #523C21",
"h  c #583F21",
"j  c #503E29",
"k  c #554025",
"l  c #5D4322",
"z  c #5D462D",
"x  c #5E4730",
"c  c #5C4B36",
"v  c #644926",
"b  c #6D4D25",
"n  c #634A2B",
"m  c #6B4E2A",
"M  c #704E26",
"N  c #6F5026",
"B  c #6E5129",
"V  c #725125",
"C  c #73532A",
"Z  c #79562A",
"A  c #7C592B",
"S  c #634B32",
"D  c #665136",
"F  c #6F5432",
"G  c #6D5439",
"H  c #725431",
"J  c #765938",
"K  c #7F5E3A",
"L  c #825D2D",
"P  c #815D34",
"I  c #87612F",
"U  c #90692E",
"Y  c #866035",
"T  c #8A6433",
"R  c #8F6934",
"E  c #81623B",
"W  c #89673B",
"Q  c #8C693C",
"!  c #936733",
"~  c #946B33",
"^  c #996C33",
"/  c #946E3E",
"(  c #9D7136",
")  c #9D733A",
"_  c #A27437",
"`  c #AB7937",
"'  c #A37539",
"]  c #A6793B",
"[  c #AB7A39",
"{  c #B07C39",
"}  c #936F43",
"|  c #9D7543",
" . c #A57846",
".. c #A97C48",
"X. c #B5823D",
"o. c #AE8046",
"O. c #AE8249",
"+. c #B68442",
"@. c #BA8541",
"#. c #BE8A44",
"$. c #B3854E",
"%. c #B5854A",
"&. c #B4884F",
"*. c #B98848",
"=. c #BA8B4F",
"-. c #B98C4F",
";. c #BB8B4D",
":. c #B28651",
">. c #B48B54",
",. c #BA8B50",
"<. c #C08C43",
"1. c #C18C46",
"2. c #C58F46",
"3. c #C08E4B",
"4. c #C48E49",
"5. c #C38D4A",
"6. c #C49047",
"7. c #C49046",
"8. c #C39049",
"9. c #C3914B",
"0. c #C8924A",
"q. c #CA954B",
"w. c #C8924D",
"e. c #C9924C",
"r. c #CE974D",
"t. c #CC974F",
"y. c #CB954C",
"u. c #CF984D",
"i. c #CF984E",
"p. c #CE984F",
"a. c #D1974E",
"s. c #D0994F",
"d. c #D0994F",
"f. c #C69350",
"g. c #CF9850",
"h. c #CE9952",
"j. c #D09950",
"k. c #D09850",
"l. c #D19B50",
"z. c #D49C50",
"x. c #D69D51",
"c. c #D79F54",
"v. c #D49D54",
"b. c #D89E53",
"n. c #D49F58",
"m. c #D6A055",
"M. c #DAA257",
"N. c #DDA459",
"B. c #DFA85F",
"V. c #E0A65A",
"C. c #E1AA5E",
"Z. c #DEA962",
"A. c #E0A760",
"S. c #E2A960",
/* pixels */
"                                    # o o o O @                       r O o o o o           ",
"                                  % >.+.] ] ] ) &                     E 4.] ] ] ] 1         ",
"                                  . -.X.` ` ` ) @                     E 9.` ` ` ` :         ",
"                                  , -.X.` ` ` R =                   : Q <.` ` ` ( 1         ",
"                                O :.@.` ` ` ` X                     J t.` ` ` ` <           ",
"                                O $.X.` ` ` ] .                     J t.` ` ` ` <           ",
"                                5 $.X.` ` ` Y o                   4 W <.` ` ` ! 5           ",
"                              . ..@.` ` ` ] O                     F t.` ` ` ` 2             ",
"                              . ..@.` ` ` ] O                     F t.` ` ` ` 2             ",
"                              s O.X.` ` ` A *                   d Q <.` ` ` Y <             ",
"                            & | #.L C B B @                   O n t.` ` ` ` 5               ",
"                            & | Q S z z x x z z z z x z z z z e n t.` ` ` ` 5               ",
"                            c o.5 | g.s.j.s.s.s.s.j.s.j.i.i.-.K / #.` ` ` L e               ",
"                          . } <.i g l l l l l l l l l l l l t z i.` ` ` ` y                 ",
"                          . } #.! u 2 2 X                   O z i.` ` ` ` y                 ",
"                          n o.+.` U M 3 q                   f | #.` ` ` C e                 ",
"                        9 W 4.` ` ` ! $                     f j.` ` ` ` u                   ",
"                        0 Q <.` ` ` ` -                     j j.` ` ` ` u                   ",
"                        D o.X.` ` ` l                     5  .@.` ` ` C 5                   ",
"                        E 7.` ` ` ` :                     y j.` ` ` ` g                     ",
"                        E <.` ` ` ` :                     a j.` ` ` ` g                     ",
"                      S +.X.` ` ` g                     p O.X.` ` ` C 4                     ",
"                      J t.v < < < O . . . . . . . . . . t j.` ` ` ` g                       ",
"                      J E P -.-.,.,.,.-.,.,.,.,.,.,.,.} y j.` ` ` ` k                       ",
"                    G -.g m +.@.+.+.+.+.+.+.+.+.+.+.' s ,.X.` ` ` N :                       ",
"                    F t.L 2 $ $ $ $ $ $ $ $ $ $ $ $ $ 4 M.` ` ` ` l                         ",
"                    H t.] Z l h *                     5 M.` ` ` ` l                         ",
"                  S 9.` ` ' A ,                     1 g.{ ` ` ` b w                         ",
"                  n t.` ` ` ] 5                     < M.` ` ` ` v 0                         ",
"                  n t.` ` ` ` 5                     2 M.` ` ` ` v 8                         ",
"                z g.` ` ` ` y                     : A.` ` ` ` m .                           ",
"                z s.` ` ` ` y                     - V.` ` ` ` m .                           ",
"                m t.` ` ` ( 5                     5 M.` ` ` ' n                             ",
"              j j.' ! ! ! t                     : Z.` ` ` ` C &                             ",
"              j f.n < 1 1 1 1 1 < 1 1 1 1 1 1 , $ S.` ` ` ` C &                             ",
"              H Q z M.M.V.V.M.M.M.M.M.M.M.M.M.&.u n.` ` ` _ m                               ",
"            p j.C y L L L L L L L L L L L L L @ Z.` ` ` ` Z .                               ",
"            y j.^ i $ $ O . . . . . . . . . . @ B.` ` ` ` Z .                               ",
"            H t.` ! V g 4                     z j.` ` ` ' n                                 ",
"          7 b.` ` ` ! t                     X C.` ` ` ` P O                                 ",
"          t m.` ` ` ` g                     X S.` ` ` ` L O                                 ",
"        1 K 9.` ` ` R p                     S t.` ` ` ( z                                   ",
"        4 M.` ` ` ` v                     # M.` ` ` ` R &                                   ",
"        4 M.` ` ` ` l                     # M.` ` ` ` R =                                   ",
"        < 4.` ` ` ` l                     @ -.` ` ` ` R =                                   ",
"        r g s g g g f                       g g g g g s                                     ",
"                                                                                            ",
"                                                                                            ",
"                                                                                            ",
"                                                                                            "
};
