/* XPM */
static char *numbers_4[] = {
/* columns rows colors chars-per-pixel */
"37 50 180 2 ",
"   c #020106",
".  c #050A07",
"X  c #01010A",
"o  c #09030C",
"O  c #070A0B",
"+  c #090B0E",
"@  c #091107",
"#  c #0C1907",
"$  c #0D100D",
"%  c #121B0D",
"&  c #030211",
"*  c #0B0212",
"=  c #0C0D12",
"-  c #030911",
";  c #120415",
":  c #150219",
">  c #1A041C",
",  c #0D1210",
"<  c #101414",
"1  c #1B1815",
"2  c #14151A",
"3  c #191C16",
"4  c #24091F",
"5  c #21051E",
"6  c #231A1D",
"7  c #17250E",
"8  c #1A260F",
"9  c #1A2415",
"0  c #1E2D14",
"q  c #1F301A",
"w  c #202C1E",
"e  c #223119",
"r  c #283319",
"t  c #2C3C1B",
"y  c #323B1D",
"u  c #1E0A24",
"i  c #1D0421",
"p  c #200925",
"a  c #260E2C",
"s  c #290E2C",
"d  c #2A0C22",
"f  c #251026",
"g  c #281622",
"h  c #2E102F",
"j  c #370F34",
"k  c #380F34",
"l  c #271031",
"z  c #331332",
"x  c #3B1136",
"c  c #3C1339",
"v  c #322822",
"b  c #2E3B20",
"n  c #313B21",
"m  c #3C3D2E",
"M  c #2E411D",
"N  c #32441D",
"B  c #334422",
"V  c #394E26",
"C  c #394624",
"Z  c #3F5624",
"A  c #42492B",
"S  c #445D24",
"D  c #425129",
"F  c #445D28",
"G  c #405325",
"H  c #444F37",
"J  c #4D5F33",
"K  c #466025",
"L  c #4A6627",
"P  c #4A632B",
"I  c #4E6C29",
"U  c #4D6A26",
"Y  c #516C2C",
"T  c #53652E",
"R  c #54732A",
"E  c #5A7D2C",
"W  c #577A2A",
"Q  c #5A6B3B",
"!  c #5F7736",
"~  c #5B7A32",
"^  c #60793C",
"/  c #481548",
"(  c #4A1A48",
")  c #51184B",
"_  c #561E50",
"`  c #5E1C5B",
"'  c #631E5F",
"]  c #5C3E49",
"[  c #67275F",
"{  c #721E6D",
"}  c #692763",
"|  c #7E246E",
" . c #72236E",
".. c #782876",
"X. c #762471",
"o. c #544240",
"O. c #536540",
"+. c #716650",
"@. c #872677",
"#. c #832B7B",
"$. c #932D7C",
"%. c #982B7D",
"&. c #8A3678",
"*. c #8B3478",
"=. c #953A76",
"-. c #804F61",
";. c #86516E",
":. c #944374",
">. c #985270",
",. c #965B66",
"<. c #966268",
"1. c #99666A",
"2. c #9A7061",
"3. c #987A67",
"4. c #977563",
"5. c #5F832D",
"6. c #5F8330",
"7. c #61862E",
"8. c #648A2F",
"9. c #6B942F",
"0. c #6E992E",
"q. c #618530",
"w. c #648831",
"e. c #688E32",
"r. c #6F873E",
"t. c #65803A",
"y. c #6D9433",
"u. c #6E9830",
"i. c #709734",
"p. c #709931",
"a. c #6D8948",
"s. c #748749",
"d. c #7B9441",
"f. c #7A9A44",
"g. c #99CD36",
"h. c #9CCB3B",
"j. c #95D035",
"k. c #A2C73D",
"l. c #A0CB39",
"z. c #809F46",
"x. c #8B9C5A",
"c. c #83A148",
"v. c #90B24F",
"b. c #98B74C",
"n. c #8CA956",
"m. c #97B854",
"M. c #98B85D",
"N. c #94B550",
"B. c #A7A85B",
"V. c #A5A459",
"C. c #A6BA59",
"Z. c #A18360",
"A. c #A89966",
"S. c #9AA471",
"D. c #A7A265",
"F. c #ABBC62",
"G. c #9DC943",
"H. c #9BC44B",
"J. c #9CC355",
"K. c #A1C74E",
"L. c #A4C547",
"P. c #A5C159",
"I. c #8D2D82",
"U. c #992786",
"Y. c #952A84",
"T. c #9A2987",
"R. c #972589",
"E. c #9C268C",
"W. c #962989",
"Q. c #99288B",
"!. c #9D2492",
"~. c #A3238E",
"^. c #A4228F",
"/. c #A3248C",
"(. c #A1248E",
"). c #A2238D",
"_. c #A12291",
"`. c #A32290",
"'. c #A12491",
"]. c #A12292",
/* pixels */
"p.p.p.p.p.p.p.p.p.p.p.p.p.0.0.0.0.0.0.0.0.0.0.0.0.0.0.0.0.0.0.0.0.0.0.0.0.",
"p.p.p.p.p.p.p.p.p.p.p.p.p.0.0.0.0.0.0.0.0.0.0.0.0.0.0.0.0.0.0.0.0.0.0.0.0.",
"p.p.p.p.p.p.p.p.p.p.p.p.p.0.0.0.0.0.0.0.0.0.0.u.u.u.0.0.0.0.0.0.0.0.0.0.0.",
"p.p.p.p.p.p.p.p.p.p.p.p.p.0.0.0.0.0.9.6.I F B q 9 e R u.0.0.0.0.0.0.0.0.0.",
"p.p.p.p.p.p.p.p.p.p.p.p.p.0.0.0.0.0.R < H Q r.c.N.d.y r E u.0.0.0.0.0.0.0.",
"p.p.p.y.w.~ P Z N S y.p.p.0.0.0.0.0.R . r d.G.h.g.h.J.a.0 N w.0.0.0.0.0.0.",
"p.p.P % w B P ^ s.J 7 P i.0.0.0.0.0.R X X - M z.K.l.G.G.C.+.1 7.0.0.0.0.0.",
"p.p.F $ O.M.G.g.g.H.n.D 0 R u.0.0.0.R X   X X . A 3.1.>.=.&.z E 0.0.0.0.0.",
"p.p.F X   % ^ H.h.h.G.K.x.m t 9.0.0.R X X X X X ; Y.Q./.!.E.x E 0.0.0.0.0.",
"p.p.F X X &   8 s.A.Z.4.<.;.g 7.0.0.Y X X X X X : Y.!./.!.E.x E 0.0.0.0.0.",
"0.0.K X X     & u *.E.E._.Q.z 7.0.0.I X X X X X : Y.!./.!.E.x E 0.0.0.0.0.",
"0.0.K     X & X 4 W._.T.!.T.h 7.0.0.I X X X X X ; Y.!./.!.E.x E 0.0.0.0.0.",
"0.0.K X X X X X u T._./.!.E.s 7.0.0.I X X X X X : T.!./.!.E.x E 0.0.0.0.0.",
"0.0.K X X X X X u T._./.!.E.s 7.0.0.I X X X X X : T.!./.!.E.x E 0.0.0.0.0.",
"0.0.K X X X X X u T._./.!.E.s 5.0.0.I X X X X X : Y.!./.!.E.x E 0.0.0.0.0.",
"0.0.K X X X X X u T._./.!.Q.s 5.0.0.I X X X X X : Y._./.!.E.x E 0.0.0.0.0.",
"0.0.S X X X X X u T._./.!.Q.l 6.0.0.I X X X X X > Y._._.!.E.x E 0.0.0.0.0.",
"0.0.S X X X X X u Q._./.!.W.p 6.0.0.I X X X X X > Y._./.!.E.x E 0.0.0.0.0.",
"0.0.S X X X X X p T._./.!.W.p 5.0.0.I X X X X X > Y._./.!.E.x E 0.0.0.0.0.",
"0.0.S X X X X X p T._./.!.Q.p 6.0.0.I X X X X X > Y.!./.!.E.x 5.0.0.0.0.0.",
"0.0.S X X X X X p T._.E.!.Q.f 5.0.0.Y X X       : T.!./.!.E.x 5.0.0.0.0.0.",
"0.0.S X X X X X p Q._.E.!.!.l F V t 7 @ . X X X : U.!./.!.E.x 5.0.0.0.0.0.",
"0.0.S X X X X X p Q._.E.!.T.o.T t.f.v.m.! % X X : U.!./.!.E.x 5.0.0.0.0.0.",
"0.0.S X X       p T././._.%.D.G.G.h.h.h.k.b.Y # > Y.E.E.!.E.x 5.0.0.0.0.0.",
"0.0.U . X       u W._.!.!.Y.V.j.h.h.h.h.h.L.F.S.] Y./._.!.E.x 7.0.0.0.0.0.",
"0.0.0.E e . X X p E.!.E./.$.A.P.C.B.A.Z.2.,.:.*.Y._.E.E.!.E.x 7.0.0.0.0.0.",
"0.0.0.0.u.Y 9 X u #...} _ ( -.:.=.$.Y.Q.E.!././._.!./._.!.E.x 7.0.0.0.0.0.",
"0.0.0.0.0.0.9.L = ; * X X * | _./././.E._._._.E.E.E.!._.E.Q.x 7.0.0.0.0.0.",
"0.0.0.0.0.0.0.8.+ X X X X o | _././.E.E.E.E.E._._._._._.E.Q.x 7.0.0.0.0.0.",
"0.0.0.0.0.0.0.9.3 X X X   X | _./.E.E.!._.!.!.!.!.!._._.E.Q.x 7.0.0.0.0.0.",
"0.0.0.0.0.0.0.0.8.C = X   * | !.E.E.E.Q.Y.I.#.X.{ W.!._.E.Q.x 7.0.0.0.0.0.",
"0.0.0.0.0.0.0.0.0.0.8.N . * } @. .' ) x s > * o i Y.!./.!.E.x 7.0.0.0.0.0.",
"0.0.0.0.0.0.0.0.0.0.0.0.E b 6 v n G B X X X X X > Y.!./.!.R.x 7.0.0.0.0.0.",
"0.0.0.0.0.0.0.0.0.0.0.0.0.0.y.u.0.0.L X   X X o > T.!./.!.E.x 7.0.0.0.0.0.",
"0.0.0.0.0.0.0.0.0.0.0.0.0.0.0.0.0.0.L X X X X X > T.!./.!.E.x 7.0.0.0.0.0.",
"0.0.0.0.0.0.0.0.0.0.0.0.0.0.0.0.0.0.L           : Y.!./.!.Q.x 7.0.0.0.0.0.",
"0.0.0.0.0.0.0.0.0.0.0.0.0.0.0.0.0.0.L X + = X   : Y.!./.!.Q.x 7.0.0.0.0.0.",
"0.0.0.0.0.0.0.0.0.0.0.0.0.0.0.0.0.0.L 2 = = < X > Y.!./.!.Q.k 7.0.0.0.0.0.",
"0.0.0.0.0.0.0.0.0.0.0.0.0.0.0.0.0.0.L 2 = + 2 o > Y.!./.!.Q.k 7.0.0.0.0.0.",
"0.0.0.0.0.0.0.0.0.0.0.0.0.0.0.0.0.0.L = + + = X > Y.!./.!.Q.x 7.0.0.0.0.0.",
"0.0.0.0.0.0.0.0.0.0.0.0.0.0.0.0.0.0.L X         > Y.!./.!.Q.z 7.0.0.0.0.0.",
"0.0.0.0.0.0.0.0.0.0.0.0.0.0.0.0.0.0.L X         > Y.!./.!.Q.j 7.0.0.0.0.0.",
"0.0.0.0.0.0.0.0.0.0.0.0.0.0.0.0.0.0.L X         > Y.!./.!.E.j w.0.0.0.0.0.",
"0.0.0.0.0.0.0.0.0.0.0.0.0.0.0.0.0.0.L X X X X X > Y._.E.!.Q.j w.0.0.0.0.0.",
"0.0.0.0.0.0.0.0.0.0.0.0.0.0.0.0.0.0.L X X X X X > Y._.E.!.Q.j 7.0.0.0.0.0.",
"0.0.0.0.0.0.0.0.0.0.0.0.0.0.0.0.0.0.5.9 X X X X > Y._.E.!.E.j 7.0.0.0.0.0.",
"0.0.0.0.0.0.0.0.0.0.0.0.0.0.0.0.0.0.0.y.Z , X X 5 Y.E.Q.Q.Y.z w.0.0.0.0.0.",
"0.0.0.0.0.0.0.0.0.0.0.0.0.0.0.0.0.0.0.0.0.e.V + : } ` / k d 1 w.0.0.0.0.0.",
"0.0.0.0.0.0.0.0.0.0.0.0.0.0.0.0.0.0.0.0.0.0.0.w.N C D I R e.y.0.0.0.0.0.0.",
"0.0.0.0.0.0.0.0.0.0.0.0.0.0.0.0.0.0.0.0.0.0.0.0.0.0.0.0.0.0.0.0.0.0.0.0.0."
};
