/* XPM */
static char *numbers_0[] = {
/* columns rows colors chars-per-pixel */
"33 50 184 2 ",
"   c #010106",
".  c #0D0306",
"X  c #01010A",
"o  c #07080C",
"O  c #090B0E",
"+  c #080408",
"@  c #12040B",
"#  c #180403",
"$  c #0C0D11",
"%  c #0D1013",
"&  c #161B16",
"*  c #1A1E1D",
"=  c #151619",
"-  c #220305",
";  c #2A0308",
":  c #3C0D12",
">  c #261815",
",  c #3D1114",
"<  c #371919",
"1  c #3B090D",
"2  c #1C241D",
"3  c #27271E",
"4  c #3A221A",
"5  c #2C351F",
"6  c #39361D",
"7  c #1A2024",
"8  c #252A26",
"9  c #2C3823",
"0  c #323A2C",
"q  c #2D2F34",
"w  c #2D3033",
"e  c #38383A",
"r  c #490C15",
"t  c #510F1A",
"y  c #4C1116",
"u  c #57121A",
"i  c #6D121D",
"p  c #581A24",
"a  c #4D1D28",
"s  c #611922",
"d  c #721524",
"f  c #7C1D30",
"g  c #42363B",
"h  c #70202A",
"j  c #792D38",
"k  c #344322",
"l  c #36432C",
"z  c #3C4C2A",
"x  c #394827",
"c  c #3D5125",
"v  c #3E522C",
"b  c #3E4C33",
"n  c #424C24",
"m  c #464A25",
"M  c #415527",
"N  c #40542C",
"B  c #455B2B",
"V  c #485F2D",
"C  c #465922",
"Z  c #505C28",
"A  c #40473D",
"S  c #42523A",
"D  c #4C642F",
"F  c #53662F",
"G  c #536B32",
"H  c #5E7D33",
"J  c #5B7634",
"K  c #59742E",
"L  c #403B41",
"P  c #3F4043",
"I  c #444348",
"U  c #504D4B",
"Y  c #4B4D51",
"T  c #525556",
"R  c #56595D",
"E  c #585A5F",
"W  c #535755",
"Q  c #495447",
"!  c #67595D",
"~  c #674F59",
"^  c #566543",
"/  c #627843",
"(  c #5C5D62",
")  c #615E65",
"_  c #735E69",
"`  c #5E6263",
"'  c #636266",
"]  c #65666A",
"[  c #67686B",
"{  c #6A6A6E",
"}  c #696769",
"|  c #6D6C71",
" . c #747579",
".. c #77797D",
"X. c #79797D",
"o. c #737375",
"O. c #716E72",
"+. c #851926",
"@. c #941C2F",
"#. c #971C31",
"$. c #A01D2E",
"%. c #A41B34",
"&. c #B41E37",
"*. c #952333",
"=. c #AA243A",
"-. c #BA233B",
";. c #CA1F3C",
":. c #EC1A36",
">. c #E51D3C",
",. c #EB1B3C",
"<. c #F1193C",
"1. c #F1173F",
"2. c #CF233D",
"3. c #DC223D",
"4. c #E2203C",
"5. c #B42B41",
"6. c #A73F52",
"7. c #E21E41",
"8. c #CE2745",
"9. c #D42543",
"0. c #D72645",
"q. c #CD354E",
"w. c #CF3E54",
"e. c #E42040",
"r. c #8B4B54",
"t. c #8D5F65",
"y. c #AF5467",
"u. c #BC5165",
"i. c #BF5E73",
"p. c #926268",
"a. c #BC626D",
"s. c #B46F7B",
"d. c #B66172",
"f. c #B1707F",
"g. c #A7737A",
"h. c #C94158",
"j. c #C34C5E",
"k. c #C74459",
"l. c #E6415D",
"z. c #C44C62",
"x. c #C35B6F",
"c. c #D15569",
"v. c #C36171",
"b. c #61832F",
"n. c #6E992E",
"m. c #638533",
"M. c #668833",
"N. c #6A8E35",
"B. c #658639",
"V. c #6D9532",
"C. c #6F9931",
"Z. c #6E933A",
"A. c #709931",
"S. c #70963B",
"D. c #73993C",
"F. c #769749",
"G. c #7C9C52",
"H. c #809E59",
"J. c #7C7D81",
"K. c #AD7B85",
"L. c #C07985",
"P. c #7E8084",
"I. c #878B8F",
"U. c #8C8E92",
"Y. c #9C8F91",
"T. c #8E9295",
"R. c #8E9899",
"E. c #8F9298",
"W. c #939496",
"Q. c #9C9296",
"!. c #939599",
"~. c #9C9399",
"^. c #94989A",
"/. c #999B9E",
"(. c #97898F",
"). c #A7838B",
"_. c #A28F97",
"`. c #A78A94",
"'. c #B58B95",
"]. c #9D9EA2",
"[. c #A89DA3",
"{. c #A2A2A5",
"}. c #A4A4A9",
"|. c #A9A7AA",
/* pixels */
"A.A.A.A.A.A.A.A.A.A.A.n.n.n.n.n.n.n.n.n.n.n.n.n.n.n.n.n.n.n.n.n.n.",
"A.A.A.A.A.A.A.A.A.A.A.A.C.A.m.K C n 6 n M.n.n.n.n.n.n.n.n.n.n.n.n.",
"A.A.A.A.A.A.A.N.J Z m 6 4 , t i +.#.=.@., M N.n.n.n.n.n.n.n.n.n.n.",
"A.A.A.A.A.A.A.z > h $.&.;.3.4.>.>.<.<.,.2.+., F C.n.n.n.n.n.n.n.n.",
"A.A.A.A.A.A.A.k . t =.0.,.:.:.,.,.,.,.:.,.7.5.p 3 C.n.n.n.n.n.n.n.",
"A.A.A.A.A.A.A.k X X - i -.e.,.>.3.9.q.h.z.v.s.).e m.n.n.n.n.n.n.n.",
"A.A.A.A.A.A.A.k   X X + - j d.s.K.`._.~.W.W.!.R.e F C.n.n.n.n.n.n.",
"A.A.A.A.A.A.A.k   X X X X e W.!.!.!.!.W.W.Q.W.Y.r.y 6 M.n.n.n.n.n.",
"A.A.A.A.A.N.m.5   X X X X e Q.!.!.!.W.W.!.!.!.Q.z.0.@., n C.n.n.n.",
"A.A.G 6 4 , u d u -   X   g ~.!.!.!.!.W.T.!.!.Q.j.,.>.8.f < J n.n.",
"n.C.> p =.9.4.>.7.&.t #   e ~.!.!.!.!.!.!.W.W.(.y.h.z.x.g.! M n.n.",
"n.C.& . 1 %.7.>.,.1.0.=.r L !.!.U.P.| R I q * % _ _.!.!.!.} c n.n.",
"n.C.% X X . r %.0.8.q.h.y.~ q 7 * * X         X } W.!.!.W.} c n.n.",
"n.C.%   X X   # t.)._.~.!.) 0 N.A.G.% X X X X   } W.!.!.W.} c n.n.",
"n.C.O   X X X   o.!.!.!.!.) l n.n.D.% X X X X   } !.W.!.!.} c n.n.",
"n.C.O       X   o.W.W.W.W.` l n.n.D.$ X X X X X } !.!.!.W.} M n.n.",
"n.C.O            .!.!.!.W.( z n.n.D.$ X X X X   } !.!.!.!.} B n.n.",
"n.C.O            .!.!.!.W.( B n.n.D.$ X X X X   } !.!.!.!.} B n.n.",
"n.C.O           o.!.!.W.W.( B n.n.D.$ X X X X   } !.!.!.!.} B n.n.",
"n.C.O            .!.!.W.!.( B n.n.D.$ X X X X   [ !.!.!.!.} B n.n.",
"n.C.O            .!.!.!.^.( B n.n.S.$ X X X X   [ !.!.!.!.' B n.n.",
"n.C.o            .!.!.!.!.( v n.n.Z.$ X X X X   } !.!.!.!.' B n.n.",
"n.C.X            .!.!.!.!.( v n.n.Z.$ X X X X   } !.!.!.!.' c n.n.",
"n.C.X            .!.!.!.!.( v n.n.S.$ X X X X X [ !.!.!.!.' c n.n.",
"n.C.X            .!.!.!.W.( v n.n.D.% X X X X X } !.!.!.!.} M n.n.",
"n.C.X            .!.!.!.W.( v n.n.D.$ X X X X X [ !.!.!.!.' M n.n.",
"n.C.o            .!.!.!.!.( M n.n.D.$ X X X X X [ !.!.!.!.' M n.n.",
"n.C.o            .!.!.!.!.( M n.n.D.$ X X X X X [ !.!.!.!.' M n.n.",
"n.C.o            .!.!.!.!.( M n.n.S.$ X X X X X [ !.!.!.!.' B n.n.",
"n.C.o            .!.!.!.!.( M n.n.Z.$ X X X X   [ !.!.!.!.' B n.n.",
"n.C.o           ..!.!.!.!.( M n.n.Z.O X X X X   [ !.!.!.!.' B n.n.",
"n.C.o           ..!.!.!.!.( z n.n.G.$ X X X X   [ !.!.!.!.' V n.n.",
"n.C.o           ..!.!.!.!.E Q n.n.H.$ X X X X   [ !.!.!.!.' B n.n.",
"n.C.o           ..!.!.!.!.E Q n.n.G.$ X X X X   [ !.!.!.!.) B n.n.",
"n.C.o           ..!.!.!.!.E b n.n.F.O X X X X   [ !.!.!.!.( B n.n.",
"n.C.O           ..!.!.!.R.E S n.n.G.$ X X X X X [ !.!.!.W.' B n.n.",
"n.C.O           ..!.!.!.~.! A / ^ U @ X X X X X [ !.!.!.!.' B n.n.",
"n.C.O           ..!.!.!.R.! : y i +.*.d ; . X X [ !.!.!.!.( D n.n.",
"n.C.$           ..!.!.!.~.d.0.>.,.,.,.,.-.s < @ | T.!.!.!.` V n.n.",
"n.C.* X         ..!.!.!.W.a.>.,.,.,.,.,.>.l.6.a O.I.J.} R q G n.n.",
"n.n.H 8 X X     ..!.!.!.!.a.>.,.7.0.8.w.c.v.L.'.g 3 9 z D H C.n.n.",
"n.n.n.C.G 2 X   ..!.!.U.J.p.u.i.s.K.`.[.~.|.!.{.w m.n.n.n.n.n.n.n.",
"n.n.n.n.n.C.G & e q = O X I Q.W.{.{./.[.!.}.!.!.w m.n.n.n.n.n.n.n.",
"n.n.n.n.n.n.n.z X         I !.!./.|.W.{.}.{.W.!.q b.n.n.n.n.n.n.n.",
"n.n.n.n.n.n.n.M X         I !.{.{./.}.].!.!.!.!.q b.n.n.n.n.n.n.n.",
"n.n.n.n.n.n.n.C.z $ X X   I ].^.!.{.!.!.W.!.!.!.w b.n.n.n.n.n.n.n.",
"n.n.n.n.n.n.n.n.C.B.S O * Y ]./.!.]...[ W P w 8 9 C.n.n.n.n.n.n.n.",
"n.n.n.n.n.n.n.n.n.n.C.H A Y ' W W l z B G H N.C.C.n.n.n.n.n.n.n.n.",
"n.n.n.n.n.n.n.n.n.n.n.n.C.B.S.A.A.C.n.n.n.n.n.n.n.n.n.n.n.n.n.n.n.",
"n.n.n.n.n.n.n.n.n.n.n.n.n.n.n.n.n.n.n.n.n.n.n.n.n.n.n.n.n.n.n.n.n."
};
