/* XPM */
static char *numbers_1[] = {
/* columns rows colors chars-per-pixel */
"33 50 192 2 ",
"   c #020205",
".  c #0B0305",
"X  c #03020A",
"o  c #0A030C",
"O  c #05090C",
"+  c #080B0B",
"@  c #060B07",
"#  c #160205",
"$  c #190205",
"%  c #1A0409",
"&  c #0D110B",
"*  c #040510",
"=  c #030914",
"-  c #0B0B13",
";  c #040B1C",
":  c #06081B",
">  c #100E15",
",  c #190513",
"<  c #0F1212",
"1  c #0B1519",
"2  c #14121D",
"3  c #121614",
"4  c #340E0D",
"5  c #220D1D",
"6  c #3D0A11",
"7  c #2B1E11",
"8  c #381413",
"9  c #2C0608",
"0  c #1B2319",
"q  c #362C11",
"w  c #2D3E1D",
"e  c #37381A",
"r  c #040D21",
"t  c #0A1628",
"y  c #051A32",
"u  c #131C29",
"i  c #38172A",
"p  c #0F222A",
"a  c #1D232A",
"s  c #182A24",
"d  c #1F3526",
"f  c #08253C",
"g  c #0D293D",
"h  c #0F2537",
"j  c #142533",
"k  c #2B3A23",
"l  c #283429",
"z  c #440C14",
"x  c #4A0E14",
"c  c #411012",
"v  c #43141E",
"b  c #541117",
"n  c #55111C",
"m  c #5A111D",
"M  c #451829",
"N  c #541521",
"B  c #5F1220",
"V  c #621221",
"C  c #6C1826",
"Z  c #7A172A",
"A  c #791727",
"S  c #792135",
"D  c #3E491D",
"F  c #3B4019",
"G  c #3B4C21",
"H  c #354828",
"J  c #3C542D",
"K  c #3E5522",
"L  c #3D5330",
"P  c #404D1F",
"I  c #435B24",
"U  c #425727",
"Y  c #4C6425",
"T  c #49632A",
"R  c #4F6C2C",
"E  c #476327",
"W  c #516D2C",
"Q  c #55732B",
"!  c #59792D",
"~  c #4C6531",
"^  c #4C6933",
"/  c #536E30",
"(  c #0C2A46",
")  c #0D3449",
"_  c #0E3E5F",
"`  c #163D55",
"'  c #2E2A42",
"]  c #233C56",
"[  c #0E3B62",
"{  c #103963",
"}  c #11425E",
"|  c #0D4762",
" . c #154566",
".. c #154B70",
"X. c #16577C",
"o. c #15536A",
"O. c #2E5E78",
"+. c #744263",
"@. c #8B1A2C",
"#. c #881728",
"$. c #901925",
"%. c #AB1F35",
"&. c #A71E35",
"*. c #B41C38",
"=. c #B91C34",
"-. c #932339",
";. c #BD203B",
":. c #DD1F3F",
">. c #E71E34",
",. c #EE1A37",
"<. c #E61E3B",
"1. c #EC1A3B",
"2. c #F11A36",
"3. c #F3163C",
"4. c #F0193C",
"5. c #C4223D",
"6. c #CA233B",
"7. c #C82537",
"8. c #DA203D",
"9. c #D2213C",
"0. c #E2203A",
"q. c #8B364E",
"w. c #B93258",
"e. c #A72D4C",
"r. c #AC3C64",
"t. c #E51D42",
"y. c #EB1A41",
"u. c #CE2543",
"i. c #CD264D",
"p. c #D42344",
"a. c #DC2143",
"s. c #C42C56",
"d. c #E02041",
"f. c #9F4161",
"g. c #9A4977",
"h. c #A14C75",
"j. c #A4456C",
"k. c #5C802E",
"l. c #62872F",
"z. c #688F2F",
"x. c #638A2E",
"c. c #6E992E",
"v. c #628632",
"b. c #658A33",
"n. c #6A8D36",
"m. c #6C9333",
"M. c #6F9931",
"N. c #709931",
"B. c #1A5682",
"V. c #186289",
"C. c #1A7394",
"Z. c #15759B",
"A. c #156A95",
"S. c #306B8B",
"D. c #267289",
"F. c #725F82",
"G. c #466B88",
"H. c #7D6599",
"J. c #5A7AAB",
"K. c #5978B3",
"L. c #656EA0",
"P. c #6770A7",
"I. c #865992",
"U. c #815989",
"Y. c #1985AA",
"T. c #1C86B7",
"R. c #1D92B9",
"E. c #2085AF",
"W. c #3481B5",
"Q. c #2490B6",
"!. c #2889B9",
"~. c #4B84BA",
"^. c #5782B2",
"/. c #0F9CCD",
"(. c #1A9BCC",
"). c #1C9ED8",
"_. c #2C9DCA",
"`. c #2298C6",
"'. c #3894D4",
"]. c #0DADDC",
"[. c #13A8DC",
"{. c #1AA5D9",
"}. c #0AADE5",
"|. c #06ADEC",
" X c #0AABEB",
".X c #13A7E4",
"XX c #11A9E2",
"oX c #14A8E7",
"OX c #09AAF1",
"+X c #02ADF3",
"@X c #23A0E5",
"#X c #5085C5",
/* pixels */
"N.N.N.N.N.N.N.N.N.N.N.c.c.c.c.c.c.c.c.c.c.c.c.c.c.c.c.c.c.c.c.c.c.",
"N.N.N.N.N.N.N.N.N.N.N.c.c.c.c.c.c.c.c.c.c.c.c.c.c.c.c.c.c.c.c.c.c.",
"N.N.N.N.N.N.N.N.N.N.N.c.c.M.M.v.R U H J b.c.c.c.c.c.c.c.c.c.c.c.c.",
"N.N.N.N.N.N.N.N.N.N.N.c.M.0 p ( | X.Z.X.h L M.c.c.c.c.c.c.c.c.c.c.",
"N.N.N.N.N.N.N.N.M.N.N.c.M.- ` Q.[.|.|.}.(.X.s T M.c.c.c.c.c.c.c.c.",
"N.N.N.N.N.N.N.N.M.N.N.c.M.@ o r X.(.OXOX X}.!.] s x.c.c.c.c.c.c.c.",
"N.N.N.N.N.N.N.N.N.N.N.c.M.O       y V.~.J.L.U.j.M Q c.c.c.c.c.c.c.",
"N.N.N.N.N.N.N.N.N.N.N.c.n..         , e.a.t.<.0.V Q c.c.c.c.c.c.c.",
"N.N.N.N.N.N.N.N.N.N.N.M.n.@         % 5.,.y.,.<.B Q c.c.c.c.c.c.c.",
"N.N.N.N.N.N.N.M.~ J l a t ( ;       $ 6.,.y.4.<.V Q c.c.c.c.c.c.c.",
"c.c.c.c.c.c.c./ t O.Y./.oXXXR.| ;   # 5.,.y.4.,.V Q c.c.c.c.c.c.c.",
"c.c.c.c.c.c.c.W * y V.). XOXOXoXT.) % 5.,.,.4.,.B Q c.c.c.c.c.c.c.",
"c.c.c.c.c.c.c.R     = f C.[.oX@X'.^.+.p.,.,.3.,.m Q c.c.c.c.c.c.c.",
"c.c.c.c.c.c.c.R       * ; ' g.r.w.i.a.,.,.,.4.,.m Q c.c.c.c.c.c.c.",
"c.c.c.c.c.c.c.R           6 p.4.3.3.,.,.,.,.,.<.m Q c.c.c.c.c.c.c.",
"c.c.c.M.b.! T k           z d.,.,.,.4.4.4.,.4.<.m Q c.c.c.c.c.c.c.",
"c.c.K 1 f [ X.A.C.) ;     6 d.<.,.,.,.,.3.,.4.<.B Q c.c.c.c.c.c.c.",
"c.c.H u D.{. XOX X].Z.( * 6 :.4.3.3.<.,.3.,.,.<.B Q c.c.c.c.c.c.c.",
"c.c.w   ; ) Y.].|. X.X`.O.M u.5.&.@.#.9.,.,.,.,.B Q c.c.c.c.c.c.c.",
"c.c.w     o r { W.~.P.I.g.q.9 $ . o $ 5.,.,.,.<.m Q c.c.c.c.c.c.c.",
"c.c.w           C a.<.<.y.*.#       # 6.,.,.,.<.m Q c.c.c.c.c.c.c.",
"c.c.w           Z y.,.3.4.=.#       # 6.,.,.,.<.m Q c.c.c.c.c.c.c.",
"c.c.w           A ,.<.,.<.%..       # 6.,.,.,.<.m Q c.c.c.c.c.c.c.",
"c.c.Q 0         Z ,.<.,.3.*.%       # 6.,.4.,.<.m Q c.c.c.c.c.c.c.",
"c.c.c.M.I 3     Z ,.<.a.p.-.o       # 6.,.4.,.<.m Q c.c.c.c.c.c.c.",
"c.c.c.c.c.z.K & v A b c 4 #         # 6.,.4.,.<.m Q c.c.c.c.c.c.c.",
"c.c.c.c.c.c.c.x.I Y ! l.b.O         # 6.,.4.,.<.m Q c.c.c.c.c.c.c.",
"c.c.c.c.c.c.c.c.c.c.c.c.b.          # 5.,.,.,.<.n Q c.c.c.c.c.c.c.",
"c.c.c.c.c.c.c.c.c.c.c.c.b.*         # 6.,.,.,.<.n Q c.c.c.c.c.c.c.",
"c.c.c.c.c.c.c.c.c.c.c.c.b.          # 6.,.,.,.<.n Q c.c.c.c.c.c.c.",
"c.c.c.c.c.c.c.c.M.c.M.M.b.          # 6.,.,.,.<.n Q c.c.c.c.c.c.c.",
"c.c.c.c.c.c.c.c.M.M.M.M.b.          # 6.,.,.,.<.n Q c.c.c.c.c.c.c.",
"c.c.c.c.c.c.c.c.c.c.c.c.b.          # 6.,.,.,.<.n Q c.c.c.c.c.c.c.",
"c.c.c.c.c.c.c.c.c.c.c.c.b.          $ 6.,.,.,.<.n Q c.c.c.c.c.c.c.",
"c.c.c.c.c.c.c.c.c.c.c.c.b.          $ 6.,.,.,.<.n Q c.c.c.c.c.c.c.",
"c.c.c.c.c.c.c.c.c.c.c.c.v.  - > < - % 6.4.,.,.<.n Q c.c.c.c.c.c.c.",
"c.c.c.c.c.c.c.c.c.c.c.c.v.o 1 - O 2 % 6.,.,.,.t.N J M.c.c.c.c.c.c.",
"c.c.c.c.c.c.c.c.c.M.M.b.~ * 3 - @ 2 % 6.,.,.y.a.F...j ^ M.c.c.c.c.",
"c.c.c.c.c.c.c.k.k s h ( } o.f : O O $ u.y.,.,.a.K.oXE.` d ! M.c.c.",
"c.c.c.c.c.c.c.T t S._.{. X X).V.t * % 6.,.,.,.a.J. X{._.G.a T c.c.",
"c.c.c.c.c.c.c.T o ; [ T.oXOXOX}.(.B.5 6.,.,.,.<.h.I.g.r.s.S G c.c.",
"c.c.c.c.c.c.c.T       r ..`.'.#XJ.H.f.8.,.,.,.y.t.3.>.>.2.$.D c.c.",
"c.c.c.c.c.c.c.Y         * i w.i.p.t.,.,.,.,.,.,.<.4.,.y.,.@.G c.c.",
"c.c.c.c.c.c.c.E           z t.,.,.,.,.,.,.,.,.,.,.4.4.,.,.@.G c.c.",
"c.c.c.c.c.c.c.T           z t.,.,.,.,.,.,.,.4.,.,.,.4.4.4.@.D c.c.",
"c.c.c.c.c.c.c.! 3         z t.,.,.,.,.,.,.,.<.<.0.8.9.=.%.N G c.c.",
"c.c.c.c.c.c.c.c.b.G -     x t.,.y.t.a.6.5.&.@.C n 6 8 7 e G k.c.c.",
"c.c.c.c.c.c.c.c.c.c.v.k O 8 -.@.C n c 8 q F U Y Q b.M.M.c.c.c.c.c.",
"c.c.c.c.c.c.c.c.c.c.c.M.! w e P Y ! z.M.c.c.c.c.c.c.c.c.c.c.c.c.c.",
"c.c.c.c.c.c.c.c.c.c.c.c.c.c.c.c.c.c.c.c.c.c.c.c.c.c.c.c.c.c.c.c.c."
};
