/* XPM */
static char *numbers_1[] = {
/* columns rows colors chars-per-pixel */
"37 55 200 2 ",
"   c #030205",
".  c #090205",
"X  c #03020B",
"o  c #0A040B",
"O  c #0A0A0D",
"+  c #050809",
"@  c #160609",
"#  c #040513",
"$  c #030A13",
"%  c #030B1A",
"&  c #080712",
"*  c #110E16",
"=  c #110E19",
"-  c #0D1213",
";  c #0E1A19",
":  c #13141D",
">  c #191419",
",  c #300C0B",
"<  c #2B170E",
"1  c #3C0C11",
"2  c #350E17",
"3  c #2C0A10",
"4  c #1C2A1F",
"5  c #272716",
"6  c #302B12",
"7  c #2D3219",
"8  c #080C22",
"9  c #071825",
"0  c #081828",
"q  c #141624",
"w  c #071B31",
"e  c #0D212D",
"r  c #192527",
"t  c #0A243B",
"y  c #072539",
"u  c #273527",
"i  c #4D0E16",
"p  c #4D0F19",
"a  c #520F1A",
"s  c #4E1019",
"d  c #55111C",
"f  c #5B101D",
"g  c #410B0C",
"h  c #700E1A",
"j  c #64131E",
"k  c #4F1B29",
"l  c #591225",
"z  c #6C1929",
"x  c #741522",
"c  c #761629",
"v  c #7E172A",
"b  c #7B1828",
"n  c #791727",
"m  c #751E33",
"M  c #69202F",
"N  c #2E401E",
"B  c #39441D",
"V  c #2D4026",
"C  c #344625",
"Z  c #3A4D25",
"A  c #374A24",
"S  c #3F5427",
"D  c #45571F",
"F  c #425524",
"G  c #425A25",
"H  c #445C2A",
"J  c #445729",
"K  c #445C30",
"L  c #4B642B",
"P  c #4E6A2A",
"I  c #4A6329",
"U  c #516B2A",
"Y  c #506A28",
"T  c #53712B",
"R  c #58772C",
"E  c #5C7C2D",
"W  c #4A6331",
"Q  c #537132",
"!  c #597A32",
"~  c #0B2A48",
"^  c #0A364D",
"/  c #113857",
"(  c #0E3752",
")  c #103B62",
"_  c #5D3F5E",
"`  c #224255",
"'  c #145071",
"]  c #334F67",
"[  c #18637D",
"{  c #2B647C",
"}  c #43455C",
"|  c #4E4F67",
" . c #545974",
".. c #841B2B",
"X. c #8D1A2C",
"o. c #941B2B",
"O. c #9C1A2D",
"+. c #8C1C31",
"@. c #991C30",
"#. c #981C34",
"$. c #AB1D30",
"%. c #822037",
"&. c #AB2136",
"*. c #AB233A",
"=. c #BF2439",
"-. c #DF1E3D",
";. c #ED1B36",
":. c #E51E3C",
">. c #EC1A3B",
",. c #E91C38",
"<. c #F2173B",
"1. c #F1183B",
"2. c #C1233E",
"3. c #C0283E",
"4. c #DB223C",
"5. c #DF2237",
"6. c #E2203B",
"7. c #BD2F59",
"8. c #B9325A",
"9. c #A53D6F",
"0. c #DC1E47",
"q. c #E51D42",
"w. c #EC1A41",
"e. c #EF1743",
"r. c #F11840",
"t. c #CC2841",
"y. c #D32344",
"u. c #DD2143",
"i. c #D52449",
"p. c #C32B52",
"a. c #E02045",
"s. c #974B7C",
"d. c #8D5478",
"f. c #A44067",
"g. c #A44072",
"h. c #5F842F",
"j. c #5D8030",
"k. c #648A2E",
"l. c #6C952F",
"z. c #6E992E",
"x. c #618432",
"c. c #668C31",
"v. c #688E35",
"b. c #6C9432",
"n. c #6F9930",
"m. c #709931",
"M. c #1B5886",
"N. c #196388",
"B. c #1C7498",
"V. c #186A92",
"C. c #236D9F",
"Z. c #28708E",
"A. c #1777A9",
"S. c #377DB0",
"D. c #4F5D88",
"F. c #7D5F97",
"G. c #466B8F",
"H. c #6E6D9B",
"J. c #70749E",
"K. c #527EB7",
"L. c #587EAC",
"P. c #646FA4",
"I. c #667AAD",
"U. c #944B83",
"Y. c #805E8C",
"T. c #825B93",
"R. c #1B82A9",
"E. c #1F8BB1",
"W. c #1294BF",
"Q. c #2180AB",
"!. c #238EB3",
"~. c #3E91BE",
"^. c #3A8FB9",
"/. c #4290AF",
"(. c #428DBF",
"). c #1D9ECD",
"_. c #189CC6",
"`. c #1B9CD2",
"'. c #1B89C3",
"]. c #239DD8",
"[. c #3F91D2",
"{. c #329BC8",
"}. c #17A0CD",
"|. c #0DAEDB",
" X c #14A3D7",
".X c #19A3D6",
"XX c #1DA4DB",
"oX c #12AADC",
"OX c #15A6DB",
"+X c #28A3CF",
"@X c #299DE2",
"#X c #0BABE5",
"$X c #0AABED",
"%X c #08ABEA",
"&X c #1AA6E1",
"*X c #13A8E8",
"=X c #05B1EB",
"-X c #05ACF2",
";X c #0AA9F4",
":X c #468FC3",
/* pixels */
"m.m.m.m.m.m.m.m.m.m.m.m.n.z.z.z.z.z.z.z.z.z.z.z.z.z.z.z.z.z.z.z.z.z.z.z.z.",
"m.m.m.m.m.m.m.m.m.m.m.m.n.z.z.z.z.z.z.z.z.z.z.z.z.z.z.z.z.z.z.z.z.z.z.z.z.",
"m.m.m.m.m.m.m.m.m.m.m.m.n.z.z.z.n.b.b.x.P W v.z.z.z.z.z.z.z.z.z.z.z.z.z.z.",
"m.m.m.m.m.m.m.m.m.m.m.m.n.z.E C 4 r 9 t / / e K b.z.z.z.z.z.z.z.z.z.z.z.z.",
"m.m.m.m.m.m.m.m.m.m.m.m.n.z.J 0 { !.)..X|.|.E.) e L b.z.z.z.z.z.z.z.z.z.z.",
"m.m.m.m.m.m.m.m.m.m.m.m.n.z.F o 9 ' _.#X-X;X;XXXQ.^ r Q n.z.z.z.z.z.z.z.z.",
"m.m.m.m.m.m.m.m.m.m.m.m.n.z.S   X o w N..X#XOXOXXX:X .: T z.z.z.z.z.z.z.z.",
"m.m.m.m.m.m.m.m.m.m.m.m.z.z.S X       # t D.T.s.9.8.p.l Y z.z.z.z.z.z.z.z.",
"m.m.m.m.m.m.m.m.m.m.m.m.n.z.F .   X X X o %.5.,.w.,.5.f P z.z.z.z.z.z.z.z.",
"m.m.m.m.m.m.m.m.m.m.m.m.m.b.Z   X # X X o o.:.,.w.,.:.f L z.z.z.z.z.z.z.z.",
"m.m.m.m.m.m.m.m.v.K A u r 0 t t % o     . o.,.1.w.1.:.f L z.z.z.z.z.z.z.z.",
"z.z.z.z.z.z.z.z.L 8 ] B.W..X*XXXR.^ $ X o X.,.1.w.1.:.f P z.z.z.z.z.z.z.z.",
"z.z.z.z.z.z.z.z.L # w N.].$X-X-X;X&XB.~ o o.,.,.w.1.:.d L z.z.z.z.z.z.z.z.",
"z.z.z.z.z.z.z.z.L X X $ t B..X=X$X*X@X~.| $.,.,.1.1.:.d P z.z.z.z.z.z.z.z.",
"z.z.z.z.z.z.z.z.L       X % ~ G.H.Y.U.9.7.0.,.,.1.1.:.d P z.z.z.z.z.z.z.z.",
"z.z.z.z.z.z.z.z.I X X X X X X m y.:.,.,.,.,.,.,.,.,.:.a P z.z.z.z.z.z.z.z.",
"z.z.z.z.z.z.n.m.H     X X X   b :.1.,.1.<.1.1.,.,.,.:.a P z.z.z.z.z.z.z.z.",
"z.z.l.T H C u q 0 9 # X     . v ,.,.,.,.,.,.1.1.,.<.:.a P z.z.z.z.z.z.z.z.",
"z.z.T - ` N.A.'.`.].V.t #   . v ,.:.,.1.1.,.<.1.,.1.:.a P z.z.z.z.z.z.z.z.",
"z.z.P X t B..X$X-X-X=X}.N.w X b :.1.<.,.q.:.,.1.,.,.:.a P z.z.z.z.z.z.z.z.",
"z.z.P   o % ^ R.|.=X$X*XXX^.] m 2.*.+.x h $.:.1.,.1.:.a P z.z.z.z.z.z.z.z.",
"z.z.P       o 8 ) S./.P.T.s.f.M @ @ . o @ o.:.,.,.,.:.a P z.z.z.z.z.z.z.z.",
"z.z.P X     X X o z y.:.6.w.q.x o X   X . o.:.,.,.,.:.a P z.z.z.z.z.z.z.z.",
"z.z.P X X X X   . x w.,.,.<.,.x o X   X   o.:.,.,.,.:.a P z.z.z.z.z.z.z.z.",
"z.z.P X   X X X   x 6.5.,.:.:.x X X   X . o.:.,.,.,.:.a P z.z.z.z.z.z.z.z.",
"z.z.E -   X X X   c ,.,.w.1.w.x o X   X . o.:.,.,.,.:.a P z.z.z.z.z.z.z.z.",
"z.z.z.c.A O X X X c ,.;.,.,.q.c o X   X . o.:.,.1.,.:.a P z.z.z.z.z.z.z.z.",
"z.z.z.z.z.h.N O   z t.=.&.o.m 3 X X   X . o.:.,.1.,.:.a P z.z.z.z.z.z.z.z.",
"z.z.z.z.z.z.z.E 7 @ , < 5 B 5   X X   X . o.:.1.,.,.6.i P z.z.z.z.z.z.z.z.",
"z.z.z.z.z.z.z.z.l.k.c.b.n.n.Z X X X   X . o.:.,.,.,.6.i P z.z.z.z.z.z.z.z.",
"z.z.z.z.z.z.z.z.z.z.z.z.z.z.Z X X X   X . o.,.1.,.,.6.p P z.z.z.z.z.z.z.z.",
"z.z.z.z.z.z.z.z.z.z.z.z.z.z.Z X X X   X . o.,.1.,.,.6.p P z.z.z.z.z.z.z.z.",
"z.z.z.z.z.z.z.z.z.z.z.z.z.z.Z X X X   X   o.,.1.,.,.6.p P z.z.z.z.z.z.z.z.",
"z.z.z.z.z.z.z.z.z.z.z.z.z.z.Z X X X   X   o.,.1.,.,.-.p Y z.z.z.z.z.z.z.z.",
"z.z.z.z.z.z.z.z.z.z.z.z.z.z.Z X   X       o.:.<.,.,.-.s P z.z.z.z.z.z.z.z.",
"z.z.z.z.z.z.z.z.z.z.z.z.z.z.Z X   X       o.,.<.,.,.:.p P z.z.z.z.z.z.z.z.",
"z.z.z.z.z.z.z.z.z.z.z.z.z.z.Z X   X     . o.:.<.,.,.q.p Y z.z.z.z.z.z.z.z.",
"z.z.z.z.z.z.z.z.z.z.z.z.z.z.Z X   X     . o.:.<.,.,.:.p Y z.z.z.z.z.z.z.z.",
"z.z.z.z.z.z.z.z.z.z.z.z.z.z.A   X o O X . o.,.1.,.;.:.p P z.z.z.z.z.z.z.z.",
"z.z.z.z.z.z.z.z.z.z.z.z.z.z.A o q * - = o O.,.1.,.,.q.p T z.z.z.z.z.z.z.z.",
"z.z.z.z.z.z.z.z.z.z.z.z.z.z.C X ; O O : O o.:.1.,.r.0.k r Q n.z.z.z.z.z.z.",
"z.z.z.z.z.z.z.z.z.n.b.c.Q W r # > * - : O o.,.<.,.,.i.J.C.~ u ! n.z.z.z.z.",
"z.z.z.z.z.z.z.z.T 4 0 y ( ' [ [ t % X X . O.w.<.,.,.i.K.;X).N.y V x.z.z.z.",
"z.z.z.z.z.z.z.z.G 0 Z.{.XX*X-X$X`.N.0 o o O.:.,.,.,.i.L.#X&X+X/.} - x.z.z.",
"z.z.z.z.z.z.z.z.H o % ^ A.OX$X-X-X#X).M.q O.,.,.,.,.q.s.F.U.9.8.7.2 E z.z.",
"z.z.z.z.z.z.z.z.H X     % / R.XX].[.:XI.d.2.:.,.,.,.r.q.e.,.,.;.6.g R z.z.",
"z.z.z.z.z.z.z.z.G   X X o # 8 _ f.7.p.0.u.,.,.,.,.,.,.:.<.,.1.,.u.1 R z.z.",
"z.z.z.z.z.z.z.z.S         X . ..q.,.,.1.,.1.,.,.,.,.,.,.,.,.w.,.u.1 R z.z.",
"z.z.z.z.z.z.z.z.G         X . X.,.,.w.r.r.,.,.,.,.,.:.,.,.<.,.,.:.1 R z.z.",
"z.z.z.z.z.z.z.z.G X X X X     ..1.,.1.1.1.,.1.<.1.1.;.;.,.,.,.:.y.1 R z.z.",
"z.z.z.z.z.z.z.z.c.C O X X     ..,.,.,.,.,.,.w.w.:.5.3.3.&.#...j p - j.z.z.",
"z.z.z.z.z.z.z.z.z.z.x.u $ X . X.:.q.a.y.t.&.o.x f i 3 3 5 7 Z G T x.l.z.z.",
"z.z.z.z.z.z.z.z.z.z.z.n.! 5 O k z d g , < 6 B G Y E c.b.n.z.z.z.z.z.z.z.z.",
"z.z.z.z.z.z.z.z.z.z.z.z.z.n.T B F Y E k.b.n.z.z.z.z.z.z.z.z.z.z.z.z.z.z.z.",
"z.z.z.z.z.z.z.z.z.z.z.z.z.z.z.z.z.z.z.z.z.z.z.z.z.z.z.z.z.z.z.z.z.z.z.z.z."
};
