/* XPM */
static char *numbers_8[] = {
/* columns rows colors chars-per-pixel */
"34 50 214 2 ",
"   c #030206",
".  c #0B0305",
"X  c #02020B",
"o  c #09020A",
"O  c #07090D",
"+  c #1D0205",
"@  c #180306",
"#  c #050613",
"$  c #040A13",
"%  c #030D1D",
"&  c #080913",
"*  c #101619",
"=  c #240206",
"-  c #29040A",
";  c #350D0F",
":  c #3B0B0F",
">  c #3A0D11",
",  c #361217",
"<  c #331513",
"1  c #1B211B",
"2  c #2D291C",
"3  c #3C2A1A",
"4  c #372518",
"5  c #2F3F1F",
"6  c #34391D",
"7  c #09162A",
"8  c #1A1821",
"9  c #060D28",
"0  c #1E2A2A",
"q  c #183436",
"w  c #0B2437",
"e  c #262924",
"r  c #322523",
"t  c #373928",
"y  c #282C33",
"u  c #36373A",
"i  c #2A3728",
"p  c #430E14",
"a  c #47161A",
"s  c #5A121B",
"d  c #53151D",
"f  c #560E16",
"g  c #63121D",
"h  c #640F19",
"j  c #571421",
"k  c #6B1824",
"l  c #7B1925",
"z  c #771828",
"x  c #721B33",
"c  c #622335",
"v  c #6E323A",
"b  c #2E401E",
"n  c #37401D",
"m  c #334322",
"M  c #3A4C26",
"N  c #3A4729",
"B  c #3C4A32",
"V  c #354A2E",
"C  c #424A25",
"Z  c #455C2E",
"A  c #475428",
"S  c #455933",
"D  c #484D3D",
"F  c #536B2C",
"G  c #50612B",
"H  c #5C792E",
"J  c #4C6533",
"K  c #526B36",
"L  c #567233",
"P  c #597533",
"I  c #5C7B36",
"U  c #4C6629",
"Y  c #0C2944",
"T  c #173749",
"R  c #0C3957",
"E  c #11304F",
"W  c #303749",
"Q  c #483952",
"!  c #772A45",
"~  c #713B51",
"^  c #324748",
"/  c #154866",
"(  c #135478",
")  c #3B4365",
"_  c #265470",
"`  c #17617E",
"'  c #4E5B41",
"]  c #79404B",
"[  c #49506E",
"{  c #831724",
"}  c #861A28",
"|  c #941C2C",
" . c #9A1B2C",
".. c #991D34",
"X. c #8B1F3E",
"o. c #A81E33",
"O. c #A51F2F",
"+. c #8E2439",
"@. c #A82335",
"#. c #BB233D",
"$. c #B3213A",
"%. c #DF1E3A",
"&. c #EC1B36",
"*. c #E51D3C",
"=. c #EC1B3C",
"-. c #EB173D",
";. c #F21937",
":. c #F2173D",
">. c #F1183C",
",. c #C5243C",
"<. c #CB233E",
"1. c #C4293F",
"2. c #D2223C",
"3. c #DD223E",
"4. c #E1203D",
"5. c #942645",
"6. c #8E3B4D",
"7. c #B92D47",
"8. c #B92E55",
"9. c #A93C5F",
"0. c #BA3352",
"q. c #B7365D",
"w. c #AB3B69",
"e. c #B13965",
"r. c #DD1F45",
"t. c #E31E41",
"y. c #EB1A41",
"u. c #F11740",
"i. c #CD2341",
"p. c #C72742",
"a. c #D12341",
"s. c #DB2242",
"d. c #D6224A",
"f. c #C42D5A",
"g. c #C62B55",
"h. c #DD3753",
"j. c #D0324F",
"k. c #E32241",
"l. c #E62B4D",
"z. c #EC334E",
"x. c #EC3855",
"c. c #F23D58",
"v. c #984A75",
"b. c #91507A",
"n. c #8B577F",
"m. c #A84169",
"M. c #A54472",
"N. c #EA425B",
"B. c #C5537D",
"V. c #EC4464",
"C. c #5F8033",
"Z. c #658C2C",
"A. c #6E992E",
"S. c #628335",
"D. c #668A33",
"F. c #698D34",
"G. c #6D9434",
"H. c #6F9931",
"J. c #6F9538",
"K. c #719737",
"L. c #709931",
"P. c #709639",
"I. c #749D3A",
"U. c #74954A",
"Y. c #6F8C41",
"T. c #195D86",
"R. c #385B8D",
"E. c #16678B",
"W. c #1A7597",
"Q. c #166991",
"!. c #266787",
"~. c #1B77A4",
"^. c #7F5E92",
"/. c #7D5D88",
"(. c #466C96",
"). c #736997",
"_. c #577DB3",
"`. c #537DA7",
"'. c #696EA4",
"]. c #934E81",
"[. c #8A5B84",
"{. c #895986",
"}. c #935180",
"|. c #996591",
" X c #B76487",
".X c #8E7BB0",
"XX c #1A87B6",
"oX c #3284A8",
"OX c #4289B3",
"+X c #7E8CBD",
"@X c #1C99CD",
"#X c #189ED7",
"$X c #3A95CC",
"%X c #3998C8",
"&X c #299CD7",
"*X c #3792CF",
"=X c #19A4DA",
"-X c #21A3D8",
";X c #39A3CC",
":X c #05AEE5",
">X c #0EABE4",
",X c #05ADED",
"<X c #0AABEB",
"1X c #13A9E4",
"2X c #14A6E9",
"3X c #15A7E6",
"4X c #05ACF3",
"5X c #0AA9F3",
"6X c #0FAEEF",
"7X c #22A4E4",
"8X c #33B4E6",
"9X c #418CC2",
"0X c #5A9FD4",
"qX c #6F9BCA",
/* pixels */
"L.L.L.L.L.L.L.L.H.L.L.A.A.A.A.A.A.A.A.A.A.A.A.A.A.A.A.A.A.A.A.A.A.A.",
"L.L.L.L.L.L.L.L.L.L.L.A.A.A.A.A.A.A.A.A.A.A.A.A.A.A.A.A.A.A.A.A.A.A.",
"L.L.L.L.L.L.L.L.L.L.L.H.A.L.G.S.L Z B K G.A.A.A.A.A.A.A.A.A.A.A.A.A.",
"L.L.L.L.L.L.L.G.S.L J V V q T / ( Q.~._ ^ I L.A.A.A.A.A.A.A.A.A.A.A.",
"L.L.L.L.L.L.L.L * _ Q.XX@X=X1X<X,X:X<X8X;X!.^ Y.H.A.A.A.A.A.A.A.A.A.",
"L.L.L.L.L.L.L.L X Y ~.>X,X4X,X,X,X>X7X6X>X8XoXW S A.A.A.A.A.A.A.A.A.",
"L.L.L.L.L.L.L.L X X % R XX1X2X=X8X0XqX+X.X|.m.9.r H.A.A.A.A.A.A.A.A.",
"L.L.L.L.L.L.L.F X X o X % ) {.v.B.g.j.h.k.=.=.p., S.A.A.A.A.A.A.A.A.",
"L.L.L.L.L.L.L.F X o o e O d V.x.N.z.c.k.=.=.>.g.[ T S G.A.A.A.A.A.A.",
"L.L.L.L.K.D.I m O X o 8 y c h.z.l.V.l.=.:.=.;.8.$X#XE.q J G.A.A.A.A.",
"A.A.I 0 w T / T.!.Y # 8 u ] N.c.c.l.z.=.=.=.;.0.$X2X2X*X) e K.A.A.A.",
"A.A.Z 7 !.-X<X,X<X=XW.W & v h.z.=.*.*.*.d.<.#.5.[.[.v.q.0., G.A.A.A.",
"A.A.A X # E XX>X,X4X3X;X_ ~ g.#.o.} k f p - @ = 7.t.*.=.3.p K.A.A.A.",
"A.A.M X X X $ R oX`.).|. X6.; 2 t M X X X X X = i.=.=.;.k.p K.A.A.A.",
"A.A.M X X X X X x d.t.t.*.| B L.L.U.o o X o X + i.:.=.:.d.p K.A.A.A.",
"A.A.M X X X X o l *.=.:.=. .6 A.A.U.X o X X X = <.=.=.=.4.> K.A.A.A.",
"A.A.M X X X o X l =.=.=.=. .6 A.A.U.X X X X X @ <.=.>.=.*.> K.A.A.A.",
"A.A.M X X X o o l =.=.=.=.| B A.A.G.X X X X X @ i.=.>.=.*.> K.A.A.A.",
"A.A.M X X X o o l =.=.=.=.| m A.A.K.o X X X X @ i.=.>.=.*.> K.A.A.A.",
"A.A.M X X X X X l =.=.=.&...u K S u $ X X X X = i.=.>.>.d.p J.A.A.A.",
"A.A.M X X X X X l =.=.=.:.5.T ( E.~.XX` 7 X X @ ,.&.:.;.3.p G.A.A.A.",
"A.A.M X X X X X l =.=.=.=.b.3X,X,X4X4X5X#X( 9 - 2.=.>.:.d.p K.A.A.A.",
"A.A.Z # X X X X l =.=.=.&.}.2X4X,X,X:X:X5X7XoXW @...} g j r L.A.A.A.",
"A.A.H.K 1 X X o l *.=.y.&.n.-X-X&X9X_.)./.v.e.8.; C G P F.G.A.A.A.A.",
"A.A.A.A.G.J * o x p.$...{ ! M.e.f.d.t.t.*.=.=.1.< I A.A.A.A.A.A.A.A.",
"A.A.A.A.A.A.F.m + = @ o o s *.&.&.=.=.>.:.=.>.g.(.E M D.A.A.A.A.A.A.",
"A.A.A.G.G.S.K i $ X X o o g =.=.=.=.&.=.=.=.&.f.*X1XW.Y S G.A.A.A.A.",
"A.A.Z 0 T / ( W.W.R $ X X j 3.=.=.:.:.=.:.=.=.q.%X1X7X9X[ e L.A.A.A.",
"A.A.V 7 !.=X1X<X4X1X~.w X g =.&.=.=.*.*.d.,.o.X.}.b.m.0.7., L.A.A.A.",
"A.A.m X & Y ~.1X<X5X<X&XR.c #.O.} k s > - @ o = i.*.y.u.t.p K.A.A.A.",
"A.A.m X X X # Y (.'.^.b.9.+.; t C ' X o X X o = <.y.y.=.3.> K.A.A.A.",
"A.A.m X o X X o x d.y.=.=.| D I.A.K.X o X o X = i.=.=.=.*.> K.A.A.A.",
"A.A.b X o o o o l =.&.&.=.| m A.A.J.X o o o X = i.=.=.=.*.; K.A.A.A.",
"A.A.b X o o o o } =.=.>.=.| 6 A.A.J.X o o o o = i.=.=.=.4.; K.A.A.A.",
"A.A.b X o o o o l *.=.>.:.| b A.A.K.X X X X X = d.=.:.=.t.> K.A.A.A.",
"A.A.5 X o o o o { *.=.>.=.| C A.A.U.# X X X X = d.=.>.=.t.> K.A.A.A.",
"A.A.5 X X X X o { =.=.=.=.| t ' B y % # X o o = d.=.>.=.t.> K.A.A.A.",
"A.A.5 X X X X X { =.=.=.=.5./ E.~.XX@XW.w X X - i.=.>.=.t.> K.A.A.A.",
"A.A.t X X X X o l =.>.&.:.[.=X,X,X,X,X,X#XT.7 - 2.&.=.4.p.> L.A.A.A.",
"A.A.Z X X X X o l *.*.*.*.{.2X<X,X4X4X<X1X=XOXQ +.} k d a 2 L.A.A.A.",
"A.A.H.L e X X o { =.:.&.*.}.&X&X$X_.'.^.].w.g.7.> A F H G.H.A.A.A.A.",
"A.A.A.A.H.L 1 X z #.O.} g ! e.g.d.r.t.=.=.=.=.<.4 H.A.A.A.A.A.A.A.A.",
"A.A.A.A.A.A.G.M o @ o o o g *.=.=.=.y.:.=.=.=.i.4 H.A.A.A.A.A.A.A.A.",
"A.A.A.A.A.A.A.U X X X X o g *.=.=.=.y.y.=.:.=.<.4 H.A.A.A.A.A.A.A.A.",
"A.A.A.A.A.A.A.I * X X X X g *.=.=.=.>.=.=.=.=.<.4 H.A.A.A.A.A.A.A.A.",
"A.A.A.A.A.A.A.A.D.m $ X X g *.=.=.4.d.2.,.@. .z 2 H.A.A.A.A.A.A.A.A.",
"A.A.A.A.A.A.A.A.A.A.C.t O d @.| l g d a 4 C A U S.A.A.A.A.A.A.A.A.A.",
"A.A.A.A.A.A.A.A.A.A.A.H.L 6 m C F S.D.H.A.A.A.A.A.A.A.A.A.A.A.A.A.A.",
"A.A.A.A.A.A.A.A.A.A.A.A.A.A.A.A.A.A.A.A.A.A.A.A.A.A.A.A.A.A.A.A.A.A.",
"Z.Z.Z.Z.Z.Z.Z.Z.Z.Z.Z.Z.Z.Z.Z.Z.Z.Z.Z.Z.Z.Z.Z.Z.Z.Z.Z.Z.Z.Z.Z.Z.Z.Z."
};
