/* XPM */
static char *numbers_6[] = {
/* columns rows colors chars-per-pixel */
"38 55 219 2 ",
"   c #010206",
".  c #020C04",
"X  c #030209",
"o  c #09010B",
"O  c #060A0C",
"+  c #0A0606",
"@  c #13040B",
"#  c #0D1B0A",
"$  c #051506",
"%  c #050211",
"&  c #0A0613",
"*  c #140413",
"=  c #1C0214",
"-  c #131F13",
";  c #171818",
":  c #210A19",
">  c #2A051C",
",  c #22131C",
"<  c #2B1F17",
"1  c #34161E",
"2  c #0C210A",
"3  c #11220D",
"4  c #132313",
"5  c #142C13",
"6  c #1C241B",
"7  c #1B2916",
"8  c #193216",
"9  c #1B331A",
"0  c #193819",
"q  c #0F2713",
"w  c #222B1D",
"e  c #212A1A",
"r  c #25371B",
"t  c #1D1F20",
"y  c #2D0B21",
"u  c #370927",
"i  c #281821",
"p  c #3B1528",
"a  c #222B23",
"s  c #2B2524",
"d  c #382827",
"f  c #2D3822",
"g  c #263822",
"h  c #333226",
"j  c #363A2A",
"k  c #2F2631",
"l  c #44082A",
"z  c #4A0B33",
"x  c #4A0838",
"c  c #580C39",
"v  c #4D142D",
"b  c #443E32",
"n  c #264B25",
"m  c #284926",
"M  c #284927",
"N  c #344326",
"B  c #394927",
"V  c #354528",
"C  c #3A4A2A",
"Z  c #3F442B",
"A  c #2C532A",
"S  c #3B5729",
"D  c #345834",
"F  c #396D36",
"G  c #396638",
"H  c #3A7336",
"J  c #3B7239",
"K  c #3E783D",
"L  c #2C622D",
"P  c #464B2D",
"I  c #455829",
"U  c #424931",
"Y  c #4B5532",
"T  c #475B35",
"R  c #4C622D",
"E  c #4A642B",
"W  c #55722E",
"Q  c #4E6531",
"!  c #546D33",
"~  c #546033",
"^  c #557132",
"/  c #5A7334",
"(  c #5D7C33",
")  c #560F42",
"_  c #650B43",
"`  c #720F49",
"'  c #7A0E51",
"]  c #7B1C50",
"[  c #711349",
"{  c #582C42",
"}  c #6C3244",
"|  c #3D4344",
" . c #3C7542",
".. c #5F5141",
"X. c #4F5C4E",
"o. c #785450",
"O. c #5D6B47",
"+. c #626E55",
"@. c #7A6554",
"#. c #7F7E67",
"$. c #820E4E",
"%. c #81174F",
"&. c #820F53",
"*. c #9F0E5E",
"=. c #8D1459",
"-. c #861256",
";. c #921259",
":. c #9F0D61",
">. c #981564",
",. c #A31163",
"<. c #AA186C",
"1. c #B2116E",
"2. c #BA1473",
"3. c #B72B6E",
"4. c #B63B70",
"5. c #B83872",
"6. c #B3296E",
"7. c #CF0D78",
"8. c #D30F7B",
"9. c #DB0E7F",
"0. c #CB1B76",
"q. c #CB1379",
"w. c #CB1C78",
"e. c #C51576",
"r. c #D11775",
"t. c #D4127C",
"y. c #D9107D",
"u. c #E6067F",
"i. c #C52475",
"p. c #C22A73",
"a. c #80635A",
"s. c #92615E",
"d. c #8E7D5D",
"f. c #9B5867",
"g. c #AB4C6B",
"h. c #A84467",
"j. c #A35869",
"k. c #A65070",
"l. c #946E65",
"z. c #996A6A",
"x. c #916F69",
"c. c #6E992E",
"v. c #638435",
"b. c #688C36",
"n. c #6A8D39",
"m. c #658737",
"M. c #6D9434",
"N. c #6F9931",
"B. c #6D923A",
"V. c #709931",
"C. c #70963A",
"Z. c #719937",
"A. c #488441",
"S. c #4A8D47",
"D. c #488345",
"F. c #518D4B",
"G. c #4D9349",
"H. c #4E9647",
"J. c #52934B",
"K. c #55974C",
"L. c #518E50",
"P. c #4E9350",
"I. c #579E54",
"U. c #5A9E54",
"Y. c #5B9F58",
"T. c #509350",
"R. c #799F42",
"E. c #729A5E",
"W. c #7B975C",
"Q. c #698B56",
"!. c #4EBA44",
"~. c #4FB949",
"^. c #4DB345",
"/. c #54B646",
"(. c #5BB545",
"). c #52B945",
"_. c #54B64B",
"`. c #59B44D",
"'. c #52B949",
"]. c #58B84D",
"[. c #5AA155",
"{. c #5CAC55",
"}. c #5DA259",
"|. c #59A554",
" X c #55B452",
".X c #5BB253",
"XX c #53B950",
"oX c #5BB457",
"OX c #59A64D",
"+X c #61B14D",
"@X c #62AD53",
"#X c #6AA957",
"$X c #63AC5B",
"%X c #6CA659",
"&X c #71A35C",
"*X c #60B155",
"=X c #60B058",
"-X c #7A8A62",
";X c #659F63",
":X c #759A64",
">X c #76A364",
",X c #868B5E",
"<X c #82A453",
"1X c #858464",
"2X c #848A63",
"3X c #8D8266",
"4X c #839163",
"5X c #DE0B83",
"6X c #DB0D89",
"7X c #D31282",
"8X c #E20984",
"9X c #E50589",
"0X c #EB048B",
"qX c #E3098B",
"wX c #EA0487",
"eX c #F1018C",
"rX c #F30285",
"tX c #ED0292",
"yX c #F00192",
/* pixels */
"V.V.V.V.V.V.V.V.V.V.V.V.V.c.c.c.c.c.c.c.c.c.c.c.c.c.c.c.c.c.c.c.c.c.c.c.c.c.",
"V.V.V.V.V.V.V.V.V.V.V.V.V.c.c.c.c.c.c.c.c.c.c.c.c.c.c.c.c.c.c.c.c.c.c.c.c.c.",
"V.V.V.V.V.V.V.V.V.V.V.V.V.c.c.c.c.c.c.c.c.c.c.c.c.c.c.c.c.c.c.c.c.c.c.c.c.c.",
"V.V.V.V.V.V.V.V.V.V.V.V.V.c.c.N.M.M.m./ T P / N.c.c.c.c.c.c.c.c.c.c.c.c.c.c.",
"V.V.V.V.V.V.V.V.V.V.C.m./ I P h d u z _ $.-.c d ( N.c.c.c.c.c.c.c.c.c.c.c.c.",
"V.V.V.V.V.V.V.V.V.f i z _ ' :.1.q.y.5X8X0X0X7X>.x b m.c.c.c.c.c.c.c.c.c.c.c.",
"V.V.V.V.V.V.V.V.V.w y =.q.8XeXyXyX0X0XtXtXeXrXu.q.;.l P M.c.c.c.c.c.c.c.c.c.",
"V.V.V.V.V.V.V.V.V.w X * l ,.6XtXtX0X9X8X5Xy.y.w.3.h.a.h R c.c.c.c.c.c.c.c.c.",
"V.V.V.V.V.V.V.V.V.a X o o * _ <.i.p.4.j.z.d.,XW.#X@X.XA I c.c.c.c.c.c.c.c.c.",
"V.V.V.V.V.V.V.V.V.w X     X X ; :X#X@X(.)._._._.).)./.Y s / N.c.c.c.c.c.c.c.",
"V.V.V.V.V.V.V.V.V.w     X X   4 @X_._._._.).)._._.).(.s.>.z j m.N.c.c.c.c.c.",
"c.c.c.V.M.m./ ~ P : @ o X o X q  X).).).).)./._._.).`.k.8Xq.;.u P b.c.c.c.c.",
"c.c.c.! , u c ` =.>.-.u o   X - $X_._._._._.)._.~.). Xj.8X5X8.6.{ t m.c.c.c.",
"c.c.c.C : ] q.9X0X0X0X7.$.u & 4  X!._._._._..X.X{.OXF.@.j.z.3XW.:Xw ( c.c.c.",
"c.c.c.B X * l *.9.0XeX0X5X2.[ < $X{.OXS.K L n 8 2 . + G  X/./.).`.0 m.c.c.c.",
"c.c.c.B     + @ z ,.0.p.5.g.x.+.8 3 8 e 7       + X   G .X_._._.$Xr m.c.c.c.",
"c.c.c.B         X @ -X%X#X*X/.G.3 M.N.N.m.X X     X   G `.!._.)..X9 m.c.c.c.",
"c.c.c.N           . Y.)._.!.!.J.# N.c.c.M.w X X X X   F _.!._.). X9 m.c.c.c.",
"c.c.c.N           . Y.)._./._.G.2 V.c.c.c.M.Q 6 O X X F _.)._.`.$X9 m.c.c.c.",
"c.c.c.V           . I.)._._._.T.2 V.c.c.c.c.c.N.( 6 O D D.J D n 9 6 b.c.c.c.",
"c.c.c.V           . OX)._.).).J.# N.c.c.c.c.c.c.c.M.Q r r S E ( m.V.c.c.c.c.",
"c.c.c.C           . I.)._.)._.J.# N.c.c.V.V.N.c.c.c.c.N.c.c.c.c.c.c.c.c.c.c.",
"c.c.c.C           . Y._._.)./.H.# R N h , i U m.c.c.c.c.c.c.c.c.c.c.c.c.c.c.",
"c.c.c.V           . Y._._.).).J.l _ -.>.1.e.$.p Y M.c.c.c.c.c.c.c.c.c.c.c.c.",
"c.c.c.N           . I.!._./._.-X0.8X0X0X0X0X9Xq.' p ~ M.c.c.c.c.c.c.c.c.c.c.",
"c.c.c.N           . I.!./.)._.2X7X0X0X0X0X9X0X0X6X<.v s B.c.c.c.c.c.c.c.c.c.",
"c.c.c.N           . Y._./._._.,Xr.8X5Xy.r.3.5.g.j.l.1Xj ^ c.c.c.c.c.c.c.c.c.",
"c.c.c.N           . Y._.].`.XXE.f.j.l.-XE.%X#X@X X~. XA R c.c.c.c.c.c.c.c.c.",
"c.c.c.N         X . [._._./._. X@X.X`.(.(.).)./._.).+X..p Y M.c.c.c.c.c.c.c.",
"c.c.c.N         X . Y._.XX^.`.].^.).)._._._._._.).).+Xj.e.` 1 Y M.c.c.c.c.c.",
"c.c.c.N         X . Y.)._.^._._./._._._._._._._._.~._.k.0X9X2.) i ^ N.c.c.c.",
"c.c.c.N         X . Y.!._._._._.]._.~.!.!.!.).~._._.#Xj.r.0.i.h.o.7 n.c.c.c.",
"c.c.c.N         X . Y.!._.)._._..X_._. X.X.X{.I.S.H D O.2XW.&XoX$X9 n.c.c.c.",
"c.c.c.N         X . Y.)._./.!. XK.A.F A n 5 $ . .   . F _.!._._..X8 b.c.c.c.",
"c.c.c.N         X . [.)._.).).H.. a | X.| X X X X X   F _._._.)..X9 n.c.c.c.",
"c.c.c.V X       X . [.)._.!._.F.- <XZ.V.R X           F _._._.)..X9 B.c.c.c.",
"c.c.c.N         X . [.)._.!._.L.# N.c.c.W             F _._._.)..X9 B.c.c.c.",
"c.c.c.N         X . [.)._.).).F.# c.c.c.W X X X X     F _._._.)..X9 B.c.c.c.",
"c.c.c.N         X . [.)._.)./.G.# c.c.c.^ X X X       H _.).).).*X8 B.c.c.c.",
"c.c.c.N         X . [.)._.)./.H.# c.c.c.( X X X X X   H _.).).).*X8 B.c.c.c.",
"c.c.c.N         X . }.)._.)._.H.- <XR.n.Y X X X X X   F _.).).).{.8 B.c.c.c.",
"c.c.c.N         X . }.)._.)./.S.O k : > l z > o       J _.!./.)..X8 B.c.c.c.",
"c.c.c.N X       X . }.)._./._.Q.%.,.2.8.9.y.<.c = X   H !.!./.).`.9 B.c.c.c.",
"c.c.c.V X X     X . }.)._.)._.1Xr.0X0XtXtXeX0X7X>.z * J _.)._._.{.9 B.c.c.c.",
"c.c.c.T O X       . }._._.(._.1Xy.0XeX0XwX9X0X8Xy.6.} X. .L m 8 5 f C.c.c.c.",
"c.c.c.N.( w O X X . }._._.~._.2Xw.y.w.p.4.g.j.x.3X4X>XM f I W m.Z.N.c.c.c.c.",
"c.c.c.c.c.M./ 6 X . ;X{.K.A.F T #.-XE.%X@X.X`._._.)._.n ! c.c.c.c.c.c.c.c.c.",
"c.c.c.c.c.c.c.M.! ; 4 # O X . 5 @X`.`._.)._.).)._.). Xm ! c.c.c.c.c.c.c.c.c.",
"c.c.c.c.c.c.c.c.N.6 X % % X X 5 `.!.!.)._._._._._.)..Xn ^ c.c.c.c.c.c.c.c.c.",
"c.c.c.c.c.c.c.c.M.6 X X X   X 5 .X_._.)._._._.).)./. Xn ^ c.c.c.c.c.c.c.c.c.",
"c.c.c.c.c.c.c.c.c.( a X X X X 5  X_._._.).)._._.`._.oXm ^ c.c.c.c.c.c.c.c.c.",
"c.c.c.c.c.c.c.c.c.c.N.! 6 X X 5 {..X.X.XOXJ.A.F A 0 5 4 m.c.c.c.c.c.c.c.c.c.",
"c.c.c.c.c.c.c.c.c.c.c.c.M.I ; 4 G A 0 8 8 8 N S ! ( b.M.N.c.c.c.c.c.c.c.c.c.",
"c.c.c.c.c.c.c.c.c.c.c.c.c.c.M.R I ^ m.b.N.N.c.c.c.c.c.c.c.c.c.c.c.c.c.c.c.c.",
"c.c.c.c.c.c.c.c.c.c.c.c.c.c.c.c.c.c.c.c.c.c.c.c.c.c.c.c.c.c.c.c.c.c.c.c.c.c."
};
