/* XPM */
static char *numbers_2[] = {
/* columns rows colors chars-per-pixel */
"38 50 218 2 ",
"   c #020206",
".  c #0A0504",
"X  c #03030A",
"o  c #0A040B",
"O  c #02080C",
"+  c #080908",
"@  c #160B09",
"#  c #0F120C",
"$  c #1C130A",
"%  c #030512",
"&  c #0C0D13",
"*  c #020C1D",
"=  c #070718",
"-  c #091219",
";  c #131B15",
":  c #181F19",
">  c #151517",
",  c #271A0E",
"<  c #1A2216",
"1  c #1A2119",
"2  c #1D291D",
"3  c #222B1C",
"4  c #262516",
"5  c #372911",
"6  c #26321B",
"7  c #2B371D",
"8  c #2D3B1D",
"9  c #363617",
"0  c #030B23",
"q  c #0A0E20",
"w  c #081B29",
"e  c #1D1D22",
"r  c #101F28",
"t  c #081834",
"y  c #14222A",
"u  c #1F3C2E",
"i  c #0B2B3E",
"p  c #132B32",
"a  c #112B3C",
"s  c #102231",
"d  c #1D3738",
"f  c #0D2B31",
"g  c #292B25",
"h  c #372F26",
"j  c #293420",
"k  c #28392A",
"l  c #313D20",
"z  c #2C2B33",
"x  c #303234",
"c  c #213B3A",
"v  c #473A18",
"b  c #473E2A",
"n  c #3A471C",
"m  c #3D531F",
"M  c #3A4B29",
"N  c #39532B",
"B  c #2E4831",
"V  c #2C4228",
"C  c #52421A",
"Z  c #5F501D",
"A  c #4D411B",
"S  c #7F6C1E",
"D  c #494624",
"F  c #5C4D20",
"G  c #455A29",
"H  c #494833",
"J  c #455437",
"K  c #595533",
"L  c #675925",
"P  c #715E21",
"I  c #4B662A",
"U  c #4D692C",
"Y  c #486128",
"T  c #536B2A",
"R  c #506927",
"E  c #54732B",
"W  c #5B7B2E",
"Q  c #5C7633",
"!  c #53683B",
"~  c #7E7129",
"^  c #606D3A",
"/  c #73672A",
"(  c #0B2C45",
")  c #0B2C48",
"_  c #0F2742",
"`  c #133445",
"'  c #15384A",
"]  c #0D3341",
"[  c #18455C",
"{  c #144563",
"}  c #18597B",
"|  c #144573",
" . c #847727",
".. c #927B25",
"X. c #83712F",
"o. c #5E802E",
"O. c #5F8133",
"+. c #6E992E",
"@. c #668B31",
"#. c #698F32",
"$. c #648732",
"%. c #6C9433",
"&. c #6F9931",
"*. c #709735",
"=. c #709931",
"-. c #719838",
";. c #668D2F",
":. c #5F8156",
">. c #598873",
",. c #6CA57C",
"<. c #72C17E",
"1. c #8F8322",
"2. c #978627",
"3. c #988938",
"4. c #AD992A",
"5. c #B29A28",
"6. c #A99432",
"7. c #BCA72C",
"8. c #B6A334",
"9. c #C2AA1E",
"0. c #D3B929",
"q. c #CCB73C",
"w. c #CCB52D",
"e. c #FBD604",
"r. c #FBD802",
"t. c #F6D60D",
"y. c #FAD50A",
"u. c #F7D80C",
"i. c #F3D805",
"p. c #ECCE1E",
"a. c #E9D81C",
"s. c #F4D513",
"d. c #F3D41C",
"f. c #F8D418",
"g. c #DDC62A",
"h. c #D7C235",
"j. c #DADA38",
"k. c #CBD73B",
"l. c #E5CB26",
"z. c #E8CA28",
"x. c #ECD629",
"c. c #F2D423",
"v. c #F3D62A",
"b. c #E2C836",
"n. c #E3D631",
"m. c #F6D431",
"M. c #A79B44",
"N. c #BEAD4C",
"B. c #C8B549",
"V. c #B7D04B",
"C. c #AACD59",
"Z. c #B2CD56",
"A. c #B8D15F",
"S. c #8EC56C",
"D. c #92C56A",
"F. c #97C470",
"G. c #AAC967",
"H. c #B0D166",
"J. c #B6D871",
"K. c #C8CA4A",
"L. c #C7D443",
"P. c #D5D643",
"I. c #CBD653",
"U. c #F0D940",
"Y. c #175B82",
"T. c #157298",
"R. c #146C98",
"E. c #226590",
"W. c #1C78AC",
"Q. c #237EA1",
"!. c #3D9C92",
"~. c #3EA19B",
"^. c #1986AE",
"/. c #148BBF",
"(. c #1787B3",
"). c #1694BF",
"_. c #2E99AC",
"`. c #38AEAA",
"'. c #27A9BC",
"]. c #36A6B8",
"[. c #659D96",
"{. c #55B498",
"}. c #67AE8E",
"|. c #72BE80",
" X c #6DBF87",
".X c #41AEAB",
"XX c #4CADA4",
"oX c #6BC084",
"OX c #1689C2",
"+X c #1793C4",
"@X c #149CCD",
"#X c #1A98C8",
"$X c #1A9CD5",
"%X c #2B99C9",
"&X c #1CA9CA",
"*X c #19A7CA",
"=X c #13A3D5",
"-X c #13ABD3",
";X c #15A4DB",
":X c #12A9DC",
">X c #1CA5D6",
",X c #0EA7DB",
"<X c #23A8C5",
"1X c #3AA5C0",
"2X c #05AEE6",
"3X c #0BACE3",
"4X c #03ADED",
"5X c #0CABEB",
"6X c #0EA7E4",
"7X c #13A6E3",
"8X c #12AAE4",
"9X c #10A8EA",
"0X c #16A5E5",
"qX c #02B0EC",
"wX c #03B0E5",
"eX c #03ADF2",
"rX c #09AAF3",
"tX c #01B0F5",
/* pixels */
"=.=.=.=.=.=.=.=.=.=.=.=.=.+.+.+.+.+.+.+.+.+.+.+.+.+.+.+.+.+.+.+.+.+.+.+.+.+.",
"=.=.=.=.=.=.=.=.=.=.=.=.=.+.+.+.+.+.+.+.+.+.+.+.+.+.+.+.+.+.+.+.+.+.+.+.+.+.",
"=.=.=.=.=.=.=.=.=.=.=.=.=.+.+.+.+.+.+.+.+.+.+.+.+.+.+.+.+.+.+.+.+.+.+.+.+.+.",
"=.=.=.=.=.=.=.=.=.=.=.=.=.+.+.+.&.*.#.E T D m @.+.+.+.+.+.+.+.+.+.+.+.+.+.+.",
"=.=.=.=.=.=.=.=.=.=.=.@.I m n 9 K L  .2.7.0.8.A M #.+.+.+.+.+.+.+.+.+.+.+.+.",
"=.=.=.=.=.=.=.=.=.=.=.7 K M.q.b.v.v.v.f.y.e.y.v.4.v G &.+.+.+.+.+.+.+.+.+.+.",
"=.=.=.=.=.=.=.=.=.=.=.7 : / B.U.m.m.f.e.e.t.t.f.n.I.:.k &.+.+.+.+.+.+.+.+.+.",
"=.=.=.=.=.=.=.=.=.=.=.7 > z g F B.j.j.L.Z.D.oX{.`.<X'.f &.+.+.+.+.+.+.+.+.+.",
"=.=.=.=.=.=.=.=.=.=.=.J e x z e > ~.'.&X8X5X4X4XqX4X9X` T &.+.+.+.+.+.+.+.+.",
"=.=.=.=.=.=.=.=.=.=.=.J X e ; # * @XeX4XrX4XeXeXeXeX*XG. .9 E &.+.+.+.+.+.+.",
"+.+.+.+.+.+.&.$.E Q n b h z X X 0 @X4X4XeXeX4XwXqXeX-XV.t.0.L 7 W +.+.+.+.+.",
"+.+.+.+.+.+.9 H 3.8.q.h.B.A o + = @X5X4X4XeXeXeXeX4X&XH.j.L.Z.,.y &.+.+.+.+.",
"+.+.+.+.+.+.M h X.b.v.c.f.v.5.9 = #X3X5X0X0X#X(.T.Y.{ !.].&X-X>X` ;.+.+.+.+.",
"+.+.+.+.+.+.J z g b 1.l.f.a.n.A.>.E.} [ _ t 0 % X + X (.rXqX4X5X) @.+.+.+.+.",
"+.+.+.+.+.+.J > x & o 6 }..X].&X<Xt I E #.3   X X X X OXqXeX4X3X_ @.+.+.+.+.",
"+.+.+.+.+.+.J > & X X * @X4XeX4X0Xw =.+.+.3       X X /.4XeX4X5X_ @.+.+.+.+.",
"+.+.+.+.+.+.J X   X X * =X4XeX4X0Xw &.+.+.3       X X /.4XeX4X5X_ @.+.+.+.+.",
"+.+.+.+.+.+.G     X X 0 =X4X4X4X0Xy &.+.+.2       X X /.4XeXqX5X_ &.+.+.+.+.",
"+.+.+.+.+.+.+.o.6 X X 0 =X4X2X2X>Xr &.+.+.g X       X /.4XeXqX5X_ &.+.+.+.+.",
"+.+.+.+.+.+.+.+.&.T < * Q.W.Y.| ` - =.&.$.1   X X X X /.4XeXqX3X) #.+.+.+.+.",
"+.+.+.+.+.+.+.+.+.+.&.I N G E @.j + 4 5 C P C @ o X X /.4XeXqX8X_ &.+.+.+.+.",
"+.+.+.+.+.+.+.+.+.+.+.+.+.+.+.+.l D B.v.s.s.s.7.v + O /.4XeX4X8X) &.+.+.+.+.",
"+.+.+.+.+.+.+.+.+.+.+.+.+.+.+.+.7 X $ ~ g.u.y.t.p.6.j (.;X#XW.E.w &.+.+.+.+.",
"+.+.+.+.+.+.+.+.+.+.+.+.+.+.+.+.7 X X o , 1.K.C.S. XXX' u V M Y E +.+.+.+.+.",
"+.+.+.+.+.+.+.+.+.+.+.+.+.+.+.+.7 X     % * _.8X3X4X,X_ *.+.+.+.+.+.+.+.+.+.",
"+.+.+.+.+.+.+.+.+.+.+.+.+.+.+.&.6 X X X X % +XeX4XrX6X_ =.+.+.+.+.+.+.+.+.+.",
"+.+.+.+.+.+.+.+.+.+.+.o.m n 9 9 v 4   +   O +XeXeXeX9Xa =.+.+.+.+.+.+.+.+.+.",
"+.+.+.+.+.+.+.+.+.+.+.6 H N.l.f.s.z..., o * ).4X4XqX0Xa &.+.+.+.+.+.+.+.+.+.",
"+.+.+.+.+.+.+.+.+.+.+.6 o v 6.v.y.e.t.g.~ ; +X9X;X@X^.s =.+.+.+.+.+.+.+.+.+.",
"+.+.+.+.+.+.+.+.+.+.+.3 X   . v 7.j.L.V.F.[.[ ' d k N U +.+.+.+.+.+.+.+.+.+.",
"+.+.+.+.+.+.+.+.+.+.+.3 X X % o & _.>X-X3X:Xp &.&.+.+.+.+.+.+.+.+.+.+.+.+.+.",
"+.+.+.+.+.+.+.+.+.+.+.3 X     X * *XeX4X4X;Xp &.+.+.+.+.+.+.+.+.+.+.+.+.+.+.",
"+.+.+.+.+.+.@.E Y m 9 4 @ % X   * $XeX2X4X0Xp &.+.+.+.+.+.+.+.+.+.+.+.+.+.+.",
"+.+.+.+.+.+.3 K 3.9.g.x.w.Z + X 0 *XeXeXeX8Xp &.+.+.+.+.+.+.+.+.+.+.+.+.+.+.",
"+.+.+.+.+.+.1 @ L 0.t.e.y.f.9.v q $X5X5X;X%Xp &.+.+.+.+.+.+.+.+.+.+.+.+.+.+.",
"+.+.+.+.+.+.<     $ S l.a.n.k.H.>.} { ' t 0 ; &.W T G Y &.+.+.+.+.+.+.+.+.+.",
"+.+.+.+.+.+.< X   X o 3 {.`.<X-X<Xt X . . $ 5 C P ..5.2.9 R &.+.+.+.+.+.+.+.",
"+.+.+.+.+.+.1 X   X   * =X4X4XeX=X^ 1.4.0.z.f.f.y.e.i.t.l. .9 T &.+.+.+.+.+.",
"+.+.+.+.+.+.: X   X   * =XeX4X4X&XP.y.y.e.r.e.r.r.e.y.e.s.v.K.! l &.+.+.+.+.",
"+.+.+.+.+.+.: X       * =XeX4X4X&XP.r.e.y.t.f.x.j.k.C.S.<.{..X1Xa &.+.+.+.+.",
"+.+.+.+.+.+.: X       * =XeX4X4X&XJ.L.C.S.|.{.`.'.&X:X3X2X4X2X3Xi &.+.+.+.+.",
"+.+.+.+.+.+.1 X       * ;XeXeXeX5X<X&X:X3X4X4X4X4X4X4X4X4X4XeX8Xi &.+.+.+.+.",
"+.+.+.+.+.+.1 X       * ;XeX4X4XqXeXeX5X4X4XeXeX4X4XeXeX4XeXeX0X_ &.+.+.+.+.",
"+.+.+.+.+.+.1 X       * ;XeXeXeXeXeX4X4XeXeXeXeX4X4XeX4X4X4X4X0Xi &.+.+.+.+.",
"+.+.+.+.+.+.3 X     X 0 >X4X4XeXeXeXeXeXeX4X4X4X4X2X3X;X#X^.T.Y.r &.+.+.+.+.",
"+.+.+.+.+.+.@.7 X   X 0 ;XtX4X4X2X2X3X3X;X#X^.T.} { ' d k N Y E @.+.+.+.+.+.",
"+.+.+.+.+.+.+.+.W 6 X * %X>X#X^.R.Y.{ ' c B G U W &.&.+.+.+.+.+.+.+.+.+.+.+.",
"+.+.+.+.+.+.+.+.+.&.E 2 ' d B N U W #.&.+.+.+.+.+.+.+.+.+.+.+.+.+.+.+.+.+.+.",
"+.+.+.+.+.+.+.+.+.+.+.+.&.+.+.+.+.+.+.+.+.+.+.+.+.+.+.+.+.+.+.+.+.+.+.+.+.+.",
"+.+.+.+.+.+.+.+.+.+.+.+.+.+.+.+.+.+.+.+.+.+.+.+.+.+.+.+.+.+.+.+.+.+.+.+.+.+."
};
