/* XPM */
static char *numbers_5[] = {
/* columns rows colors chars-per-pixel */
"39 55 220 2 ",
"   c #020206",
".  c #0B0205",
"X  c #03020A",
"o  c #0A040A",
"O  c #07090C",
"+  c #120306",
"@  c #13070A",
"#  c #040312",
"$  c #0A0C11",
"%  c #060C1B",
"&  c #060817",
"*  c #08121C",
"=  c #19161B",
"-  c #120C14",
";  c #260408",
":  c #3B080D",
">  c #350D15",
",  c #261917",
"<  c #361313",
"1  c #2A1310",
"2  c #1D2219",
"3  c #22281D",
"4  c #37241B",
"5  c #36371F",
"6  c #1D1E23",
"7  c #070F21",
"8  c #231B24",
"9  c #251A30",
"0  c #1B2528",
"q  c #12262B",
"w  c #0A2133",
"e  c #132438",
"r  c #1E312E",
"t  c #242C29",
"y  c #30272C",
"u  c #2A3727",
"i  c #3B3A23",
"p  c #2C2C31",
"a  c #232F30",
"s  c #342B33",
"d  c #273434",
"f  c #353537",
"g  c #4A0E14",
"h  c #471518",
"j  c #59121B",
"k  c #520D14",
"l  c #64121D",
"z  c #6B131D",
"x  c #660F1C",
"c  c #541929",
"v  c #6A1422",
"b  c #681624",
"n  c #7A1928",
"m  c #7E1F30",
"M  c #443C24",
"N  c #732439",
"B  c #3D431F",
"V  c #39472B",
"C  c #364931",
"Z  c #3B5136",
"A  c #3D5422",
"S  c #484D25",
"D  c #454C26",
"F  c #435C26",
"G  c #465929",
"H  c #455933",
"J  c #4C642D",
"K  c #496327",
"L  c #52662E",
"P  c #536D2D",
"I  c #58692E",
"U  c #59742E",
"Y  c #4A6534",
"T  c #536B31",
"R  c #5A6F30",
"E  c #597533",
"W  c #5D7A35",
"Q  c #5A7538",
"!  c #607E3B",
"~  c #0B2746",
"^  c #0C2E51",
"/  c #113A59",
"(  c #0F334E",
")  c #133E60",
"_  c #6A2943",
"`  c #15425C",
"'  c #325055",
"]  c #15567B",
"[  c #114965",
"{  c #255B74",
"}  c #304467",
"|  c #356377",
" . c #435A4F",
".. c #637F41",
"X. c #6E5272",
"o. c #44667D",
"O. c #86192A",
"+. c #971B2E",
"@. c #8C1A30",
"#. c #9E1B31",
"$. c #A21C33",
"%. c #A61F3C",
"&. c #B11C37",
"*. c #8A2032",
"=. c #98283B",
"-. c #AD2139",
";. c #A1283D",
":. c #BC243C",
">. c #EC1B36",
",. c #E51D3D",
"<. c #EC1A3B",
"1. c #EB1A38",
"2. c #F11937",
"3. c #F2173B",
"4. c #F1183C",
"5. c #C6253E",
"6. c #D7233D",
"7. c #E4203C",
"8. c #8A2E4B",
"9. c #A6354A",
"0. c #BD2E59",
"q. c #B73158",
"w. c #A22F43",
"e. c #AC3B69",
"r. c #B83162",
"t. c #DD1E41",
"y. c #E41D41",
"u. c #EB1A41",
"i. c #E01D48",
"p. c #F01741",
"a. c #C02440",
"s. c #CA2647",
"d. c #D62341",
"f. c #DB2443",
"g. c #D62649",
"h. c #C72A57",
"j. c #D82C4F",
"k. c #E32344",
"l. c #E62A4A",
"z. c #E83A53",
"x. c #EA3852",
"c. c #F63F60",
"v. c #994A79",
"b. c #915177",
"n. c #8D496B",
"m. c #A4426C",
"M. c #EC455E",
"N. c #F1425B",
"B. c #F24666",
"V. c #5F8037",
"C. c #6E992E",
"Z. c #638535",
"A. c #668A34",
"S. c #698D33",
"D. c #668739",
"F. c #6D9433",
"G. c #6F9931",
"H. c #6E9338",
"J. c #709931",
"K. c #729838",
"L. c #62862F",
"P. c #658142",
"I. c #195E82",
"U. c #166889",
"Y. c #1B6C97",
"T. c #0F769C",
"R. c #2F7190",
"E. c #1B7BA7",
"W. c #1C7DB3",
"Q. c #7A6399",
"!. c #736D94",
"~. c #5C79B1",
"^. c #5D79A3",
"/. c #6572A4",
"(. c #975182",
"). c #915384",
"_. c #B45E85",
"`. c #9C799D",
"'. c #A76990",
"]. c #1C87B8",
"[. c #1888B0",
"{. c #2189B5",
"}. c #2491BE",
"|. c #3182A6",
" X c #4B87BA",
".X c #508CB7",
"XX c #1A98CB",
"oX c #1C9DDF",
"OX c #2897C4",
"+X c #3896C9",
"@X c #2C9CD4",
"#X c #2B9ADA",
"$X c #3A93D2",
"%X c #09ABDE",
"&X c #1AA7DC",
"*X c #18A6D9",
"=X c #23A0DD",
"-X c #31B1DE",
";X c #269DE5",
":X c #0CAAE4",
">X c #05ACEC",
",X c #0AABEB",
"<X c #0DA6EA",
"1X c #14A6E4",
"2X c #13AAE2",
"3X c #15A7E9",
"4X c #02B2E9",
"5X c #04ACF2",
"6X c #0AAAF2",
"7X c #0BAAF4",
"8X c #14B1EE",
"9X c #29B7EB",
"0X c #2ABBF4",
"qX c #32B9F0",
"wX c #448CC3",
"eX c #5196CE",
"rX c #6A8EC3",
"tX c #42BBF0",
"yX c #29C0F2",
"uX c #818AAF",
/* pixels */
"J.J.J.J.J.J.J.J.J.J.J.J.J.C.C.C.C.C.C.C.C.C.C.C.C.C.C.C.C.C.C.C.C.C.C.C.C.C.C.",
"J.J.J.J.J.J.J.J.J.J.J.J.J.C.C.C.C.C.C.C.C.C.C.C.C.C.C.C.C.C.C.C.C.C.C.C.C.C.C.",
"J.J.J.J.J.J.J.J.J.J.J.J.J.C.C.C.C.C.C.C.C.C.C.C.C.C.C.G.J.C.C.C.C.C.C.C.C.C.C.",
"J.J.J.J.J.J.J.J.J.J.J.J.J.C.C.C.C.C.C.C.G.F.F.V.! Y Z  .' C A.C.C.C.C.C.C.C.C.",
"J.J.J.J.J.J.J.J.J.J.J.J.J.J.F.H.W R H V t d ' { { R.|.{.OXU.~ H A.C.C.C.C.C.C.",
"J.J.J.J.J.J.J.K.D.W R H V u a ~ / [ U.E.].-X*X&XqX1X8X6X,X%XXX] q H F.C.C.C.C.",
"J.J.J.J.E u 0 w ~ ) ] Y.W.XXoX1X8X,X,X6X,X0X2X2X0X:X>X5X5X,X<X2X}.} 0 D.C.C.C.",
"J.J.J.J.J * | OX1X1X:X>X4X4X5X:X2XyX9X9XqX9X0X9X*X2X&X@X+X X~.Q.b.m.c R C.C.C.",
"J.J.J.J.J X % / ].%X,X5X6X6X6X5X,X*XtX@X$XeXrX/.Q.(.m.r.h.g.y.y.y.y.z L C.C.C.",
"J.J.J.J.J     X % ` {.*X=X@XwX.XuX`.'._.r.g.g.y.<.,.,.<.4.4.<.<.<.,.z L C.C.C.",
"J.J.J.J.J     X X X 7 X.e.h.h.M.f.k.M.z.l.<.<.u.u.4.4.4.>.<.<.<.<.,.z R C.C.C.",
"C.C.C.C.J X   X X X @ #.z.z.f.B.k.f.N.<.<.>.>.<.4.<.<.<.<.<.<.<.<.,.z R C.C.C.",
"C.C.C.C.J           , ;.j.B.k.l.B.N.k.<.<.<.<.<.<.<.<.4.4.4.<.<.<.6.v R C.C.C.",
"C.C.C.C.J           o w.x.l.c.l.z.z.7.<.<.3.3.4.u.<.u.y.d.:.-.#.O.v > W C.C.C.",
"C.C.C.C.K X       o s w.N.z.j.x.k.l.u.u.f.s.a.-.+.n l g < 4 5 S J U A.G.C.C.C.",
"C.C.C.C.K X       $ f 9.z.M.k.<.,.+.b j : ; ; M S L W A.F.J.C.C.C.C.C.C.C.C.C.",
"C.C.C.C.K X X = p s = =.N.k.<.3.6.: . . X # % C A.C.C.C.C.C.C.C.C.C.C.C.C.C.C.",
"C.C.C.C.F X X p X - y ;.k.,.<.4.d.9 ( [ I.T.[.I.e H F.C.C.C.C.C.C.C.C.C.C.C.C.",
"C.C.C.C.J 6 8 f $ = y #.<.<.<.u.h. X2X:X>X>X5X,XXX] e H F.C.C.C.C.C.C.C.C.C.C.",
"C.C.C.C...0 8 f p p @ #.<.<.<.u.h.+X5X7X6X,X5X5X7X1X}.` 0 W C.C.C.C.C.C.C.C.C.",
"C.C.C.C.W X o p   X   #.<.<.>.<.h.wX<X<X:X=X@X+X X^.Q.(._ S C.C.C.C.C.C.C.C.C.",
"C.C.C.C.P.t p =       #.<.4.>.,.g.!.^.Q.).v.e.0.s.6.y.<.+.V C.C.C.C.C.C.C.C.C.",
"C.C.C.C.Q f 8 X       #.<.<.>.<.u.f.f.<.u.<.<.<.<.<.<.,.w.e Z A.C.C.C.C.C.C.C.",
"C.C.C.C.! $ p X       $.<.<.<.<.<.u.<.4.<.>.<.<.<.u.y.t.(.OX] e H F.C.C.C.C.C.",
"C.C.C.C.F X X         $.<.4.<.<.>.3.p.<.<.<.4.<.<.<.>.>.).%X:XXX] q J F.C.C.C.",
"C.C.C.C.J X X X   X o #.<.>.<.<.<.<.<.4.3.<.<.>.>.<.,.,.(.@X#X$X.XX.8 W C.C.C.",
"C.C.C.C.A.u # X X X . +.>.<.<.<.<.4.<.,.,.,.k.d.s.:.$.O.8.v.e.q.h.s.v R C.C.C.",
"C.C.C.C.C.G.E t $ X . $.,.y.y.k.f.a.-.+.O.l g : ; + + o v u.<.2.3.y.l P C.C.C.",
"C.C.C.C.C.C.C.F.E 3 @ b *.n v h h 4 M S I R o X X X   X j ,.,.u.4.,.l P C.C.C.",
"C.C.C.C.C.C.C.C.C.F.R i V L W A.K.J.C.C.C.A.X X X   X X l ,.<.u.4.,.z P C.C.C.",
"C.C.C.C.C.C.C.C.C.C.C.C.C.C.C.C.C.C.C.C.C.A.X X X   X X l ,.<.<.4.,.z P C.C.C.",
"C.C.C.C.C.C.C.C.C.C.C.C.C.C.C.C.C.C.C.C.C.A.X X X   X X l ,.<.<.4.,.z P C.C.C.",
"C.C.C.C.C.C.C.C.C.C.C.C.C.C.C.C.C.C.C.C.C.D.X X X   X X l ,.<.<.4.,.z P C.C.C.",
"C.C.C.C.C.C.C.C.C.C.C.C.C.C.C.C.C.C.C.C.C.D.X X X X X   l ,.<.<.<.,.l P C.C.C.",
"C.C.C.C.C.C.C.C.C.C.C.C.C.C.C.C.C.C.C.C.C.A.X X X X X   l y.<.<.<.,.l P C.C.C.",
"C.C.C.C.C.C.C.C.C.C.C.C.C.C.C.C.C.C.C.C.C.A.X X X X X   l y.<.<.<.,.l P C.C.C.",
"C.C.C.C.C.G.J.A.W Y Z C Q J.C.C.C.C.C.C.C.A.X X X X X   l y.<.<.<.,.l P C.C.C.",
"C.C.C.C.W t e ( [ ] Y.U.~ a ! J.C.C.C.C.C.A.X X X X X   l ,.<.<.<.,.l P C.C.C.",
"C.C.C.C.F * { OX<X6X5X,X*XU.w f A.C.C.C.C.A.X X X X X X l <.<.u.3.,.l P C.C.C.",
"C.C.C.C.H X # ~ Y.*X>X5X,X:XXX] d A.C.C.C.A.X X X   X X l <.<.u.3.,.l P C.C.C.",
"C.C.C.C.H X X   $ ^ W.#X$XwX~.Q.n.4 F.C.G.A.$ X     X X l <.<.u.4.,.l P C.C.C.",
"C.C.C.C.F # # X   X & 8.0.s.,.y.5.> C u d q w * X . X X l <.<.<.3.,.l P C.C.C.",
"C.C.C.C.A X X X X X . $.<.<.4.<.s.} U.E.].*X&X]./ % o . l 6.,.<.<.,.l P C.C.C.",
"C.C.C.C.F X X X X X . $.<.<.>.<.h.wX,X,X5X5X5X,X*X[.^ & v y.<.,.,.g.j P C.C.C.",
"C.C.C.C.R $ X X X X . $.<.<.>.<.0.$X5X5X>X>X,X,X<X2X+Xo.N %.+.n j h 1 E C.C.C.",
"C.C.C.C.G.E 3 X X X + $.<.,.<.y.0.+X3X;X@XwX X/.Q.(.m.0.m 1 V F K A.A.G.C.C.C.",
"C.C.C.C.C.C.F.J 2 X + =.d.a.:.$.*.b.v.m.0.s.g.i.u.<.,.,.@.D C.C.C.C.C.C.C.C.C.",
"C.C.C.C.C.C.C.C.F.J = > : ; + + ; :.u.4.>.>.>.<.4.<.<.<.@.D C.C.C.C.C.C.C.C.C.",
"C.C.C.C.C.C.C.C.C.C.u     X X X ; 5.,.<.<.4.4.3.p.<.<.<.@.D C.C.C.C.C.C.C.C.C.",
"C.C.C.C.C.C.C.C.C.C.5 X X X X . ; 5.2.3.<.<.<.<.<.<.2.4.@.D C.C.C.C.C.C.C.C.C.",
"C.C.C.C.C.C.C.C.C.C.A.u $ X X . ; 5.3.>.<.<.<.<.>.,.7.6.m S C.C.C.C.C.C.C.C.C.",
"C.C.C.C.C.C.C.C.C.C.C.F.W 3 X   ; a.,.7.y.d.5.-.+.n v k < J C.C.C.C.C.C.C.C.C.",
"C.C.C.C.C.C.C.C.C.C.C.C.C.F.T 2 @ n n j g < 1 i B L U A.F.G.C.C.C.C.C.C.C.C.C.",
"C.C.C.C.C.C.C.C.C.C.C.C.C.C.C.F.G D G U L.F.J.C.C.C.C.C.C.C.C.C.C.C.C.C.C.C.C.",
"C.C.C.C.C.C.C.C.C.C.C.C.C.C.C.C.C.C.C.C.C.C.C.C.C.C.C.C.C.C.C.C.C.C.C.C.C.C.C."
};
