/* XPM */
static char *numbers_8[] = {
/* columns rows colors chars-per-pixel */
"38 55 228 2 ",
"   c #030206",
".  c #0B0305",
"X  c #02020A",
"o  c #0A020A",
"O  c #0A0D0E",
"+  c #02080C",
"@  c #140204",
"#  c #170408",
"$  c #040512",
"%  c #0B0C14",
"&  c #050A1B",
"*  c #070A15",
"=  c #130D15",
"-  c #0C1014",
";  c #0C151C",
":  c #161517",
">  c #2A0507",
",  c #3B060C",
"<  c #3D090E",
"1  c #37060C",
"2  c #390810",
"3  c #291416",
"4  c #361610",
"5  c #362819",
"6  c #38331C",
"7  c #232E1D",
"8  c #081628",
"9  c #191A24",
"0  c #081D38",
"q  c #1E1F34",
"w  c #3C1521",
"e  c #0C283B",
"r  c #152938",
"t  c #0D2732",
"y  c #282B23",
"u  c #2C3A29",
"i  c #382634",
"p  c #2C3A36",
"a  c #32312C",
"s  c #42080E",
"d  c #440C13",
"f  c #4A0E14",
"g  c #410510",
"h  c #550E18",
"j  c #49141F",
"k  c #5B1119",
"l  c #541117",
"z  c #63161E",
"x  c #4B162A",
"c  c #651822",
"v  c #7C1925",
"b  c #781927",
"n  c #7D1E37",
"m  c #433A3F",
"M  c #752B3E",
"N  c #6D2038",
"B  c #354429",
"V  c #3C4A2A",
"C  c #384C35",
"Z  c #354A30",
"A  c #444C25",
"S  c #464B28",
"D  c #445228",
"F  c #455B2C",
"G  c #4A5A2B",
"H  c #495837",
"J  c #4D632C",
"K  c #4D6A29",
"L  c #476523",
"P  c #536D2D",
"I  c #53722D",
"U  c #5A772E",
"Y  c #496231",
"T  c #4F6A30",
"R  c #536B33",
"E  c #577233",
"W  c #597632",
"Q  c #5B7B33",
"!  c #5A7738",
"~  c #607F35",
"^  c #0C2A46",
"/  c #11364D",
"(  c #0E3D59",
")  c #123656",
"_  c #122C43",
"`  c #3A3759",
"'  c #52334F",
"]  c #783A5B",
"[  c #27445C",
"{  c #18566E",
"}  c #144C71",
"|  c #1A577C",
" . c #154767",
".. c #28586B",
"X. c #215A78",
"o. c #306477",
"O. c #4A5444",
"+. c #6B7956",
"@. c #554A6C",
"#. c #831926",
"$. c #88162B",
"%. c #8B1A2B",
"&. c #841929",
"*. c #951D2E",
"=. c #931B30",
"-. c #8E1D30",
";. c #AC1E34",
":. c #A91F38",
">. c #B51F36",
",. c #99253C",
"<. c #89212B",
"1. c #AA2135",
"2. c #B52439",
"3. c #EC1B36",
"4. c #E51D3C",
"5. c #EC1B3B",
"6. c #EC1939",
"7. c #F21935",
"8. c #F3173D",
"9. c #F1183B",
"0. c #F51737",
"q. c #CA243D",
"w. c #D9233D",
"e. c #E2213D",
"r. c #E8203F",
"t. c #99304C",
"y. c #B42842",
"u. c #B33A5C",
"i. c #AB3350",
"p. c #AB3C67",
"a. c #B43764",
"s. c #AB3E70",
"d. c #DD1F44",
"f. c #E21E44",
"g. c #ED1941",
"h. c #EE1740",
"j. c #F01643",
"k. c #CA2747",
"l. c #D42544",
"z. c #DC2342",
"x. c #D2234B",
"c. c #D82748",
"v. c #C52C53",
"b. c #DF324C",
"n. c #E22041",
"m. c #E42C49",
"M. c #E93A55",
"N. c #F33C5A",
"B. c #E53250",
"V. c #B6485C",
"C. c #9E456C",
"Z. c #8E4873",
"A. c #A24372",
"S. c #BB4561",
"D. c #F24259",
"F. c #D14970",
"G. c #F14665",
"H. c #5F8034",
"J. c #648B2C",
"K. c #6E992E",
"L. c #638335",
"P. c #6A8E36",
"I. c #678937",
"U. c #6D9434",
"Y. c #6E9930",
"T. c #6F9439",
"R. c #709931",
"E. c #749C3B",
"W. c #709735",
"Q. c #779C43",
"!. c #6E8951",
"~. c #7BA049",
"^. c #1A5C83",
"/. c #325B87",
"(. c #166789",
"). c #1B6D9B",
"_. c #1B769C",
"`. c #1C708B",
"'. c #306B96",
"]. c #197BAA",
"[. c #557B9C",
"{. c #73688F",
"}. c #6E6A9C",
"|. c #766D9A",
" X c #5A7DB4",
".X c #4C7AAA",
"XX c #6577AA",
"oX c #7777A9",
"OX c #845988",
"+X c #B65D8B",
"@X c #A27098",
"#X c #8A76A0",
"$X c #9A738F",
"%X c #188BB6",
"&X c #2A87B2",
"*X c #4788BE",
"=X c #5287B5",
"-X c #4094BD",
";X c #1B9AC9",
":X c #139ED6",
">X c #289BCB",
",X c #3997CA",
"<X c #2B9DD7",
"1X c #388BCC",
"2X c #17A4DD",
"3X c #16A6DC",
"4X c #1EA0CE",
"5X c #23A1DC",
"6X c #24A7D5",
"7X c #3AABDC",
"8X c #0DABE5",
"9X c #05AEEC",
"0X c #0BAAEC",
"qX c #0AAAE8",
"wX c #12AAE4",
"eX c #14A6E8",
"rX c #05B0EB",
"tX c #04ACF3",
"yX c #0CA9F2",
"uX c #04B0F2",
"iX c #32ABE4",
"pX c #28B0E9",
"aX c #468CC6",
"sX c #4095CB",
"dX c #6794C8",
"fX c #51A0C2",
"gX c #1FC1F2",
"hX c #828AB3",
/* pixels */
"R.R.R.R.R.R.R.R.R.R.R.R.R.K.K.K.K.K.K.K.K.K.K.K.K.K.K.K.K.K.K.K.K.K.K.K.K.K.",
"R.R.R.R.R.R.R.R.R.R.R.R.R.K.K.K.K.K.K.K.K.K.K.K.K.K.K.K.K.K.K.K.K.K.K.K.K.K.",
"R.R.R.R.R.R.R.R.R.R.R.R.R.K.K.K.K.T.T.L.E Q Y.K.K.K.K.K.K.K.K.K.K.K.K.K.K.K.",
"R.R.R.R.R.R.R.R.R.R.T.T.L.E Y C u r _ )  ./ p Q Y.K.K.K.K.K.K.K.K.K.K.K.K.K.",
"R.R.R.R.R.R.R.R.E y r ^ ( { (.].%X:X3X8X8XiX-X..Z P.K.K.K.K.K.K.K.K.K.K.K.K.",
"R.R.R.R.R.R.R.R.J ; o.>X8XqXyX9XqX9X9XqX8XgX3X6X].[ H P.K.K.K.K.K.K.K.K.K.K.",
"R.R.R.R.R.R.R.R.T X $ ^ ].3X9XuXqXtXrXpXiXiX5X7XfX[.' u Y.K.K.K.K.K.K.K.K.K.",
"R.R.R.R.R.R.R.R.Y X X X & ) %X5X<XaXdXoX#X@X+XF.v.x.y.a Y.K.K.K.K.K.K.K.K.K.",
"R.R.R.R.R.R.R.R.J X X     X & ] p.u.F.l.c.M.4.5.5.4.y.9 E Y.K.K.K.K.K.K.K.K.",
"R.R.R.R.R.R.R.R.F   o o 9 9 . t.G.B.D.M.N.m.5.5.5.8.a.[./ p L.K.K.K.K.K.K.K.",
"R.R.R.R.W.T.H.E 7 + +   O p : V.m.m.b.G.B.4.8.5.5.7.A.<XeX_.e B L.K.K.K.K.K.",
"K.K.T.B 9 t /  .^./.^ $ = i m V.M.M.N.m.N.4.8.5.5.3.C.<XyXeX<X/.q R K.K.K.K.",
"K.K.L.% ..&X3XqX9XqX4X`.[ : : V.B.M.r.5.4.4.4.z.l.l.t.|.|.OXA.u.M S K.K.K.K.",
"K.K.L.X $ 0 ).2XrXtXtX8X7XX.9 S.l.z.q.2.*.%.b k , > < v.z.f.5.4.%.A K.K.K.K.",
"K.K.~ X X X $ ^ _.6X6XaXdXhX$XM f 2 > 3 o . X X X X , z.5.5.7.5.=.S K.K.K.K.",
"K.K.Q X $ X X X & ' p.v.k.c.k.f H L.Q.E.= X X o o X 2 z.8.5.0.5.=.S K.K.K.K.",
"K.K.Q X   X X X . v 4.5.0.g.e.f R K.K.~.%           , z.5.5.8.5.*.A K.K.K.K.",
"K.K.Q X X X X   o b 4.5.8.5.e.f L K.K.Q.& X X X X X , z.5.8.5.5.%.A K.K.K.K.",
"K.K.Q X X X X   o b 4.g.5.5.e.f R K.K.Q.% X X X X X 1 z.5.8.5.5.%.A K.K.K.K.",
"K.K.Q X X X       b 5.g.5.5.e.f R K.K.Y.O X X X X X , z.5.8.5.5.%.A K.K.K.K.",
"K.K.Q X X X       b 5.5.5.5.e.f R K.K.Q.O X X X X X 1 z.5.8.5.5.%.A K.K.K.K.",
"K.K.E X X X X X X b 5.5.5.5.n.j O.H C p & $ X X X X , z.5.8.8.5.%.A K.K.K.K.",
"K.K.E X X X X X X b 5.5.5.8.4.x / } (._.%X(.e $ X X 1 w.3.8.5.5.%.A K.K.K.K.",
"K.K.E X X X X X X b 5.5.5.3.x.XXwX9X9XtXtXyX3X`.0 $ g z.5.0.0.4.%.A K.K.K.K.",
"K.K.Q $ X X X X X b 5.5.5.3.x. XtXtX9X9X9XrXtXeX>X{ w k.q.2.*.&.j G K.K.K.K.",
"K.K.Y.Y : X X X . b 4.5.j.7.z. XqXeX8X2X<X,X*X X}.OXt.2 3 5 B F P T.K.K.K.K.",
"K.K.K.K.P.F = X   b z.n.c.q.y.{.XX}.OXA.a.v.k.l.4.g.2.5 E.Y.K.K.K.K.K.K.K.K.",
"K.K.K.K.K.K.P.B O j b k d > > t.f.4.5.5.5.5.g.g.g.g.i.q u L.K.K.K.K.K.K.K.K.",
"K.K.K.K.K.K.K.Y.D X . o X   . ;.5.5.5.5.5.5.5.5.5.5.s.sX).r C P.K.K.K.K.K.K.",
"K.K.Y.I.E Y C p 8 8 $ X     @ ;.5.5.5.5.3.5.5.8.5.7.A.5X9X4X^.r H T.K.K.K.K.",
"K.K.I ; [ | _.%X;X;X(.0 X $ # :.5.5.5.0.0.5.8.5.5.5.C.,X<X<XaX{.i F K.K.K.K.",
"K.K.E $ e _.2XyXtXtXqX>X| & # ;.5.3.5.4.e.w.w.2.:.%.n A.s.u.k.l.n D K.K.K.K.",
"K.K.I X o & ) ].wXqXyXqXeX1X` ,.2.*.#.c h 2 > # . . < k.4.5.g.h.=.S K.K.K.K.",
"K.K.I X X X X & ( .XXX|.OXC.u.h 3 y S O.% X X X   . , z.g.g.5.5.&.A K.K.K.K.",
"K.K.I X X     X o N x.f.f.4.z.f +.R.K.E.-   X X   X , z.5.5.5.5.%.A K.K.K.K.",
"K.K.K X X   X X . &.5.7.3.0.f.d P K.K.E.%         X , z.5.5.5.5.%.A K.K.K.K.",
"K.K.K X           $.5.5.0.3.z.f P K.K.E.% X     X X < z.5.5.5.5.%.A K.K.K.K.",
"K.K.K X           &.4.5.0.8.n.d K K.K.E.% X X X X X s z.5.5.5.5.%.A K.K.K.K.",
"K.K.K X           #.5.5.8.5.4.d E K.K.Q.% X X X X X s z.5.0.5.5.$.A K.K.K.K.",
"K.K.K X X     X   #.5.5.8.8.w.f +.Q.E.!.% X     X X s z.5.0.5.5.$.A K.K.K.K.",
"K.K.K X X X X X   #.5.5.5.5.e.f a q 8 0 ^ 0 $     X d z.5.0.5.5.$.A K.K.K.K.",
"K.K.K X X X X X   #.4.5.5.3.c.@._.%X;X3XwX;X^.8 $ X d z.4.0.5.5.&.A K.K.K.K.",
"K.K.K $ X X X X   #.5.9.3.7.x.=X8X9X9X9XqXtXqX;X} 8 d e.3.4.z.q.b A K.K.K.K.",
"K.K.L.- X X X X   b 4.4.4.9.x.=XyXqX9XtXtXqX8X3X>X[.' ,.#.c h d 3 T K.K.K.K.",
"K.K.K.I.B - X X o #.5.0.8.3.x.XXeX5X,X*X X}.OXZ.a.v.,.4 S J U P.R.Y.K.K.K.K.",
"K.K.K.K.K.L.B $ o b l.q.1.<.b Z.C.u.v.x.d.4.5.5.5.5.1.6 K.K.K.K.K.K.K.K.K.K.",
"K.K.K.K.K.K.Y.Q 7 # > # @ o @ 1.5.5.5.5.g.5.5.5.5.5.:.6 Y.K.K.K.K.K.K.K.K.K.",
"K.K.K.K.K.K.K.K.F X X   X X @ ;.5.5.5.5.g.g.5.5.5.4.1.6 Y.K.K.K.K.K.K.K.K.K.",
"K.K.K.K.K.K.K.K.F $ X X X X . ;.5.5.5.5.5.g.8.8.8.7.>.6 K.K.K.K.K.K.K.K.K.K.",
"K.K.K.K.K.K.K.K.T.C % X X X . :.5.5.5.5.5.4.4.e.w.w.,.6 K.K.K.K.K.K.K.K.K.K.",
"K.K.K.K.K.K.K.K.K.K.L.u % X @ 1.4.f.z.l.y.1.%.b k d 3 C K.K.K.K.K.K.K.K.K.K.",
"K.K.K.K.K.K.K.K.K.K.K.Y.L.u # c z l d 4 5 A D R U P.T.Y.K.K.K.K.K.K.K.K.K.K.",
"K.K.K.K.K.K.K.K.K.K.K.K.K.Y.E D J U I.T.Y.K.K.K.K.K.K.K.K.K.K.K.K.K.K.K.K.K.",
"K.K.K.K.K.K.K.K.K.K.K.K.K.K.K.K.K.K.K.K.K.K.K.K.K.K.K.K.K.K.K.K.K.K.K.K.K.K.",
"J.J.J.J.J.J.J.J.J.J.J.J.J.J.J.J.J.J.J.J.J.J.J.J.J.J.J.J.J.J.J.J.J.J.J.J.J.J."
};
