/* XPM */
static char *numbers_9[] = {
/* columns rows colors chars-per-pixel */
"37 57 221 2 ",
"   c #020206",
".  c #02020A",
"X  c #0A060A",
"o  c #06080B",
"O  c #0A0607",
"+  c #120A0B",
"@  c #180D07",
"#  c #1B180B",
"$  c #030513",
"%  c #030913",
"&  c #020C1B",
"*  c #0A0812",
"=  c #1C1A14",
"-  c #191C1B",
";  c #151813",
":  c #0D1112",
">  c #23190C",
",  c #221E11",
"<  c #1B231B",
"1  c #1C2311",
"2  c #28260E",
"3  c #34280D",
"4  c #2C2411",
"5  c #24261C",
"6  c #272A18",
"7  c #342D16",
"8  c #2C341A",
"9  c #373819",
"0  c #020F25",
"q  c #020F2B",
"w  c #031127",
"e  c #041329",
"r  c #091A2A",
"t  c #061A38",
"y  c #0D242C",
"u  c #1D2324",
"i  c #1B2C2B",
"p  c #182628",
"a  c #1E312D",
"s  c #0C253B",
"d  c #0E2737",
"f  c #112431",
"g  c #172935",
"h  c #222C22",
"j  c #22262A",
"k  c #2B3722",
"l  c #253426",
"z  c #323D27",
"x  c #333430",
"c  c #423C16",
"v  c #423622",
"b  c #354427",
"n  c #3D5329",
"m  c #3C4F36",
"M  c #56461C",
"N  c #58501B",
"B  c #655F1E",
"V  c #455A2E",
"C  c #495B2B",
"Z  c #41532B",
"A  c #564C2C",
"S  c #675623",
"D  c #4C632C",
"F  c #4F6A2A",
"G  c #4E6C27",
"H  c #506B2D",
"J  c #55732E",
"K  c #5A792F",
"L  c #4D6531",
"P  c #526B32",
"I  c #516630",
"U  c #577530",
"Y  c #5A7734",
"T  c #5B7B31",
"R  c #786523",
"E  c #0C2944",
"W  c #163755",
"Q  c #0F3450",
"!  c #143F64",
"~  c #0E405D",
"^  c #316348",
"/  c #144465",
"(  c #164868",
")  c #144F74",
"_  c #165174",
"`  c #14527A",
"'  c #175977",
"]  c #135572",
"[  c #275B72",
"{  c #46644A",
"}  c #52604C",
"|  c #6D7046",
" . c #4B746E",
".. c #8A731D",
"X. c #826D26",
"o. c #887828",
"O. c #5F8033",
"+. c #6E992E",
"@. c #628334",
"#. c #698E35",
"$. c #678A36",
"%. c #6C9433",
"&. c #6F9931",
"*. c #709931",
"=. c #749B3C",
"-. c #709739",
";. c #779E41",
":. c #4F836A",
">. c #78BE7B",
",. c #97801C",
"<. c #A4941E",
"1. c #98862D",
"2. c #8C822C",
"3. c #A58E25",
"4. c #B69D27",
"5. c #AD9B2C",
"6. c #B9A52A",
"7. c #B6AF39",
"8. c #D2BA29",
"9. c #C7B532",
"0. c #D8BB34",
"q. c #C8AF2C",
"w. c #FBD605",
"e. c #F5D906",
"r. c #FBD804",
"t. c #F5D60B",
"y. c #FAD50A",
"u. c #F3D90A",
"i. c #F8D808",
"p. c #F6D606",
"a. c #ECD91D",
"s. c #F4D714",
"d. c #F9D411",
"f. c #F4D519",
"g. c #F2D91A",
"h. c #F8D811",
"j. c #F8CF09",
"k. c #DCC729",
"l. c #DDDA2C",
"z. c #DAD83A",
"x. c #E7CD27",
"c. c #EDD524",
"v. c #E8D729",
"b. c #E0C831",
"n. c #E7D533",
"m. c #F0D522",
"M. c #819E5B",
"N. c #97AD5E",
"B. c #A8AE51",
"V. c #C1BC59",
"C. c #BAD549",
"Z. c #B3CC58",
"A. c #A6CF5A",
"S. c #98C867",
"D. c #87C176",
"F. c #92C86D",
"G. c #A2C965",
"H. c #CCC744",
"J. c #CAD447",
"K. c #C2D758",
"L. c #D3D747",
"P. c #175B81",
"I. c #1C5982",
"U. c #156888",
"Y. c #186C96",
"T. c #1C749D",
"R. c #187299",
"E. c #1D7188",
"W. c #296983",
"Q. c #247798",
"!. c #226890",
"~. c #1978A9",
"^. c #237CA5",
"/. c #158DBD",
"(. c #1988B9",
"). c #1C80AD",
"_. c #258AB3",
"`. c #2E9FB2",
"'. c #1EACBB",
"]. c #37ACAD",
"[. c #31ABB2",
"{. c #5DB68D",
"}. c #4DA89B",
"|. c #49B29D",
" X c #53B698",
".X c #54A38C",
"XX c #69BA89",
"oX c #6DB187",
"OX c #4EABA1",
"+X c #61B0A7",
"@X c #168EC3",
"#X c #1D8AC2",
"$X c #1C93C5",
"%X c #199BCC",
"&X c #1696C7",
"*X c #1B9CD5",
"=X c #2398C6",
"-X c #14A1CF",
";X c #15AACE",
":X c #1CA6C7",
">X c #0BACDE",
",X c #0FA9D7",
"<X c #14A1D2",
"1X c #15AAD4",
"2X c #14A4DB",
"3X c #12AADB",
"4X c #19A5D9",
"5X c #26A9C4",
"6X c #30A7C3",
"7X c #06ACE6",
"8X c #0BAAE4",
"9X c #03ADED",
"0X c #0AAAEA",
"qX c #07A7EA",
"wX c #14A8E5",
"eX c #01B0ED",
"rX c #04B0E2",
"tX c #03ACF2",
"yX c #0AABF2",
"uX c #02B0F1",
"iX c #A1C387",
/* pixels */
"*.*.*.*.*.*.*.*.*.*.*.*.+.+.+.+.+.+.+.+.+.+.+.+.+.+.+.+.+.+.+.+.+.+.+.+.+.",
"*.*.*.*.*.*.*.*.*.*.*.*.+.+.+.+.+.+.+.+.+.+.+.+.+.+.+.+.+.+.+.+.+.+.+.+.+.",
"*.*.*.*.*.*.*.*.*.*.*.*.+.+.+.+.+.+.+.+.+.+.+.+.+.+.+.+.+.+.+.+.+.+.+.+.+.",
"*.*.*.*.*.*.*.*.*.*.*.*.+.+.+.+.+.+.+.&.&.&.+.+.+.+.+.+.+.+.+.+.+.+.+.+.+.",
"*.*.*.*.*.*.*.*.*.*.*.*.*.*.%.@.D C b 8 2 2 C %.+.+.+.+.+.+.+.+.+.+.+.+.+.",
"*.*.*.*.*.*.*.*.%.I Z 9 4 4 7 M R ,.4.8.b.0.R 4 D %.+.+.+.+.+.+.+.+.+.+.+.",
"*.*.*.*.*.*.*.*.F ; | 5.8.x.c.f.s.y.y.w.w.r.f.9.N 8 J &.+.+.+.+.+.+.+.+.+.",
"*.*.*.*.*.*.*.*.P X , 1.n.s.w.w.w.r.r.y.y.y.w.i.v.B.z b *.+.+.+.+.+.+.+.+.",
"*.*.*.*.*.*.*.*.H o o O 3 3.c.i.e.s.c.z.L.C.G.D.XX X}.p -.+.+.+.+.+.+.+.+.",
"*.*.*.*.*.*.*.*.I o     * + 9 N.D.XX X].[.:X1X8X7X7X*Xd #.+.+.+.+.+.+.+.+.",
"*.*.*.*.*.*.*.*.D       o o o W.3X0X9XtXtXtXtX9X9X9X4X{ 4 I %.+.+.+.+.+.+.",
"&.&.+.&.*.*.*.*.D   o o o   $ !.0XtXtXtX9XeXeX9XtXtX'.K.q.M 7 Y &.+.+.+.+.",
"+.+.&.@.D C 9 8 # # X o o   $ Y.0X9X9X9X9XtXtX9X9X9X'.L.y.c.6.c 8 @.+.+.+.",
"+.+.@.; A 2.4.8.x.x.3.3 * o $ U.8X9XtXtXtXtX9X9X9X9X5XK.l.z.K.iX .l &.+.+.",
"+.+.T X 4 1.x.d.y.y.t.x...> * Y.yX9X9X0X0XwX*X$X~.U.] OX].6X:X;X_.a *.+.+.",
"+.+.T o * X 7 5.g.e.t.s.c.H.| W.#X~.Y._ W s r & $ $ q =X7X7X9XuX@Xa &.+.+.",
"+.+.K o     o X c B.A.D.XX X].( r l m Z - o o o o o & *XtXtX9XtX#Xa &.+.+.",
"+.+.T o   o o   X ( ;X>X0X9X8X/ } *.+.*.h o o o o o 0 &X9X9X9XtX$Xi &.+.+.",
"+.+.Y o   o o o o _ 8X9XtXtX8X/ D +.+.*.5     o o   0 &X9X9X9XtX@Xi *.+.+.",
"+.+.U o     o o o _ 9XtXtXtX8X/ P +.+.-.u     o o   0 &X9X9X9XtX@Xi *.+.+.",
"+.+.J o   o o o o ) 7XtX9XtX8X/ J +.+.;.j o o o o   0 %X9X9X9X9X@Xi *.+.+.",
"+.+.J o       o o ) 9X9X9X9X8X! U +.+.-.j     o o   0 %X9X9X9X9X@Xi *.+.+.",
"+.+.J o         o ` 9X9XtXtX8X/ L *.-.M.j o o       0 %X9X9X9XtX@Xi *.+.+.",
"+.+.J o         o ` 9X9XtXtX0X/ j x 5 # > = O o o o 0 %X9X9X9XtX@Xi *.+.+.",
"+.+.J o         o ` 9X9XtX9X>X .o.<.q.k.x.b.X.> X   0 %X9X9X9XtX@Xi *.+.+.",
"+.+.J o         o ` 0XtXtXtX>XF.g.p.w.w.w.y.s.8.S @ e *XtX9X9XtX@Xi *.+.+.",
"+.+.@.:     o o   ] 7XtX9X9X2XG.i.e.w.w.i.y.y.t.n.B.^ %XtX9X9XtX/.i *.+.+.",
"+.+.+.T k o o o o _ 8XtXtX0X1XF.g.c.v.z.J.A.S.>.{.OX5X9XtX9X9XtX/.i *.+.+.",
"+.+.+.+.&.Y h o $ _ 2X2X2X/.^..X>.{.|.].5X;X3X8X9X9X7XtX9X9X9XtX/.i *.+.+.",
"+.+.+.+.+.+.%.F < s W t e % & R.8X9X7X0X0X9X9X9XtXtXtXtX9X9X9XtX/.i *.+.+.",
"+.+.+.+.+.+.+.+.D $ o o o   o R.0XqX0XwX0X7X9XtX9X9X9X9X9X9X9X9X/.i *.+.+.",
"+.+.+.+.+.+.+.+.D o o o o   o R.0X9X7X9X9X7X9X9XeXeXtXtXtX9X9X9X/.i *.+.+.",
"+.+.+.+.+.+.+.+.$.h $ o o   o R.9XtXtXuXuXuXtXtX9X0XyXtXtX9XuX9X/.i *.+.+.",
"+.+.+.+.+.+.+.+.+.&.H < o   $ Y.0X0X0X0X2X<X@X).R.' ) <X9XtXuX9X/.i *.+.+.",
"+.+.+.+.+.+.+.+.+.+.+.%.C - & [ ^.Y.` W E r & $ $ o w &XtX9X9X9X/.i &.+.+.",
"+.+.+.+.+.+.+.+.+.+.+.+.+.$.C h l k Z C -   o o o o e %XtX9X9X9X/.i &.+.+.",
"+.+.+.+.+.+.+.+.+.&.+.+.+.+.+.&.&.+.+.&.< o         0 &XtX9X9X9X/.i &.+.+.",
"+.+.&.%.@.H C 9 8 2 Z $.+.+.+.+.+.+.+.&.- o o o o o w &XtX9X9XtX/.i &.+.+.",
"+.+.@.= v S X.3.6.7.B , D %.+.+.+.+.+.&.<   o o o o e &XtX9X9XtX/.i &.+.+.",
"+.+.J + M 9.g.y.j.d.f.8.N = C -.+.+.+.%.-     o o   e *XtX9X9XtX/.i &.+.+.",
"+.+.G X o + S 8.i.e.t.t.a.7.b < $.+.+.&.-     o o   e <XtX9X9XtX@Xi &.+.+.",
"+.+.F o o   o # R H.C.Z.S.oX+XW P &.-.@.-     o o   e <XtX9X9XtX/.i &.+.+.",
"+.+.F o o   o o   [ 5X1X8X8X>X~ 5 < # # 3 4 O o o   w 2XtX9X9XtX/.i &.+.+.",
"+.+.H o       o o ] 8XtXtXtX8X:.1.4.0.x.g.x.o.> o o e -X9XeX9XuX#Xi *.+.+.",
"+.+.H o       o $ P.0XtX9X9X1XG.y.r.r.r.y.w.d.k.X.> e *XtX0X8X3X_.a &.+.+.",
"+.+.@.: o o o   o P.0XtX9X9X3XG.y.w.w.w.w.i.h.g.n.V.{ Q.~.I./ Q s z &.+.+.",
"+.+.+.@.z : o o o ' 0XtX9XtX1XS.c.c.l.J.Z.S.D.XX|.[.`.r b C P T %.%.+.+.+.",
"+.+.+.+.&.T k o $ ' 3X*X$X).E..XXX|.].'.1X3X8X0XtXtX-Xf *.+.+.+.+.+.+.+.+.",
"+.+.+.+.+.+.&.Y 5 y E t & $ & R.0X9X9X9X7X9XtX9XtXtX-Xf *.+.+.+.+.+.+.+.+.",
"+.+.+.+.+.+.+.+.D o o o o o o R.9XeXtXtX9X9XtX9X9X9X-Xf *.+.+.+.+.+.+.+.+.",
"+.+.+.+.+.+.+.+.I o   o o   $ ~.7X9X9X9X9X7X7X9X9XtX-Xf *.+.+.+.+.+.+.+.+.",
"+.+.+.+.+.+.+.+.$.z o o o o $ ~.9X9X9X9XtX9X9X9X0X0X=Xy *.+.+.+.+.+.+.+.+.",
"+.+.+.+.+.+.+.+.+.&.T 6 o   $ ~.yX0XwXwX2X%X/.R.P.( Q p *.+.+.+.+.+.+.+.+.",
"+.+.+.+.+.+.+.+.+.+.+.&.P < % [ !.U.( Q s p h b n P T %.+.+.+.+.+.+.+.+.+.",
"+.+.+.+.+.+.+.+.+.+.+.+.+.%.P m n L J @.%.%.&.+.+.+.+.+.+.+.+.+.+.+.+.+.+.",
"+.+.+.+.+.+.+.+.+.+.+.+.+.+.+.+.+.+.+.+.+.+.+.+.+.+.+.+.+.+.+.+.+.+.+.+.+.",
"+.+.+.+.+.+.+.+.+.+.+.+.+.+.+.+.+.+.+.+.+.+.+.+.+.+.+.+.+.+.+.+.+.+.+.+.+."
};
