/* XPM */
static char *numbers_7[] = {
/* columns rows colors chars-per-pixel */
"37 57 201 2 ",
"   c #010206",
".  c #040A05",
"X  c #02020A",
"o  c #0C010D",
"O  c #070B0B",
"+  c #0A0C0E",
"@  c #080A07",
"#  c #11080F",
"$  c #0B110F",
"%  c #111E09",
"&  c #040312",
"*  c #0E0212",
"=  c #0C0E12",
"-  c #060913",
";  c #120214",
":  c #150119",
">  c #1B031B",
",  c #1B0E1D",
"<  c #0D1311",
"1  c #131513",
"2  c #131B13",
"3  c #131319",
"4  c #1C151D",
"5  c #1C191D",
"6  c #161C18",
"7  c #200F1E",
"8  c #221A1D",
"9  c #30141D",
"0  c #15220D",
"q  c #1A260F",
"w  c #1C2B12",
"e  c #1C2519",
"r  c #172311",
"t  c #232B19",
"y  c #223115",
"u  c #253419",
"i  c #2B3B1D",
"p  c #263818",
"a  c #32391C",
"s  c #1B0922",
"d  c #1D1921",
"f  c #210E22",
"g  c #2C0C2A",
"h  c #2A0E27",
"j  c #241421",
"k  c #201820",
"l  c #2B1A2D",
"z  c #370A37",
"x  c #3D113B",
"c  c #321634",
"v  c #1D2023",
"b  c #24242A",
"n  c #2B3B21",
"m  c #2E3528",
"M  c #333E25",
"N  c #31362B",
"B  c #2D2F34",
"V  c #363639",
"C  c #3C263B",
"Z  c #44183F",
"A  c #402B3F",
"S  c #2F421D",
"D  c #32441E",
"F  c #2F4420",
"G  c #354424",
"H  c #384C24",
"J  c #3D5322",
"K  c #3E532A",
"L  c #465D2B",
"P  c #445929",
"I  c #4F6C2B",
"U  c #496328",
"Y  c #516D2D",
"T  c #55742D",
"R  c #5A7B2D",
"E  c #4C6330",
"W  c #536C31",
"Q  c #557132",
"!  c #5B7534",
"~  c #657C3C",
"^  c #637F36",
"/  c #392242",
"(  c #421846",
")  c #501949",
"_  c #581D56",
"`  c #611E59",
"'  c #493946",
"]  c #552751",
"[  c #6B3953",
"{  c #6D2866",
"}  c #722A68",
"|  c #712467",
" . c #76356B",
".. c #7D2B73",
"X. c #7A2773",
"o. c #793370",
"O. c #684056",
"+. c #5A6D46",
"@. c #647646",
"#. c #883868",
"$. c #913A6C",
"%. c #842B75",
"&. c #852B7A",
"*. c #8A2A7D",
"=. c #882876",
"-. c #922E75",
";. c #972B7B",
":. c #813179",
">. c #8A347E",
",. c #8F3370",
"<. c #953274",
"1. c #8E4F6E",
"2. c #934C6E",
"3. c #904763",
"4. c #835068",
"5. c #93596B",
"6. c #8D4070",
"7. c #8E606A",
"8. c #98676A",
"9. c #9A7668",
"0. c #A16E6D",
"q. c #906F53",
"w. c #5E802F",
"e. c #5F8231",
"r. c #61842F",
"t. c #658B2F",
"y. c #6E992E",
"u. c #638532",
"i. c #678D32",
"p. c #688E34",
"a. c #6B863C",
"s. c #6A8D3C",
"d. c #708C3F",
"f. c #6D9533",
"g. c #6F9932",
"h. c #709931",
"j. c #7E943D",
"k. c #6E8540",
"l. c #738C49",
"z. c #729042",
"x. c #9ACF2E",
"c. c #99CD34",
"v. c #95CE3B",
"b. c #9ACC3C",
"n. c #97CF36",
"m. c #96D033",
"M. c #819F44",
"N. c #A69A5D",
"B. c #83A24A",
"V. c #90B34B",
"C. c #9ABE51",
"Z. c #98B758",
"A. c #89A753",
"S. c #AAAA5F",
"D. c #ABB757",
"F. c #9D8861",
"G. c #899864",
"H. c #A48C67",
"J. c #A18361",
"K. c #A69C62",
"L. c #A49A78",
"P. c #9CBC60",
"I. c #A8A760",
"U. c #A8B760",
"Y. c #9DCA42",
"T. c #9DC34C",
"R. c #9EC84A",
"E. c #9AC346",
"W. c #9DC353",
"Q. c #9EC258",
"!. c #A3C645",
"~. c #A1C944",
"^. c #A3C649",
"/. c #A9C14F",
"(. c #A4C552",
"). c #AAC056",
"_. c #A61F96",
"`. c #A81E98",
"'. c #8D2C83",
"]. c #872D80",
"[. c #9F2587",
"{. c #942A83",
"}. c #9D258D",
"|. c #952B8A",
" X c #9A2A8B",
".X c #9B2885",
"XX c #8C3A83",
"oX c #9E2491",
"OX c #A1238E",
"+X c #A12586",
"@X c #A12392",
"#X c #A02198",
"$X c #A43B97",
"%X c #AC3C9D",
"&X c #A83696",
"*X c #B0399E",
"=X c #924188",
"-X c #9B4992",
";X c #A9429D",
":X c #B344A2",
">X c #B745A8",
/* pixels */
"h.h.h.h.h.h.h.h.h.h.h.h.y.y.y.y.y.y.y.y.y.y.y.y.y.y.y.y.y.y.y.y.y.y.y.y.y.",
"h.h.h.h.h.h.h.h.h.h.h.h.y.y.y.y.y.y.y.y.y.y.y.y.y.y.y.y.y.y.y.y.y.y.y.y.y.",
"h.h.h.h.h.h.h.h.h.h.h.h.y.y.y.y.y.y.y.y.y.y.g.f.p.R I T g.y.y.y.y.y.y.y.y.",
"h.h.h.h.h.h.h.h.h.h.h.h.y.y.y.g.f.i.R I J S y % % y G w y R g.y.y.y.y.y.y.",
"h.h.h.h.h.h.h.h.h.f.u.R U J i w 0 0 p K W a.M.Z.W.T.R.Q.~ w i e.g.y.y.y.y.",
"h.h.f.u.Y L H i r 2 0 i J Y a.B.Z.T.~.~.Y.Y.Y.b.c.m.b.b.Y.C.Q 0 D t.y.y.y.",
"h.h.D 2 n P Q d.B.V.W.^.~.Y.b.b.b.c.b.b.v.b.Y.Y.~.~.b.b.~.(.U.L.' t g.y.y.",
"h.h.i 1 +.Z.R.c.c.x.x.c.b.b.b.b.b.b.b.~.~.^.(.).U.I.H.9.8.5.3.#. .8 f.y.y.",
"h.h.i X + % ~ C.Y.Y.b.Y.E.~.~./.D.I.K.H.9.8.2.$.<.;.{. X}.@X@X@X=.k f.y.y.",
"h.h.i X   X X y l.U.S.K.F.9.7.1.6.,.-.;..X}.}.}.@X@XoXoXoXoX@X}.&.5 f.y.y.",
"h.h.i X   X & X + [ $.-.{. X}.}.@X@X@X_.`.@X}.}.@X@X}.}.}.OXOX}.&.5 f.y.y.",
"h.h.i X X X X   o } OX_.@X@X@XOXOX}.}. X}.}.}.}.@X@X}.}.}.OXOX}.&.4 f.y.y.",
"y.y.i X X   X X * } OX@X X}.}.OX}.}.OX@X@XOXOXOX@X@XoXoXoX@X@X}.&.4 f.y.y.",
"y.y.G & X X X X o { @X@X}.}.}.@X}.}.}.OX@X@X}.}. X X{.oX}.OX@X}.*.4 f.y.y.",
"y.y.f.K < X X X * } oX@XoXoX}.[.+X X{.'.X.{ _ ) x g z {.OX}.oX}.*.4 f.y.y.",
"y.y.y.y.i.H + X * { {.{.&.X.{ _ ( c h j ; o o X     : '.OX}.oX}.*.4 f.y.y.",
"y.y.y.y.y.y.r.D = c x g j 8 m G L T u.p.< X X X X X > '.}.OX}.}.*.5 f.y.y.",
"y.y.y.y.y.y.y.g.w.U ! r.f.g.g.y.y.y.y.f.< X X X   X > '.@X}.oX}.*.5 g.y.y.",
"y.y.y.y.y.y.y.y.y.y.y.y.y.y.y.y.y.y.y.f.$ X X X     > '.@X}.oX}.=.5 f.y.y.",
"y.y.y.y.y.y.y.y.y.y.y.y.y.y.y.y.y.y.y.f.$ X X X     > '.@X}.oX}.=.5 g.y.y.",
"y.y.y.y.y.y.y.y.y.y.y.y.y.y.y.y.y.y.y.f.O X X X     > '.}.}.oX}.=.5 g.y.y.",
"y.y.y.y.y.y.y.y.y.y.y.y.y.y.y.y.y.y.y.f.O X X     X > '.}.}.oX}.=.5 g.y.y.",
"y.y.y.y.y.y.y.y.y.y.y.y.y.y.y.g.g.p.e.Q = X   X X   > '.}.}.oXOX=.8 h.y.y.",
"y.y.y.y.y.y.y.y.y.y.y.y.y.y.P t 0 0 w D L a . X & X > '.OX}.oXOX=.8 h.y.y.",
"y.y.y.y.y.y.y.y.y.y.y.y.y.g.2 N G.Z.(.~.E.W.l.y . X > '.OX}.}.OXX.k f.y.y.",
"y.y.y.y.y.y.y.y.y.y.y.y.y.g.2   r u.T.b.b.Y.Y.W.@.r > >. X X X{.{ d f.y.y.",
"y.y.y.y.y.y.y.y.y.y.y.y.y.h.2 X X . y s.W.~.^./.D.L.O.] _ Z g f 8 n g.y.y.",
"y.y.y.y.y.y.y.y.y.y.y.y.y.h.2 X   X & - a q.5.2.$.,.o., P Y w.i.f.g.y.y.y.",
"y.y.y.y.y.y.y.y.y.y.y.y.y.h.2 X       X s :.oX#X@X_.*., f.y.y.y.y.y.y.y.y.",
"y.y.y.y.y.y.y.y.y.y.y.y.y.h.2 X   X     > &.@XOX[.oX&., f.y.y.y.y.y.y.y.y.",
"y.y.y.y.y.y.y.y.y.y.y.y.y.g.1 X X X X X : *.@X}.}.oX&., f.y.y.y.y.y.y.y.y.",
"y.y.y.y.y.y.y.y.y.y.y.y.y.h.< X X X X X : '.OX}.}.OX&., f.y.y.y.y.y.y.y.y.",
"y.y.y.y.y.y.y.y.y.y.y.y.y.h.< X X X X X : *.OX}.}.OX&., f.y.y.y.y.y.y.y.y.",
"y.y.y.y.y.y.y.y.y.y.y.y.y.h.$ X X X X X : *.OX}.}.OX&., f.y.y.y.y.y.y.y.y.",
"y.y.y.y.y.y.y.y.y.y.y.y.y.h.< X X X     : *.}.}.}.@X=., f.y.y.y.y.y.y.y.y.",
"y.y.y.y.y.y.y.y.y.y.y.y.y.h.6 X     X   ; *.}.}.OX@X=.4 f.y.y.y.y.y.y.y.y.",
"y.y.y.y.y.y.y.y.f.e.Y P D p . . X X X X : *.}.}.}.oX=.4 f.y.y.y.y.y.y.y.y.",
"y.y.y.y.y.y.y.g.p 2 M L ! z.A.l.p   X X : *.@X}.}.oX=.4 f.y.y.y.y.y.y.y.y.",
"y.y.y.y.y.y.y.g.e 6 @.Z.Y.b.b.Y.T.k.w . : {.@X}.}.}.=.4 f.y.y.y.y.y.y.y.y.",
"y.y.y.y.y.y.y.h.6 X . w a.T.b.v.c.Y.P.@.9 :.'.=.| ` Z 1 f.y.y.y.y.y.y.y.y.",
"y.y.y.y.y.y.y.h.2   X X X p j.D.S.N.J.0.4.g , 8 t M K T g.y.y.y.y.y.y.y.y.",
"y.y.y.y.y.y.y.h.2 X X X     # #.<.{.{.}.*.f u.f.g.y.y.y.y.y.y.y.y.y.y.y.y.",
"y.y.y.y.y.y.y.h.2     X X X ; =.}.@X}.@X'., i.y.y.y.y.y.y.y.y.y.y.y.y.y.y.",
"y.y.y.y.y.y.y.g.2       X X ; =.OXOX}.}.&., i.y.y.y.y.y.y.y.y.y.y.y.y.y.y.",
"y.y.y.y.y.y.y.g.2         X : &.oX}. X>XXX, i.y.y.y.y.y.y.y.y.y.y.y.y.y.y.",
"y.y.y.y.y.y.y.g.2         X ; &.oX}.$X:X-Xl i.y.y.y.y.y.y.y.y.y.y.y.y.y.y.",
"y.y.y.y.y.y.y.g.2           * =.%X>X;X&X=X' p.y.y.y.y.y.y.y.y.y.y.y.y.y.y.",
"y.y.y.y.y.y.y.g.2         + ; >.:X X;X&X-Xl p.y.y.y.y.y.y.y.y.y.y.y.y.y.y.",
"y.y.y.y.y.y.y.g.2       X V C XX;X{.$X&X&.s p.y.y.y.y.y.y.y.y.y.y.y.y.y.y.",
"y.y.y.y.y.y.y.g.2     X X b A :.;X:X:X@X'.s p.y.y.y.y.y.y.y.y.y.y.y.y.y.y.",
"y.y.y.y.y.y.y.g.2 X X 3 B b l -X$X X X@X*., i.y.y.y.y.y.y.y.y.y.y.y.y.y.y.",
"y.y.y.y.y.y.y.y.Y 2 + B = v c XX%XoXoX@X&.7 p.y.y.y.y.y.y.y.y.y.y.y.y.y.y.",
"y.y.y.y.y.y.y.y.y.f.L N O 3 / X.}. X X Xo.f p.y.y.y.y.y.y.y.y.y.y.y.y.y.y.",
"y.y.y.y.y.y.y.y.y.y.y.f.E V s ] _ ( x g , e f.y.y.y.y.y.y.y.y.y.y.y.y.y.y.",
"y.y.y.y.y.y.y.y.y.y.y.y.y.u.F t G K W e.f.f.y.y.y.y.y.y.y.y.y.y.y.y.y.y.y.",
"y.y.y.y.y.y.y.y.y.y.y.y.y.y.y.g.y.y.y.y.y.y.y.y.y.y.y.y.y.y.y.y.y.y.y.y.y.",
"y.y.y.y.y.y.y.y.y.y.y.y.y.y.y.y.y.y.y.y.y.y.y.y.y.y.y.y.y.y.y.y.y.y.y.y.y."
};
