/* XPM */
static char *numbers_2[] = {
/* columns rows colors chars-per-pixel */
"42 55 221 2 ",
"   c #020206",
".  c #0A0506",
"X  c #03030B",
"o  c #0A050A",
"O  c #060A0B",
"+  c #0A0B0C",
"@  c #0C0A06",
"#  c #120A06",
"$  c #150B0A",
"%  c #0A110A",
"&  c #1C190E",
"*  c #030412",
"=  c #080414",
"-  c #040B15",
";  c #020C19",
":  c #080B1A",
">  c #100D12",
",  c #0A1316",
"<  c #191919",
"1  c #22180B",
"2  c #20171B",
"3  c #1A221B",
"4  c #27230C",
"5  c #272A17",
"6  c #322D15",
"7  c #3D2D11",
"8  c #2D371C",
"9  c #363417",
"0  c #322A0E",
"q  c #0B192A",
"w  c #191E22",
"e  c #081C38",
"r  c #201E27",
"t  c #0A2327",
"y  c #132229",
"u  c #1A2724",
"i  c #1E3229",
"p  c #0A253C",
"a  c #142A36",
"s  c #183233",
"d  c #2C2C2C",
"f  c #222624",
"g  c #283A29",
"h  c #373627",
"j  c #263435",
"k  c #33353A",
"l  c #322B23",
"z  c #483C17",
"x  c #503E17",
"c  c #38481F",
"v  c #354B24",
"b  c #394C24",
"n  c #3B4D2B",
"m  c #314728",
"M  c #3D552B",
"N  c #3F582C",
"B  c #3D5324",
"V  c #2E4535",
"C  c #4B401C",
"Z  c #534418",
"A  c #594A1C",
"S  c #6A581D",
"D  c #79681A",
"F  c #5B4D28",
"G  c #425625",
"H  c #445929",
"J  c #514E2E",
"K  c #655825",
"L  c #745D23",
"P  c #695C3D",
"I  c #4E6B2B",
"U  c #496329",
"Y  c #526E2B",
"T  c #55742B",
"R  c #5A7B2E",
"E  c #58762D",
"W  c #576D36",
"Q  c #5C7C30",
"!  c #59703E",
"~  c #766928",
"^  c #6F713B",
"/  c #092442",
"(  c #132F43",
")  c #0E334A",
"_  c #0E3656",
"`  c #103752",
"'  c #174150",
"]  c #134C6B",
"[  c #154D73",
"{  c #195678",
"}  c #165069",
"|  c #2B5C6B",
" . c #1E627D",
".. c #2A4650",
"X. c #4B795F",
"o. c #8A7627",
"O. c #5F812E",
"+. c #5F8130",
"@. c #6E992E",
"#. c #618431",
"$. c #658A32",
"%. c #688C33",
"&. c #6C9432",
"*. c #6F9931",
"=. c #709931",
"-. c #5A8C77",
";. c #75C17D",
":. c #958428",
">. c #978E3A",
",. c #AA9B36",
"<. c #A8912B",
"1. c #BCAA34",
"2. c #B2A134",
"3. c #C0AB29",
"4. c #C9B62C",
"5. c #C9B12A",
"6. c #D5B92A",
"7. c #C4AA35",
"8. c #CFBA33",
"9. c #FBD604",
"0. c #F6D805",
"q. c #F6D50C",
"w. c #F9D50B",
"e. c #F8D805",
"r. c #EDD514",
"t. c #F4D513",
"y. c #F3D51C",
"u. c #FCD312",
"i. c #FCCF0B",
"p. c #DEC833",
"a. c #D5D73D",
"s. c #DCC327",
"d. c #E5C72B",
"f. c #EAD42C",
"g. c #E9D925",
"h. c #F3D323",
"j. c #F6D628",
"k. c #E4CA31",
"l. c #E9D331",
"z. c #E4D832",
"x. c #F5D836",
"c. c #999949",
"v. c #A39952",
"b. c #8AA55C",
"n. c #BAA943",
"m. c #8BBE78",
"M. c #97B870",
"N. c #CBB649",
"B. c #C5B752",
"V. c #BECF43",
"C. c #AFCE52",
"Z. c #B8D153",
"A. c #B3CC52",
"S. c #9AC866",
"D. c #82C375",
"F. c #95C972",
"G. c #A2CA62",
"H. c #B0CB6D",
"J. c #C5D748",
"K. c #D3D743",
"L. c #C6D655",
"P. c #D5DA52",
"I. c #E8D549",
"U. c #165E86",
"Y. c #156489",
"T. c #136B99",
"R. c #176B95",
"E. c #18759D",
"W. c #1F788F",
"Q. c #246482",
"!. c #267596",
"~. c #177BA6",
"^. c #3A919F",
"/. c #1581AB",
"(. c #1B80AE",
"). c #1A8EBC",
"_. c #1A87B2",
"`. c #1A90BE",
"'. c #2289B6",
"]. c #1DAABB",
"[. c #37ADAA",
"{. c #26AAB9",
"}. c #33A9B7",
"|. c #39ADAF",
" X c #428C96",
".X c #609481",
"XX c #4CB49B",
"oX c #5AB298",
"OX c #68BB87",
"+X c #67B893",
"@X c #77B19C",
"#X c #42B5A5",
"$X c #43AFA3",
"%X c #188EC1",
"&X c #1A9CCB",
"*X c #199CC7",
"=X c #199CD4",
"-X c #169DD7",
";X c #2798CA",
":X c #1AA8CB",
">X c #0DABDE",
",X c #0EABD3",
"<X c #13A6DB",
"1X c #1AA1DD",
"2X c #12AADB",
"3X c #16A8D3",
"4X c #0EAECE",
"5X c #25A8C5",
"6X c #05AEE5",
"7X c #0BACE3",
"8X c #0AA6EB",
"9X c #03ADED",
"0X c #0AABEB",
"qX c #14A6E3",
"wX c #11A9E3",
"eX c #14A5E8",
"rX c #02B0EC",
"tX c #03B1E5",
"yX c #04ADF2",
"uX c #08AAF2",
"iX c #0AACF2",
/* pixels */
"=.=.=.=.=.=.=.=.=.=.=.=.=.=.=.@.@.@.@.@.@.@.@.@.@.@.@.@.@.@.@.@.@.@.@.@.@.@.@.@.@.@.",
"=.=.=.=.=.=.=.=.=.=.=.=.=.=.=.@.@.@.@.@.@.@.@.@.@.@.@.@.@.@.@.@.@.@.@.@.@.@.@.@.@.@.",
"=.=.=.=.=.=.=.=.=.=.=.=.=.=.=.@.@.@.@.@.@.@.@.@.@.@.@.@.@.@.@.@.@.@.@.@.@.@.@.@.@.@.",
"=.=.=.=.=.=.=.=.=.=.=.=.=.=.=.@.@.@.@.@.*.=.%.E T &.@.@.@.@.@.@.@.@.@.@.@.@.@.@.@.@.",
"=.=.=.=.=.=.=.=.=.=.*.=.=.=.&.%.T U W G J C ~ o.~ 6 H &.@.@.@.@.@.@.@.@.@.@.@.@.@.@.",
"=.=.=.=.=.=.=.=.=.=.=.=.E 5 6 Z L o.1.4.p.x.h.q.w.d.o.6 Y *.@.@.@.@.@.@.@.@.@.@.@.@.",
"=.=.=.=.=.=.=.=.=.=.=.=.H h v.I.x.h.j.j.j.q.9.9.9.w.y.8.K 8 R @.@.@.@.@.@.@.@.@.@.@.",
"=.=.=.=.=.=.=.=.=.=.=.=.H O l K ,.I.x.h.t.w.w.r.g.z.K.Z.F..Xy *.@.@.@.@.@.@.@.@.@.@.",
"=.=.=.=.=.=.=.=.=.=.=.=.H w r k 2 C n.J.Z.G.m.OXXX[.5X3X2X:Xt &.@.@.@.@.@.@.@.@.@.@.",
"=.=.=.=.=.=.=.=.=.=.=.=.! w u d k > q {.:X2X8XyXyX9XyXrX9X1Xs H &.@.@.@.@.@.@.@.@.@.",
"=.=.=.=.=.=.=.=.=.=.=.=.! * O d % . e wXyX9XuX8XyXyXyXuXyX].Z.o.6 U &.@.@.@.@.@.@.@.",
"@.@.@.@.@.@.*.=.%.Q Q b h h d < O O e 2X9X9XyXyX9XtXtXrXyX].a.q.p.~ 5 I *.@.@.@.@.@.",
"@.@.@.@.@.@.&.& J ~ >.,.1.B.K # . . e 7X8X6X9X9XyXyXyXyX9X{.L.g.z.K.M.V H @.@.@.@.@.",
"@.@.@.@.@.@.&.< J B.f.j.x.h.x.1.z @ e 3X9XyX8X8XwX2X&X).~.Q.+XoX[.{.5XY.v @.@.@.@.@.",
"@.@.@.@.@.@.&.k r 5 ^ 4.r.q.w.q.l.c...;X'.!.U.] _ p q ; - ; *XiXrX9X8XT.c @.@.@.@.@.",
"@.@.@.@.@.@.*.f f h < & K n.G.m.+X#X^.e i g n f O O       - -X9XyX9X9XR.v @.@.@.@.@.",
"@.@.@.@.@.@.&.k < d O O + W.3X7X8X9X`.u *.@.@.n       O O ; -X9XyX9X8XT.v @.@.@.@.@.",
"@.@.@.@.@.@.&.k O   O O * E.8XyXyX9X%Xu @.@.@.n         O ; =X9XyX9X8XR.v @.@.@.@.@.",
"@.@.@.@.@.@.=.u     O O * ~.9X9X9X9X%X3 @.@.@.b         O ; =X9XyX9X9XR.v @.@.@.@.@.",
"@.@.@.@.@.@.*.b O   O O * ~.9X9X9X9X%Xu @.@.@.n         O ; =X9XyX9X9XR.v @.@.@.@.@.",
"@.@.@.@.@.@.@.@.#.8 O O = ~.9X9X>X7X'.u @.@.@.n O         ; =X9XyXrX9XR.v @.@.@.@.@.",
"@.@.@.@.@.@.@.@.@.@.E 3 *  .~.Y.[ _ t 3 =.&.#.g   O O O O ; =X9XyXrX9XR.v @.@.@.@.@.",
"@.@.@.@.@.@.@.@.@.@.@.*.Y m M I T %.> + & 1 7 A F $ . O O - =X9XyXrX8XT.v @.@.@.@.@.",
"@.@.@.@.@.@.@.@.@.@.@.@.@.@.@.@.@.*.< P N.l.h.y.t.6.S # O ; =X9XyX9X8XR.b @.@.@.@.@.",
"@.@.@.@.@.@.@.@.@.@.@.@.@.@.@.@.@.=.% . 7 ,.h.q.w.q.r.3.Z , =X8XeX1X;X{ M @.@.@.@.@.",
"@.@.@.@.@.@.@.@.@.@.@.@.@.@.@.@.@.=.+   O . z 3.h.f.a.L.F.-.} ' ( a i g R @.@.@.@.@.",
"@.@.@.@.@.@.@.@.@.@.@.@.@.@.@.@.@.=.+     O = > X.$X{.].4X;Xq #.&.*.@.@.@.@.@.@.@.@.",
"@.@.@.@.@.@.@.@.@.@.@.@.@.@.@.@.@.=.+ O O     * U.8XyXyXyX-Xq *.@.@.@.@.@.@.@.@.@.@.",
"@.@.@.@.@.@.@.@.@.@.@.@.@.@.=.&.O.I +     O   O U.8X9X9XyX<Xa =.@.@.@.@.@.@.@.@.@.@.",
"@.@.@.@.@.@.@.@.@.@.@.@.T 5 4 7 A ~ :.F # O O O Y.9XyXyXyX-Xy *.@.@.@.@.@.@.@.@.@.@.",
"@.@.@.@.@.@.@.@.@.@.@.@.b f v.l.t.q.q.h.1.z $ = Y.7X9X6X9X=Xy *.@.@.@.@.@.@.@.@.@.@.",
"@.@.@.@.@.@.@.@.@.@.@.@.b * # A 7.h.w.9.0.f.,.8 Y.qX1X&X_.R.w =.@.@.@.@.@.@.@.@.@.@.",
"@.@.@.@.@.@.@.@.@.@.@.@.b O     # S 8.K.J.C.S.@X| ) a g m N R @.@.@.@.@.@.@.@.@.@.@.",
"@.@.@.@.@.@.@.@.@.@.@.@.v O O O * . i }.5X3X>X7X[ I *.@.@.@.@.@.@.@.@.@.@.@.@.@.@.@.",
"@.@.@.@.@.@.@.@.@.@.@.@.v       O O p >XyX9X9X7X] I @.@.@.@.@.@.@.@.@.@.@.@.@.@.@.@.",
"@.@.@.@.@.@.@.*.&.O.Y G 5 . * *     p qXyXtX9X8X] I @.@.@.@.@.@.@.@.@.@.@.@.@.@.@.@.",
"@.@.@.@.@.@.&.3 9 A D :.2.,.z . O O / 7XyXuXyX8X] I @.@.@.@.@.@.@.@.@.@.@.@.@.@.@.@.",
"@.@.@.@.@.@.%.+ F N.y.q.9.0.h.<.0 . / <XyXyXyXwX] I @.@.@.@.@.@.@.@.@.@.@.@.@.@.@.@.",
"@.@.@.@.@.@.#.O   # L s.w.w.i.t.k.>.' ;X&X_.E.{ p T @.@.@.=.*.@.@.@.@.@.@.@.@.@.@.@.",
"@.@.@.@.@.@.#.O O   O 1 o.V.C.F.;.oX Xq - - O = . c c 8 6 6 6 T *.@.@.@.@.@.@.@.@.@.",
"@.@.@.@.@.@.#.O O O O O O !.:X,X7X9X).: @ # 4 x S o.<.5.d.j.6.S 9 R *.@.@.@.@.@.@.@.",
"@.@.@.@.@.@.+.O     O O O ~.9X9X9XyX{.,.4.k.h.t.w.w.9.9.0.0.0.y.5.Z 8 R @.@.@.@.@.@.",
"@.@.@.@.@.@.+.O     O O O ~.9X9X9XyX|.z.9.9.9.9.9.e.e.0.9.w.q.t.z.P.b.i Y @.@.@.@.@.",
"@.@.@.@.@.@.+.O       O O ~.9X9X6X9X#Xf.e.9.w.q.y.g.z.a.Z.S.D.OXXX[.5XQ.H @.@.@.@.@.",
"@.@.@.@.@.@.+.O       O O /.9X9X9X9X|.L.J.Z.S.D.OXXX[.{.:X2X7X6X6X6X9XY.H @.@.@.@.@.",
"@.@.@.@.@.@.+.O       O O /.9X9XyXyX2X}.{.:X2X7X8X9X9X9X9XyX9X9X9XrX8XY.M @.@.@.@.@.",
"@.@.@.@.@.@.+.O       O O /.9X9X9X9XrXyXyXyXyXyX9XyXyX9X9X9X9X9XyXyX8XY.H @.@.@.@.@.",
"@.@.@.@.@.@.+.O       O O /.yX9XyX9X9XyX8X8X9XyXyXyX9X9XyXyX9X9X9X9X8XY.N @.@.@.@.@.",
"@.@.@.@.@.@.#.O         O /.yX9X9XyXyXyXyXyXyX9X9XyXyX9X9X9X8X8XqX<X=X{ H @.@.@.@.@.",
"@.@.@.@.@.@.&.5 O     O * ~.9XyXyXyX9X9X9XyXyX8X7X7X2X3X).~.Y.] ` a s g Q @.@.@.@.@.",
"@.@.@.@.@.@.@.*.Y 3 O O * (.yX9X8X8X7X<X&X_.E.Y.] ` a j V M I T %.*.*.@.@.@.@.@.@.@.",
"@.@.@.@.@.@.@.@.@.&.U < O !.'.E.{ ] ) ( j m M I Q &.*.@.@.@.@.@.@.@.@.@.@.@.@.@.@.@.",
"@.@.@.@.@.@.@.@.@.@.@.&.B g V N I O.&.*.@.@.@.@.@.@.@.@.@.@.@.@.@.@.@.@.@.@.@.@.@.@.",
"@.@.@.@.@.@.@.@.@.@.@.@.@.@.@.@.@.@.@.@.@.@.@.@.@.@.@.@.@.@.@.@.@.@.@.@.@.@.@.@.@.@.",
"@.@.@.@.@.@.@.@.@.@.@.@.@.@.@.@.@.@.@.@.@.@.@.@.@.@.@.@.@.@.@.@.@.@.@.@.@.@.@.@.@.@."
};
