/* XPM */
static char *numbers_3[] = {
/* columns rows colors chars-per-pixel */
"37 55 232 2 ",
"   c #020206",
".  c #0A0207",
"X  c #020B05",
"o  c #03030A",
"O  c #0B040C",
"+  c #040809",
"@  c #090B0D",
"#  c #14010C",
"$  c #0B130A",
"%  c #051606",
"&  c #0D0411",
"*  c #080810",
"=  c #140111",
"-  c #1B0212",
";  c #130817",
":  c #0D1414",
">  c #161917",
",  c #27041C",
"<  c #36061F",
"1  c #201719",
"2  c #0C240C",
"3  c #10250F",
"4  c #12290F",
"5  c #152414",
"6  c #182617",
"7  c #132B12",
"8  c #1B2916",
"9  c #1C231D",
"0  c #1A2919",
"q  c #1B3C1A",
"w  c #183517",
"e  c #23241C",
"r  c #222D1C",
"t  c #222B17",
"y  c #23311C",
"u  c #233417",
"i  c #2C0624",
"p  c #370825",
"a  c #2B1924",
"s  c #331925",
"d  c #3F1331",
"f  c #1E2B24",
"g  c #2A2A26",
"h  c #382927",
"j  c #273121",
"k  c #2B3827",
"l  c #37372A",
"z  c #312D35",
"x  c #44062C",
"c  c #4A0929",
"v  c #45152E",
"b  c #470833",
"n  c #550B36",
"m  c #570938",
"M  c #581A39",
"N  c #670D3E",
"B  c #5F2038",
"V  c #403032",
"C  c #413B2B",
"Z  c #29461E",
"A  c #284C27",
"S  c #2A4B29",
"D  c #254724",
"F  c #36412C",
"G  c #3A482A",
"H  c #2B522A",
"J  c #2E5A2B",
"K  c #275226",
"L  c #31542C",
"P  c #315B2E",
"I  c #3E5126",
"U  c #354831",
"Y  c #375733",
"T  c #346333",
"R  c #396436",
"E  c #3B6D39",
"W  c #396A35",
"Q  c #3A7236",
"!  c #397339",
"~  c #38612E",
"^  c #455A2B",
"/  c #46572B",
"(  c #414D31",
")  c #475B33",
"_  c #465634",
"`  c #505F34",
"'  c #4B4536",
"]  c #4C652B",
"[  c #526D2E",
"{  c #59772F",
"}  c #546D32",
"|  c #526533",
" . c #427B3D",
".. c #567133",
"X. c #5A7436",
"o. c #5B7A32",
"O. c #5C7538",
"+. c #5E793A",
"@. c #4E6633",
"#. c #607B39",
"$. c #760D4A",
"%. c #681544",
"&. c #6F0F58",
"*. c #6D0F46",
"=. c #5D2047",
"-. c #692F42",
";. c #525B4E",
":. c #7C524F",
">. c #614846",
",. c #506D47",
"<. c #686751",
"1. c #5D6266",
"2. c #7C7061",
"3. c #840E52",
"4. c #8C1359",
"5. c #901252",
"6. c #82154F",
"7. c #8F2F59",
"8. c #9A0F61",
"9. c #8E1061",
"0. c #991362",
"q. c #A70F68",
"w. c #A51068",
"e. c #AC136E",
"r. c #A51767",
"t. c #B51768",
"y. c #BF0E72",
"u. c #BC1375",
"i. c #BE177A",
"p. c #982765",
"a. c #A02560",
"s. c #AD3D6B",
"d. c #A33762",
"f. c #B8366E",
"g. c #BC2C74",
"h. c #B73770",
"j. c #CC0F7D",
"k. c #D80E7B",
"l. c #C91D73",
"z. c #C2137A",
"x. c #CD117B",
"c. c #CD187C",
"v. c #D3137A",
"b. c #CC1F6D",
"n. c #E00E7E",
"m. c #C72972",
"M. c #985E68",
"N. c #A84C6A",
"B. c #B3426C",
"V. c #A5556B",
"C. c #986B6A",
"Z. c #8C7866",
"A. c #907668",
"S. c #A06269",
"D. c #6E992E",
"F. c #648534",
"G. c #678C34",
"H. c #698D34",
"J. c #668638",
"K. c #6A8D39",
"L. c #68813C",
"P. c #6D9533",
"I. c #6F9931",
"U. c #6E9339",
"Y. c #709931",
"T. c #719839",
"R. c #59B63F",
"E. c #498745",
"W. c #4F9D4B",
"Q. c #4C9B46",
"!. c #519646",
"~. c #529843",
"^. c #539B4C",
"/. c #50964B",
"(. c #589753",
"). c #549C51",
"_. c #599A53",
"`. c #56864D",
"'. c #77995E",
"]. c #69884F",
"[. c #4CA040",
"{. c #55A44F",
"}. c #57A64D",
"|. c #4EBB45",
" X c #4EBA4B",
".X c #4DB74B",
"XX c #55B746",
"oX c #5AB544",
"OX c #52B946",
"+X c #55B64B",
"@X c #5AB44B",
"#X c #52B949",
"$X c #56A351",
"%X c #59A454",
"&X c #5DAC55",
"*X c #5AAA56",
"=X c #4EB752",
"-X c #55B651",
";X c #5CB253",
":X c #5BB059",
">X c #62AD52",
",X c #6CA55A",
"<X c #67A759",
"1X c #71A658",
"2X c #61B055",
"3X c #79A042",
"4X c #7E8964",
"5X c #679E63",
"6X c #779963",
"7X c #6CA362",
"8X c #74A161",
"9X c #84A558",
"0X c #818B64",
"qX c #888165",
"wX c #839161",
"eX c #918562",
"rX c #85A466",
"tX c #DB0D85",
"yX c #DE0A8B",
"uX c #D70E86",
"iX c #D31185",
"pX c #D80D90",
"aX c #E50686",
"sX c #E30A86",
"dX c #E5058B",
"fX c #EB038C",
"gX c #E3088B",
"hX c #EA0685",
"jX c #F2058D",
"kX c #ED0391",
"lX c #E20895",
"zX c #F20292",
/* pixels */
"Y.Y.Y.Y.Y.Y.Y.Y.Y.Y.Y.Y.I.D.D.D.D.D.D.D.D.D.D.D.D.D.D.D.D.D.D.D.D.D.D.D.D.",
"Y.Y.Y.Y.Y.Y.Y.Y.Y.Y.Y.Y.I.D.D.D.D.D.D.D.I.Y.D.D.D.D.D.D.D.D.D.D.D.D.D.D.D.",
"Y.Y.Y.Y.Y.Y.Y.Y.Y.Y.Y.Y.Y.I.P.K.{ } / ( h g | P.D.D.D.D.D.D.D.D.D.D.D.D.D.",
"Y.Y.Y.Y.Y.Y.Y.Y.T.o.| / C h a p m *.4.w.e.e.N h O.Y.D.D.D.D.D.D.D.D.D.D.D.",
"Y.Y.Y.Y.Y.Y.Y.Y.#.; M 6.w.y.k.sXgXyXgXgXfXfXtXe.n h #.I.D.D.D.D.D.D.D.D.D.",
"Y.Y.Y.Y.Y.Y.Y.Y.+.O < 5.x.yXfXfXaXfXfXfXzXfXgXgXiX0.d F P.D.D.D.D.D.D.D.D.",
"Y.Y.Y.Y.Y.Y.Y.Y.O.o o = b 0.uXzXjXfXsXx.l.b.f.B.V.Z.4X9 F.D.D.D.D.D.D.D.D.",
"Y.Y.Y.Y.Y.Y.Y.Y.O.o o . . - m p.N.M.C.qXwX8X<X>X@XOX;X7 F.D.D.D.D.D.D.D.D.",
"Y.Y.Y.Y.Y.Y.Y.Y.O.o . . . o o Y >XoXoX+X#XOXOXXX@X+X2XV s } P.D.D.D.D.D.D.",
"Y.Y.Y.Y.Y.Y.Y.Y.O.o . . . o o P +XOXOX#X#X#X#X+X#X X,Xf.t.m h L.I.D.D.D.D.",
"Y.Y.Y.K.[ ` G l a , & . . o . P OXOXOX#X#X#XOXOXOX+X1Xg.gXyXr.M l F.D.D.D.",
"D.D.U.> v *.8.e.u.i.9.p O O o P #XOXOX#X#XXXOXOXOX#X,Xf.n.c.m.N.>.g P.D.D.",
"D.D.K.O p 4.iXkXfXfXfXiX3.i O T #XOX+X+X;X;X*X).E. .~ 2.qX'.1X1X5Xf P.D.D.",
"D.D.K.o o = x 0.iXaXfXhXk.t.B _ ).E.Q P D 7 % X X . X !..X#XOXOX}.5 P.D.D.",
"D.D.K.o o o o = n p.h.N.C.A.4XY : f k _ > o o o o . . !. X#X#X#X*X5 P.D.D.",
"D.D.K.o . o o . . F 7X-X=X+X@XJ 1.9XY.I.j o o . . . X ~. X+X#X#X$X5 P.D.D.",
"D.D.J.o . o o o . A +X|.OXOX+XJ ;.I.D.D.y o . . . . . Q. X+XOX|.{.5 P.D.D.",
"D.D.K.* o . . . o A @X+XOX X-XJ ) D.D.Y.k . . . . . . Q. X X X#X{.6 P.D.D.",
"D.D.U.9 o o o o o A ;X+XOXOX+XL ) D.D.I.j . . . . . . Q.#XOX#X#X{.6 P.D.D.",
"D.D.D.P.) > o o o A +X+XXXXX;XL ) D.D.I.j o o o o . o Q.#XOX#X#X{.6 P.D.D.",
"D.D.D.D.D.P._ : o A %X(.E.E J 6 ;.3XT.rXz o o o o . o Q.#X#X#X#X{.6 P.D.D.",
"D.D.D.D.D.D.D.G.F : $ X X . . . z z a i p i & o o o o !. XOX+X#X{.8 P.D.D.",
"D.D.D.D.D.D.D.D.U.e . - , i b *.3.8.e.z.iXx.3.p # . X ~.-X+X|. X$X8 P.D.D.",
"D.D.D.D.D.D.D.D.O.; =.r.j.tXsXgXaXaXfXfXzXkXgXz.$., @ ^. X|.|.;X<X8 P.D.D.",
"D.D.D.D.D.D.D.D...o , $.u.sXfXfXgXfXfXfXgXgXgXsXv.a.h `.E.Q J D 7 r I.D.D.",
"D.D.D.D.D.D.D.D.[ . . O , $.z.sXsXtXk.l.f.B.V.C.A.0X6X5 k I ] { G.P.D.D.D.",
"D.D.D.D.D.D.D.D.} o o o . O < 7.C.qX0X'.,X2X;X+X+X+X@X5 #.D.D.D.D.D.D.D.D.",
"D.D.D.D.D.D.D.D.} o o o o o . R @XR.OX|.OXOXXXXX+X#X>X-.c ( K.D.D.D.D.D.D.",
"D.D.D.D.D.D.D.D...o o . o o o R OXOX#X#X+X+X+X#X X X,Xg.x.&.s ` P.D.D.D.D.",
"D.D.D.D.D.D.D.D...o o . . . . R #XOXOXOXOXOXOXOXOXXX,Xg.fXyXt.%.e ..D.D.D.",
"D.D.D.D.D.D.D.D.K.y @ o . . . T #X|.OXOXOXOX#X+X+X;X1Xs.b.m.s.M.<.e P.D.D.",
"D.D.D.D.D.D.D.D.D.I.o.r o o . R @X#X-X;X:X%X/.,.W A q ].,X>X>X;X%X8 P.D.D.",
"D.D.D.D.D.D.D.D.D.D.D.I.[ r o U ,.T K q 2 % X X o o @ ^.+XXXOX#X$X0 P.D.D.",
"D.D.D.D.D.D.D.D.D.D.D.D.D.P.] t u Z ] [ 9 o o o o o @ [.#X#X#X#X{.8 P.D.D.",
"D.D.D.D.D.D.I.Y.Y.P.I.D.D.D.D.D.D.D.D.D.r . . . . . X W.#X#XOX#X%X8 P.D.D.",
"D.D.I.F.[ G l a s a h #.Y.D.D.D.D.D.D.I.r o o o o . X W.#X#XOX#X$X8 P.D.D.",
"D.D.U.> v *.4.q.u.z.4.p l ].Y.D.D.D.D.I.r o o o o . X W.+X XOX+X%X0 P.D.D.",
"D.D.K.O p 4.iXfXfXfXsXz.$., G P.D.D.D.D.8 . . . . . X W.+X XOX+X%X0 P.D.D.",
"D.D.K.O o - x r.iXjXzXlXtXt.M > o.D.D.D.t . . o . . X ).|.+XOX#X{.8 I.D.D.",
"D.D.J.o o o o - m a.B.V.S.Z.4XU / P.P.o.> . o o o o X ).|.+XOX#X{.8 I.D.D.",
"D.D.F.o o o . o o U ,X;X@X@X+XL 1 a p x n c - o . . X ^.|.#XOX#X$Xr I.D.D.",
"D.D.F.o . o o o o J +XXX|.|. X:.q.u.x.tXtXiXw.n # . X ^.|.OXOX#X{.y I.D.D.",
"D.D.J.* o . o o o J OXOX+X@X-XV.hXfXfXfXkXkXfXuX0.x $ _.+X@X;X>X`.y I.D.D.",
"D.D.U.g o o o o o A +X#X#XoX@XV.kXzXkXfXaXaXtXx.l.d.' ,.T A w 4 8 ( I.D.D.",
"D.D.D.P.@.> o o . J +X+X+XOX>XM.c.l.g.s.N.V.A.qX6X8X7X2 / [ F.G.Y.D.D.D.D.",
"D.D.D.D.D.P.) : . L <X(.E.! P <.eX6X8X<X:X;X#XOXOX|.=X7 U.D.D.D.D.D.D.D.D.",
"D.D.D.D.D.D.D.G.F @ % X X . . E OXOXOXOX#XOX|.XX+X+X*X5 U.D.D.D.D.D.D.D.D.",
"D.D.D.D.D.D.D.D.@.o . . . o o W #X#X#X#X X X#X+X+X#X*X3 U.D.D.D.D.D.D.D.D.",
"D.D.D.D.D.D.D.D...@ o o . o o W #X|.|.OX+XOXOXOXOX|.*X7 U.D.D.D.D.D.D.D.D.",
"D.D.D.D.D.D.D.D.P./ > o . o o W +X|.OXOX+X+X+X@X;X:X5X5 U.D.D.D.D.D.D.D.D.",
"D.D.D.D.D.D.D.D.D.D.K./ : o @ W ;X;X;X*XW.E.W L D w 2 y T.D.D.D.D.D.D.D.D.",
"D.D.D.D.D.D.D.D.D.D.D.D.K.G $ k J q 7 7 w F / ] { G.P.I.D.D.D.D.D.D.D.D.D.",
"D.D.D.D.D.D.D.D.D.D.D.D.D.D.F./ ] o.P.P.I.D.D.D.D.D.D.D.D.D.D.D.D.D.D.D.D.",
"D.D.D.D.D.D.D.D.D.D.D.D.D.D.D.D.D.D.D.D.D.D.D.D.D.D.D.D.D.D.D.D.D.D.D.D.D.",
"D.D.D.D.D.D.D.D.D.D.D.D.D.D.D.D.D.D.D.D.D.D.D.D.D.D.D.D.D.D.D.D.D.D.D.D.D."
};
