/* XPM */
static char *numbers_9[] = {
/* columns rows colors chars-per-pixel */
"32 50 206 2 ",
"   c #020206",
".  c #02020B",
"X  c #0B0B0C",
"o  c #0B090A",
"O  c #140E0B",
"+  c #1E0F0D",
"@  c #19130A",
"#  c #030513",
"$  c #030915",
"%  c #02061A",
"&  c #040C1A",
"*  c #0C0612",
"=  c #0D1216",
"-  c #191915",
";  c #241F0D",
":  c #28220D",
">  c #262A18",
",  c #2B351C",
"<  c #28341D",
"1  c #39371A",
"2  c #332D1B",
"3  c #08172B",
"4  c #18282C",
"5  c #0E303E",
"6  c #1F3632",
"7  c #0E283C",
"8  c #232A25",
"9  c #352D23",
"0  c #293321",
"q  c #2E3E21",
"w  c #28382D",
"e  c #323D23",
"r  c #243937",
"t  c #453915",
"y  c #324122",
"u  c #3A4625",
"i  c #394B25",
"p  c #394A2A",
"a  c #38492C",
"s  c #3E5026",
"d  c #3F502F",
"f  c #2B4033",
"g  c #384834",
"h  c #564B19",
"j  c #5C5019",
"k  c #65551E",
"l  c #41552B",
"z  c #455829",
"x  c #414939",
"c  c #405130",
"v  c #695A23",
"b  c #635221",
"n  c #4A6227",
"m  c #4B642C",
"M  c #4E6D2A",
"N  c #516B2C",
"B  c #5A7A2F",
"V  c #58752D",
"C  c #516B31",
"Z  c #59603C",
"A  c #597731",
"S  c #5B7931",
"D  c #686329",
"F  c #786823",
"G  c #7C7223",
"H  c #0C2A43",
"J  c #0C2A49",
"K  c #123649",
"L  c #0F3957",
"P  c #103554",
"I  c #123B58",
"U  c #123048",
"Y  c #0E445D",
"T  c #114159",
"R  c #234C4E",
"E  c #21505E",
"W  c #0F4C6D",
"Q  c #0F476F",
"!  c #104561",
"~  c #11496E",
"^  c #0E4E70",
"/  c #124C74",
"(  c #145375",
")  c #125A7E",
"_  c #15536E",
"`  c #214962",
"'  c #444F40",
"]  c #54765E",
"[  c #88751D",
"{  c #927E1D",
"}  c #806A21",
"|  c #8B7A29",
" . c #6E992E",
".. c #638534",
"X. c #668A33",
"o. c #698E34",
"O. c #678838",
"+. c #6C9433",
"@. c #6F9930",
"#. c #709931",
"$. c #739B39",
"%. c #728451",
"&. c #779F6E",
"*. c #77AC75",
"=. c #7DC178",
"-. c #8D802A",
";. c #988A23",
":. c #AC9B21",
">. c #B59E27",
",. c #A29738",
"<. c #BAA939",
"1. c #BFA824",
"2. c #CCB725",
"3. c #CCB429",
"4. c #D4BC28",
"5. c #CEBD39",
"6. c #FBD605",
"7. c #F3D805",
"8. c #FBD804",
"9. c #F6D50C",
"0. c #FAD60B",
"q. c #F4D90C",
"w. c #FAD808",
"e. c #F4CF1F",
"r. c #EDD61C",
"t. c #ECDA1A",
"y. c #F7D513",
"u. c #F3D811",
"i. c #F3D51C",
"p. c #F1D81A",
"a. c #F8D414",
"s. c #E5CC1C",
"d. c #DFCA2E",
"f. c #DAD638",
"g. c #D2C336",
"h. c #E5CB25",
"j. c #E4CA2B",
"k. c #F6CF22",
"l. c #E5D72B",
"z. c #F0D820",
"x. c #AEB14D",
"c. c #90B46D",
"v. c #BCD04D",
"b. c #A2C85D",
"n. c #B3CB56",
"m. c #AED153",
"M. c #B1D052",
"N. c #B4C84C",
"B. c #8AC375",
"V. c #96CB78",
"C. c #92C667",
"Z. c #A6C864",
"A. c #CBD44A",
"S. c #156C95",
"D. c #186892",
"F. c #196A9A",
"G. c #12729B",
"H. c #187999",
"J. c #1C688C",
"K. c #216281",
"L. c #267496",
"P. c #157DAA",
"I. c #1B7DAC",
"U. c #1678A3",
"Y. c #177EB3",
"T. c #237AA7",
"R. c #28838F",
"E. c #24829E",
"W. c #1C82AC",
"Q. c #1585AA",
"!. c #1681B5",
"~. c #1A85B3",
"^. c #1891BF",
"/. c #1A92A7",
"(. c #2086A2",
"). c #2FACB1",
"_. c #2CA9BB",
"`. c #3CAEB0",
"'. c #5FBB89",
"]. c #5AB898",
"[. c #4FAC99",
"{. c #6EBA89",
"}. c #75BA85",
"|. c #64A881",
" X c #54AFAC",
".X c #44B3A1",
"XX c #51B0A4",
"oX c #62B3A4",
"OX c #1B8FC6",
"+X c #1895C8",
"@X c #1B9AD3",
"#X c #1BA8C6",
"$X c #0CABDE",
"%X c #13A9D4",
"&X c #17A5D8",
"*X c #05ACE6",
"=X c #0BABE5",
"-X c #03ADED",
";X c #0AABEC",
":X c #08A6E8",
">X c #12A7E4",
",X c #01B0ED",
"<X c #03B0E7",
"1X c #03ACF2",
"2X c #08AAF1",
"3X c #02B0F1",
/* pixels */
"#.#.#.#.#.#.#.#.#.#.#. . . . . . . . . . . . . . . . . . . . . .",
"#.#.#.#.#.#.#.#.#.#.#. . . . . . . . . . . . . . . . . . . . . .",
"#.#.#.#.#.#.#.#.#.#.#. . . . . . . . . . . . . . . . . . . . . .",
"#.#.#.#.#.#.#.#.#.#.#. . . .+.o.S n n o. . . . . . . . . . . . .",
"#.#.#.#.#.#.#.+.o.A n z u 1 1 h F | | t z +. . . . . . . . . . .",
"#.#.#.#.#.#.#.l 8 D { :.2.h.i.a.0.6.w.h.| , N @. . . . . . . . .",
"#.#.#.#.#.#.#.l O v g.y.6.6.6.8.8.0.0.6.u.g.Z q +. . . . . . . .",
"#.#.#.#.#.#.#.s     @ [ h.q.q.z.f.A.M.C.}.]..XR .. . . . . . . .",
"#.#.#.#.#.#.#.i       * : &.]..X).#X%X$X=X*X=X~ C @. . . . . . .",
"#.#.#.#.#.#.#.i           L.-X1X1X1X1X1X1X2X=X|.h e .. . . . . .",
" . . .@.+...A >         # T.1X-X1X1X1X,X-X1X=XB.e.>.t s o. . . .",
" . .C < 1 j G ;.-.:     # H.1X-X-X-X-X-X-X-X=XV.9.t.f.%.8 O. . .",
" . .i > ,.l.a.0.0.s.[ @ # U.2X-X1X1X;X>X&X+XU.[.{.oX`._._ S  . .",
" . .y   o t 1.u.9.9.i.5.Z L.OXI.D.( I H 3 & % J.$X*X-X-X( S  . .",
" . .y       o h x.C.{.].`.I 4 g l 0           D.1X1X,X;X( S  . .",
" . .y         # H.$X;X-X=XL %. . .c           S.-X-X-X-X/ S  . .",
" . .y         # P.-X1X1X=XP .. . .c           S.-X1X-X-X/ S  . .",
" . .e         # P.-X1X-X=XP +. . .'           S.-X1X-X-X/ S  . .",
" . .q         # P.-X-X-X=XP +. . .'           S.-X1X-X-X/ S  . .",
" . .q           Y.-X1X1X=XP .. .$.x           S.-X-X-X-X/ S  . .",
" . .q           !.1X-X1X=XL g g 9 - @         S.-X-X-X-X/ S  . .",
" . .q           !.1X1X-X$X] -.:.2.j.d.} +     S.-X-X-X-X/ S  . .",
" . .y         # Y.1X1X1X=XZ.9.6.6.6.0.y.4.k O F.1X-X-X-X/ S  . .",
" . .n X         Q.-X-X-X&Xn.w.w.9.u.p.p.l.A.*./.1X1X1X;XW S  . .",
" . . ...y X   # I.-X1X;X&XV.A.v.Z.B.'..X).#X&X2X1X-X-X;XW S  . .",
" . . . .@...< $ K.D.) Y H R.#X%X&X:X;X-X1X1X-X-X-X-X1X;XW S  . .",
" . . . . . .@.q $ #     # P.2X:X;X;X*X-X1X1X1X1X-X-X-X;X^ B  . .",
" . . . . . . .i           P.;X:X=X*X*X-X-X,X-X1X-X-X-X;X^ S  . .",
" . . . . . . .S -         P.1X1X1X1X3X1X1X-X;X1X1X-X3X;X^ S  . .",
" . . . . . . . .+.z =   # I.;X=X>X@X^.P.S.( I Q.-X1X3X-XW S  . .",
" . . . . . . . . . .o.u = ` ( L 7 3 $         S.1X-X-X-XW B  . .",
" . . . . . . . . . . . .O.n M B o.i           S.1X-X-X-XW B  . .",
" . . .@.+.+.V N N +. . . . . . . .a           S.1X-X-X-XW B  . .",
" . .C , 2 t k G D > N @. . . . . .i           G.1X-X-X-X~ B  . .",
" . .y 9 x.z.y.9.i.4.k > C #. . . .i           G.2X-X-X-X/ B  . .",
" . .,   X b 4.q.w.9.t.<.u 0 +. . .u           G.;X1X-X-X~ B  . .",
" . .<       @ F N.b.B.{. XU ..o.S 0           G.;X-X-X-XQ B  . .",
" . .,         o E.$X-X-X=XK ; : t v v O       U.1X-X-X-X/ B  . .",
" . .,         $ W.1X1X1X$Xc.j.k.a.q.q.3.j o # G.=X,X3X;X/ S  . .",
" . .y         % ~.1X-X-X%Xn.6.8.8.6.0.0.r.<.1 H.>X@X~.H.H S  . .",
" . .O.0       # ~.-X-X-X&Xm.y.y.t.l.f.v.b.B.oXE 7 w w z N +. . .",
" . . .@.S >   % Q.>X&X+X(.{.=.'..X_.#X%X=X-X=X! .. . . . . . . .",
" . . . . .+.C - K J 3 & & W.;X-X-X-X-X1X-X1X;X! .. . . . . . . .",
" . . . . . . .i           I.-X,X-X-X-X-X-X-X;X! .. . . . . . . .",
" . . . . . . .l         # !.*X-X-X-X*X-X-X1X-XY .. . . . . . . .",
" . . . . . . .+.l =     # !.1X1X1X-X-X;X>X&XOXK .. . . . . . . .",
" . . . . . . . .@.o.y X $ T.&X+XI.D.( T 5 4 w u +. . . . . . . .",
" . . . . . . . . . . ...e r 6 f a n N ..+.@. . . . . . . . . . .",
" . . . . . . . . . . . .@.@.@. . . . . . . . . . . . . . . . . .",
" . . . . . . . . . . . . . . . . . . . . . . . . . . . . . . . ."
};
