/* XPM */
static char *numbers_4[] = {
/* columns rows colors chars-per-pixel */
"40 55 187 2 ",
"   c #020206",
".  c #030804",
"X  c #02010A",
"o  c #040908",
"O  c #080B0D",
"+  c #09010C",
"@  c #0D170A",
"#  c #0A1307",
"$  c #121D0E",
"%  c #030212",
"&  c #090312",
"*  c #0B0C11",
"=  c #120116",
"-  c #16041B",
";  c #1B021B",
":  c #0F1016",
">  c #111015",
",  c #151E13",
"<  c #14151A",
"1  c #1D101C",
"2  c #21081E",
"3  c #20051C",
"4  c #27131B",
"5  c #16220E",
"6  c #152011",
"7  c #1A2414",
"8  c #1D2A14",
"9  c #1B2418",
"0  c #212017",
"q  c #212D16",
"w  c #252B19",
"e  c #2A2D1C",
"r  c #252319",
"t  c #243116",
"y  c #24331A",
"u  c #2C331C",
"i  c #2B3A1B",
"p  c #30371C",
"a  c #323B1E",
"s  c #1F0323",
"d  c #220626",
"f  c #2A0D2C",
"g  c #310C27",
"h  c #241027",
"j  c #2D0A31",
"k  c #320C35",
"l  c #3C133D",
"z  c #361735",
"x  c #282521",
"c  c #2B3026",
"v  c #313723",
"b  c #313A22",
"n  c #46213D",
"m  c #2F441C",
"M  c #364C1E",
"N  c #314520",
"B  c #364B22",
"V  c #3B4D24",
"C  c #3E5624",
"Z  c #3F562A",
"A  c #435B24",
"S  c #44552A",
"D  c #435C29",
"F  c #43503C",
"G  c #4A6426",
"H  c #49642A",
"J  c #4D6A2B",
"K  c #4D6A25",
"L  c #516E2A",
"P  c #54722D",
"I  c #57782B",
"U  c #5B7C2C",
"Y  c #4E6530",
"T  c #516838",
"R  c #5A6D3A",
"E  c #5D7D31",
"W  c #5A7134",
"Q  c #627638",
"!  c #3B1341",
"~  c #3C1D41",
"^  c #451644",
"/  c #491745",
"(  c #471845",
")  c #4E1C4A",
"_  c #571A54",
"`  c #6A1F5E",
"'  c #611E5D",
"]  c #54214C",
"[  c #533B42",
"{  c #5F2359",
"}  c #602C4E",
"|  c #721F66",
" . c #6F2969",
".. c #6A2163",
"X. c #732066",
"o. c #76216D",
"O. c #79226E",
"+. c #772072",
"@. c #7B2674",
"#. c #595845",
"$. c #5E7444",
"%. c #637A40",
"&. c #8D3D6F",
"*. c #8D2F7D",
"=. c #832A76",
"-. c #952C7C",
";. c #9A2B7C",
":. c #8C3376",
">. c #903771",
",. c #8A486C",
"<. c #935966",
"1. c #8C4B76",
"2. c #954D70",
"3. c #8C5869",
"4. c #966769",
"5. c #9A7971",
"6. c #A07E62",
"7. c #A17D77",
"8. c #5D802D",
"9. c #61852E",
"0. c #6D972F",
"q. c #6E992E",
"w. c #668B31",
"e. c #698D33",
"r. c #67823F",
"t. c #628534",
"y. c #6C9432",
"u. c #6F9931",
"i. c #709735",
"p. c #709931",
"a. c #6D8643",
"s. c #718D43",
"d. c #6C9240",
"f. c #789448",
"g. c #99CE34",
"h. c #97CF39",
"j. c #9CCB3B",
"k. c #A1C83C",
"l. c #899E4E",
"z. c #899055",
"x. c #A69D5E",
"c. c #88AA4D",
"v. c #91B848",
"b. c #9EBD4E",
"n. c #9CBC5A",
"m. c #98B656",
"M. c #AABD53",
"N. c #A8B253",
"B. c #A9A95A",
"V. c #9D8E69",
"C. c #8A9C64",
"Z. c #A38E64",
"A. c #A2866C",
"S. c #A69767",
"D. c #A58B73",
"F. c #A0AF6A",
"G. c #97CD41",
"H. c #9DC943",
"J. c #9FC74A",
"K. c #99C553",
"L. c #A3C644",
"P. c #A0C749",
"I. c #A9C44B",
"U. c #A1C848",
"Y. c #A1C352",
"T. c #A7C255",
"R. c #9FC061",
"E. c #A71F97",
"W. c #8D2C82",
"Q. c #862C81",
"!. c #962783",
"~. c #9E2586",
"^. c #932A83",
"/. c #992985",
"(. c #9D258D",
"). c #942B89",
"_. c #9A288A",
"`. c #97278C",
"'. c #9E2492",
"]. c #9B2891",
"[. c #A3238E",
"{. c #A1258C",
"}. c #A1248D",
"|. c #A02386",
" X c #A22290",
".X c #A22292",
"XX c #A32198",
/* pixels */
"p.p.p.p.p.p.p.p.p.p.p.p.p.p.q.q.q.q.q.q.q.q.q.q.q.q.q.q.q.q.q.q.q.q.q.q.q.q.q.q.",
"p.p.p.p.p.p.p.p.p.p.p.p.p.p.q.q.q.q.q.q.q.q.q.q.q.q.q.q.q.q.q.q.q.q.q.q.q.q.q.q.",
"p.p.p.p.p.p.p.p.p.p.p.p.p.p.q.q.q.q.q.q.q.q.q.q.q.q.q.q.q.q.q.q.q.q.q.q.q.q.q.q.",
"p.p.p.p.p.p.p.p.p.p.p.p.p.p.q.q.q.q.q.q.q.u.y.t.P D B D e.q.q.q.q.q.q.q.q.q.q.q.",
"p.p.p.p.p.p.p.p.p.p.p.p.p.p.q.q.q.q.q.q.C 5 @ 7 i S R V 5 D y.q.q.q.q.q.q.q.q.q.",
"p.p.p.p.p.p.p.p.y.w.i.p.p.p.q.q.q.q.q.u.q c C.T.U.H.j.L.l.a 7 L y.q.q.q.q.q.q.q.",
"p.p.y.J C N y 7 $ 7 t P p.p.q.q.q.q.q.u.q o # G v.H.j.g.G.K.d.t i U q.q.q.q.q.q.",
"p.p.E O F $.f.c.n.R.a.8 i t.q.q.q.q.q.u.q X % % $ W n.I.I.M.B.D.[ i q.q.q.q.q.q.",
"p.p.E o $ %.K.j.g.g.H.n.Q 5 M w.q.q.q.u.8 o o o X o 0 3.,.>.-.^. .e q.q.q.q.q.q.",
"p.p.E X o o q s.J.j.j.H.Y.F.#.7 9.q.q.u.8 X X X X X = W.'.[.'.(.@.q u.q.q.q.q.q.",
"p.p.E X X X X . i z.Z.6.4.<.,.z K q.q.u.8 X X X X X - ^.'.[.'.(.O.q u.q.q.q.q.q.",
"q.q.U X X o o X % ~ *.~.[. X(.( J q.q.u.7 X X X X X - ^.'.[.'.(.O.q q.q.q.q.q.q.",
"q.q.U X o X % X o / ].[./.'.(.( H q.q.u.7 X X X X X = ^.'.[.'.(.O.e u.q.q.q.q.q.",
"q.q.U X X X X X X ( (. X[.'.(.l H q.q.u.7 X X X X X = ^.'.[.'.(.O.e u.q.q.q.q.q.",
"q.q.8.X X X X X X ( (. X[.'.(.l H q.q.u.7 X X X X X = ^.'.[.'.(.O.e u.q.q.q.q.q.",
"q.q.8.X X X X X X ( (. X[.'.(.l H q.q.u.7 X X X X X = ^.'.[.'.(.O.e u.q.q.q.q.q.",
"q.q.U X X X X X X ( (. X[.'.(.l H q.q.u.7 X X X X X = ^.'.[.'.(.O.e u.q.q.q.q.q.",
"q.q.U X X X X X X ( (. X[.'._.l H q.q.u.7 X X X X X ; W. X(.'.(.O.e u.q.q.q.q.q.",
"q.q.U X X X X X X ( (. X[.'._.l H q.q.u.7 X X X X X ; W. X(.'.(.O.e u.q.q.q.q.q.",
"q.q.U X X X X X X ( (. X[.'._.l H q.q.u.7 X X X X X ; W. X(.'.(.O.e u.q.q.q.q.q.",
"q.q.U X X X X X X ( (. X[.'._.l H q.q.u.7 X X X X X ; W. X[. X(.O.e u.q.q.q.q.q.",
"q.q.U X X X X X X ( (. X(.'.(.l H q.q.u.9 X X X X X - ^.'.[. X(.O.i u.q.q.q.q.q.",
"q.q.U X X X X X X ( [. X(.'.(.z G q.q.u.9 X X o o X - ^.'.[. X'.O.i u.q.q.q.q.q.",
"q.q.U X X X X X X ( [. X(.'.'.! Z J C m @ o X X X X - ^.'.[. X'.O.p q.q.q.q.q.q.",
"q.q.U X X X X X X / [. X(.'.(.n t V H r.f.a.8 . X X - !.'.[.'.'.O.p q.q.q.q.q.q.",
"q.q.U X X X X X X / [.[.(. X/.A.Y.U.H.j.j.k.b.Q 5 o ; !.'.(.'.'.O.a q.q.q.q.q.q.",
"q.q.U X X o o o X ( (. X(. X/.Z.h.H.j.j.j.j.j.L.m.T 4 W.[.[.'.(.O.a q.q.q.q.q.q.",
"q.q.0.B O X o o X ( (.XX'. X/.Z.j.g.k.L.I.M.N.x.D.5.1./.[.[.'.(.o.a q.q.q.q.q.q.",
"q.q.q.q.9.i O X + / _.`.^.-.*.7.S.V.5.4.2.&.:.-.;.~. X X(.(.'.(.o.a q.q.q.q.q.q.",
"q.q.q.q.q.0.P q X z ' _ ! f d } -.|.[.(.(.(.'.'.'.(.(.(.[. X'.(.o.a q.q.q.q.q.q.",
"q.q.q.q.q.q.0.0.V X X X X X X ` '.[.[.[.(. X X X X(.(.(.'. X(.(.o.b q.q.q.q.q.q.",
"q.q.q.q.q.q.q.q.A X X X X o X ` '. X[.(.(.(.(.(.(. X X X X[.(.(.o.b q.q.q.q.q.q.",
"q.q.q.q.q.q.q.q.P O X X X o X `  X[.(.(.(. X X'.'.'.'.'. X X(.(.o.b q.q.q.q.q.q.",
"q.q.q.q.q.q.q.q.q.U y X X o X ` '.'.(.(.(.).^.W.Q.@.+.).'. X(.(.o.b q.q.q.q.q.q.",
"q.q.q.q.q.q.q.q.q.q.u.P 8 o & { ^.W.@..._ ( k d = = d ^.'.[.(.(.| b q.q.q.q.q.q.",
"q.q.q.q.q.q.q.q.q.q.q.q.y.G 9 h g 1 x v > & % X X X - ^.'.[.(.(.X.b q.q.q.q.q.q.",
"q.q.q.q.q.q.q.q.q.q.q.q.q.q.y.U e.y.u.u., X o X X X ; ^.'.[.(.(.X.b q.q.q.q.q.q.",
"q.q.q.q.q.q.q.q.q.q.q.q.q.q.q.q.q.q.q.u., X X X X X ; ^.'.(.'.'.X.b q.q.q.q.q.q.",
"q.q.q.q.q.q.q.q.q.q.q.q.q.q.q.q.q.q.q.u., X X X X X - ^.'.[.'.'.X.b q.q.q.q.q.q.",
"q.q.q.q.q.q.q.q.q.q.q.q.q.q.q.q.q.q.q.u., o o o o o - ^.'.[.'.'.X.b q.q.q.q.q.q.",
"q.q.q.q.q.q.q.q.q.q.q.q.q.q.q.q.q.q.q.u.7 * > : * X - ^.'.[.'.'.X.b q.q.q.q.q.q.",
"q.q.q.q.q.q.q.q.q.q.q.q.q.q.q.q.q.q.q.u.7 < * * < X - ^.'.[.'.'.X.b q.q.q.q.q.q.",
"q.q.q.q.q.q.q.q.q.q.q.q.q.q.q.q.q.q.q.u.9 < * * < X - ^.'.[.'.'.X.b q.q.q.q.q.q.",
"q.q.q.q.q.q.q.q.q.q.q.q.q.q.q.q.q.q.q.u.7 O O O * o - ^.'.[.'.'.X.b q.q.q.q.q.q.",
"q.q.q.q.q.q.q.q.q.q.q.q.q.q.q.q.q.q.q.u., o o o o o ; ^.'.[.'.'.X.b q.q.q.q.q.q.",
"q.q.q.q.q.q.q.q.q.q.q.q.q.q.q.q.q.q.q.u., o o o o o ; ^.'.[.'.'.X.b q.q.q.q.q.q.",
"q.q.q.q.q.q.q.q.q.q.q.q.q.q.q.q.0.0.0.y., o o o o o ; ^.'.[.'.'.| b q.q.q.q.q.q.",
"q.q.q.q.q.q.q.q.q.q.q.q.q.q.q.q.0.0.0.y., X X X X X ; ^. X(.'.'.X.b q.q.q.q.q.q.",
"q.q.q.q.q.q.q.q.q.q.q.q.q.q.q.q.q.q.q.u., X X X X X ; ^. X(.'.'.X.b q.q.q.q.q.q.",
"q.q.q.q.q.q.q.q.q.q.q.q.q.q.q.q.q.q.q.u.8 X X X X X ; ^. X(.(.(.X.v q.q.q.q.q.q.",
"q.q.q.q.q.q.q.q.q.q.q.q.q.q.q.q.q.q.q.q.8.y X X X X ; ^. X(.'.(.X.v q.q.q.q.q.q.",
"q.q.q.q.q.q.q.q.q.q.q.q.q.q.q.q.q.q.q.q.q.u.L 9 X X 3 *._.).W.=.] b q.q.q.q.q.q.",
"q.q.q.q.q.q.q.q.q.q.q.q.q.q.q.q.q.q.q.q.q.q.q.y.H , = ) ( j 2 4 r A q.q.q.q.q.q.",
"q.q.q.q.q.q.q.q.q.q.q.q.q.q.q.q.q.q.q.q.q.q.q.q.q.y.A S H U 9.y.u.q.q.q.q.q.q.q.",
"q.q.q.q.q.q.q.q.q.q.q.q.q.q.q.q.q.q.q.q.q.q.q.q.q.q.q.q.q.q.q.q.q.q.q.q.q.q.q.q."
};
