/* XPM */
static char *numbers_6[] = {
/* columns rows colors chars-per-pixel */
"34 50 215 2 ",
"   c #010106",
".  c #030D05",
"X  c #03020A",
"o  c #0B030B",
"O  c #030B08",
"+  c #0B0F0E",
"@  c #080102",
"#  c #13020F",
"$  c #041106",
"%  c #0C110E",
"&  c #0B0F10",
"*  c #060810",
"=  c #150311",
"-  c #1D0516",
";  c #0D1111",
":  c #171E16",
">  c #161918",
",  c #28071C",
"<  c #27131E",
"1  c #0D240E",
"2  c #102413",
"3  c #122B12",
"4  c #1A2E19",
"5  c #1F271C",
"6  c #1C3116",
"7  c #1C3A1B",
"8  c #232D1D",
"9  c #282D1E",
"0  c #213B1F",
"q  c #3D052B",
"w  c #370A29",
"e  c #371828",
"r  c #2E1828",
"t  c #252C22",
"y  c #2C2322",
"u  c #3A2329",
"i  c #352827",
"p  c #273924",
"a  c #383725",
"s  c #383A36",
"d  c #3D2D35",
"f  c #400E2B",
"g  c #40132A",
"h  c #490E31",
"j  c #570A37",
"k  c #421530",
"l  c #423E2D",
"z  c #5A293A",
"x  c #442D29",
"c  c #2F441C",
"v  c #264624",
"b  c #334523",
"n  c #394E25",
"m  c #384B26",
"M  c #2B542A",
"N  c #2E5C2C",
"B  c #285025",
"V  c #3D5324",
"C  c #37552B",
"Z  c #315431",
"A  c #345D32",
"S  c #3B5E3A",
"D  c #37413A",
"F  c #2F612C",
"G  c #30602E",
"H  c #346432",
"J  c #3A6B35",
"K  c #3A683A",
"L  c #3D7B3B",
"P  c #45432E",
"I  c #42552A",
"U  c #445C2A",
"Y  c #47562B",
"T  c #515A2F",
"R  c #455B33",
"E  c #485336",
"W  c #4C652E",
"Q  c #4E6A2A",
"!  c #526D2D",
"~  c #54602F",
"^  c #4F6331",
"/  c #406539",
"(  c #536D30",
")  c #576A34",
"_  c #457C3E",
"`  c #5A7434",
"'  c #5C7B31",
"]  c #567432",
"[  c #57772E",
"{  c #617E36",
"}  c #640D44",
"|  c #6D0C48",
" . c #760E4C",
".. c #641242",
"X. c #73124C",
"o. c #7F0E51",
"O. c #7A1052",
"+. c #4D4F4E",
"@. c #4E5A4C",
"#. c #5B6443",
"$. c #467C41",
"%. c #487E43",
"&. c #4D7B49",
"*. c #537B47",
"=. c #6E705B",
"-. c #667061",
";. c #830E51",
":. c #841054",
">. c #8A1456",
",. c #9B125F",
"<. c #93135A",
"1. c #823752",
"2. c #9C3B5D",
"3. c #9A0F61",
"4. c #9B1164",
"5. c #B50E6E",
"6. c #A51665",
"7. c #B5106C",
"8. c #B30F75",
"9. c #BE1476",
"0. c #B71576",
"q. c #933E60",
"w. c #AF226D",
"e. c #B92F6E",
"r. c #AB3D6A",
"t. c #B33E6F",
"y. c #BF2271",
"u. c #BB2B71",
"i. c #BC3273",
"p. c #D90D7E",
"a. c #D70F7B",
"s. c #CA1275",
"d. c #C91879",
"f. c #D6137C",
"g. c #D81179",
"h. c #E6097F",
"j. c #C32576",
"k. c #93685F",
"l. c #886F5B",
"z. c #A44F6C",
"x. c #B0486D",
"c. c #A4536B",
"v. c #9D646A",
"b. c #986769",
"n. c #8C7A64",
"m. c #8D7B68",
"M. c #937667",
"N. c #A06065",
"B. c #44823F",
"V. c #63892D",
"C. c #6E992E",
"Z. c #628434",
"A. c #698D35",
"S. c #658736",
"D. c #6E9535",
"F. c #6F9931",
"G. c #6C9038",
"H. c #709932",
"J. c #709736",
"K. c #468342",
"L. c #498245",
"P. c #558B4A",
"I. c #4C924A",
"U. c #4E9A4B",
"Y. c #459646",
"T. c #53974A",
"R. c #51984B",
"E. c #588C57",
"W. c #769B5D",
"Q. c #7C965B",
"!. c #69845A",
"~. c #57A24F",
"^. c #4EBB45",
"/. c #4FBA48",
"(. c #4CB74C",
"). c #54B646",
"_. c #59B645",
"`. c #52B946",
"'. c #54B64A",
"]. c #59B54B",
"[. c #52B949",
"{. c #5AA655",
"}. c #5CAA55",
"|. c #5DA559",
" X c #5DA959",
".X c #57A654",
"XX c #4FB752",
"oX c #5AB252",
"OX c #58B353",
"+X c #61AF4E",
"@X c #65AD54",
"#X c #69A955",
"$X c #6CA65C",
"%X c #69A958",
"&X c #66A959",
"*X c #70A35A",
"=X c #7D9061",
"-X c #789761",
";X c #6EA164",
":X c #71A160",
">X c #818D5F",
",X c #848962",
"<X c #CE0F82",
"1X c #DC0C83",
"2X c #D51280",
"3X c #E60687",
"4X c #ED0387",
"5X c #E20985",
"6X c #EC038B",
"7X c #E1098A",
"8X c #E50688",
"9X c #F1038A",
"0X c #F70186",
"qX c #EC0293",
"wX c #F10191",
/* pixels */
"H.H.H.H.H.H.H.H.H.H.H.F.C.C.C.C.C.C.C.C.C.C.C.C.C.C.C.C.C.C.C.C.C.C.",
"H.H.H.H.H.H.H.H.H.H.H.F.C.C.C.C.C.C.C.C.C.C.C.C.C.C.C.C.C.C.C.C.C.C.",
"H.H.H.H.H.H.H.H.H.H.H.F.C.C.C.C.C.C.F.H.C.C.C.C.C.C.C.C.C.C.C.C.C.C.",
"H.H.H.H.H.H.H.H.H.H.H.H.H.A.Z.( Y l u u ~ D.C.C.C.C.C.C.C.C.C.C.C.C.",
"H.H.H.H.H.H.H.H.` R P i e h j  .<.7.s.9.X.e ) F.C.C.C.C.C.C.C.C.C.C.",
"H.H.H.H.H.H.H.H.9 k 6.9.1X6X9X6X6X6XwX0X5X0.| x { F.C.C.C.C.C.C.C.C.",
"H.H.H.H.H.H.H.H.8 o q ,.1XqXqXqX6X6X8X3X5Xf.y.1.y ( C.C.C.C.C.C.C.C.",
"H.H.H.H.H.H.H.H.t X o = j 8.p.f.j.i.x.N.M.,XW.%XK U C.C.C.C.C.C.C.C.",
"H.H.H.H.H.H.H.H.t X @ X X = =.W.*X+X_.].'.).).)./ i Z.C.C.C.C.C.C.C.",
"H.H.H.H.H.H.H.H.8 @ @ X @ @ P.'.[.'.[.).[.[.[._.l.>.f Y D.C.C.C.C.C.",
"C.C.C.J.Z.` T P < # o X o O I.).).).).).'.'.'.).v.5Xs.:.e ^ F.C.C.C.",
"C.C.H.8 w ..:.4.0.3.q o X @ P.'.[.'.'.).[.[.).'.b.1X1Xd.q.d I C.C.C.",
"C.C.H.; w ,.1X4X6X6Xp.>.w o Y.^.[.'.oX{.{.U.K.J #.n.=XW.#X*.b C.C.C.",
"C.C.H.% X = j 6.1X6X1Xf.w.z *.K.J M 7 1 $ . . o M XX)._.).L.n C.C.C.",
"C.C.H.% @ @ @ = j z.v.M.=X;X3 c Q Q b X @ @ @ @ Z oX[.(.'.&.n C.C.C.",
"C.C.H.% X @ @ X . |.[.'.^.'.3 V.C.C.! X X @ @ @ N '.^.'.^.K.n C.C.C.",
"C.C.J.; @ @ @ @ $ {.).'.^.oX3 V.C.C.F.( : X X X N ).^.).[.L.n C.C.C.",
"C.C.J.+ @ @ @ X $ {.).'.).oX3 V.C.C.C.C.F.[ 5 X Z {.I.$.H p V C.C.C.",
"C.C.J.; @ @ @ @ $ .X).'.).oX3 V.C.C.C.C.C.C.D.R 8 6 c V Q Z.D.C.C.C.",
"C.C.J.; @ @ @ @ $ {.[.).).oX3 V.C.C.H.F.C.C.C.C.H.F.C.C.C.C.C.C.C.C.",
"C.C.H.; @ @ @ @ $ {.[.[.).].3 I a i < e ^ D.C.C.C.C.C.C.C.C.C.C.C.C.",
"C.C.H.; @ @ @ @ $ {.[.[.).oXz o.4.5.s.s. .u ` F.C.C.C.C.C.C.C.C.C.C.",
"C.C.H.+ @ @ @ @ $ .X[.'.).@Xi.6X6X6X6X6X6X9.} i { C.C.C.C.C.C.C.C.C.",
"C.C.F.; @ @ @ @ . {.`.).'.#Xi.6X6X9X4X5X5X2Xj.1.y S.C.C.C.C.C.C.C.C.",
"C.C.D.& @ @ @ @ $ {.[.).[.%Xr.d.u.r.c.b.n.>XW.$XS W C.C.C.C.C.C.C.C.",
"C.C.D.; @ @ @ X $ {.[.].'.OX-X-X*X@X].).).[.(.).R a A.C.C.C.C.C.C.C.",
"C.C.D.& @ @ @ X $  X[.'.).].'.[.[.[.[.[.[.).).].k.<.g Y D.C.C.C.C.C.",
"C.C.D.; @ @ @ X O |.[.'.).'.).).).).[.[.[.'.'.^.v.8X<XO.r ^ F.C.C.C.",
"C.C.D.+ @ @ @ X O {.^.'.[.[.].[.[.^.^.).).[.[.oXN.p.f.j.2.a W C.C.C.",
"C.C.D.+ @ @ @ X $ {.).).[.[.oX'.[.'.oXoX{.R.B.J #.,XQ.:XoX*.I C.C.C.",
"C.C.D.+ @ @ @ X $ {.).].).'.R._ H B 7 1 $ . . X N '.^.OX).B.V C.C.C.",
"C.C.D.& @ @ X X $ {.).'.^.oX3 D @.-.s X X X X @ N '.[.'.[.$.I C.C.C.",
"C.C.D.& @ @ @ X $ {.).'.^.oX2 A.C.C.V @ @ @ @ @ N '.(.'.^.K.U C.C.C.",
"C.C.D.& @ @ @ X $ {.).'.^.{.2 V.C.C.I X @ @ @ @ N '.(.'.^.K.U C.C.C.",
"C.C.D.+ @ @ @ X $  X[.'.).oX2 V.C.C.I X X X @ @ N '.(.[.).L.U C.C.C.",
"C.C.D.+ @ @ @ X $  X[.[.).oX2 V.C.C.I X X X X @ N '.^.[.'.%.U C.C.C.",
"C.C.D.+ @ @ @ X $  X).).).oX2 A.C.F.I X X X X @ N '.).[.'.%.U C.C.C.",
"C.C.D.+ @ @ @ X $  X[.).).oX2 +.s i , , o @ @ @ N '.).).).$.U C.C.C.",
"C.C.D.& @ @ @ X $  X).'.).{.z ;.4.7.s.9. ., X @ F [.^.'.).$.U C.C.C.",
"C.C.D.; X @ @ X $  X).).).#Xe.3X6XqXqX9X7X0.} - G '.).'.'.$.U C.C.C.",
"C.C.F.p X X @ @ $  X[._.).$Xj.6X9X6X3X5X5Xf.y.1.E K N v 6 8 ` C.C.C.",
"C.C.C.D.W : X X $ &X[.(.'.%Xr.d.j.t.c.v.m.,XW.$XA b ! Z.D.H.C.C.C.C.",
"C.C.C.C.C.D.U ; % E.K.J M 0 !.*X%X+X].'.[.[.).'.H ! C.C.C.C.C.C.C.C.",
"C.C.C.C.C.C.C.G.: O O o X . R.'.'.[.).[.).[.).'.A ! C.C.C.C.C.C.C.C.",
"C.C.C.C.C.C.C.F.: X X X @ . R.^.^.^.[.[.[.[.[.'.A ! C.C.C.C.C.C.C.C.",
"C.C.C.C.C.C.C.F.C * X @ X O U.'.'.[.).).'.'.'.'.A ( C.C.C.C.C.C.C.C.",
"C.C.C.C.C.C.C.C.F.' t X X . U.'.].].].{..XI.L H 4 ] C.C.C.C.C.C.C.C.",
"C.C.C.C.C.C.C.C.C.C.D.( : O &.$.H B 7 4 6 b V Q ' F.C.C.C.C.C.C.C.C.",
"C.C.C.C.C.C.C.C.C.C.C.C.D.W b U Q ' D.D.F.C.C.C.C.C.C.C.C.C.C.C.C.C.",
"C.C.C.C.C.C.C.C.C.C.C.C.C.C.C.C.C.C.C.C.C.C.C.C.C.C.C.C.C.C.C.C.C.C."
};
