/* XPM */
static char *numbers_0[] = {
/* columns rows colors chars-per-pixel */
"37 55 193 2 ",
"   c #010106",
".  c #090205",
"X  c #01010A",
"o  c #09040B",
"O  c #090B0D",
"+  c #06090E",
"@  c #170306",
"#  c #1B0D10",
"$  c #0F1114",
"%  c #171718",
"&  c #0B0C13",
"*  c #260408",
"=  c #37090D",
"-  c #2F120D",
";  c #39100E",
":  c #3A0E12",
">  c #271514",
",  c #351616",
"<  c #1D231A",
"1  c #222B19",
"2  c #28261B",
"3  c #2A331E",
"4  c #26301C",
"5  c #36351E",
"6  c #3B261B",
"7  c #1C1E22",
"8  c #2D1C21",
"9  c #1E2123",
"0  c #222625",
"q  c #252C25",
"w  c #282C27",
"e  c #24262C",
"r  c #26292E",
"t  c #2A2B2D",
"y  c #2C2328",
"u  c #332A2A",
"i  c #2C3520",
"p  c #2E3923",
"a  c #2B3526",
"s  c #333B27",
"d  c #272930",
"f  c #2C2C31",
"g  c #372E34",
"h  c #37373A",
"j  c #2F353A",
"k  c #450A11",
"l  c #590C14",
"z  c #5A101C",
"x  c #650F1A",
"c  c #63101D",
"v  c #501520",
"b  c #451A25",
"n  c #6A1421",
"m  c #651621",
"M  c #7A1524",
"N  c #791A27",
"B  c #5C2C34",
"V  c #6E2431",
"C  c #354329",
"Z  c #384424",
"A  c #444E26",
"S  c #495328",
"D  c #44562C",
"F  c #424338",
"G  c #475539",
"H  c #4E612D",
"J  c #52672F",
"K  c #5D7D2F",
"L  c #537029",
"P  c #4D6632",
"I  c #526A32",
"U  c #55693B",
"Y  c #5A7637",
"T  c #5D7D32",
"R  c #5A7539",
"E  c #577137",
"W  c #617C36",
"Q  c #3F4044",
"!  c #494E53",
"~  c #4E5053",
"^  c #525358",
"/  c #4D4D4E",
"(  c #5E7549",
")  c #536144",
"_  c #657854",
"`  c #67686B",
"'  c #77686D",
"]  c #6C6D72",
"[  c #7E6F77",
"{  c #6F7074",
"}  c #727376",
"|  c #75757A",
" . c #77787C",
".. c #797A7E",
"X. c #8F192A",
"o. c #A31F34",
"O. c #8C2737",
"+. c #AB2438",
"@. c #BA253B",
"#. c #B6243B",
"$. c #EE1936",
"%. c #E51E3A",
"&. c #EB1B3C",
"*. c #E81A36",
"=. c #F1193B",
"-. c #C8253D",
";. c #DE213E",
":. c #D6243E",
">. c #E2203E",
",. c #853F4F",
"<. c #973A4A",
"1. c #AD2341",
"2. c #BF2D43",
"3. c #BD3750",
"4. c #CF1F42",
"5. c #DE1F42",
"6. c #E51E41",
"7. c #E91A40",
"8. c #CB2341",
"9. c #C92D4A",
"0. c #D42642",
"q. c #DC2243",
"w. c #D52847",
"e. c #CB374C",
"r. c #C63D55",
"t. c #E22142",
"y. c #93525F",
"u. c #A14C59",
"i. c #BC455A",
"p. c #845E61",
"a. c #A85360",
"s. c #B85668",
"d. c #857178",
"f. c #B9606E",
"g. c #B46A77",
"h. c #C5445B",
"j. c #D1455C",
"k. c #C34E61",
"l. c #CA5165",
"z. c #E14F69",
"x. c #C56878",
"c. c #5E8032",
"v. c #6E992E",
"b. c #628334",
"n. c #678936",
"m. c #698E35",
"M. c #65823A",
"N. c #6D9434",
"B. c #6F9931",
"V. c #6E9339",
"C. c #709931",
"Z. c #759C3B",
"A. c #71963A",
"S. c #698641",
"D. c #728F4D",
"F. c #7BA145",
"G. c #82A651",
"H. c #97B07A",
"J. c #7A7C80",
"K. c #9E7D81",
"L. c #B37882",
"P. c #AD7D87",
"I. c #C07A86",
"U. c #7F8084",
"Y. c #86888C",
"T. c #8B8C90",
"R. c #9E8E97",
"E. c #8F9497",
"W. c #8F959B",
"Q. c #8D9898",
"!. c #8D9895",
"~. c #929496",
"^. c #949599",
"/. c #9A929A",
"(. c #95989B",
"). c #99999D",
"_. c #989394",
"`. c #958A8B",
"'. c #AD838B",
"]. c #A48C8F",
"[. c #A4908F",
"{. c #A48D93",
"}. c #A98B93",
"|. c #A5969A",
" X c #B6929B",
".X c #A3A09E",
"XX c #9E9FA3",
"oX c #9395A1",
"OX c #A79EA2",
"+X c #9FA0A4",
"@X c #A2A2A6",
"#X c #A5A5AA",
"$X c #A9A7AC",
/* pixels */
"C.C.C.C.C.C.C.C.C.C.C.C.v.v.v.v.v.v.v.v.v.v.v.v.v.v.v.v.v.v.v.v.v.v.v.v.v.",
"C.C.C.C.C.C.C.C.C.C.B.C.B.v.v.B.N.m.L H A A b.B.v.v.v.v.v.v.v.v.v.v.v.v.v.",
"C.C.C.C.C.C.C.C.C.A.b.W D A 5 6 ; k l n N N : Z m.B.v.v.v.v.v.v.v.v.v.v.v.",
"C.C.C.C.C.C.C.C.D # k x M X.o.@.-.:.;.&.&.6.8.N ; S N.v.v.v.v.v.v.v.v.v.v.",
"C.C.C.C.C.C.C.C.3 # V 9.;.&.&.$.$.&.&.=.&.&.$.&.-.n , H B.v.v.v.v.v.v.v.v.",
"C.C.C.C.C.C.C.C.3 . @ k +.0.%.=.$.&.*.%.%.>.:.q.9.i.y.8 b.v.v.v.v.v.v.v.v.",
"C.C.C.C.C.C.C.C.3 X X X * l +.0.w.9.r.k.s.g.L.'.{.{./.j T v.v.v.v.v.v.v.v.",
"C.C.C.C.C.C.C.C.4   X X X   @ p.'.{.{.R././._._._.~.Q.h s m.v.v.v.v.v.v.v.",
"C.C.C.C.B.B.B.C.i   X X X X X ] ~.~.~.~._._.!._._._.].u.N - D N.v.v.v.v.v.",
"C.C.C.C.C.m.b.I 2   X X X o   ' ~.~.~.~.~._._.~.~.~.{.h.6.@.n > J N.v.v.v.",
"C.C.W 5 , : k c M m * . X     ' /.~.~.~.~.~._._.~.~.{.i.&.&.q.1.v 3 m.v.v.",
"v.B.Z - O.9.0.>.%.6.#.c @     ] /.~.~.~.~.~.~._._.~.{.s.r.h.l.f.K.u W v.v.",
"v.v.C . * M 8.7.%.&.=.5.+.z @ ] ~.~.~._.Y.| ` / h e % ' }._./.~.~.f T v.v.",
"v.v.p X X . = X.8.t.5.q.w.3.,.^ ! j 9 $ O         X X ] ~.~.~._._.w T v.v.",
"v.v.i   X X   @ = u.g.L.'.}.|.f s I M.D.0 X X X X   X ] E.~.~.~._.w T v.v.",
"v.v.4   X X X     } ~.~.oX~.~.f U B.v.Z.w X X X X X X ] ~._.~.~._.f T v.v.",
"v.v.1       X X X { ~.~.~.~.~.w P v.v.B.q X X X X X X ] ~.~._.~.~.f c.v.v.",
"v.v.1           X | ~.~.~.~.~.w I v.v.B.w X X X X X   ] ~.~.~.E._.f b.v.v.",
"v.v.1           X | ~.~.~.~.~.f T v.v.B.w X X X X X   ] ~.~.~.~.~.f b.v.v.",
"v.v.1             | ~.~.~.~.~.f b.v.v.B.w X X X X X   ] ~.~.~.~.~.f b.v.v.",
"v.v.1             } ~.~.~._.~.f b.v.v.B.w X X X X X X ] ~.~.~.~.~.f b.v.v.",
"v.v.1             | ~.~.~.~.~.f b.v.v.B.w X X X X X X { ~.~.~.~.~.f b.v.v.",
"v.v.1             | ~.~.~.Q.~.d b.v.v.B.0 X X X X X X { ~.~.~.~.~.w b.v.v.",
"v.v.1             | ~.~.~.~.~.d T v.v.N.9 X X X X X   ] ~.~.~.~.~.w b.v.v.",
"v.v.1             | ~.~.~.~.~.d Y v.v.N.9 X X X X X   ] ~.~.~.~.~.f c.v.v.",
"v.v.1             | ~.~.~.~.~.f Y v.v.N.9 X X X X X X ] ~.~.~.~.~.f T v.v.",
"v.v.1             | ~.~.~._.~.w Y v.v.B.q X X X X X   ] ~.~.~.~.~.w c.v.v.",
"v.v.1             | ~.~.~._.~.w Y v.v.B.q X X X X X   ] ~.~.~.~.~.f c.v.v.",
"v.v.1           X | ~.~.~._.~.w Y v.v.B.q   X X X X X { ~.~.~.~.~.f T v.v.",
"v.v.1           X | ~.~.~._.~.e Y v.v.B.q X X X X X X } ~.~.~.~.~.f T v.v.",
"v.v.1           X | ~.~.~.~.~.e Y v.v.B.q X X X X X X } ~.~.~.~.~.f T v.v.",
"v.v.1           X | ~.~.~.~.~.e Y v.v.B.q X X X X X X | ~.~.~.~.~.f c.v.v.",
"v.v.1             | ~.~.~.~.~.e Y v.v.B.0   X X X X   } ~.~.~.~.~.f b.v.v.",
"v.v.1              .~.~.~.~.~.e Y v.v.C.7   X X X X   } ~.~.~.~.~.f b.v.v.",
"v.v.1             ..~.~.~.~.~.e E v.v.F.7 X X X X X   } ~.~.~.~.~.f b.v.v.",
"v.v.1             ..~.~.~.~.~.e _ v.v.G.9 X X X X X   } ~.~.~.~.~.f b.v.v.",
"v.v.1           X ..~.~.~.~.~.e _ v.v.G.7 X X X X X   } ~.~.~.~.~.w b.v.v.",
"v.v.1           X ..~.~.~.~.~.e ( v.v.F.7 X X X X X   } ~.~.~.~._.w b.v.v.",
"v.v.1             ..~.~.~.~.~.e Y v.v.Z.% X X X X X   } ~.~.~.~._.w b.v.v.",
"v.v.1             ..~.~.~.Q.~.w ( B.Z.H.7 X X X X X   } ~.~.E.~.~.w b.v.v.",
"v.v.1             ..~.~.~././.y / F u > * @   o X X X | ~._.~.~.~.w b.v.v.",
"v.v.1             ..~.~.~.Q.~.B m N X.+.@.#.x *   X X | _._.~.~.~.w n.v.v.",
"v.v.3             J.~.~.~./.}.h.6.&.&.&.=.=.%.+.V , @ | E.~.~.~.~.w b.v.v.",
"v.v.C X X         J._.~.~.~.{.r.&.&.&.&.&.&.&.t.z.<.b [ T.J.` ^ / 9 A.v.v.",
"v.v.m.C & X X     ..~.~.~.~.[.r.&.&.&.q.0.9.j.l.x.I. Xh % < s D I n.B.v.v.",
"v.v.v.B.b.p + X   .._.~.~.~.`.a.h.s.f.g.P. X|.|.OX).$Xw b.C.v.v.v.v.v.v.v.",
"v.v.v.v.v.B.T p O ^ ~ h e % o d.{._..X|./.$X~.~.#X~.~.w T v.v.v.v.v.v.v.v.",
"v.v.v.v.v.v.v.B.p X       X X J.~.~.+X$X_.@XXX#XXX_.~.e T v.v.v.v.v.v.v.v.",
"v.v.v.v.v.v.v.B.s X           | ~.~.).+X@X~.~.~.~.~.~.e K v.v.v.v.v.v.v.v.",
"v.v.v.v.v.v.v.v.I & X          .+X@X@X+XXX$X~.~.~.~.~.e K v.v.v.v.v.v.v.v.",
"v.v.v.v.v.v.v.v.B.b.C $ X X X | #X_._.#X~.~._._.T.J.] 9 b.v.v.v.v.v.v.v.v.",
"v.v.v.v.v.v.v.v.v.v.B.S.s 7 f Y.@X).T.J.^ Q j 9 < i C P B.v.v.v.v.v.v.v.v.",
"v.v.v.v.v.v.v.v.v.v.v.v.B.S.s ~ / G ) G I T b.A.C.B.v.v.v.v.v.v.v.v.v.v.v.",
"v.v.v.v.v.v.v.v.v.v.v.v.v.v.N.A.C.C.v.v.v.v.v.v.v.v.v.v.v.v.v.v.v.v.v.v.v.",
"v.v.v.v.v.v.v.v.v.v.v.v.v.v.v.v.v.v.v.v.v.v.v.v.v.v.v.v.v.v.v.v.v.v.v.v.v."
};
