/* XPM */
static char *numbers_3[] = {
/* columns rows colors chars-per-pixel */
"33 50 221 2 ",
"   c #020306",
".  c #020A05",
"X  c #03020A",
"o  c #0B020B",
"O  c #0A0C0A",
"+  c #060406",
"@  c #15020B",
"#  c #091C09",
"$  c #051306",
"%  c #0B0B12",
"&  c #130411",
"*  c #1C0214",
"=  c #180718",
"-  c #0D1113",
";  c #131A16",
":  c #131617",
">  c #240315",
",  c #230E1D",
"<  c #26171C",
"1  c #0F2A10",
"2  c #1A2617",
"3  c #142A15",
"4  c #1C211C",
"5  c #172F18",
"6  c #1A2E1A",
"7  c #192915",
"8  c #173216",
"9  c #1A3217",
"0  c #1A3519",
"q  c #1B3B19",
"w  c #26291E",
"e  c #243519",
"r  c #303E1D",
"t  c #1F1724",
"y  c #2B0623",
"u  c #320424",
"i  c #3C0528",
"p  c #2E1825",
"a  c #381A2C",
"s  c #342525",
"d  c #3A2B29",
"f  c #372727",
"g  c #2C3825",
"h  c #383729",
"j  c #323B36",
"k  c #2B272C",
"l  c #420A2C",
"z  c #401329",
"x  c #440934",
"c  c #520A35",
"v  c #560734",
"b  c #4A1130",
"n  c #630B3F",
"m  c #41212C",
"M  c #41312A",
"N  c #422A30",
"B  c #503F3B",
"V  c #1D411E",
"C  c #33471E",
"Z  c #264722",
"A  c #274C25",
"S  c #2A4D26",
"D  c #2C4D2B",
"F  c #274B28",
"G  c #344223",
"H  c #334A2D",
"J  c #3B4A29",
"K  c #2D542B",
"L  c #2C5A2B",
"P  c #3E5625",
"I  c #364F32",
"U  c #355C32",
"Y  c #305032",
"T  c #346634",
"R  c #386E36",
"E  c #3F773D",
"W  c #34642E",
"Q  c #44452D",
"!  c #4A4E28",
"~  c #455A2B",
"^  c #4A5E2D",
"/  c #45552C",
"(  c #54423E",
")  c #485D31",
"_  c #4E4F33",
"`  c #4C642D",
"'  c #4A662A",
"]  c #51682D",
"[  c #536A31",
"{  c #536836",
"}  c #417A3E",
"|  c #567230",
" . c #597633",
".. c #5C7B33",
"X. c #5F7D38",
"o. c #416337",
"O. c #617E36",
"+. c #627B39",
"@. c #630B40",
"#. c #6B0C44",
"$. c #750D45",
"%. c #691C44",
"&. c #6C204F",
"*. c #7E2152",
"=. c #713050",
"-. c #683F4B",
";. c #484749",
":. c #794C58",
">. c #457743",
",. c #4F624B",
"<. c #6A7A59",
"1. c #8B0E5B",
"2. c #880C52",
"3. c #930F53",
"4. c #94115C",
"5. c #881A5B",
"6. c #9A305A",
"7. c #9F0E63",
"8. c #9B1163",
"9. c #AE0F6C",
"0. c #AB136B",
"q. c #A41169",
"w. c #B7146E",
"e. c #B30F71",
"r. c #BB1475",
"t. c #B91577",
"y. c #B72F6B",
"u. c #AA3D69",
"i. c #B3356D",
"p. c #BA2C74",
"a. c #BA3573",
"s. c #B63774",
"d. c #AC3872",
"f. c #CC0E7C",
"g. c #DA0E7C",
"h. c #C31279",
"j. c #CC1C79",
"k. c #CC1878",
"l. c #D5137D",
"z. c #D71378",
"x. c #E00B7B",
"c. c #C42176",
"v. c #C62079",
"b. c #87585B",
"n. c #A94B68",
"m. c #A5566A",
"M. c #BD4273",
"N. c #9A6967",
"B. c #8C7D63",
"V. c #4B8F3E",
"C. c #5F8031",
"Z. c #47943E",
"A. c #4B903E",
"S. c #6E992E",
"D. c #638335",
"F. c #668A33",
"G. c #688C36",
"H. c #6C8F39",
"J. c #628039",
"K. c #6D9434",
"L. c #6F9931",
"P. c #6F9539",
"I. c #709931",
"U. c #749C3A",
"Y. c #709735",
"T. c #55B83F",
"R. c #4A8D43",
"E. c #4B8947",
"W. c #54894B",
"Q. c #469141",
"!. c #4A9344",
"~. c #4E9349",
"^. c #52984D",
"/. c #528653",
"(. c #739E5C",
"). c #78925F",
"_. c #6C844B",
"`. c #4EBB44",
"'. c #4EBA4B",
"]. c #46BE46",
"[. c #54B746",
"{. c #58B644",
"}. c #52B946",
"|. c #55B64B",
" X c #59B44C",
".X c #52B949",
"XX c #5AA253",
"oX c #5CAC54",
"OX c #5CAF5B",
"+X c #53B552",
"@X c #5AB352",
"#X c #67AD4E",
"$X c #60B04F",
"%X c #64AD53",
"&X c #64AB59",
"*X c #6CA758",
"=X c #72A25C",
"-X c #61B051",
";X c #7DA248",
":X c #7B9564",
">X c #73A260",
",X c #6DA661",
"<X c #828465",
"1X c #858664",
"2X c #829361",
"3X c #8EAC6D",
"4X c #C80F80",
"5X c #DC0D83",
"6X c #D70F89",
"7X c #DD0B8B",
"8X c #D30F81",
"9X c #CC1082",
"0X c #D51482",
"qX c #E50586",
"wX c #E30985",
"eX c #E5068A",
"rX c #EB038D",
"tX c #E20A8A",
"yX c #EC0687",
"uX c #F1028D",
"iX c #EC0291",
/* pixels */
"I.I.I.I.I.I.I.I.I.I.I.S.S.S.S.S.S.S.S.S.S.S.S.S.S.S.S.S.S.S.S.S.S.",
"I.I.I.I.I.I.I.I.I.I.I.S.S.S.S.S.S.L.K.K.S.S.S.S.S.S.S.S.S.S.S.S.S.",
"I.I.I.I.I.I.I.I.I.I.I.K.D.| / Q M m z a ] K.S.S.S.S.S.S.S.S.S.S.S.",
"I.I.I.I.I.I.I.H.J d a b c #.1.q.r.f.8Xh.$.f  .L.S.S.S.S.S.S.S.S.S.",
"I.I.I.I.I.I.I.J.& &.r.5XwXyXrXrXrXrXuXrX6Xr.@.d O.S.S.S.S.S.S.S.S.",
"I.I.I.I.I.I.I.+.X & c 0.6XuXuXrXrXqXwXx.l.j.d.:.w K.S.S.S.S.S.S.S.",
"I.I.I.I.I.I.I.O.X X o > #.t.j.p.s.m.N.1X:X(.%X%X6 F.S.S.S.S.S.S.S.",
"I.I.I.I.I.I.I.X.X       o < :X#X$X X|.|.[. X[. Xg Q G.S.S.S.S.S.S.",
"I.I.I.I.I.I.I.+.X     X X 3 @X[.[.|.|.|.|.|.'.-Xu.3.z { K.S.S.S.S.",
"I.I.Y.O.[ / Q s * o     X 5  X[.[.|.|.[.[.[.|.#Xa.eX9X5.N [ L.S.S.",
"S.S.[ , %.4.9.r.h.1.u o X 5 @X[.[.|.|.[.[.[.|.%Xi.z.v.M.b.f D.S.S.",
"S.S.` & c 0.tXrXrXrXf.$.y 5 @X[.|.@X@XXXR.E W S <.:X*X%X%XY X.S.S.",
"S.S.` X X * n t.5XwXg.k.6.Q >.T A 8 # $ .       R.'.[.[.[.A  .S.S.",
"S.S.^ X   X X > =.N.B.:X=XW.4 ,.{ _.- X X X     R.'.|.|.|.F X.S.S.",
"S.S.^ X X X X   D +X].[.[.!.j ;XS.I.-           V.'.|.|.|.F X.S.S.",
"S.S.^ X   X X   K |.[.[.'.R.g L.S.U.-           Z.|.|.[.|.A X.S.S.",
"S.S.{ X X X X X K  X|.[.'.E.g S.S.U.-           Q.|.[.|.|.A X.S.S.",
"S.S.L.` ; X X X K |.[.[.[.E.g S.S.U.- X X X     Q.|.[.|.|.A X.S.S.",
"S.S.S.S.K.) - X K &XXXW.} H j U.L.3X: X X X X X Q.|.[.|.|.A X.S.S.",
"S.S.S.S.S.S.F.J ; # $ .     t ;.d p u * X X X X R.'.[.|.|.A X.S.S.",
"S.S.S.S.S.S.S.K.4 @ > y x #.2.q.e.4X6Xw.n * X . A.+X[.'.|.A X.S.S.",
"S.S.S.S.S.S.S.X.= &.r.5XtXrXeXqXrXrXiXiXtX9.c & !.+X[. XoXZ X.S.S.",
"S.S.S.S.S.S.S.X.X * @.r.tXrXeXrXrXrXeXwX5Xj.i.-.o.U Z 9 9 e G.S.S.",
"S.S.S.S.S.S.S. .    X > $.r.j.p.a.n.N.B.1X(.*X&X6 [ D.K.K.L.S.S.S.",
"S.S.S.S.S.S.S. .X X X   o s :X*X X|.|.|.[.[.{. Xw ! K.S.S.S.S.S.S.",
"S.S.S.S.S.S.S.X.X X X X X 5 |.T.[.|. X|.|.'.'.%Xu.2.a ] K.S.S.S.S.",
"S.S.S.S.S.S.S.X.        X 5 @X`.[.[.[.|.[.[.[.%Xa.yXr.#.s  .L.S.S.",
"S.S.S.S.S.S.S.F.; X X   X 5 +X`.[.[.[.|.|.|.|.*Xi.z.0Xy.:.w D.S.S.",
"S.S.S.S.S.S.S.S.K.~ - X X 8 @X[.|.@X@XoX^.E.R L <.).(.*X%XD O.S.S.",
"S.S.S.S.S.S.S.S.S.S.F.J - 2 W.R L V 1 # $ . X X ~.|.[.[.|.F X.S.S.",
"S.S.S.S.S.S.S.S.S.S.S.S.F.C e C `  .% X X X X X Z.|.[.|.|.S O.S.S.",
"S.S.S.S.S.L.K.P.F.K.S.S.S.S.S.S.S.I.O           !.|.|.|.|.A O.S.S.",
"S.S.K./ h p y i x p { I.S.S.S.S.S.U.O X X X     !.|.|.|.|.A D.S.S.",
"S.S.[ , *.w.f.5X5X0.c d +.L.S.S.S.I.O X X X     !.|.|.|.|.A D.S.S.",
"S.S.^ o y 1.8XeXuXiX6X4.l G F.S.S.I.O           ~.|.|.|.|.A D.S.S.",
"S.S.^ X X o i 8.l.l.c.y.n.B r S.S.I.O   X X   . ~.`.|.|.|.A D.S.S.",
"S.S.~ X X   X & ( :X=X*X@XE.2 J h < > * X     . ~.`.|.|.|.A D.S.S.",
"S.S./ X X X X X K  X[.`.[.W.$.4.0.h.f.0.v @   . !.`.[.|.|.A D.S.S.",
"S.S.~ X   X X X L [.[.|.|.<Xg.qXrXrXiXiX5X7.l O ^.[. X X%XZ D.S.S.",
"S.S. .- X X X X K |.|.[.{.<XwXiXrXrXqXwX5Xk.y.( ,.T S 0 9 w H.S.S.",
"S.S.S.F.J % X   L |.|.|. X<Xv.v.a.n.m.N.<X:X>X,X5 ' X.F.K.L.S.S.S.",
"S.S.S.S.L.D.g X D W.>.T A Y 2X=X&X@X+X X[.[.|.+X9 K.S.S.S.S.S.S.S.",
"S.S.S.S.S.S.L.) . .     X 9 |.[.[.[.[.`.[.|.|.oX7 K.S.S.S.S.S.S.S.",
"S.S.S.S.S.S.S. .X       X 9 @X|.|.|.|.|.|.|.|.@X8 K.S.S.S.S.S.S.S.",
"S.S.S.S.S.S.S.D.; X X   X 9 |.`.`.[.[.[.[.|.|.OX9 K.S.S.S.S.S.S.S.",
"S.S.S.S.S.S.S.S.K.P -   X 0 |.[.|.|.@XoXXXE.>.U 3 U.S.S.S.S.S.S.S.",
"S.S.S.S.S.S.S.S.S.S.G.J - 9 /.E U Z 9 e 7 G P ' C.L.S.S.S.S.S.S.S.",
"S.S.S.S.S.S.S.S.S.S.S.L.D.r C P ] C.K.L.L.S.S.S.S.S.S.S.S.S.S.S.S.",
"S.S.S.S.S.S.S.S.S.S.S.S.S.S.S.S.S.S.S.S.S.S.S.S.S.S.S.S.S.S.S.S.S.",
"S.S.S.S.S.S.S.S.S.S.S.S.S.S.S.S.S.S.S.S.S.S.S.S.S.S.S.S.S.S.S.S.S."
};
