/* XPM */
static char *numbers_5[] = {
/* columns rows colors chars-per-pixel */
"35 50 219 2 ",
"   c #020206",
".  c #0C0206",
"X  c #02020A",
"o  c #090C0F",
"O  c #09070B",
"+  c #130205",
"@  c #180308",
"#  c #0C0B11",
"$  c #050D1B",
"%  c #010412",
"&  c #190B11",
"*  c #0D1213",
"=  c #121514",
"-  c #141A14",
";  c #181E18",
":  c #161A18",
">  c #270406",
",  c #25171C",
"<  c #371515",
"1  c #3C080E",
"2  c #1C241E",
"3  c #392F1B",
"4  c #372719",
"5  c #27311D",
"6  c #36341A",
"7  c #3A331B",
"8  c #3F3C1E",
"9  c #20211A",
"0  c #081427",
"q  c #1E1D23",
"w  c #0D122B",
"e  c #142326",
"r  c #192E33",
"t  c #193239",
"y  c #08223A",
"u  c #212325",
"i  c #272829",
"p  c #28362A",
"a  c #363A27",
"s  c #392A32",
"d  c #293834",
"f  c #35333A",
"g  c #312A2F",
"h  c #560F18",
"j  c #570D17",
"k  c #471519",
"l  c #55121A",
"z  c #59101A",
"x  c #67141F",
"c  c #452D1C",
"v  c #41391E",
"b  c #5F0F21",
"n  c #521520",
"m  c #681523",
"M  c #791726",
"N  c #622B3E",
"B  c #3A4929",
"V  c #3F532C",
"C  c #394536",
"Z  c #3C5333",
"A  c #434924",
"S  c #4A5529",
"D  c #485628",
"F  c #475934",
"G  c #404A3E",
"H  c #4A632C",
"J  c #4B6728",
"K  c #566C2D",
"L  c #50622B",
"P  c #57752C",
"I  c #4B6332",
"U  c #4E6836",
"Y  c #546C32",
"T  c #5C7A32",
"R  c #587633",
"E  c #617E34",
"W  c #173545",
"Q  c #173955",
"!  c #132C49",
"~  c #203C4A",
"^  c #113D61",
"/  c #592F4A",
"(  c #663F5F",
")  c #134259",
"_  c #345253",
"`  c #124366",
"'  c #134E71",
"]  c #155374",
"[  c #0E4B6C",
"{  c #2B5165",
"}  c #755174",
"|  c #8B192C",
" . c #82172A",
".. c #941D31",
"X. c #9B1C33",
"o. c #941729",
"O. c #A41D33",
"+. c #A91C34",
"@. c #BE1E3A",
"#. c #AA1B2C",
"$. c #95243A",
"%. c #AA263D",
"&. c #BD2036",
"*. c #B3233A",
"=. c #BB223B",
"-. c #C01E3B",
";. c #C11E34",
":. c #EC1B36",
">. c #E51D3C",
",. c #EC1A3B",
"<. c #EA1B3A",
"1. c #F01937",
"2. c #F2173C",
"3. c #F0193B",
"4. c #C42337",
"5. c #C9213D",
"6. c #D0243E",
"7. c #E1203E",
"8. c #8F3653",
"9. c #B72842",
"0. c #BF2D5F",
"q. c #BB325C",
"w. c #A82E4C",
"e. c #AA3D6C",
"r. c #B03B69",
"t. c #A83E70",
"y. c #DD1F41",
"u. c #E41E42",
"i. c #EC1A41",
"p. c #F01840",
"a. c #CA2849",
"s. c #D42543",
"d. c #DC2144",
"f. c #D7224A",
"g. c #C62C54",
"h. c #C33854",
"j. c #D73050",
"k. c #E22343",
"l. c #E82945",
"z. c #EB3453",
"x. c #E73A54",
"c. c #F1395B",
"v. c #E9384F",
"b. c #CF3D61",
"n. c #9D4979",
"m. c #824E7D",
"M. c #A04976",
"N. c #C64157",
"B. c #ED425B",
"V. c #E84153",
"C. c #F3415C",
"Z. c #F34060",
"A. c #5F8230",
"S. c #6E992E",
"D. c #668B34",
"F. c #698D34",
"G. c #638533",
"H. c #6D9533",
"J. c #6F9931",
"K. c #6E933D",
"L. c #709931",
"P. c #709639",
"I. c #709734",
"U. c #698F2F",
"Y. c #175B83",
"T. c #156488",
"R. c #156B9C",
"E. c #266B8D",
"W. c #127BA3",
"Q. c #5C5B81",
"!. c #625785",
"~. c #736B95",
"^. c #5A7BAA",
"/. c #557DB5",
"(. c #6273AA",
"). c #6A71A8",
"_. c #4A738F",
"`. c #885B86",
"'. c #945180",
"]. c #8E6590",
"[. c #9479A2",
"{. c #1985B5",
"}. c #1791BC",
"|. c #1B8DAF",
" X c #2E90B3",
".X c #4F87BA",
"XX c #1C92C4",
"oX c #1A9ACB",
"OX c #1596C8",
"+X c #199AD3",
"@X c #2A9DCD",
"#X c #3696C7",
"$X c #299ED8",
"%X c #3593D7",
"&X c #0EA8DD",
"*X c #1BA2D9",
"=X c #21A2DA",
"-X c #249EE3",
";X c #0DAAE5",
":X c #0BA7EC",
">X c #05ADEC",
",X c #0BABEC",
"<X c #0AA9E3",
"1X c #12ABE5",
"2X c #1CADEC",
"3X c #18A4E6",
"4X c #04ACF3",
"5X c #09A9F4",
"6X c #0CA7F1",
"7X c #0DB1ED",
"8X c #26B6EA",
"9X c #25BCF2",
"0X c #2BBEF0",
"qX c #36B4E9",
"wX c #448BC1",
"eX c #4C94CC",
"rX c #6097C1",
"tX c #4DAEE4",
"yX c #8189AE",
/* pixels */
"L.L.L.L.L.L.L.L.L.L.L.L.S.S.S.S.S.S.S.S.S.S.S.S.S.S.S.S.S.S.S.S.S.S.S.",
"L.L.L.L.L.L.L.L.L.L.L.L.S.S.S.S.S.S.S.S.S.S.S.S.S.S.S.S.S.S.S.S.S.S.S.",
"L.L.L.L.L.L.L.L.L.L.L.L.S.S.S.S.S.S.S.S.S.S.J.L.P.P.J.S.S.S.S.S.S.S.S.",
"L.L.L.L.L.L.L.L.L.L.L.L.S.S.S.S.L.H.A.Y U Z _ r { { r U J.S.S.S.S.S.S.",
"L.L.L.L.L.L.L.L.L.I.P.G.T U B p r W ) E. X X#XqX2X1XOX' p P J.S.S.S.S.",
"L.L.L.L.T U V C d W W ` Y.R.{.OX*X1X:X9X1X2X2X>X4X>X<X1X}.` d G.S.S.S.",
"L.L.L.L.e ~ E.{.XX*X1X>X>X,X1X9X2X0X8X8X8X8X&X>X,X3X-X%X.X~.( d S.S.S.",
"L.L.L.L.; $ ` XX>X>X>X,X5X4X>X1X0X*XqXtXeX/.(.].'.e.q.a.f.u.=.3 S.S.S.",
"L.L.L.L.-   X 0 ] oX1X3X$X#XrXyX[.].t.g.a.d.u.7.,.,.2.,.,.,.4.3 S.S.S.",
"L.L.L.L.;     X X 0 } r.0.b.j.y.B.x.l.,.,.i.,.2.1.:.,.,.,.,.4.3 S.S.S.",
"S.S.S.J.; X X X X & =.V.v.z.x.l.B.,.,.:.:.,.2.,.,.,.,.,.,.,.4.7 S.S.S.",
"S.S.S.S.-         , 9.x.c.l.C.C.l.,.,.,.,.,.,.,.2.2.,.,.,.u.*.a S.S.S.",
"S.S.S.S.-         & h.x.z.c.x.B.k.,.,.2.,.u.u.d.6.*... .m l k F S.S.S.",
"S.S.S.J.-       O s 9.B.j.l.i.l.s.6.%...M x l < c 8 S K T F.H.S.S.S.S.",
"S.S.S.J.- X X = : s N.x.x.,.,.M > > + . i E F.L.S.S.S.S.S.S.S.S.S.S.S.",
"S.S.S.J.- X q u u , h.l.>.2.,.n $ $ y Q Q r Y J.S.S.S.S.S.S.S.S.S.S.S.",
"S.S.S.J.- # i O # g =.>.>.2.u.!.}.oX&X<X<X}.[ d T J.S.S.S.S.S.S.S.S.S.",
"S.S.S.J.C i f d g & @.,.,.,.f.^.>X4X5X:X4X5X3X{.Q a D.S.S.S.S.S.S.S.S.",
"S.S.S.J.p X i O X . @.,.:.:.d.^.:X6X<X3X=X@XwX^.]./ S S.S.S.S.S.S.S.S.",
"S.S.S.J.G u i     . @.,.,.,.u.`.^.~.`.n.e.g.a.d.u.O.A S.S.S.S.S.S.S.S.",
"S.S.S.J.C s X     . @.,.,.,.,.u.d.,.i.,.,.,.,.,.>.w.! Z F.S.S.S.S.S.S.",
"S.S.S.J.p q #     . @.,.,.,.,.i.,.,.,.,.,.,.,.i.>.n.@XT.! F H.S.S.S.S.",
"S.S.S.J.= X X     . @.2.2.,.,.,.p.,.2.2.2.1.:.:.1.n.<X,X+X] u R S.S.S.",
"S.S.S.J.u X X X X . =.>.>.,.,.,.,.,.,.,.,.,.>.u.s.M..X/.(.`.8.a S.S.S.",
"S.S.S.S.D.B # X X + ;.2.2.,.,.,.u.d.6.=.O.| M j 1 m a.d.>.u.=.7 S.S.S.",
"S.S.S.S.S.S.G.a # + %.a.9.O.| m l k c 4 + . X X X k u.>.2.2.&.6 S.S.S.",
"S.S.S.S.S.S.S.J.E a < 4 v S K E F.H.J.J X X X     h ,.,.i.,.&.7 S.S.S.",
"S.S.S.S.S.S.S.S.S.J.H.J.S.S.S.S.S.S.S.J X X X X X j >.,.,.,.=.7 S.S.S.",
"S.S.S.S.S.S.S.S.S.S.S.S.S.S.S.S.S.S.S.J X X X X X j >.,.,.,.-.7 S.S.S.",
"S.S.S.S.S.S.S.S.S.S.S.S.S.S.S.S.S.S.S.J X X X X X h >.,.,.,.@.7 S.S.S.",
"S.S.S.S.S.S.S.S.S.S.S.S.S.S.S.S.S.S.S.J X X X X X h >.,.,.,.-.7 S.S.S.",
"S.S.S.S.S.S.S.S.S.S.S.S.S.S.S.S.S.S.S.J X X X X   l u.,.,.,.-.7 S.S.S.",
"S.S.S.S.S.S.S.S.S.H.J.J.S.S.S.S.S.S.S.S X X X X X h u.,.,.,.-.7 S.S.S.",
"S.S.S.S.D.R I Z d t r F H.S.S.S.S.S.S.J X X X X X h u.,.,.,.-.7 S.S.S.",
"S.S.S.J.2 Q E.{.OX*XXX' e U H.S.S.S.S.J X X X X X l ,.,.i.,.@.6 S.S.S.",
"S.S.S.J.= $ ] +X,X4X4X&X|.^ d H.S.S.S.J X X X X X h ,.,.i.,.@.6 S.S.S.",
"S.S.S.J.= . X 0 Y.+X1X3X=X#XQ.a H.S.S.J X X   X X l ,.,.i.,.@.6 S.S.S.",
"S.S.S.J.* % X   % y m.M.q.f.a.n U D Z p $ X   X X h ,.,.p.,.@.7 S.S.S.",
"S.S.S.J.O X X X X + @.i.,.2.l./ ' T.W.}.XX] 0 X . z d.,.,.,.&.7 S.S.S.",
"S.S.S.J.* X X X X + -.,.,.2.d.(.<X,X>X4X4X1X}.` $ b u.,.>.7.%.7 S.S.S.",
"S.S.S.J.i X X X X + -.,.:.,.f./.4X4X>X>X<X<X1X@X_.N X. .x k < B S.S.S.",
"S.S.S.S.H.D = X X @ 4.,.,.,.f.^.$X%XwX(.~.`.n.r.g.$.4 D K T H.J.S.S.S.",
"S.S.S.S.S.S.D.B O @ $.*... .x 8.q.g.f.d.u.i.p.>.,.X.S S.S.S.S.S.S.S.S.",
"S.S.S.S.S.S.S.S.D.9 @ + .   + O.i.2.,.:.:.2.2.:.,.X.D S.S.S.S.S.S.S.S.",
"S.S.S.S.S.S.S.S.J.5 X X X X + #.,.:.,.,.,.i.,.,.2.X.D S.S.S.S.S.S.S.S.",
"S.S.S.S.S.S.S.S.S.D O X X   + X.,.:.>.,.,.,.:.,.,...D S.S.S.S.S.S.S.S.",
"S.S.S.S.S.S.S.S.S.J.T 5 X X + X.,.:.,.,.u.s.=.+.o.l S S.S.S.S.S.S.S.S.",
"S.S.S.S.S.S.S.S.S.S.S.J.Y 2 O M X.| M l k 4 7 A J P H.S.S.S.S.S.S.S.S.",
"S.S.S.S.S.S.S.S.S.S.S.S.S.H.J 3 A D P G.U.J.S.S.S.S.S.S.S.S.S.S.S.S.S.",
"S.S.S.S.S.S.S.S.S.S.S.S.S.S.S.S.S.S.S.S.S.S.S.S.S.S.S.S.S.S.S.S.S.S.S."
};
