/* XPM */
static char *numbers_7[] = {
/* columns rows colors chars-per-pixel */
"32 50 190 2 ",
"   c #010206",
".  c #02020A",
"X  c #09020C",
"o  c #060B0B",
"O  c #090D0C",
"+  c #050A05",
"@  c #10020F",
"#  c #0C120D",
"$  c #131D0D",
"%  c #0C0212",
"&  c #0B0D11",
"*  c #040312",
"=  c #120314",
"-  c #190419",
";  c #160B19",
":  c #0D1111",
">  c #101613",
",  c #141C14",
"<  c #1A1719",
"1  c #281C1B",
"2  c #15230D",
"3  c #18270E",
"4  c #182117",
"5  c #1D2C12",
"6  c #1B2418",
"7  c #1E2A19",
"8  c #172313",
"9  c #212D15",
"0  c #2A291F",
"q  c #213315",
"w  c #26351B",
"e  c #2A361D",
"r  c #2C3C1D",
"t  c #253815",
"y  c #220D21",
"u  c #270F2D",
"i  c #251224",
"p  c #261129",
"a  c #2B122C",
"s  c #2A192A",
"d  c #261926",
"f  c #33122F",
"g  c #350F34",
"h  c #351033",
"j  c #3A1336",
"k  c #341238",
"l  c #35193A",
"z  c #272627",
"x  c #2D3A22",
"c  c #333926",
"v  c #2E2F34",
"b  c #39253A",
"n  c #40153D",
"m  c #45213E",
"M  c #2E411D",
"N  c #33461D",
"B  c #33491D",
"V  c #344521",
"C  c #3A4B24",
"Z  c #394428",
"A  c #3D5423",
"S  c #3F5921",
"D  c #3E4937",
"F  c #465D2A",
"G  c #44572D",
"H  c #404B38",
"J  c #4B622C",
"K  c #4F6C2A",
"L  c #4D6C27",
"P  c #516E2B",
"I  c #51632D",
"U  c #55742D",
"Y  c #5B7B2D",
"T  c #5D7D32",
"R  c #5A7634",
"E  c #637A3A",
"W  c #63773D",
"Q  c #3F2841",
"!  c #4B1946",
"~  c #4B1748",
"^  c #4D194C",
"/  c #471242",
"(  c #551F4F",
")  c #561951",
"_  c #472143",
"`  c #5F205B",
"'  c #4A354C",
"]  c #67245C",
"[  c #713C52",
"{  c #6B1F65",
"}  c #7E1E74",
"|  c #6A2164",
" . c #77266D",
".. c #7C2471",
"X. c #782872",
"o. c #7B3277",
"O. c #637943",
"+. c #6D6954",
"@. c #85336D",
"#. c #85297B",
"$. c #8B2B7E",
"%. c #802372",
"&. c #982D79",
"*. c #942E79",
"=. c #87337C",
"-. c #8F327C",
";. c #8A3873",
":. c #943971",
">. c #8A446C",
",. c #925868",
"<. c #8B4C70",
"1. c #984B71",
"2. c #976369",
"3. c #9A7665",
"4. c #926373",
"5. c #A27969",
"6. c #5E812D",
"7. c #5E8032",
"8. c #60842F",
"9. c #648A2F",
"0. c #6E992E",
"q. c #628335",
"w. c #668C32",
"e. c #688E33",
"r. c #688039",
"t. c #6B8B39",
"y. c #728F3E",
"u. c #6C9432",
"i. c #6E9931",
"p. c #709931",
"a. c #79903A",
"s. c #6F8B43",
"d. c #758F44",
"f. c #759443",
"g. c #789245",
"h. c #9BCE2F",
"j. c #9ACC34",
"k. c #96CE3B",
"l. c #9BCC3D",
"z. c #A08A5F",
"x. c #A3925B",
"c. c #8DAD4B",
"v. c #98B84F",
"b. c #9DBD56",
"n. c #A5A459",
"m. c #A9B355",
"M. c #AAB955",
"N. c #8B9D61",
"B. c #A38C61",
"V. c #A08763",
"C. c #A59D63",
"Z. c #8EAC62",
"A. c #92AC68",
"S. c #A7A060",
"D. c #A4B961",
"F. c #9CCA42",
"G. c #9DC54B",
"H. c #9BC647",
"J. c #9DC252",
"K. c #A1C543",
"L. c #A3C64C",
"P. c #A1C94C",
"I. c #A0C941",
"U. c #A6C058",
"Y. c #A71F94",
"T. c #8C2B82",
"R. c #872A81",
"E. c #932B85",
"W. c #9B2883",
"Q. c #9D258D",
"!. c #952A89",
"~. c #99298A",
"^. c #9D2485",
"/. c #8A3181",
"(. c #96368A",
"). c #9E2491",
"_. c #9F3795",
"`. c #A1238E",
"'. c #A02A8E",
"]. c #A12391",
"[. c #A42193",
"{. c #A12392",
"}. c #A12892",
"|. c #A53396",
" X c #A83A9A",
".X c #B03FA0",
"XX c #94408B",
"oX c #AE419E",
"OX c #A24696",
"+X c #B544A3",
/* pixels */
"p.p.p.p.p.p.p.p.p.p.i.0.0.0.0.0.0.0.0.0.0.0.0.0.0.0.0.0.0.0.0.0.",
"p.p.p.p.p.p.p.p.p.p.i.0.0.0.0.0.0.0.0.0.0.0.0.0.0.0.0.0.0.0.0.0.",
"p.p.p.p.p.p.p.p.p.p.i.0.0.0.0.0.0.i.e.6.L S M r U i.0.0.0.0.0.0.",
"p.p.p.p.p.p.p.p.p.p.p.u.Y K S N t 5 w C J E d.g.r r 7.0.0.0.0.0.",
"p.p.p.u.t.T K A M q 3 5 N J E f.c.J.H.F.l.k.l.l.H.s.q N w.0.0.0.",
"p.u.w 8 5 N J E f.c.H.P.F.l.l.j.l.l.F.I.l.l.l.l.l.L.D.+.z 6.0.0.",
"p.u.# H Z.P.l.j.j.j.l.l.l.l.l.l.l.K.K.L.U.m.S.B.3.2.,.>._ P 0.0.",
"p.u.# + # I v.F.F.F.H.K.L.M.m.C.V.3.2.1.:.&.W.~.Q.[.[.Q.^ P 0.0.",
"p.u.#   + + $ W C.V.3.4.<.;.-.&.W.Q.`.Q.Q.[.[.).).).[.Q.^ P 0.0.",
"p.u.#   + * + = @.^.Q.Q.Q.Q.[.[.[.[.[.Q.Q.[.`.Q.Q.Q.`.Q.^ P 0.0.",
"0.u.# + + +   - $.Y.).).).[.Q.Q.Q.Q.Q.Q.Q.[.[.).).).[.Q.^ K 0.0.",
"0.u.: + + + + - T.[.Q.Q.Q.Q.Q.Q.[.[.[.[.).).Q.[.).[.[.Q.^ K 0.0.",
"0.i.J > + + + - T.[.).).`.`.`.~.!.T.#. .| ) / } Q.Q.).Q.^ K 0.0.",
"0.0.0.e.A : + - =.!.T.#. .` ^ n f y = % X   + | `.Q.Q.Q.^ K 0.0.",
"0.0.0.0.0.9.V : l h s 0 c C J Y w.r + + + + + | Q.`.Q.Q.^ K 0.0.",
"0.0.0.0.0.0.0.8.Y w.u.i.0.0.0.0.0.r + + +   + | Q.Q.).Q.^ P 0.0.",
"0.0.0.0.0.0.0.0.0.0.0.0.0.0.0.0.0.r + + +   + { ).).).Q.~ P 0.0.",
"0.0.0.0.0.0.0.0.0.0.0.0.0.0.0.0.0.w + + +   X { ).).).Q.~ P 0.0.",
"0.0.0.0.0.0.0.0.0.0.0.0.0.0.0.0.0.w + +     + { Q.Q.).Q.~ P 0.0.",
"0.0.0.0.0.0.0.0.0.0.0.0.0.0.i.u.u.w + +     + | Q.Q.).Q.! P 0.0.",
"0.0.0.0.0.0.0.0.0.0.0.0.K x q 8 5 V e + + + + { Q.Q.`.^.! P 0.0.",
"0.0.0.0.0.0.0.0.0.0.0.0.7 c N.b.L.F.H.s.5 + X { Q.Q.Q.W.^ P 0.0.",
"0.0.0.0.0.0.0.0.0.0.0.0.6 + 5 t.H.k.F.F.b.O.< ] ~.!.$.X.k P 0.0.",
"0.0.0.0.0.0.0.0.0.0.0.i.6 + + + w f.M.m.n.B.4.m k a z c C 9.0.0.",
"0.0.0.0.0.0.0.0.0.0.0.0.6 +   + * % [ -.!.W.!.k U u.0.0.0.0.0.0.",
"0.0.0.0.0.0.0.0.0.0.0.0.6 +       = X.`.`.`.Q.j T 0.0.0.0.0.0.0.",
"0.0.0.0.0.0.0.0.0.0.0.i.6 + + + + %  .[.Q.).!.k T 0.0.0.0.0.0.0.",
"0.0.0.0.0.0.0.0.0.0.0.i.6 + + + + % ..`.Q.`.Q.h T 0.0.0.0.0.0.0.",
"0.0.0.0.0.0.0.0.0.0.0.i., + + + + % ..Q.Q.Q.~.h T 0.0.0.0.0.0.0.",
"0.0.0.0.0.0.0.0.0.0.0.i., + + + + % ..Q.Q.Q.~.h 7.0.0.0.0.0.0.0.",
"0.0.0.0.0.0.0.0.u.0.i.u.< + +     X ..Q.Q.`.~.k 7.0.0.0.0.0.0.0.",
"0.0.0.0.0.0.0.0.u.u.e.7.<     + + % ..Q.Q.`.~.k 7.0.0.0.0.0.0.0.",
"0.0.0.0.0.0.i.A w 2 5 r G x + + + % ..`.Q.Q.~.f 7.0.0.0.0.0.0.0.",
"0.0.0.0.0.0.i., D A.J.H.F.H.y.9   % %.[.Q.Q.!.k 7.0.0.0.0.0.0.0.",
"0.0.0.0.0.0.i.: + 2 t.F.l.k.j.J.O.1 X.!.$...] y 7.0.0.0.0.0.0.0.",
"0.0.0.0.0.0.i.O   + + 9 a.m.n.x.5.,.j i 1 0 Z F u.0.0.0.0.0.0.0.",
"0.0.0.0.0.0.i.O + +     = @.*.!.Q.!.a q.i.i.0.0.0.0.0.0.0.0.0.0.",
"0.0.0.0.0.0.u.O   + + + = $.).`.Q.!.p w.0.0.0.0.0.0.0.0.0.0.0.0.",
"0.0.0.0.0.0.i.+       + = $.[.Q.'.(.p w.0.0.0.0.0.0.0.0.0.0.0.0.",
"0.0.0.0.0.0.i.+       + = T.).Q.+X(.a w.0.0.0.0.0.0.0.0.0.0.0.0.",
"0.0.0.0.0.0.u.+         % $.|. XoXOX' w.0.0.0.0.0.0.0.0.0.0.0.0.",
"0.0.0.0.0.0.i.+       + % (..X_.oXOXQ e.0.0.0.0.0.0.0.0.0.0.0.0.",
"0.0.0.0.0.0.i.+   + + v b (.|.!.+X!.u e.0.0.0.0.0.0.0.0.0.0.0.0.",
"0.0.0.0.0.0.u.O + + + < b =. X+X|.!.u w.0.0.0.0.0.0.0.0.0.0.0.0.",
"0.0.0.0.0.0.i.: + & v v s OX XQ.).!.i w.0.0.0.0.0.0.0.0.0.0.0.0.",
"0.0.0.0.0.0.0.8.w z & & b /.}.).[.!.a e.0.0.0.0.0.0.0.0.0.0.0.0.",
"0.0.0.0.0.0.0.0.i.q.x d l o.R.X.{ ( ; e.0.0.0.0.0.0.0.0.0.0.0.0.",
"0.0.0.0.0.0.0.0.0.0.i.R 6 i d z Z F U i.0.0.0.0.0.0.0.0.0.0.0.0.",
"0.0.0.0.0.0.0.0.0.0.0.0.u.u.i.i.0.0.0.0.0.0.0.0.0.0.0.0.0.0.0.0.",
"0.0.0.0.0.0.0.0.0.0.0.0.0.0.0.0.0.0.0.0.0.0.0.0.0.0.0.0.0.0.0.0."
};
