/* XPM */
static char *police[] = {
/* columns rows colors chars-per-pixel */
"43 50 217 2 ",
"   c #040405",
".  c #080505",
"X  c #060905",
"o  c #0B0B05",
"O  c #060509",
"+  c #080609",
"@  c #0B0A0B",
"#  c #17130E",
"$  c #0A0B13",
"%  c #0D0E1A",
"&  c #100E15",
"*  c #0F111F",
"=  c #0E1017",
"-  c #151514",
";  c #1B1511",
":  c #1B1D14",
">  c #1B1A1C",
",  c #10121B",
"<  c #10100A",
"1  c #231C15",
"2  c #1A220F",
"3  c #1C2514",
"4  c #1E2716",
"5  c #27271A",
"6  c #2F3B1C",
"7  c #243218",
"8  c #39361B",
"9  c #121323",
"0  c #191C2C",
"q  c #171827",
"w  c #1B1D33",
"e  c #1A1F38",
"r  c #0F1020",
"t  c #1D223C",
"y  c #1E2537",
"u  c #2E2E2E",
"i  c #242424",
"p  c #382D22",
"a  c #2D3029",
"s  c #353B25",
"d  c #242537",
"f  c #303031",
"g  c #363B38",
"h  c #2D3A3F",
"j  c #492D18",
"k  c #46382A",
"l  c #553D29",
"z  c #37481F",
"x  c #374621",
"c  c #3C4C27",
"v  c #3F5525",
"b  c #3F5028",
"n  c #354439",
"m  c #43561E",
"M  c #445728",
"N  c #594A37",
"B  c #515136",
"V  c #795836",
"C  c #66523A",
"Z  c #4B632A",
"A  c #4C6527",
"S  c #5E7C2E",
"D  c #56732D",
"F  c #536937",
"G  c #587438",
"H  c #49613F",
"J  c #607C2F",
"K  c #1E2542",
"L  c #1F2846",
"P  c #232643",
"I  c #242943",
"U  c #262B4B",
"Y  c #2A2D4C",
"T  c #313845",
"R  c #292D52",
"E  c #282E57",
"W  c #2C325C",
"Q  c #2D3153",
"!  c #35385B",
"~  c #2D374D",
"^  c #2E3563",
"/  c #2F3868",
"(  c #323665",
")  c #333966",
"_  c #313768",
"`  c #33396A",
"'  c #333C72",
"]  c #394452",
"[  c #3C4166",
"{  c #3A437B",
"}  c #3C4674",
"|  c #42445C",
" . c #555355",
".. c #494645",
"X. c #695849",
"o. c #5C794D",
"O. c #5B7750",
"+. c #506750",
"@. c #7E6847",
"#. c #786649",
"$. c #7D6B53",
"%. c #607C53",
"&. c #647751",
"*. c #474866",
"=. c #46566B",
"-. c #414675",
";. c #465475",
":. c #515F6E",
">. c #506367",
",. c #5C7361",
"<. c #4E6562",
"1. c #6B6576",
"2. c #845F31",
"3. c #87653E",
"4. c #937D5A",
"5. c #9B7C55",
"6. c #8F744C",
"7. c #65872E",
"8. c #6E9B27",
"9. c #6C942E",
"0. c #6E9A29",
"q. c #70992B",
"w. c #668930",
"e. c #6A8D34",
"r. c #698838",
"t. c #6D9234",
"y. c #6F9831",
"u. c #6E953A",
"i. c #719634",
"p. c #719932",
"a. c #779837",
"s. c #718E3D",
"d. c #6C8A44",
"f. c #799745",
"g. c #78874F",
"h. c #889E3E",
"j. c #A68A3D",
"k. c #B38E3D",
"l. c #D9AE30",
"z. c #DDB330",
"x. c #E9B926",
"c. c #E9B82A",
"v. c #E9B72A",
"b. c #E1B539",
"n. c #8A9D42",
"m. c #9A815C",
"M. c #BD924B",
"N. c #A58B55",
"B. c #96A14A",
"V. c #95A14A",
"C. c #AAA557",
"Z. c #B4A45D",
"A. c #BBA15D",
"S. c #A1A14F",
"D. c #9C8969",
"F. c #988A74",
"G. c #B89765",
"H. c #AB9370",
"J. c #B9A563",
"K. c #BBA473",
"L. c #D1AC45",
"P. c #D5B04A",
"I. c #C2A047",
"U. c #CBA96A",
"Y. c #C7A769",
"T. c #D2AC6D",
"R. c #C4A574",
"E. c #C5A874",
"W. c #CAAB78",
"Q. c #D3AD73",
"!. c #D1AF7C",
"~. c #D6B273",
"^. c #DBB475",
"/. c #DCB579",
"(. c #DEB97C",
"). c #D4B079",
"_. c #D3B072",
"`. c #E3BB79",
"'. c #E1B976",
"]. c #C69951",
"[. c #E7C27D",
"{. c #3B4482",
"}. c #3E498B",
"|. c #3E4889",
" X c #424C8C",
".X c #424B83",
"XX c #4B569A",
"oX c #4D589D",
"OX c #4A5494",
"+X c #474F8E",
"@X c #766E84",
"#X c #7C7F99",
"$X c #4F5AA1",
"%X c #515DA4",
"&X c #5663AB",
"*X c #5865AD",
"=X c #5664A8",
"-X c #5D6AB5",
";X c #5A67B3",
":X c #6971A9",
">X c #626EBC",
",X c #6471BC",
"<X c #6A70B6",
"1X c #6471C2",
"2X c #8B8A8B",
"3X c #8A869A",
"4X c #BDA585",
"5X c #BBBAB8",
"6X c #C1A787",
"7X c #D9BB86",
"8X c #E4BD80",
"9X c #E7C182",
"0X c #EBC684",
"qX c #E4C58B",
"wX c #EAC689",
"eX c #E5C490",
"rX c #C7C5C4",
/* pixels */
"0.0.8.0.0.0.0.0.8.0.0.0.0.0.0.0.0.0.0.0.q.0.0.0.0.0.0.0.0.0.0.0.0.0.0.0.0.0.0.0.0.0.0.",
"0.0.0.0.0.0.0.0.0.0.0.0.0.0.0.0.0.0.0.0.0.q.0.0.0.0.0.0.0.0.0.0.0.0.0.0.0.0.0.0.0.8.0.",
"0.0.0.0.0.0.0.8.0.0.0.0.0.0.0.0.0.0.0.0.J 6 6 6 6 6 6 6 c y.0.0.0.0.0.0.0.0.0.0.0.0.0.",
"0.0.0.0.0.0.0.0.0.0.0.0.8.0.0.0.0.0.Z Z M O q q q O     < Z Z D 0.0.0.0.0.0.0.0.0.0.0.",
"0.0.0.0.0.0.8.0.0.0.0.0.0.0.8.t.r.r.X $ $ $ ! _ W $ $ @ @ $ @ 6 e.0.0.0.0.0.0.0.0.8.0.",
"8.0.0.8.0.0.0.0.0.0.0.0.0.0.y.5     O P ( ! ( ( _ ( ( t $ ^ 9   X f.y.0.8.8.0.0.0.0.0.",
"0.0.0.q.0.0.0.0.0.0.0.0.0.w.2 @ 9 R E W  .I.| ( ` ( _ W E _ 9 = d 4 3 x 0.0.8.0.0.0.0.",
"0.0.0.0.8.0.0.0.0.0.0.9.D x . w U ` ) $.k.v.j. .` ( _ ) ) _ U L Y e = - x t.8.8.0.0.0.",
"0.0.0.0.0.0.0.0.0.0.0.S s + 9 E _ ^ ! k.x.x.x.6.` ( ( ( ( ( _ ( E R w =   F 7.8.0.0.0.",
"0.0.0.8.0.0.0.0.0.0.y.: + % ( _ _ _ ^ N.l.l.l.@.` ( ( ( _ ( ( ( _ E R d O O b 9.0.0.0.",
"0.0.0.0.0.0.0.0.0.0.y.: w ) ( _ ( _ ) q o o o d [ ( ( ( ` ( ` ( ^ _ w % Y Y 0 5 i.8.0.",
"0.0.0.0.0.0.0.0.0.0.y.: w ( ( w * * * $ @ 1 . $ 9 * r t ( ( _ ` _ _ R P R 9 $ 2 q.0.0.",
"0.8.0.0.0.0.0.0.D Z F M g y e $ @ - : - q a : - > -   % P W W W W ^ E U 0 + 5 Z 0.0.0.",
"0.0.0.0.0.0.0.q.x @ a d.c     @ > u u f f u u u f u & + $ P Y P P P P d   4 A 0.0.0.0.",
"0.0.0.0.8.0.0.0.x < u @       i u u u f f u u u f u u > .   + O   O X O   d.0.0.0.0.0.",
"8.0.0.0.8.0.0.0.x & u +         +   O + + .     @ . .       . ; j j 1     @ M 0.0.0.0.",
"0.0.8.q.B.C.C.C.B < u F 6 O   O X       5 4.4.4.6.  .   .     o 1 ; # 1 4.; 3 M 0.0.0.",
"0.0.q.A N.T.~.Q.l @ u u.b      ...      k wX0X0XR.O  .g O   + 1 N C j k eX#.p 2 0.0.0.",
"8.8.t.@ m.^.0X'.C : s i.v + ; 5X2X    < l [.[.0X6X; rX2XO   ; N 0XwX6.V 0X7X#.: 0.0.0.",
"0.0.i.o 5.T.^.'.W.J.i.0.M 1 eXs . .   D.'.].[.[.wXqX5 . . O D.wX0X0XwXwX/.1 O : t.0.0.",
"0.0.0.r.Z.~.[.0XQ.Z.0.0.v 1 qXW.E.E.R.8X^.M.].T.0X0XW.E.E.E.`.0XwXwX8XG.5 @ c t.0.0.0.",
"0.0.8.q.Z.~.0X0X/.J.0.q.v - #.!.0X0XqXG.6.2.2.6.5.6.(.0X0XwX0X0X`.`.N.C   M S 0.0.0.0.",
"8.0.0.q.Z.~.0X0X~.J.n.q.Z 7   6.R.0X0X2.l 2.V V V j Q.0X0X0X8X).m.m.B 7 7 e.0.8.0.0.0.",
"0.0.8.q.Z.~.0X0X^.E.R.n.u.r.O   C qX0X3.V 0X0X0X^.j Q.0X0XwX8X5.  . F 0.0.0.0.0.0.0.0.",
"0.0.0.0.Z.~.0X0X0X6X-.} } =.u.3 + : qX9X9X0X0X0X0X`.9X0X0X/.l +   ` &.0.y.0.0.0.0.0.0.",
"0.0.0.0.h.C._.0X0X4X} {.{ } :.[ e O k H.(.(.[.`.`.`.^./.Q.k - 0 +X{.:.:.<.d.0.0.0.0.0.",
"0.0.0.0.0.V.U.^.9X4X{ oXoX$XoXoX.XQ O N @.@.#.@.6.@.@.6.#.+ I -.>X$XoXOX{ ,.O.o.0.0.0.",
"0.0.8.0.0.n.Y.U.(.4X{ -X1X,X1X,X,X>X9 9 9 = * = % % r - 1 , OX1X1X1X1X>X}. X{.=.u.0.0.",
"0.0.8.q.0.0.p.Y.U.H.{ >X1X1X1X1X1X1X,X,X1X,X,XoX}.,X<XF.P.:X,X,X1X1X1X1X1X1X$X=.u.8.8.",
"0.0.0.0.0.8.0.a.a.g.} }.|.}.|.-X&X}.1X1X1X1X1X$X}.<XY.b.v.P.3X*X|.>X1X1X1X1X>X;X;.d.8.",
"0.0.0.8.0.0.8.0.0.d.%.O.%.O.{ OX+X{.;X,X1X1X1X$X+X<XP.c.x.c.2X*X{.XX$X%X1X$XoXXX{ d.8.",
"0.8.0.0.0.0.0.0.0.0.0.0.y.u.<.<.=.{.=X>X1X1X1X$X}.,XH.A.A.G.#X&X{ :.;. X*X@X@X@X1.u.0.",
"0.0.0.0.0.0.0.0.0.q.q.0.0.0.0.0.o.|.=X-X1X1X1XXX}.1X1X1X1X,X>XoX} f.,.-.-.7X0X9XY.h.q.",
"0.0.0.0.0.0.0.0.0.8.0.8.0.0.0.0.o.{.%X-X1X1X1X$X}.1X1X1X1X,X*XOX-.K.R.Q.qXwX0X9XY.n.q.",
"0.0.0.8.q.8.0.0.0.0.0.0.8.0.8.0.o.{ =X*X;X=X*X+X|.=X&X*X*X*X=XoX-.R.^.8X0XwX'._.Y.h.q.",
"0.0.0.0.8.0.0.0.0.8.0.0.0.9.M m n Q [ [ [ [ F.m.m.F.*.[ [ [ [ ) ~ ).[.0X0X`.~.Y.B.a.0.",
"0.0.0.8.0.0.0.0.0.0.0.0.8.7.    @ > > > q : l.x.x.c.8 > > > 1 > 1 8X0X0X0X_.Y.C.q.0.0.",
"0.0.0.0.0.0.0.0.8.0.0.0.0.w.    @ > > > > 2 L.b.b.b.8 > > > q > > 7X[.0X0X_.S.q.0.0.0.",
"8.0.0.0.0.0.0.0.0.0.0.0.8.7.    * K ( / ` ) [ ] [ ] ` ` _ _ ) W d R.Y.T.U.n.p.8.0.0.0.",
"0.0.0.0.0.0.0.8.0.0.0.8.8.7.  9 K ^ ` ' } ' ' ' } ' ' ' ' ' ' ^ d  .$.h.h.q.8.8.0.0.8.",
"0.8.0.0.0.0.0.0.0.0.0.0.0.7.  w E ' ' ' ' ' / / / W / ' ' ' ' / R P G 0.0.0.0.0.0.0.0.",
"0.0.0.0.0.0.0.0.0.0.0.0.8.7.  t E ' ' ' ' ' ^ ~ T h W ^ ' ' ' ' ' t +.0.0.0.0.0.0.0.0.",
"0.0.0.0.0.0.0.8.0.0.0.0.0.r.y ^ / ' ' ' ' ^ t F 0.u.n L / ' ' ' / K G 0.8.0.0.0.0.0.0.",
"0.0.0.0.0.8.0.0.0.8.0.0.0.e.t / ' } ' ` ^ K d.9.0.0.7.+.U ^ / } ` L G 0.0.0.0.0.0.0.0.",
"0.0.8.0.0.0.0.0.0.0.0.0.0.e.t / ' / / W ] G y.0.0.0.0.w.+.U ( ' ' K G 0.0.0.0.0.0.8.0.",
"0.0.0.0.0.0.0.0.0.0.0.0.w.G 0 U R R U ] +.0.0.0.0.0.0.0.e.0 U R R y H S 0.0.0.0.0.0.0.",
"0.0.0.0.0.0.0.0.0.0.0.t.b           X A 8.8.0.0.0.0.0.0.e.  O         4 0.p.8.0.0.0.0.",
"8.0.0.0.0.0.0.0.0.0.y.3 X X         X D 8.8.0.0.0.0.0.0.e.  O     O   O X t.8.0.8.0.0.",
"0.0.0.0.0.0.0.0.0.0.0.7.S S S S S S S 9.0.0.0.0.0.0.0.0.0.S S S S S S S S 0.0.0.0.0.0.",
"0.0.0.0.0.8.0.0.0.8.0.0.0.0.0.0.0.0.0.0.0.0.0.0.0.0.0.0.0.0.0.0.0.8.0.0.0.0.0.0.0.0.0."
};
