/* XPM */
static char *result[] = {
/* columns rows colors chars-per-pixel */
"87 87 127 2 ",
"   c black",
".  c #13100F",
"X  c #0F100F",
"o  c #FEFEFD",
"O  c #040303",
"+  c #161616",
"@  c gray21",
"#  c white",
"$  c #020101",
"%  c #070606",
"&  c #1D0101",
"*  c #0B0A0A",
"=  c #FBFBFB",
"-  c #292928",
";  c #7B7B7B",
":  c #6F6F6F",
">  c #F5BFAF",
",  c #2B0000",
"<  c gray97",
"1  c #3B3A3A",
"2  c #1F1D1C",
"3  c #B1B1B1",
"4  c #F3BFB0",
"5  c #D8D8D8",
"6  c #A09F9F",
"7  c #5B5B5B",
"8  c #DDAD9F",
"9  c #3F3F40",
"0  c #1C1B1A",
"q  c #A4A4A4",
"w  c #4C4C4C",
"e  c #BAB9B9",
"r  c #280000",
"t  c #3E0101",
"y  c #292120",
"u  c #510201",
"i  c #EEBCAC",
"p  c #999897",
"a  c #F7C2B2",
"s  c #390000",
"d  c #FAC4B5",
"f  c #FDF8F7",
"g  c #939494",
"h  c gray91",
"j  c #F3F4F3",
"k  c #626262",
"l  c #1D1716",
"z  c #F9F9F9",
"x  c #9B9B9B",
"c  c #565656",
"v  c gray75",
"b  c #C8C8C8",
"n  c #B7B7B7",
"m  c #E1E1E1",
"M  c gray90",
"N  c #550000",
"B  c gray70",
"V  c #0D0403",
"C  c #6C6C6B",
"Z  c #9E7A71",
"A  c #300000",
"S  c gray28",
"D  c #450000",
"F  c gray77",
"G  c #FDD5CA",
"H  c #7C0000",
"J  c #D3D4D3",
"K  c #300203",
"L  c gray18",
"P  c #BBBBBB",
"I  c #DDDDDD",
"U  c gray81",
"Y  c gray89",
"T  c #898989",
"R  c #848484",
"E  c #515051",
"W  c #260304",
"Q  c #FDFCFC",
"!  c #A50000",
"~  c #BB9488",
"^  c gray15",
"/  c #F1DFDB",
"(  c #EFEFEF",
")  c #160000",
"_  c #6A6564",
"`  c #FBCFC3",
"'  c #F8DAD3",
"]  c gray67",
"[  c gray56",
"{  c #5A0000",
"}  c #A98679",
"|  c #F8C3B3",
" . c #FCC8B9",
".. c #710000",
"X. c #352E2D",
"o. c #222222",
"O. c #FDE5DD",
"+. c #E9B9A7",
"@. c #F9F5F1",
"#. c #BF9F95",
"$. c #D5A797",
"%. c #747474",
"&. c #8B8B8B",
"*. c #E7CBC3",
"=. c gray93",
"-. c #CDA193",
";. c #D1B3A7",
":. c gray68",
">. c #D1A79B",
",. c #7E625A",
"<. c #604C44",
"1. c #E5DDD9",
"2. c #F3CBBF",
"3. c #C3BBB9",
"4. c #8D7872",
"5. c #7E6058",
"6. c #CFB3AD",
"7. c #AB8B81",
"8. c #483632",
"9. c #FFEDE7",
"0. c #767676",
"q. c #97746A",
"w. c #896A62",
"e. c #5A4640",
"r. c #AB877A",
"t. c #74564E",
"y. c #4C0200",
/* pixels */
"# # # # # # # # # # # # # # Q Q Q f f f f f # # # # # # # # # # # # ( ( m m m j j j # # # # # # # # # # # # # # # # # # # # # # # # # # # # # # # # # # # # # # # # # # # # # ",
"# # # # # # # # # # # # # # Q Q o f f f f f # # # # # # # # # # # # ( ( m m I j ( j # # # # # # # # # # # # # # # # # # # # # # # # # # # # # # # # # # # # # # # # # # # # # ",
"# # # # # # # # # # # # # # Q Q f f f f f f o # # # # # # # # # # # ( ( m I m j j j o # # # # # # # # # # # # # # # # # # # # # # # # # # # # # # # # # # # # # # # # # # # # ",
"# # # # # # # # # # # o o o G ` G ` ` ` ` ` *.*.*.3.3.3.1.1.1.' ' ' ' ' / / / @.@.@.# # # # # # # # # # # # # # # # # # # # # # # # # # # # # # # # # # # # # # # # # # # # # ",
"# # # # # # # # # # # o # o ` G ` ` ` ` ` ` *.*.*.3.3.3.1.1.1.' ' ' ' ' / / / @.@.@.# # # # # # # # # # # # # # # # # # # # # # # # # # # # # # # # # # # # # # # # # # # # # ",
"# # # # # # # # # # # o o # ` G ` ` ` ` `  .*.*.*.3.3.3.1.1.5 ' ' ' ' ' / / / @.@.@.# # # # # # # # # # # # # # # # # # # # # # # # # # # # # # # # # # # # # # # # # # # # # ",
"# # # G G G O.O.o # # # # # O.O.O. . . .} } y y y t.t.t.i 4 > > > > a a 8 8 8 G G G f f f # # # # # # # # # # # # # # # # # # # # # # # # # # # # # # # # # # # # # # # # # # ",
"# # # G G G O.O.# # # # # # O.O.O.`  . .} } y s y t.t.t.> i 4 a a a a a 8 8 8 G G G f @.f # # # # # # # # # # # # # # # # # # # # # # # # # # # # # # # # # # # # # # # # # # ",
"< < < #.#.#.4 > ;.;.;.Q o o # o # 9.9.9.e.e.8.8.8.> i i d d d 4 4 i q.q.y y y | | | 2.2.2.e e e # # # # # # # # # # # # # # # # # # # # # # # # # # # # # # # # # # # # # # # ",
"< j < #.#.#.> 4 ;.;.;.Q Q Q # # o 9.9.9.e.e.8.8.8.i > > d d d i 4 4 q.q.o.y o.d d | 2.2.2.e n e # # # # # # # # # # # # # # # # # # # # # # # # # # # # # # # # # # # # # # # ",
"< < < #.#.#.4 > ;.;.;.Q Q o # # # 9.9.9.e.e.8.8.8.> i i d d  .4 i 4 4.q.y 2 y | d d 2.2.2.n e e o # # # # # # # # # # # # # # # # # # # # # # # # # # # # # # # # # # # # # # ",
"B B B i i i | a -.-.-.4.4.4.=.=.=.# o o p p 8 8 8 a a a 8 8 8 0 2 0 ~ ~ i i i 8 8 8 4 4 > Z q.Z R R R o o # # # # # # # # # # # # # # # # # # # # # # # # # # # # # # # # # # ",
"B n B i i i | | -.-.-.4.4.4.=.=.h # # # p p 8 8 8 a a a 8 $.8 0 2 0 ~ ~ i i i 8 8 8 4 4 a Z Z Z R R R o # # # # # # # # # # # # # # # # # # # # # # # # # # # # # # # # # # # ",
"n B n i i i d a -.-.-.4.4.4.=.=.=.# # # p p 8 8 8 a a | $.8 8 0 2 l ~ ~ i i +.8 8 8 4 a 4 q.Z q.R R R o o # # # # # # # # # # # # # # # # # # # # # # # # # # # # # # # # # # ",
"I I I 4 4 4 _ _ <.e.<.- L - ^ o.^ 3 3 3 ' / $.>.>.> > > } } } 7.7.7.d d i > 4 * * X . . + i +.i @ 1 1 q q Q Q Q # # # # # # # # # # # # # # # # # # # # # # # # # # # # # # # ",
"I I I > 4 4 t._ <.<.<.- L - ^ ^ ^ :.3 3 / / >.>.>.> > 4 } } } 7.7.7.d d > i > . . . l . + +.i +.1 @ 1 6 q Q o Q # # # # # # # # # # # # # # # # # # # # # # # # # # # # # # # ",
"I I I > > 4 _ _ <.<.<.L - L ^ ^ ^ 3 3 3 / / >.>.-.> 4 4 } } } 7.7.7.d d > > > * . * . l . i +.i @ 1 @ q 6 Q Q Q # # # # # # # # # # # # # # # # # # # # # # # # # # # # # # # ",
"# # # : : : 9 1 % % % e e e + l + 0 l l C C 6.6.6.a > a 4 4 4 $.$.$.r.r.. . . . V . 5.5.5.8 8 8 O $ $ * * M M M # # # # # # # # # # # # # # # # # # # # # # # # # # # # # # # ",
"# # # : : : 9 9 % % % e e e 0 0 + 0 0 0 C : ;.6.6.> a > > 4 4 $.$.$.r.r.. ) . V . V 5.5.5.8 8 8     O * * M M M # # # # # # # # # # # # # # # # # # # # # # # # # # # # # # # ",
"# # # : : : 1 9 % % % e e e + 0 + 0 l 0 C C 6.6.6.a a a 4 > 4 $.$.$.r.r.. . . . * * ,.5.5.8 8 8     O * * M M M # # # # # # # # # # # # # # # # # # # # # # # # # # # # # # # ",
"# # # z z z k k ^ ^ ^       + + + ^ ^ ^ + + 1 @ 1 w.w.w.i i i > 4 4 ~ ~ . . . ~ ~ ~ d | | Z Z Z W r r K K 3 3 3 o o o # # # # # # # # # # # # # # # # # # # # # # # # # # # # ",
"# # # z = z k k o.^ ^   O $ + + + ^ ^ ^ + X 8.1 1 w.w.w.i i i > > i ~ ~ l . l ~ ~ ~ | | a Z Z Z r r r K K 3 B 3 o o o # # # # # # # # # # # # # # # # # # # # # # # # # # # # ",
"# # # # # # # # %.: %.X X X w w w ; ; ;     : : C O O O ,.,.5.+.+.+.a > 4 4 > > > > Z Z Z 0 l l D D D , , p p p z z z # # # # # # # # # # # # # # # # # # # # # # # # # # # # ",
"# # # # # # # # %.: %.X X X w w w ; ; ;     : : : % O O ,.,.,.+.+.+.a | 4 4 4 > > > Z } Z l l l t D D K , g g p z z z # # # # # # # # # # # # # # # # # # # # # # # # # # # # ",
"# # # # # # # # %.%.: X X . w w w ; 0.;     : : : O O % ,.,.,.+.+.+.a | 4 4 4 > > > Z Z Z l l l D D D , , p p g z z z # # # # # # # # # # # # # # # # # # # # # # # # # # # # ",
"# # # # # # # # o # # b b b @ @ @ X X X     g g g         $ $ l l l X.X.2 2 2 X * . * * V O O $ & & & V V R R R < < < # # # # # # # # # # # # # # # # # # # # # # # # # # # # ",
"# # # # # # # # # # # b b F @ @ @ X X X     g [ g             l l l X.X.l y l . X * V * *   $ $ & & & V V R ; R < < < # # # # # # # # # # # # # # # # # # # # # # # # # # # # ",
"# # # # # # # # # # # F b b @ @ @ X X X     [ g g           O l 2 W X.X.y l y * . X % % V       & r & V V R R R < < < # # # # # # # # # # # # # # # # # # # # # # # # # # # # ",
"# # # # # # # # # # # # # # < < < x 6 x @ L * * % $ $ $       O V V & &   $ $       7 7 7 j j j 6 6 6 O $ E c E o o o # # # # # # # # # # # # # # # # # # # # # # # # # # # # ",
"# # # # # # # # # # # # # # < j < 6 x 6 L @ * % * $ $ $     $ $     ) &           O 7 k 7 j j j 6 q 6 O % E c c o o o # # # # # # # # # # # # # # # # # # # # # # # # # # # # ",
"# # # # # # # # # # # # # # < < < x 6 x @ L * * % $ $ $       $ $ $ & )             7 7 k j j j 6 q 6 O O c E c o # o # # # # # # # # # # # # # # # # # # # # # # # # # # # # ",
"# # # # # # # # # # # # # # # # # # # # z z 5 J 5 3 3 3 $ $ $ $ V   s s           $ 1 1 1 h h h w w w $ $ + l + # # # # # # # # # # # # # # # # # # # # # # # # # # # # # # # ",
"# # # # # # # # # # # # # # # # # # # # z = 5 5 J 3 3 3 $ $ $ O $ $ s A             1 1 1 h h h E w w O $ + + + # # # # # # # # # # # # # # # # # # # # # # # # # # # # # # # ",
"# # # # # # # # # # # # # # # # # # # # z z 5 J 5 3 3 3 $ $   V $ $ s s   $         1 1 1 h =.h w w w $ O + l + # # # # # # # # # # # # # # # # # # # # # # # # # # # # # # # ",
"# # # # # # # # # # # # # # # # # # # # # # # # # # # # * * *               $             t t t s s s D D W & & # # # # # # # # # # # # # # # # # # # # # # # # # # # # # # # ",
"# # # # # # # # # # # # # # # # # # # # # # # # # # # # * * *           $ $ $             t D t s s s D y.& & W # # # # # # # # # # # # # # # # # # # # # # # # # # # # # # # ",
"# # # # # # # # # # # # # # # # # # # # # # # # # # # # X + X           r r r r r r       , , , W W W t t & & & = z z # # # # # # # # # # # # # # # # # # # # # # # # # # # # ",
"# # # # # # # # # # # # # # # # # # # # # # # # # # # # X + X           r r r r r r       , r , W W W t t & & & z = z # # # # # # # # # # # # # # # # # # # # # # # # # # # # ",
"# # # # # # # # # # # # # # # # # # # # # # # # # # # # + X +           r r r r r r       , , , W W l t t & & & = z = # # # # # # # # # # # # # # # # # # # # # # # # # # # # ",
"# # # # # # # # # # # # # # # # # # # # # # # # # # # # 2 2 2 T T T 7 7 r r r s s s       % % % 6 x x + + O O $ 5 5 5 # # # # # # # # # # # # # # # # # # # # # # # # # # # # ",
"# # # # # # # # # # # # # # # # # # # # # # # # # # # # 2 o.2 T T T 7 7 r , W t s s       % % % x x x + + O   O 5 5 5 o # # # # # # # # # # # # # # # # # # # # # # # # # # # ",
"# # # # # # # # # # # # # # # # # # # # # # # # # # # # 2 2 2 T T T 7 7 , W r s s s       % % % x x x + + $ $   5 J 5 # # # # # # # # # # # # # # # # # # # # # # # # # # # # ",
"# # # # # # # # # # # # # # # # # # # # # # # # # # # # 7 7 7 9 9 1 q q P e P + + +       3 3 3 q q q $ $ O O O p p g = = = # # # # # # # # # # # # # # # # # # # # # # # # # ",
"# # # # # # # # # # # # # # # # # # # # # # # # # # # # 7 k 7 1 9 9 q q e e e + + +       3 3 3 q q q $ $ O O O g p g = = = # # # # # # # # # # # # # # # # # # # # # # # # # ",
"# # # # # # # # # # # # # # # # # # # # # # # # # # # # 7 7 k 1 9 1 q q P e e + + +       3 3 3 q q q $ $ O O O p g p = = = # # # # # # # # # # # # # # # # # # # # # # # # # ",
"# # # # # # # # # # # # # # # # # # # # # # # # # # # # w S S     $ O $ C C C P P P ; ; ; 6 6 6 % % %     u u u y y y e e e = = = # # # # # # # # # # # # # # # # # # # # # # ",
"# # # # # # # # # # # # # # # # # # # # # # # # # # # # S S S O     $ $ C C C P P v ; ; ; 6 6 6 % % %     u N u y y - e P P = = = # # # # # # # # # # # # # # # # # # # # # # ",
"# # # # # # # # # # # # # # # # # # # # # # # # # # # # S S S       $ $ C C C P v P ; ; ; q 6 6 % % %     u N N y y y P e e = = = # # # # # # # # # # # # # # # # # # # # # # ",
"# # # # # # # # # # # # # # # # # # # # # # # # # # # # E E E                 k k k S S S * * *           , , , V ) V o.2 o.3 3 3 j < # # # # # # # # # # # # # # # # # # # # ",
"# # # # # # # # # # # # # # # # # # # # # # # # # # # # E w E                 k k k S S S * * *           , , , V ) V o.2 2 3 3 3 < j # # # # # # # # # # # # # # # # # # # # ",
"# # # # # # # # # # # # # # # # # # # # # # # # # # # # E E w                 k k k S S S * * *           , , , V V V 2 o.2 3 3 3 j < # # # # # # # # # # # # # # # # # # # # ",
"# # # # # # # # # # # # # # # # # # # # # # # # # # # # 0.0.0.t t D { { $ $ $                   , , , O O $ $ $ 2 2 2 g g g ; ; ; w S 3 3 3 Q Q Q # # # # # # # # # # # # # # ",
"# # # # # # # # # # # # # # # # # # # # # # # # # # # # 0.0.; t t t { { V $ $                   , A , V O $ $ $ 2 2 2 g g g ; ; ; S w 3 :.3 Q o Q # # # # # # # # # # # # # # ",
"# # # # # # # # # # # # # # # # # # # # # # # # # # # # _ k _ , , , D D                   $ $ $ N N N $ $ $ $ $ $ $ $ 9 9 9 T T &.5 5 ] ] ] w w w F b F Q Q Q # # # # # # # # ",
"# # # # # # # # # # # # # # # # # # # # # # # # # # # # k _ k W W , t t $                 $ $ $ N u N $ $ $ $ $ $ $ $ 9 9 9 T T T 5 5 ] ] ] w w w F b F o Q Q # # # # # # # # ",
"# # # # # # # # # # # # # # # # # # # # # # # # # # # # C k _ , , W t t                   $ $ O N N N $ $ $ $ $ $ $ $ 9 9 9 T T T 5 5 ] ] ] w w w F b F Q Q Q # # # # # # # # ",
"# # # # # # # # # # # # # # # # # # # # # # # # # < < < @ @ @ * * * J J L - -       O O O . . . O % O O O O O O $ $ $ $ $ $       % % 1 1 1 % % % 0 0 0 U U U # # # # # # # # ",
"# # # # # # # # # # # # # # # # # # # # # # # # # j < j @ @ @ % % * J J - - -       O O O . . X O O O O O O O O $ $ $ $ $ $       % * @ 1 @ % % % 0 2 0 J U J # # # # # # # # ",
"# # # # # # # # # # # # # # # # # # # # # # # # # < < < @ @ @ % * % J J L - - O     O O O . . . O O O O O O O O $ $ $ $ $ $       % % 1 1 1 % % % 0 0 2 U J U # # # # # # # # ",
"# # # # # # # # # # # ( ( ( b b b m m m M M U U U : : : % O % - - L e e   $ $ $ $ $ $ $ $ x x x # # # F F %.%.%.X X X % % % . . .     & & & A A , * * * ; ; ; # # # # # # # # ",
"# # # # # # # # # # # ( ( ( b b b m m m M M U U U : : : % % % L - - e e       $ $ $ $ $ $ x x p # # # F F %.%.%.X . . % % % . + X $   & & & A , A * * X ; ; ; # # # # # # # # ",
"# # # # # # # # # # # ( ( ( b b b m m m M M U U U : : : % % % - L - e e       $ $ $ $ $ $ x x x # # o F F %.%.0.X . X % % O + X .     & & & A A , * * * ; ; ; # # # # # # # # ",
"# # # _ C _ 6 6 B B B + + + O O O O O O O O O O O * * * X X X g p g 9 9 O     $ $ $ L L - z z z # # # # o # # # z z z 2 2 2 * * * % % & & & A , A X * X 7 7 7 # # # # # # # # ",
"# # # C k C x 6 B B B + + + O O O O O O O O O O O * * * X X . g g p 9 S       $ $   L - L z z z # # # # # # # # z z z 2 2 2 * % * % % & & & A K , * * * 7 7 7 # # # # # # # # ",
"# # # _ C _ 6 x B B B + + + O O O O O O O O O O O * * * X X X g p g 9 9 $     $ $ $ L L - z z z # # # # # # # # z z z 2 o.2 * * * % % & & & A , K * X * 7 7 c # # # # # # # # ",
"# # # F F F 9 9       ......% % % k k k [ [ J J J j j j M M M g [ g O O       O O O n n n # # # # # # # # # # # # # # v v v + 0 0 y.y.W & W       - - - : : : # # # # # # # # ",
"# # # F b F 9 9 O     ......V V O k k k [ [ J J J j ( j M h M g g [ $         O O O n e n # # # # # # # # # # # # # # v P v 0 0 + y.y.W & r       - - - : : : # # # # # # # # ",
"# # # 5 5 5 9 9 N N N ! ! ! ) ) ) + 0 + + + + + + O O O           $     O O O 0 0 0 M M M # # # # # # # # # # # z z = 6 q 6 * % * A A r r r $ $ O w w w p x p # # # # # # # # ",
"# # # 5 5 5 9 9 N N N ! ! ! ) ) ) + + + + + + + + O O O                 O O O 0 2 0 h M h # # # # # # # # # # # z = z q q 6 * * * A A r r r $ $ $ w w w x p p # # # # # # # # ",
"# # # 5 5 5 1 9 N N N ! ! ! ) ) ) + + + + + + + + O O O                 O O % 0 0 2 M M M # # # # # # # # # # # = z z q 6 q * % * A A r r r $ $ $ w w w p p x # # # # # # # # ",
"o o o 6 x 6 O O ! ! ! D D D X X X % % %     $ $ $                       ^ ^ ^ 1 @ 1 = Q Q # # # # # # # # # # # 5 5 5 @ @ @   O             - - - 1 1 1 Y m m # # # # # # # # ",
"o o o 6 x 6 O O ! ! ! D D D X * X % * %     $ $ $                       ^ ^ ^ @ 1 @ Q Q Q # # # # # # # # # # # 5 5 5 @ @ @ $ $ $           - - ^ 1 1 1 m Y Y # # # # # # # # ",
"o o o 6 x 6 $ O ! ! ! D D D X X X % % %     $ $ $                       ^ ^ ^ @ 1 @ Q = Q # # # # # # # # # # # 5 I 5 @ @ @ $ $ $           - - - 1 1 1 m Y m # # # # # # # # ",
"z z z ; ; ; H H H ..H % % % : : : C C C 1 1 L L L 1 1 1 % % % $ $ $ o.o.c c c n n n # # # # # # # # # # # o o o B B B % % %           O O O - - - x x x # # # # # # # # # # # ",
"z z z ; ; ; H H H H ..V * V %.: %.C C C 9 1 L @ L 9 1 9 % % % $ $ $ o.o.c c c n B n # # # # # # # # # # # o o o B B B % % %           O O O - - - x x x # # # # # # # # # # # ",
"z z z ; 0.; H H ..H H % V % : %.: C C C 1 9 L L L 1 1 1 % % % $ $ $ o.o.c c c n n n # # # # # # # # # # # o o o B B B % % %           O O O - - - x x x # # # # # # # # # # # ",
"o o o n n n s s , W K 7 c 7 m m Y # # # # # U U U &.&.T [ [ [ F F v o Q # # # # # # # # # # # # # # # # # M M M 7 7 7 y.y.y.N N N t t + + + c c c j j j # # # # # # # # # # # ",
"o o o n n n s K K K W c 7 c Y m Y # # # # # U U U T T T [ [ &.F v F Q Q # # # # # # # # # # # # # # # # # M M M 7 7 7 y.u y.N N N t t + + + c c c j j j # # # # # # # # # # # ",
"o o o n n n K s W K W 7 c 7 m m m # # # # Q U U U &.T &.[ [ [ F F v o Q # # # # # # # # # # # # # # # # # M M M 7 k 7 u y.y.N N N t t + + + c c c j j < # # # # # # # # # # # ",
"# # # j j j e P v v v M h M Q Q Q # # # # # # # # # # # o # # o # # # # # # # # # # # # # # # # # # # # # q q q $ $ $ ......H H H t t u u u 0 + 0 ] ] ] z z z # # # # # # # # ",
"# # # j j j e e P v P h M M Q Q Q # # # # # # # # # # # # # # # # # # # # # # # # # # # # # # # # # # # # q q q   $ $ ......H H H D s u u u 0 0 0 ] ] ] z = z # # # # # # # # ",
"# # # # # # o o # # # # # # # # # # # # # # # # # # # # # # # # # # # # # # # # # # # # # # # # # # # # # m I m 9 S 9     $ V V V N N N { N t t t @ 1 1 ] ] ] j j # # # # # # ",
"# # # # # # o o # # # # # # # # # # # # # # # # # # # # # # # # # # # # # # # # # # # # # # # # # # # # # m m m 9 S 9 O           N N { { { t t t 1 1 @ :.] :.j j # # # # # # ",
"# # # # # # o o # # # # # # # # # # # # # # # # # # # # # # # # # # # # # # # # # # # # # # # # # # # # # I m m S 9 S             N N { N { t t t @ 1 1 ] ] :.j j # # # # # # ",
"# # # # # # # # # # # # # # # # # # # # # # # # # # # # # # # # # # # # # # # # # # # # # # # # # # # # # o o o I I I ; ; ; @ @ @ . . & & & s s s % % % . + . v v # # # # # # ",
"# # # # # # # # # # # # # # # # # # # # # # # # # # # # # # # # # # # # # # # # # # # # # # # # # # # # # o o o I I 5 ; ; ; @ @ @ + X & ) & K s A % % O + X . F v # # # # # # ",
"# # # # # # # # # # # # # # # # # # # # # # # # # # # # # # # # # # # # # # # # # # # # # # # # # # # # # o o o I I I ; ; ; @ @ @ + X & & & s A s % % % X + X v v # # # # # # "
};
