/* XPM */
static char *tos[] = {
/* columns rows colors chars-per-pixel */
"50 50 197 2 ",
"   c #020202",
".  c #0B0303",
"X  c #0C0B0B",
"o  c #070807",
"O  c #140202",
"+  c #1C0202",
"@  c #110D0C",
"#  c #1C0C0C",
"$  c #0F100F",
"%  c #11100F",
"&  c #151413",
"*  c #1A1615",
"=  c #1B1817",
"-  c #1C1B1B",
";  c #230102",
":  c #2B0101",
">  c #2B0C0C",
",  c #340101",
"<  c #3B0101",
"1  c #370B0A",
"2  c #261313",
"3  c #221D1D",
"4  c #2D1818",
"5  c #361B1A",
"6  c #20201F",
"7  c #2B211F",
"8  c #242323",
"9  c #2A2525",
"0  c #2C2827",
"q  c #2C2B2B",
"w  c #342626",
"e  c #312D2C",
"r  c #3A2B29",
"t  c #2F302F",
"y  c #3B312E",
"u  c #302F30",
"i  c #343333",
"p  c #3D3C3C",
"a  c #383434",
"s  c #440100",
"d  c #4D0101",
"f  c #450A0A",
"g  c #550100",
"h  c #5A0000",
"j  c #510808",
"k  c #4B1A1A",
"l  c #620000",
"z  c #6C0000",
"x  c #7A0000",
"c  c #462728",
"v  c #56332F",
"b  c #453733",
"n  c #4A3A35",
"m  c #4A3E3E",
"M  c #443734",
"N  c #7C3737",
"B  c #54403B",
"V  c #3F3F40",
"C  c #434343",
"Z  c #4C4746",
"A  c #4B4B4B",
"S  c #594640",
"D  c #564E4C",
"F  c #554844",
"G  c #535353",
"H  c #5B5453",
"J  c #5B5B5B",
"K  c #634E47",
"L  c #784040",
"P  c #64504A",
"I  c #6A544D",
"U  c #625D5C",
"Y  c #6B5F5D",
"T  c #695552",
"R  c #725551",
"E  c #735A53",
"W  c #735B5B",
"Q  c #5F605F",
"!  c #7B6159",
"~  c #605F60",
"^  c #636363",
"/  c #6D6D6C",
"(  c #686767",
")  c #786E6B",
"_  c #70706F",
"`  c #6F7070",
"'  c #747474",
"]  c #797474",
"[  c #7B7B7B",
"{  c #8B0000",
"}  c #930000",
"|  c #A40000",
" . c #82665E",
".. c #8A6C64",
"X. c #96756C",
"o. c #8E7A74",
"O. c #837675",
"+. c #977E79",
"@. c #A57F74",
"#. c #95827D",
"$. c #A38177",
"%. c #A2857C",
"&. c #AC877B",
"*. c #AE8A7F",
"=. c #B18B7F",
"-. c #7F7F80",
";. c #838383",
":. c #8C8C8C",
">. c #8A8382",
",. c #908B89",
"<. c #91908F",
"1. c #949494",
"2. c #9B9B9B",
"3. c #989897",
"4. c #A98B83",
"5. c #B38C80",
"6. c #B39186",
"7. c #BA9286",
"8. c #BE9589",
"9. c #AA9995",
"0. c #A09F9F",
"q. c #B89F97",
"w. c #B6A39E",
"e. c #A3A3A3",
"r. c #ABABAB",
"t. c #AAA0A0",
"y. c #B0ADAD",
"u. c #B4B4B4",
"i. c #BDBCBC",
"p. c #B7B8B7",
"a. c #C1978A",
"s. c #C89D91",
"d. c #CDA294",
"f. c #C8A498",
"g. c #D2A596",
"h. c #D3A99D",
"j. c #DCAD9E",
"k. c #D2A79B",
"l. c #D6ADA0",
"z. c #CFB3AC",
"x. c #DEB2A4",
"c. c #D1B3A7",
"v. c #C1BCBB",
"b. c #C5B7B3",
"n. c #D2BBB5",
"m. c #E4B3A4",
"M. c #E8B7A7",
"N. c #E7B6A8",
"B. c #E8B6A8",
"V. c #EDBBAC",
"C. c #E6B9AA",
"Z. c #F3BEAE",
"A. c #E4BFB5",
"S. c #F3BFB0",
"D. c #CFC3BF",
"F. c #D0C1BD",
"G. c #E7C6BC",
"H. c #F5C1B1",
"J. c #F4CABE",
"K. c #FAC5B7",
"L. c #C4C4C4",
"P. c #CBCBCB",
"I. c #C9C8C7",
"U. c #D3CECE",
"Y. c #D3C7C4",
"T. c #D5D4D4",
"R. c #DBDBDB",
"E. c #E6CAC2",
"W. c #ECCBC1",
"Q. c #F3CCC1",
"!. c #FBCFC2",
"~. c #E2D3CF",
"^. c #FDD8CD",
"/. c #F9D4C9",
"(. c #E6DFDD",
"). c #E3D9D5",
"_. c #FADBD4",
"`. c #F4DCD6",
"'. c #ECE0DC",
"]. c #FAE3DB",
"[. c #E4E4E4",
"{. c #EEE6E3",
"}. c #E8E8E7",
"|. c #EBEBEB",
" X c #FEEAE4",
".X c #F3EDEC",
"XX c #FCEEEA",
"oX c #F5E5E0",
"OX c #EFF0EF",
"+X c #FCF1ED",
"@X c #F3F3F3",
"#X c #FAF6F4",
"$X c #FEF8F7",
"%X c #FFFFFF",
"&X c #FDFDFD",
"*X c #FFFFFF",
"=X c #F7F8F7",
/* pixels */
"%X%X%X%X%X%X%X%X%X%X$X$X%X%X%X%X%X%X%X%X|.[.|.=X%X%X%X%X%X%X%X%X%X%X%X%X%X%X%X%X%X%X%X%X%X%X%X%X%X%X",
"%X%X%X%X%X%X%X%X+XXXXXXXXX+X.X|.=X$X$XXX{.(.|.=X%X%X%X%X%X%X%X%X%X%X%X%X%X%X%X%X%X%X%X%X%X%X%X%X%X%X",
"%X%X%X%X%X%X%X%X^.!.!.!.Q.E.F.v.).(._._.`.`..X$X%X%X%X%X%X%X%X%X%X%X%X%X%X%X%X%X%X%X%X%X%X%X%X%X%X%X",
"%X$X XXX$X%X%X%X_.^.J.C.6.) o.#.G.W.J.Q.J.G./.].$X%X%X%X%X%X%X%X%X%X%X%X%X%X%X%X%X%X%X%X%X%X%X%X%X%X",
"%X.XA.W.`.'.$X%X+X X^.f.I 5 ! @.V.H.H.N.8.X.h.!.].oX[.|.%X%X%X%X%X%X%X%X%X%X%X%X%X%X%X%X%X%X%X%X%X%X",
"=X(.q.x.C.c.{.%X%X%X X9.B b 5.Z.K.K.Z.s.E 6 $.K.J.G.p.T.%X%X%X%X%X%X%X%X%X%X%X%X%X%X%X%X%X%X%X%X%X%X",
"I.D.x.V.N.k.w.w..X=X$Xv.#.&.j.H.N.d.P ..*.*.d.N.H.V.4.9.r.[.%X%X%X%X%X%X%X%X%X%X%X%X%X%X%X%X%X%X%X%X",
"u.b.V.H.N.d.%.o.}.=X%XI.w.j.V.H.j.7.= P d.V.N.j.Z.B.X.o.;.R.%X%X%X%X%X%X%X%X%X%X%X%X%X%X%X%X%X%X%X%X",
"R.~.Z.4.Y K M e q A u.Y.E.k.B.Z.=.&.%.d.H.Z.E = 3 y M.%.p ;.T.%X%X%X%X%X%X%X%X%X%X%X%X%X%X%X%X%X%X%X",
"[.~.l.+.D n Z A 8 p :.y.n.h.N.S.8.7.6.d.j.a.S @ 7 n M.+.q ^ v.$X%X%X%X%X%X%X%X%X%X%X%X%X%X%X%X%X%X%X",
"%XT./ G 9 o O.p.8 = = C >.z.C.H.Z.V.g.a.! @ @ @ I ..j. .o o ;.[.%X%X%X%X%X%X%X%X%X%X%X%X%X%X%X%X%X%X",
"%X|.u.[ p * C J = = 6 i H O.4.8.V.V.N.d. .% b P =.7.8.R O + ] I.=X%X%X%X%X%X%X%X%X%X%X%X%X%X%X%X%X%X",
"%X%X%XL.' C = o q i C q 8 A F S 7.d.Z.N.=.P %.g.h.s.R v , , W r.|.%X%X%X%X%X%X%X%X%X%X%X%X%X%X%X%X%X",
"%X%X%X%XL.' t $ A G [ p 9 / q o E X.M.Z.H.S.H.H.&...= > s , T 1.[.%X%X%X%X%X%X%X%X%X%X%X%X%X%X%X%X%X",
"%X%X%X%X|.I.2.;.C p i = i ;.i o 7 r I E ! E I K b r o + : + D :.[.%X%X%X%X%X%X%X%X%X%X%X%X%X%X%X%X%X",
"%X%X%X%X%X%XR.L.p q $ o i 1.i o o o = 4 0 3 * o . . o . ; O A ;.[.%X%X%X%X%X%X%X%X%X%X%X%X%X%X%X%X%X",
"%X%X%X%X%X%X%X%X[.T.1.J 8 * o o o o . O O o o o C ^ R.p.1.e e J R.%X%X%X%X%X%X%X%X%X%X%X%X%X%X%X%X%X",
"%X%X%X%X%X%X%X%X%X[.y.;.A q 8 8 o o o . O o o o A / =XI.1.q q A R.%X%X%X%X%X%X%X%X%X%X%X%X%X%X%X%X%X",
"%X%X%X%X%X%X%X%X%X%X%X%X|.T.p.u.* o o + ; o o o i G [.r.A = o = T.%X%X%X%X%X%X%X%X%X%X%X%X%X%X%X%X%X",
"%X%X%X%X%X%X%X%X%X%X%X%X=X|.R.T.* o o . O o o o = e +.W c > # # T.%X%X%X%X%X%X%X%X%X%X%X%X%X%X%X%X%X",
"%X%X%X%X%X%X%X%X%X%X%X%X%X%X%X%X8 o o o o . . . o . < , , < , + U.%X%X%X%X%X%X%X%X%X%X%X%X%X%X%X%X%X",
"%X%X%X%X%X%X%X%X%X%X%X%X%X%X%X%X8 o o o . : ; ; o o : : ; , : + U.%X%X%X%X%X%X%X%X%X%X%X%X%X%X%X%X%X",
"%X%X%X%X%X%X%X%X%X%X%X%X%X%X%X%Xq 8 D C w ; : , o o O r Y r # . p.|.%X%X%X%X%X%X%X%X%X%X%X%X%X%X%X%X",
"%X%X%X%X%X%X%X%X%X%X%X%X%X%X%X%Xi i :.' m : , < . o o C 2.V o o u.R.%X%X%X%X%X%X%X%X%X%X%X%X%X%X%X%X",
"%X%X%X%X%X%X%X%X%X%X%X%X%X%X%X%X^ G A / 2.0.D = o * 2.2.r.i o o ;.r.%X%X%X%X%X%X%X%X%X%X%X%X%X%X%X%X",
"%X%X%X%X%X%X%X%X%X%X%X%X%X%X%X%X/ G i J 3.r.^ q * 8 r.r.:.q . . _ <.=X=X%X%X%X%X%X%X%X%X%X%X%X%X%X%X",
"%X%X%X%X%X%X%X%X%X%X%X%X%X%X%X%XJ p o o 8 / 2.p.;.[ 2.U o o : g 4 i p.T.%X%X%X%X%X%X%X%X%X%X%X%X%X%X",
"%X%X%X%X%X%X%X%X%X%X%X%X%X%X%X%XJ p o o * p ' 1./ ^ ^ p o o ; s 2 3 [ 2.R..X%X%X%X%X%X%X%X%X%X%X%X%X",
"%X%X%X%X%X%X%X%X%X%X%X%X%X%X%X%XJ C o o o o i ^ A p o o o o O : O O 3 G u.R.%X%X%X%X%X%X%X%X%X%X%X%X",
"%X%X%X%X%X%X%X%X%X%X%X%X%X%X%X%X' H : , : o * = * * o . + . . . * 3 ` [ :.;.r.I.=X%X%X%X%X%X%X%X%X%X",
"%X%X%X%X%X%X%X%X%X%X%X%X%X%X%X%X[ U , < , o o o o o o + s + o o o * ^ ` ;.:.r.r.r.r.[.|.%X%X%X%X%X%X",
"%X%X%X%X%X%X%X%X%X%X%X%X%X%X%X%X' H : , : o o o o o o ; g + o o o o V J :.p.L.r.^ G L.T.%X%X%X%X%X%X",
"%X%X%X%X%X%X%X%X%X%X%X%X%X%X%X%XG i O H >.8 o o o o o . O . o o o o o * = 8 p A 8 * p / T.|.%X%X%X%X",
"%X%X%X%X%X%X%X%X%X%X%X%X%X%XOX|.C q o ^ 2.8 * o o o = = = * * o o o o o o o = a * . = G I.|.%X%X%X%X",
"%X%X%X%X%X%X=X|.I.I.[.[.R.I.1./ @ o q / ;.o o o o * 2.L.%XT.2.' 8 o o o * o . + : : o i [ I.%X%X%X%X",
"%X.XI.T.R.[.u.2.;.;.<.1.:.;.J A o * G / ^ o o o o 9 p.T.%X[.p.r.' J o o o o . + : : o q ' L.%X%X%X%X",
"%XT.( ;.r.u.A * o o o o o o . o o 8 1./ q o o o 8 Z %X%X%X%X%X%X%X[.= * o . O + : : o 8 J p.%X%X%X%X",
"%X[.r.[ G C k j . * C A / :.2.r.2.1.1.J * o o o ' 1.%X%X%X%X%X%X%X=X;.J * > : + O O = i / L.%X%X%X%X",
"%X=XI.-.w : z { O # p C J ' [ [ ' / A 8 o o o @ u.T.%X%X%X%X%X%X%X=Xu.' % : , ; . o p G ;.I.%X%X%X%X",
"%X=XR.;.c g { | + O * * * * o o o o o o o o * = I.|.%X%X%X%X%X%X%X=Xr./ o ; : : . o A ^ 2.T.%X%X%X%X",
"%X}.r.G f } z h @ o o . o o o o o o o o o = q i R.%X%X%X%X%X%X%X[.T.A i o . . . = 8 p / T.|.%X%X%X%X",
"%X[.2.Z s | l s * * o o o o o o o o o o o 8 i p [.%X%X%X%X%X%X%XR.L.i 3 o o o o 6 q p ' [.=X%X%X%X%X",
"%XT.[ N x x : . / / / G i i i p o o o * i G :.u.=X%X%X%X%X%X%X%XD.r.o o o o o o 8 q 2.p.%X%X%X%X%X%X",
"%XR.:.L l l 5 3 :.1.2.:.' ^ J G i i C G ' :.u.I.%X%X%X%X%X%X%X=Xr.:.+ + + O . o q p u.I.%X%X%X%X%X%X",
"%X|.u.R , : m J R.|.%X%X|.I.r.:.:.1.L.R.%X%X%X%X%X%X%X%X%X%X=X[.' H d d g s > * C J =X=X%X%X%X%X%X%X",
"%X=XR.t.O.O.2.r.|.=X%X%X=X|.R.I.T.T.[.=X%X%X%X%X%X%X%X%X%X%XR.p.C 9 l l z d < 1 e p I.R.%X%X%X%X%X%X",
"%X%X%X[.R.R.|.=X%X%X%X%X%X%X%X%X%X%X%X%X%X%X%X%X%X%X%X%X%X%XR.p.p 3 < s d d d g 1 4 ' 1.T.|.%X%X%X%X",
"%X%X%X%X%X%X%X%X%X%X%X%X%X%X%X%X%X%X%X%X%X%X%X%X%X%X%X%X%X%X|.[.Q p o o o , g h s < p J r.T.%X%X%X%X",
"%X%X%X%X%X%X%X%X%X%X%X%X%X%X%X%X%X%X%X%X%X%X%X%X%X%X%X%X%X%X%X=Xp.r.J C 8 2 : : , < * 8 p 1.[.%X%X%X",
"%X%X%X%X%X%X%X%X%X%X%X%X%X%X%X%X%X%X%X%X%X%X%X%X%X%X%X%X%X%X%X%X[.T.[ ^ i 8 @ + : , o o * [ R.%X%X%X"
};
