/* XPM */
static char *smaller_wall[] = {
/* columns rows colors chars-per-pixel */
"50 50 187 2 ",
"   c #251E38",
".  c #2A1F38",
"X  c #25213B",
"o  c #2A243D",
"O  c #2F2C3E",
"+  c #332239",
"@  c #342F3F",
"#  c #3E2A3C",
"$  c #442E3F",
"%  c #2A2740",
"&  c #2D2B42",
"*  c #312E44",
"=  c #343345",
"-  c #393445",
";  c #353A44",
":  c #3C3A46",
">  c #363448",
",  c #3E3549",
"<  c #373E49",
"1  c #3C3B4B",
"2  c #412E41",
"3  c #463141",
"4  c #4B3542",
"5  c #453C45",
"6  c #4C3C46",
"7  c #413549",
"8  c #4B374A",
"9  c #423C4D",
"0  c #4C3C4C",
"q  c #513745",
"w  c #503A45",
"e  c #543B4B",
"r  c #583D4D",
"t  c #433F50",
"y  c #533E50",
"u  c #5A3F51",
"i  c #374047",
"p  c #3E4047",
"a  c #3B4549",
"s  c #3D4D4D",
"d  c #3F504F",
"f  c #3F4F51",
"g  c #444147",
"h  c #4C4047",
"j  c #43444B",
"k  c #4C444C",
"l  c #444C4D",
"z  c #4C4A4E",
"x  c #53434B",
"c  c #58474E",
"v  c #53494E",
"b  c #59494E",
"n  c #45504F",
"m  c #444252",
"M  c #4A4454",
"N  c #444C51",
"B  c #4C4C55",
"V  c #4C455B",
"C  c #464D5A",
"Z  c #4D4A59",
"A  c #544453",
"S  c #5B4554",
"D  c #544C52",
"F  c #5B4D51",
"G  c #54475C",
"H  c #5B4759",
"J  c #524B5A",
"K  c #5B4B5A",
"L  c #435253",
"P  c #4B5252",
"I  c #4A555A",
"U  c #4A585B",
"Y  c #555354",
"T  c #5C5455",
"R  c #5C5857",
"E  c #53525C",
"W  c #5B545C",
"Q  c #5D595A",
"!  c #634B5B",
"~  c #62545B",
"^  c #635C5C",
"/  c #67605F",
"(  c #564E64",
")  c #5B4F64",
"_  c #545362",
"`  c #5B5363",
"'  c #535963",
"]  c #5B5B64",
"[  c #5C5569",
"{  c #5D5C69",
"}  c #645363",
"|  c #6B5464",
" . c #645C64",
".. c #685867",
"X. c #685768",
"o. c #635A6C",
"O. c #6D5B6B",
"+. c #715C6D",
"@. c #655F72",
"#. c #4F6169",
"$. c #576066",
"%. c #5C6363",
"&. c #54676C",
"*. c #5E626A",
"=. c #55696E",
"-. c #5C6D74",
";. c #5F7076",
":. c #5D7278",
">. c #646265",
",. c #6A6464",
"<. c #6C6867",
"1. c #63626C",
"2. c #6D636D",
"3. c #656A6A",
"4. c #6E6B6A",
"5. c #71616C",
"6. c #706E6D",
"7. c #72706F",
"8. c #666372",
"9. c #6C6571",
"0. c #666974",
"q. c #6B6B73",
"w. c #6A6778",
"e. c #6D6A7A",
"r. c #736471",
"t. c #7A6776",
"y. c #736B74",
"u. c #7A6B77",
"i. c #746F7B",
"p. c #7B6D7A",
"a. c #6B707A",
"s. c #767676",
"d. c #7A7477",
"f. c #74737A",
"g. c #7B747B",
"h. c #777878",
"j. c #7D7A7D",
"k. c #806E7E",
"l. c #81757F",
"z. c #7A6E80",
"x. c #7A7481",
"c. c #747B83",
"v. c #7E7D81",
"b. c #797B8A",
"n. c #837685",
"m. c #837D83",
"M. c #867B88",
"N. c #897E8A",
"B. c #7C8185",
"V. c #7C838D",
"C. c #7F888E",
"Z. c #7D8792",
"A. c #7D8C96",
"S. c #848087",
"D. c #838489",
"F. c #898189",
"G. c #8B828C",
"H. c #8C828C",
"J. c #8D838E",
"K. c #8E848E",
"L. c #8A818B",
"P. c #86888F",
"I. c #82898E",
"U. c #858593",
"Y. c #8B8690",
"T. c #8F8490",
"R. c #888694",
"E. c #8E8490",
"W. c #838D94",
"Q. c #8B8A93",
"!. c #8C8993",
"~. c #858E99",
"^. c #808D98",
"/. c #8B8F98",
"(. c #8B8E9A",
"). c #908590",
"_. c #908590",
"`. c #908894",
"'. c #849095",
"]. c #849197",
"[. c #85919D",
"{. c #86949B",
"}. c #8B929B",
"|. c #8B939D",
" X c #87989E",
".X c #8F9CA6",
"XX c #8A9AA2",
/* pixels */
"H.m., './.H.H.H.H.H.y.G {.H.H.H.H.H.H.m.7 W.}.H.H.H.m.9 C.}.H.H.H.H.H.h.t {.!.H.H.H.H.H.D.M c.}.H.H.",
"s.m.e }.s.s.s.s.s.s.y.| D.s.s.s.s.s.s.j.e }.s.s.s.s.j.e /.s.s.s.s.s.s.h.H I.s.s.s.s.s.s.j.S T.s.s.s.",
"s.<.l H.s.s.s.s.s.s.Q { m.s.s.s.s.s.s.4.j T.s.s.s.s.4.l H.s.s.s.s.s.s.>.E S.s.s.s.s.s.s.6.l M.s.s.s.",
"s.,.l H.s.s.s.s.s.,.T { m.s.s.s.s.s.s.,.4 T.s.s.s.s.<.j H.s.s.s.s.s.,.^ E S.s.s.s.s.s.s.4.6 M.s.s.s.",
"4.T 2 H.j.6.4.4.,.,.w K m.h.s.s.s.4.4.~ ; m.j.s.s.4.~ # m.j.7.4.4.,.,.c 0 m.j.s.s.s.6.4.^ : h.m.s.s.",
"k # X M E 1 - 1 l 6 . & H S x 1 1 6 h =   m S k j l #   t K j - : l h + o H S x 1 1 6 6 :   1 ! k 9 ",
"~.n.n.m.M.y.* c.W.M.n.n.y.n.n.m _ {.M.M.n.n.h.9 *.{.m.n.n.M.f.* f.~.M.n.n.i.l.n.G Z ~.M.M.n.n.n.M E ",
"s.s.s.s.s.H.y }.s.s.s.6.,.s.j.| V.j.s.s.s.s.m.! 4.s.s.s.s.s.m.e XXs.s.s.6.,.s.j.r.i.B.s.s.s.s.j.|  .",
"s.s.s.s.s.4.k H.s.s.6.l.j.s.s.D h.h.s.s.s.s.s.z 4.s.s.s.s.s.6.j ).s.s.4.h.j.s.s.W 9.j.s.s.s.s.s.Y >.",
"s.s.s.s.s.,.L H.s.s.s.j.s.s.6.x p.h.s.s.s.s.4.l 4.s.s.s.s.s.,.s ).s.s.s.j.s.s.s.v r.j.s.s.s.s.6.P 3.",
"h.s.s.s.s.^ N H.h.s.s.s.s.s.4.w p.h.,.s.s.s.,.l 4.h.s.s.s.s.,.a H.h.s.s.s.s.s.6.x +.j.,.s.s.s.4.l >.",
"9.T W k v $ o o.2. .E k v b k o M r.%.B k k 6 . E r.W W k x 3    .5. .` k v b z + t r.%.B k k e o M ",
"9.2.G & 1.@.o.o.+.+.m = 8.r.8.o.o.+.q.] & _ w.o.o.2.9.W & { 9.o.o.+.+.G & 1.r.9.o.o.O.q.{ * B e.o.o.",
"j.j.m.G {.v.j.j.j.j.p.{ W.v.j.j.j.j.j.H.e XXB.j.j.j.j.H.0  Xv.j.j.j.j.m.G {.v.j.j.j.j.j.m.H ~.B.j.j.",
"s.s.6.S S.s.s.s.s.s.,.} m.s.s.s.s.s.s.s.q ).s.s.s.s.s.s.e H.s.s.s.s.s.6.S D.s.s.s.s.s.s.s.x M.s.s.s.",
"s.s.^ K m.s.s.s.s.s.T  .m.s.s.s.s.s.s.,.5 T.s.s.s.s.s.,.k H.s.s.s.s.s.^ E S.s.s.s.s.s.s.4.k M.s.s.s.",
"s.s.^ U m.s.s.s.s.s.T  .m.s.s.s.s.s.s.,.s T.s.s.s.s.s.,.L H.s.s.s.s.s.^ E m.s.s.s.s.s.s.4.l M.s.s.s.",
"s.s.^ S S.s.s.s.s.s.Y *.m.s.s.s.s.s.s.,.4 H.6.6.s.s.s./ e H.s.s.s.s.s.^ U m.s.s.s.s.s.s.4.6 m.s.4.s.",
"F F # = y.2.D D Y T + 1 f.2.>.W D Y T 4   1.i.~ D F F $ o 9.9.Y D Y T # = q.4.,.Q D Y Y 6 . ` h.^ D ",
"| | Z ( } G o ' -.| ( ( { | } = 1 :.o.} ( ` o.| ` | | G ( ` G o U ;. .` ( { ..} 1 > -.1.} ( _ 1.| ` ",
"m.m.4.m.m.H.0 {.S.m.m.m.m.m.m.} c.I.m.m.m.m.m.m.m.m.m.4.v.m.H.8 XXD.m.m.m.m.m.m.2.q.W.m.m.m.m.m.m.m.",
"s.s.s.,.s.s.e H.s.s.s.s.s.s.s.K h.j.s.s.s.s.s.s.s.s.s.s.,.s.s.6 `.s.s.s.s.s.s.s. .r.j.s.s.s.s.s.s.s.",
"s.s.s.s.s.,.L H.s.s.s.s.s.s.6.P x.j.s.s.s.s.s.s.s.s.s.s.s.s.,.s ).s.s.s.s.s.s.s.Y q.j.s.s.s.s.s.s.s.",
"s.4.s.<.<.F 1 m.j.s.s.6.6.<.^ : q.m.s.s.4.s.<.<.4.s.6.s.<.<.T = m.m.s.s.4.6.<.,.5 ] D.s.s.6.s.<.,.<.",
"k s L 4 g o X 9 e N L s 6 4 i   * H L L s L g j = k s L 4 6 =   , r z L s k 4 a   & e L L s L j 5 = ",
"H.m., C./.M.M.M.M.H.q.M {.T.H.M.M.H.H.m.9 B.}.H.M.H.m.9 c.}.H.M.M.H.H.j.1 W.!.H.M.M.H.H.m.M q.XXH.M.",
"s.m.e }.s.s.s.s.s.s.h.} D.s.s.s.s.s.s.j.r }.s.s.s.s.j.S /.s.s.s.s.s.s.m.S W.s.s.s.s.s.s.j.! U.s.s.s.",
"s.4.j H.s.s.s.s.s.s.^ ] m.s.s.s.s.s.s.4.j H.s.s.s.s.6.l M.s.s.s.s.s.s.,.B H.s.s.s.s.s.s.6.B m.s.s.s.",
"s.,.s H.s.s.s.s.s.,.R ] m.s.s.s.s.s.s.<.6 H.s.s.s.s.4.l H.s.s.s.s.s.<.^ U H.s.s.s.s.s.s.4.k n.s.s.s.",
"6.~ $ H.j.s.6.6.,.4.x H m.h.s.s.s.6.4.^ ; m.j.s.s.6.^ $ m.j.s.6.4.,.,.F 0 m.j.s.s.s.7.6.>.p h.j.s.s.",
"z #   G ] j 1 j P x + & K K D j m e x :   M ~ D m z 3   M } N 1 9 n k + o K ! F m j x x :   9 | D M ",
"Z.z.z.z.n.q.& a.Z.n.z.z.r.p.p.m B Z.n.x.z.z.u.1 E A.z.z.z.n.q.* 1.A.n.z.z.y.u.k.Z m V.n.x.z.z.p.M B ",
"h.s.s.h.s.H.e XXf.s.s.6.,.s.j.O.b.v.s.s.s.s.m.! 2.h.s.s.s.s.m.r XXh.s.s.6.,.6.h.t.e.V.s.s.h.h.j.O. .",
"s.s.s.s.s.6.k H.s.s.6.h.j.s.s.T p.j.s.s.s.s.s.D 4.s.s.s.s.s.s.k H.s.s.6.h.m.s.s.Q O.j.s.s.s.s.s.T  .",
"s.s.s.s.s.,.L H.s.s.6.j.s.s.7.v p.j.s.s.s.s.4.n 3.s.s.s.s.s.,.s H.s.s.6.m.s.s.s.D O.j.s.s.s.s.7.P %.",
"s.s.s.s.s.,.f H.s.s.s.s.s.s.6.x t.h.,.s.s.s.4.l 3.s.s.s.s.s.,.s H.s.s.s.s.s.s.s.b O.m.,.s.s.s.6.P %.",
"p.Q  .D D 3 o 2.y.,.] D F F v + B p.>.Y D D e . E p.^ ] D D 4   1.u.,.>.D D F Y + m p.3.Y D D x + B ",
" . .M o _ [ ( ` | | t & ] | *.( ( } *._ & V o.( ( | o.G o E { ( ) | | M o _ O.*.( ( } *.' * 1 8.( ( ",
"m.m.M.M {.S.m.m.m.m.h.` {.m.m.m.m.m.m.S.y {.D.m.m.m.m.H.0 {.S.m.m.m.m.M.M {.S.m.m.m.m.m.m.K V.D.m.m.",
"s.s.s.u H.s.s.s.s.s.4.! m.s.s.s.s.s.s.s.e T.s.s.s.s.s.h.e T.s.s.s.s.s.s.S H.s.s.s.s.s.s.s.S m.s.s.s.",
"s.s.^ H H.s.s.s.s.s.T ] m.s.s.s.s.s.s.<.6 H.s.s.s.s.s.,.0 H.s.s.s.s.s.^ B H.s.s.s.s.s.s.4.k n.s.s.s.",
"s.s.^ U H.s.s.s.s.s.T ` m.s.s.s.s.s.s.<.s H.s.s.s.s.s.,.L H.s.s.s.s.s.^ D H.s.s.s.s.s.s.4.l m.s.s.s.",
"s.s.^ H H.s.s.s.s.s.R $.m.s.s.s.s.s.s.<.6 H.6.6.s.s.s.,.0 H.s.s.s.s.s.^ U H.s.s.s.s.s.s.4.k n.s.4.s.",
"T T $ = h.y.W T Q T # 1 h.y.4. .T Q T e o 2.h.^ T ~ ~ 4 o y.i.Q T Q T $ = f.s.4.>.T T R x o ] m. .T ",
"! ! m V G M X C &.! V V _ ! H = > &.] H V Z ] ! G ! ! M V G H X m =.W G V _ W ! > * &.] K V V ] ! G ",
"m.m.6.m.m.H.0 {.D.m.m.m.m.m.m.} a.W.m.m.m.m.m.m.m.m.m.6.m.m.S.0 {.I.m.m.m.m.m.m.r.o.'.m.m.m.m.m.m.m.",
"s.s.s.,.s.j.e !.s.s.s.s.s.s.h.~ p.j.s.s.s.s.s.s.s.s.s.s.,.s.j.e !.s.s.s.s.s.s.s.2.+.v.s.s.s.s.s.s.s.",
"s.s.s.s.s.,.L H.s.s.s.s.s.s.s.P f.j.s.s.s.s.s.s.s.s.s.s.s.s.<.s H.s.s.s.s.s.s.s.Y 0.j.s.s.s.s.s.s.s.",
"s.6.s.4.4.T < H.j.s.s.6.6.4.,.5 9.m.s.s.6.s.4.4.4.s.7.s.4.4.~ ; m.j.s.s.6.s.4.,.0 ] m.s.s.6.s.4.4.4.",
"D L L w k @ X M S P L L k w a   = K U U L L j j : H L L w 6 =   t S B U L z w j . * S U U L L l k : "
};
