/* XPM */
static char *miss_left[] = {
/* columns rows colors chars-per-pixel */
"50 50 233 2 ",
"   c None",
".  c #010100",
"X  c #0A0201",
"o  c #0C0B0B",
"O  c #080807",
"+  c #140000",
"@  c #1D0000",
"#  c #150A09",
"$  c #131313",
"%  c #1B1B1A",
"&  c #1D1414",
"*  c #250100",
"=  c #2C0100",
"-  c #270B0B",
";  c #330100",
":  c #3C0000",
">  c #311A1B",
",  c #232322",
"<  c #2C2C2B",
"1  c #2A2926",
"2  c #333331",
"3  c #3C3C3B",
"4  c #393835",
"5  c #342F28",
"6  c #440000",
"7  c #4D0000",
"8  c #540000",
"9  c #5B0100",
"0  c #461617",
"q  c #640000",
"w  c #6C0100",
"e  c #740000",
"r  c #7B0000",
"t  c #5D2B2B",
"y  c #413733",
"u  c #452726",
"i  c #6B3C3C",
"p  c #763837",
"a  c #41413F",
"s  c #434342",
"d  c #4D4B4B",
"f  c #4C4846",
"g  c #514D4C",
"h  c #574946",
"j  c #52504E",
"k  c #545453",
"l  c #5A5454",
"z  c #5C5C5C",
"x  c #595957",
"c  c #564F50",
"v  c #624646",
"b  c #645856",
"n  c #735753",
"m  c #63625F",
"M  c #77695F",
"N  c #656464",
"B  c #6C6C6C",
"V  c #696767",
"C  c #726C6B",
"Z  c #786661",
"A  c #727272",
"S  c #7B7B7B",
"D  c #7B7676",
"F  c #70706E",
"G  c #860101",
"H  c #8B0000",
"J  c #990303",
"K  c #8E1717",
"L  c #AA0001",
"P  c #A60505",
"I  c #B40202",
"U  c #BB0706",
"Y  c #AE1D1C",
"T  c #8D2E2D",
"R  c #9A2223",
"E  c #8E3837",
"W  c #A92828",
"Q  c #B92A29",
"!  c #AF3232",
"~  c #CC0101",
"^  c #C50303",
"/  c #D50101",
"(  c #DC0101",
")  c #CA1818",
"_  c #D81515",
"`  c #E20203",
"'  c #EB0202",
"]  c #E70C0C",
"[  c #F40202",
"{  c #FE0101",
"}  c #F50B0B",
"|  c #FE0B0B",
" . c #F30708",
".. c #EE1010",
"X. c #E31A1A",
"o. c #FE1312",
"O. c #FF1817",
"+. c #FE1C1C",
"@. c #F31414",
"#. c #FF201F",
"$. c #CA2626",
"%. c #CF3434",
"&. c #EF2928",
"*. c #FE2323",
"=. c #FE2D2D",
"-. c #F52626",
";. c #FE3C3A",
":. c #F83635",
">. c #F8302E",
",. c #F44235",
"<. c #8C5554",
"1. c #BC5A5A",
"2. c #AF4B4C",
"3. c #876A6A",
"4. c #837874",
"5. c #937F7F",
"6. c #A56B6B",
"7. c #A87777",
"8. c #B26868",
"9. c #C94747",
"0. c #D75B5C",
"q. c #D54A4B",
"w. c #E84646",
"e. c #FF4343",
"r. c #FE4B4B",
"t. c #F74844",
"y. c #FC534B",
"u. c #EB5050",
"i. c #FC5454",
"p. c #FA5959",
"a. c #F56455",
"s. c #D3706C",
"d. c #CC7675",
"f. c #D87878",
"g. c #D76160",
"h. c #FE6D6D",
"j. c #FB6566",
"k. c #FE7B7B",
"l. c #F47878",
"z. c #F07864",
"x. c #80807F",
"c. c #B29B7F",
"v. c #F88378",
"b. c #838282",
"n. c #8A8685",
"m. c #8C8B8B",
"M. c #8B8886",
"N. c #928C8B",
"B. c #949493",
"V. c #9B9A98",
"C. c #9A908B",
"Z. c #A28888",
"A. c #A5948A",
"S. c #B59785",
"D. c #A29B99",
"F. c #BA9997",
"G. c #B38585",
"H. c #B6AA98",
"J. c #A5A4A4",
"K. c #ACACAB",
"L. c #ABA8A4",
"P. c #B7B2A6",
"I. c #BDB9B5",
"U. c #BDBBBA",
"Y. c #B4B3B4",
"T. c #B7AAAB",
"R. c #DD8383",
"E. c #C7908A",
"W. c #E78282",
"Q. c #FE8C8C",
"!. c #FE8786",
"~. c #FC9695",
"^. c #FA9A9A",
"/. c #E8978B",
"(. c #CBA595",
"). c #D3AB99",
"_. c #E5B897",
"`. c #EBAA92",
"'. c #C5B2B2",
"]. c #E3ADAD",
"[. c #FEA0A1",
"{. c #FBABA7",
"}. c #ECBDA6",
"|. c #FDBBAA",
" X c #F7B4B3",
".X c #C7C2BE",
"XX c #D9C9BA",
"oX c #DFC9AD",
"OX c #EBC6A7",
"+X c #E6C7A8",
"@X c #F4C4AC",
"#X c #FBC2AD",
"$X c #F1C2A7",
"%X c #EAC8B8",
"&X c #FCC6B4",
"*X c #F5CAB3",
"=X c #FCC9B6",
"-X c #FECAB9",
";X c #EED3BC",
":X c #F3D2BB",
">X c #C4C3C3",
",X c #CCCBCB",
"<X c #CBC8C7",
"1X c #D4CDC7",
"2X c #DAD4CD",
"3X c #D6D1CF",
"4X c #D4D3D3",
"5X c #DCDBDB",
"6X c #DBD7D5",
"7X c #F8C5C4",
"8X c #ECD8C2",
"9X c #E7D5C6",
"0X c #FADACD",
"qX c #F6D8C7",
"wX c #E3D8D3",
"eX c #FDD6D6",
"rX c #FCDFDF",
"tX c #EAE6DD",
"yX c #F3E3D3",
"uX c #F7E3DB",
"iX c #F2E1CF",
"pX c #E5E5E4",
"aX c #EFEEE5",
"sX c #FFE3E3",
"dX c #F3EBE5",
"fX c #F4ECEB",
"gX c #F6E9E5",
"hX c #F5F1E5",
"jX c #F6F4EB",
"kX c #FAF3EE",
"lX c #F9F1E7",
"zX c #FEFDFD",
"xX c #F8F5F4",
/* pixels */
"            ].].$.Q <.                                                                              ",
"              R.Q ! n Z                                                                             ",
"          E.9.) T E v C M.                                                                          ",
"        R.q.! W i v g b V                                                                           ",
"        1._ T i d d d d c                                                                           ",
"      2.! ) p f d d d d l B                                                                         ",
"        G.<.Z N g d k g g k b.K.          { { { { { { { { O.=.;.!.[.sX                              ",
"          D D A k d x k d d M.K.          { { { { { { { { O.=.;.!.[.sX                              ",
"                    '.0.Y f d g I.      +.{ { { { { { { { { { { { | | | +.                          ",
"                    f.w.$.n c d D.      o.{ { { { { { { { { { { { { { | o.p.                        ",
"                    { { :./.3.g g b 7Xi.{ { { { { { { { { { { { { { { { { { e.Q.                    ",
"                  | { *.p.      C 3.f.,.{ { [ [ { { { { { { { { | | +.o.{ { *.e.j.                  ",
"                | | | ;.        B.6._ ..{ { ~ L [ [ I / { { { { o.+.;.+.{ | { { e.i.                ",
"            j.j.{ | +.              { { { ' G : ` ` * r [ { { { +.+.      *.o.{ | o.eX              ",
"        ;X}.t.*.{ {                 { { { { / I [ [ J ^ { { { { p.r.        =.=.o.{                 ",
"    kXuX;X}.;.{ { {                 { { { { { { { { ` ' { { { { !.            r.o.{                 ",
"    yX;X_.`.t.+.Q.~.                { { { { { { { { { { { { { { Q.                                  ",
"    yX+X_.`.a.;.{.{.                { { { { { { { { { { { { { { k.^.                                ",
"      z./.#X@XOXiXyX                ' [ { { { { { { { { { [ { { w.u.                                ",
"      ,.z.#X@X@X8X8X              ' [ [ { { { { { { { { { { { { -.>.                                ",
"      { y.#X&X&X+X+X        s.s.] ' | | { { { { { { { { { { { { { | i.p.                            ",
"    { { y.#X&X=XOXOX        T T `  .+.+.o.{ { { { { { { { | | | { { { =.l.                          ",
"#.o.{ >.v.@X&X-X@X@X      f u 0 d.W.[.R.9...} { o.| { | @.h.~.^.!.!.W.d.6.h b.                      ",
"#.O.{ r.^.@X&X-X#X*XtX4XV.f 1 $ >X5XzX<X6.X.@.o.+.+.[ @.-. XxXzXsXuX5XK.N 4 S pX                    ",
"{ | =.:.  ;X=X=X=X).b 4 2 k J.4XdXhXhXP.C 3.%.| | } U g.eXgXK.F wXkXjXtX2XI.n.V <X                  ",
"o.+.=.    ;X=X&X=X(.y 1 3 A .XfXhXhXtXL.B S 9.=.-.X.Y d.fXfXV.k 2XjXkXhXuX2XN.z I.4X                ",
"k.k.        OXOX&XE.. N 6XzXkXgX9XXXL.b.N m.<XzXF.7.z b.I.1X4.2 .XtXjXjXhXdX.XA.j 3                 ",
"k.            ;X@XS.O B 6XxXdXgXwX1XJ.x.B J.3XkXZ.4.k n.XXXX4.< V.I.jXtX1XI.C.4.Z M                 ",
"              yX+Xc.$ A 5XjXdXgX5X4XJ.S A >XwXuXS B k n.9X9X4.< N S zX4XV.B g f S.).                ",
"                8XP.% k V.I.<X6XB.B.>Xm.S 5XwXuXC z N D.jXdXI.B.k x pXY.N M.F.(.}.}.-X=XqX          ",
"                    b.A N z m.J.f z <Xm.S pXfXkXN k S Y.zXjX6X<X3 , A z a A.%X&X-X-X&X=X:X          ",
"                      m.k , z S , 4 '.M.S pXxXzXN k M.Y.zXdX6X1X1 . $ , 2 A.%X&X=X-X-X-X=X0X        ",
"                                > >   b S 5XxXzXN k M.T.rX Xj.&.2.2.          yX=X|.&X&X&X=X        ",
"                                0 0   v 4.wX    b l 5.F.7X^.t.} w.0.            &X#X&X&X&X&X&X      ",
"                                [ [ } _ $.u.p.i.Q W X...{ { { { [ } h.h.          uX|.#X-X=XqXuX    ",
"                                ' [ { ..X.:.:.:.) ) ..} { [ [ [ { | r.r.            -X-X=X&X-X0X    ",
"                          L.p q ( ' { { { { { { { { { { [ ` ( ` { { | r.eX          uX0X&X&X&X*X    ",
"                          E K H L L I ^ / ` ( ( ( / ~ ~ / G w e ~ ( { *.r.            0X|.#X&X#X    ",
"                          I r 8 6 6 6 8 q w w w q q 8 r I 8 @ @ 9 e { { | +.          ;X}.#X=X*X    ",
"                          / 7 . . . . . . . . . . . . 6 L 7 + . . @ { { { +.0.Z.2 % oX+X+X$X*X;X    ",
"                          H ; . . . . . . . . . . . . ; r e ; . . # p.;.{ | ) R - X 5 b H.XXqX      ",
"                        8.e = . . . . . . . O O . . . = q r 6 . . # l.t.{ { ^ J * . . 4 H.XX        ",
"                        8.q * . . . . . , S J.>XB k . X @ J 9 . . O d i R ) ] ` : X . . . m         ",
"                        8.w = . . . . $ 4 S     B B . X + G w * X X y t K P I L = . . . . <         ",
"                        1.H ; . . . . 2 B         m.. . . w H r @ X = 6 q w 6 + . . . . . k N.      ",
"                      v t 8 * . . . . 3             % $ . = q r w q 9 8 6 ; - & O   . . . , 3       ",
"                      O # @ X . . . . f             2 < , O * 7 8 9 6 ; + X O ,     2 , . . .       ",
"                k f . . . . . . . . . 3 S               d % . . . . . . . . .       B d . . k       ",
"                j 3 O . . . . . . . O d                   V 3 $ . . O < z 3           z k k N       ",
"                d 3 O . . . . . . . O l                   B.k % . . $ 3 S               A A B       "
};
