/* XPM */
static char *miss[] = {
/* columns rows colors chars-per-pixel */
"50 50 227 2 ",
"   c None",
".  c #020201",
"X  c #0B0101",
"o  c #0C0B0B",
"O  c #080807",
"+  c #140000",
"@  c #1D0000",
"#  c #150A09",
"$  c #131313",
"%  c #1B1B1A",
"&  c #1D1414",
"*  c #250100",
"=  c #2B0100",
"-  c #280C0C",
";  c #330100",
":  c #3C0000",
">  c #311A1B",
",  c #242423",
"<  c #2C2C2B",
"1  c #2B2926",
"2  c #343332",
"3  c #3C3B3B",
"4  c #383733",
"5  c #342F28",
"6  c #440000",
"7  c #4C0000",
"8  c #540000",
"9  c #5B0100",
"0  c #461617",
"q  c #640000",
"w  c #6C0100",
"e  c #750000",
"r  c #7B0000",
"t  c #5D2A2A",
"y  c #413934",
"u  c #452828",
"i  c #6B3B3B",
"p  c #753938",
"a  c #41403F",
"s  c #434241",
"d  c #4C4847",
"f  c #4D4B4A",
"g  c #514B4A",
"h  c #574946",
"j  c #51504F",
"k  c #545453",
"l  c #5A5453",
"z  c #5C5B5B",
"x  c #585856",
"c  c #634545",
"v  c #645957",
"b  c #7C5E5D",
"n  c #6E554E",
"m  c #77695F",
"M  c #656565",
"N  c #686867",
"B  c #6C6C6C",
"V  c #696665",
"C  c #736C6B",
"Z  c #7A6C63",
"A  c #737373",
"S  c #7C7B7B",
"D  c #7A7676",
"F  c #70706E",
"G  c #860101",
"H  c #8B0000",
"J  c #990303",
"K  c #8E1717",
"L  c #A90001",
"P  c #A60505",
"I  c #B40202",
"U  c #BB0706",
"Y  c #AE1C1B",
"T  c #8D2E2D",
"R  c #9A2223",
"E  c #843434",
"W  c #9C3939",
"Q  c #A92828",
"!  c #B92A29",
"~  c #AF3232",
"^  c #C50101",
"/  c #CB0000",
"(  c #C80708",
")  c #D30101",
"_  c #DC0101",
"`  c #CA1919",
"'  c #D91919",
"]  c #E20203",
"[  c #EB0202",
"{  c #E60C0C",
"}  c #F30303",
"|  c #FD0202",
" . c #F50B0B",
".. c #FE0B0B",
"X. c #ED1010",
"o. c #E31818",
"O. c #FE1312",
"+. c #FF1817",
"@. c #FE1C1C",
"#. c #F31414",
"$. c #FF201F",
"%. c #CB2625",
"&. c #CF3434",
"*. c #EF2828",
"=. c #FE2323",
"-. c #FE2D2D",
";. c #F52222",
":. c #FB3434",
">. c #FE3C3B",
",. c #F43634",
"<. c #F44235",
"1. c #8C5352",
"2. c #B55859",
"3. c #B04848",
"4. c #876A6A",
"5. c #837874",
"6. c #937E7F",
"7. c #A66B6B",
"8. c #A87777",
"9. c #B26868",
"0. c #C94747",
"q. c #D75B5C",
"w. c #CC5151",
"e. c #E84646",
"r. c #FE4B4B",
"t. c #F94845",
"y. c #FD534B",
"u. c #EB5050",
"i. c #FC5454",
"p. c #FA5959",
"a. c #F06456",
"s. c #D3706C",
"d. c #CB7675",
"f. c #D87878",
"g. c #D76160",
"h. c #FE6C6C",
"j. c #FA6465",
"k. c #FE7B7B",
"l. c #F47878",
"z. c #F07864",
"x. c #80807F",
"c. c #B29B7F",
"v. c #F88378",
"b. c #838382",
"n. c #898785",
"m. c #898788",
"M. c #8C8C8C",
"N. c #898887",
"B. c #948A88",
"V. c #99918D",
"C. c #949393",
"Z. c #9A9998",
"A. c #A59489",
"S. c #B89886",
"D. c #A29B99",
"F. c #B99997",
"G. c #AB8585",
"H. c #B6AA98",
"J. c #A4A3A3",
"K. c #ACAAA7",
"L. c #B7B1A7",
"P. c #B3B3B3",
"I. c #BDBBBA",
"U. c #BCB9B5",
"Y. c #B7AAAB",
"T. c #DC8383",
"R. c #CB8B8B",
"E. c #E78282",
"W. c #FE8888",
"Q. c #FC9695",
"!. c #FA9A9A",
"~. c #E9978B",
"^. c #CBA696",
"/. c #D3AB99",
"(. c #F9A19B",
"). c #E5B999",
"_. c #E7AE8F",
"`. c #C2BEBD",
"'. c #C7B6B3",
"]. c #E3ADAD",
"[. c #FEA4A4",
"{. c #EBBCA5",
"}. c #FCBFAA",
"|. c #FBB0AC",
" X c #F7B3B2",
".X c #DAC9BB",
"XX c #D4C7B5",
"oX c #EDC5A7",
"OX c #E8C7A8",
"+X c #F3C3AC",
"@X c #FBC2AD",
"#X c #EACAB8",
"$X c #F7C7B1",
"%X c #FCC6B3",
"&X c #FCC8B6",
"*X c #FECAB9",
"=X c #F4CCB5",
"-X c #EED3BC",
";X c #F3D1BB",
":X c #C9C8C7",
">X c #D4CDC8",
",X c #DBD2CC",
"<X c #D7D7CD",
"1X c #D4D3D3",
"2X c #DCDAD9",
"3X c #DBD7D6",
"4X c #F8C5C4",
"5X c #EAD7C4",
"6X c #FADACD",
"7X c #F6D8C7",
"8X c #E4DCD8",
"9X c #FCDAD8",
"0X c #E1CFD0",
"qX c #E9E6DD",
"wX c #F3E2D2",
"eX c #F6E4DC",
"rX c #E0DFE0",
"tX c #E5E4E3",
"yX c #EEEAE2",
"uX c #F3ECEB",
"iX c #F7E8E4",
"pX c #F5F1E5",
"aX c #F6F4EB",
"sX c #FAF3ED",
"dX c #F9F1E7",
"fX c #FDFCFC",
"gX c #F7F4F4",
/* pixels */
"                                                                              1.! %.].].            ",
"                                                                            b n ~ ! T.              ",
"                                                                          m.C c E E ` 0.R.          ",
"                                                                          V z g c i Q ~ w.R.        ",
"                                                                          k d f f f i T ' w.        ",
"                                                                        B x d f f d d p ` ~ 3.      ",
"                                [.W.>.-.+.................          K.b.k g k k f k N b 1.G.        ",
"                                [.W.>.-.+.................          K.N.f f k z k k A D D           ",
"                          @...............................@.      U.g f f Y q.'.                    ",
"                        p.O...............................O.      D.f l v %.e.f.                    ",
"                    W.t.....................................i.4Xv g g 4.~.,.....                    ",
"                  j.t.=.....O.@.....................} } ....,.f.4.C       i.=.....                  ",
"                i.>.........@.>.O.O.........) I } } L ^ ....X.' 7.Z.        >.......                ",
"              9XO.....O.=.      @.O.......} r * ] ] : G [ ......              @.....h.j.            ",
"                ..O.-.-.        r.p.........^ J } } I ) } ......                ....=.t.{.-X        ",
"                ..O.r.            W.........[ ] ................                ......>.{.;XeXsX    ",
"                                  W...........} ................                Q.W.@.t._.).-XeX    ",
"                                Q.k.............................                |.|.>.a._._.oXeX    ",
"                                u.e.....} ..................} [                 eXeXoX+X@X~.z.      ",
"                                ,.;.........................} [ [               5X5X+X+X+Xz.<.      ",
"                            p.i............................... .[ { s.s.        OXOX%X%X@Xy...      ",
"                          l.-............................. .@.@.} ] T T         oXoX&X%X@Xy.....    ",
"                      b.h 7.d.E.k.W.Q.Q.h.#........... .X.0.f.!.E.d.0 u d       +X+X*X%X+Xv.:...O.$.",
"                    tSS 3 M P.2X9XeXfXgX|.;.#.} @.@...#.o.7.:XfX2X`.$ 1 s Z.1XqX=X@X*X%X+X(.r...+.$.",
"                  >NN N.'.,XqXaXsX8XC K.uX9Xg.U  .....&.4.C L.pXdXyX1XJ.x 2 y v /.&X*X&X;X  :.-.....",
"                1II.z V.,XeXdXsXaX<Xk Z.uXuXd.Y o.@.-.w.S B K.qXuXdXuX`.A 3 1 y ^.&X&X&X;X    -.@.O.",
"                3 j A.`.uXdXaXaXqXXX2 5.>XI.b.z 8.F.fX>XM.M b.K..X5XiXuXfX1XM . S.$XoXoX        k.k.",
"                m Z 5.V.U.>XtXaXU.Z.< 5.#X.XN.k 5.B.dX>XJ.B 5.J.,X8XiXuXgX3XN o S.oX-X            k.",
"                ^.S.d g B Z.1XfXA z < 5.5X5XB.k M S eX,X:XA S J.1X8XiXuXuX2XA $ c.OXeX              ",
"          7X=X*X+X{.^.F.B.M P.tXx x Z.I.uXaXD.M z C eX8X2XD M.:XZ.Z.1X>XI.Z.k % L.5X                ",
"          ;X&X%X*X*X%X#XA.a z A , 3 :X3XaXfXP.S k N aXuXtXS M.:Xz s J.M.z M A b.                    ",
"        6X*X*X*X*X&X%X#XA.2 , $ O < >X3XuXfXP.m.k M fXgXtXS N.I.2 , S z , k Z.                      ",
"        &X&X%X%X}.%XeX          2.3.*.j. X9XY.N.k V fXgX8XS M   > >                                 ",
"      %X%X%X%X%X@X%X            q.u. .t.!.4XF.6.l v     0X5.    0 0                                 ",
"    eX7X*X&X@X}.9X          h.h. .} ........X.o.Q ! i.i.u.%.o. .} ..                                ",
"    6X*X%X&X*X*X            r.r...} } } } .. .X.` ` :.:.,.' { ..} [                                 ",
"    &X%X%X%X6XeX          9Xr.......] _ ] ......................[ _ q p J.                          ",
"    $X%X%X}.6X            r.=..._ / e w G _ ) / ) _ _ _ ] ) ^ I L L H K W                           ",
"    =X$X+X{.-X          @.......e 9 @ @ 8 I r 9 q q w w w q 8 6 6 6 8 r I                           ",
"    -X=XoXOXOXOX% 2 G.q.@.......@ . . + 7 L 6 . . . . . . . . . . . . 7 /                           ",
"      7X.X^.v 5 o - R ` ....>.p.# . . ; e r ; . . . . . . . . . . . . ; H                           ",
"        XXH.4 . . * J ( ....r.l.# . . 6 r q * . . . o o . . . . . . . * e 9.                        ",
"        V . . . X : ] { ` R i f O . . 9 H @ X . k B :XJ.S , . . . . . * q 9.                        ",
"        < . . . . * L I P K t y X X * w G + X . M B     S 4 $ . . . . * w 9.                        ",
"      C.k . . . . . + 6 w q 6 * X @ r H w . . . M.        B 2 . . . . ; H 2.                        ",
"      3 , . . .   o & - ; : 7 9 q w r q * . $ %             3 . . . . * 8 t c                       ",
"      . . . , 2     , o X + ; 6 9 9 7 * o , < 2             s . . . . X @ # o                       ",
"      k . . f A       . . . . . . . . . % j               S 3 . . . . . . . . . s k                 ",
"      M k k z           3 z < o . . $ 3 N                   f o . . . . . . . o s j                 ",
"      B A A               S 3 $ . o % k Z.                  k o . . . . . . o o 3 f                 "
};
