/* XPM */
static char *_dfa02c9bc2a426ba9e2ed830182e936Dn6NtGGdNj2AxsP1[] = {
/* columns rows colors chars-per-pixel */
"87 87 157 2 ",
"   c None",
".  c #010100",
"X  c #0A0000",
"o  c #0E0E0E",
"O  c #150000",
"+  c #1E0000",
"@  c gray8",
"#  c #1B1B1A",
"$  c #250000",
"%  c #2F0000",
"&  c #3B0000",
"*  c #321416",
"=  c #232122",
"-  c #2A2A2A",
";  c #323230",
":  c #3B3B38",
">  c #32322F",
",  c #620100",
"<  c #6A0000",
"1  c #730000",
"2  c #780000",
"3  c #4A443A",
"4  c #4B4746",
"5  c #4C4C4C",
"6  c #504A42",
"7  c #51494A",
"8  c #5F4E4E",
"9  c #535352",
"0  c #595957",
"q  c #5A5A5A",
"w  c #604E4E",
"e  c #646464",
"r  c #6C6C6C",
"t  c #737373",
"y  c #7D7575",
"u  c #7B7B7B",
"i  c #860001",
"p  c #8E0000",
"a  c #950809",
"s  c #A30000",
"d  c #AB0000",
"f  c #BB0000",
"g  c #B5100E",
"h  c #8D2E2D",
"j  c #9D2020",
"k  c #813232",
"l  c #A72424",
"z  c #C30000",
"x  c #C90100",
"c  c #D10000",
"v  c #DA090A",
"b  c #C11818",
"n  c #CC1F1F",
"m  c #E40101",
"M  c #ED0203",
"N  c #F50202",
"B  c #FE0101",
"V  c #F50909",
"C  c #FF0C0C",
"Z  c #E51010",
"A  c #E31A1A",
"S  c #FF1414",
"D  c #F51A18",
"F  c #FE1D1D",
"G  c #C52828",
"H  c #EF2424",
"J  c #FF2321",
"K  c #FF2E2F",
"L  c #FF3939",
"P  c #855250",
"I  c #A14242",
"U  c #FF4848",
"Y  c #EB5050",
"T  c #FF5252",
"R  c #D96668",
"E  c #FF6668",
"W  c #FF6E6E",
"Q  c #EB7A62",
"!  c #FD7676",
"~  c #F57A7A",
"^  c #FF7A7A",
"/  c #898788",
"(  c #8D8B8B",
")  c #929190",
"_  c #979999",
"`  c gray60",
"'  c #A38585",
"]  c #AD8385",
"[  c #A59591",
"{  c #B5AB9B",
"}  c #A4A4A4",
"|  c #ACABAA",
" . c #BFBEBD",
".. c #D38F8F",
"X. c #C99595",
"o. c #F38E88",
"O. c #FF8B8B",
"+. c #FB8886",
"@. c #E19795",
"#. c #FF999B",
"$. c #F39595",
"%. c #CDA997",
"&. c #E5AB8B",
"*. c #CDB9B9",
"=. c #DFB5B5",
"-. c #E3ADAD",
";. c #FEA3A2",
":. c #FBABAB",
">. c #EBBDA5",
",. c #F9BBA3",
"<. c #FFBDA8",
"1. c #FDBBB5",
"2. c #DFC9AD",
"3. c #E2C4A0",
"4. c #ECC6A7",
"5. c #E7CDAF",
"6. c #F7C2AC",
"7. c #FBC3AF",
"8. c #E3C7BB",
"9. c #F7C5B0",
"0. c #FEC7B5",
"q. c #F7C9B3",
"w. c #FFC9B9",
"e. c #EFD5BC",
"r. c #F0D3BA",
"t. c #C5C3C3",
"y. c #CDCDCD",
"u. c #D5CDCB",
"i. c #D3D3D3",
"p. c #DDDCDD",
"a. c #F3C6C4",
"s. c #E5D4C4",
"d. c #E9D6C7",
"f. c #F3DBC7",
"g. c #FCD8D8",
"h. c #FED4D4",
"j. c #E8D2D2",
"k. c #ECE6DC",
"l. c #F2E2D1",
"z. c #F3E1DB",
"x. c #FCE3DA",
"c. c #F6EEDE",
"v. c #E4E4E3",
"b. c #EEEEEE",
"n. c #E8E2E0",
"m. c #F4E5E1",
"M. c #FFE2E3",
"N. c #F5E9E1",
"B. c #FEEFEE",
"V. c #F9F1E7",
"C. c #F5F7E9",
"Z. c #FAF7EE",
"A. c #F3F3F2",
"S. c #FFF4F4",
"D. c #FEFDFD",
"F. c #FEF8F3",
"G. c #E0DFE0",
/* pixels */
"                                                                                                                                      P P P n n n -.-.-.                      ",
"                                                                                                                                      P P P n n n -.-.-.                      ",
"                                                                                                                                      P P P n n n -.-.                        ",
"                                                                                                                                  / / 8 w w h h h n n n X.X.X.                ",
"                                                                                                                                  / / w w w j w h n b n X.X.X.                ",
"                                                                                                                                  / / w w w h h h b n b X.X.X.                ",
"                                                                                                                                  7 7 4 4 4 7 5 5 k k k Z v A  .              ",
"                                                                                                                                  7 7 4 5 4 5 4 5 k k k v A v *.              ",
"                                                                                                                            r t t 7 4 4 7 5 7 4 5 4 5 5 b b b I I             ",
"                                                                                                                            t r r 4 6 4 7 4 5 4 4 4 4 5 b b b I I             ",
"                                                                                                                            t r t 4 5 5 5 7 4 4 5 6 5 5 b b b I I             ",
"                                                    M.M.#.#.#.L L L J J B B B B B B B B B B B B C B C                 | | | 5 4 5 5 5 0 0 0 5 9 9 t u u P u u v.              ",
"                                                    M.M.#.#.#.L U L J J B B B B B B B B B B B B B C B                 | | | 4 4 5 5 5 0 0 0 5 9 5 t u t y u P                 ",
"                                                    M.M.#.#.#.L L L J J B C B B B B B B B B B B C B B                 | | | 5 4 5 5 5 0 0 q 5 5 9 t t u y y /                 ",
"                                            F F J B C B B B C B C B B B B B B B B B B B B B B B B B B J K         t.t.5 4 4 4 4 4 N M *.*.                                    ",
"                                            F F F B B B B B B B B B B B B B B B B B B B B B B B B B B K J         t.t.4 4 4 7 5 4 V N *.*.                                    ",
"                                          h.F F F B B B B B B B B B B B B B B B B B B B B B B B B B B J K         t.t.5 4 4 4 4 4 N M *.*.                                    ",
"                                  O.O.O.C B B B B B B B B B B B B B B B B B B B B B B B B B B B B B B B B       7 7 7 7 7 7 @.@.@.B B N B B                                   ",
"                                  O.O.O.B C B B B B B B B B B B N B B N B B B B B B B B B B B B B B B B B a.a.a.7 5 7 7 7 7 @.@.@.B B B B B                                   ",
"                                  O.O.O.B B B B B B B B B B B N B B B B B B B B B B B B B B B B B B B B B a.a.a.7 7 7 7 7 7 @.@.@.B B B B B                                   ",
"                            ^ ! ! B B B B B B B B L K L S F S B B B B B B B B B B B C B C m m m B B B B B G G G ) ) )             +.+.B B B S S S                             ",
"                            ^ ! ^ B B B B B B B B K L L S S S B B B B B B B B C B B B C B m m m N B B B B G G G ( ) )             +.+.B B B S S S                             ",
"                            C C C B B B J J             F F F B B B B B N N N $ % $ B B B & & & M N M B B B B B                       F F F B B B E E E                       ",
"                        g.g.C S C B B B J J             F F F B B B B B N N M % $ $ B B B & & & M m M B B B B B                       F F F B C B W E E                       ",
"                            S C S B B B J J             F F F B B B B B N N N $ $ % B B B & & & M M M B B B B B                       F F F B B B E E E                       ",
"                            B B B U U U                   #.;.B B B B B B B B m m m C B C B B B B B B B B B C B                             B B B B B B >.>.>.l.l.            ",
"                            B B B U U U                   ;.;.B B B B B B B B m m m C C B B B B B B B B B C B C                             C B B B B B >.>.>.l.l.A.B.        ",
"                            B B B U U U                   #.;.B B B B B B B B m Z m B B B B B B B B B B B B C B                             B B B B B B >.>.>.f.l.Z.Z.        ",
"                                                          :.:.B N B B B B N B B B N B B N B B B B B B B B B C C                             ;.;.;.J J F &.&.&.3.3.l.l.l.      ",
"                                                          :.:.B B B N N B B B N N B N B B B B B B B B B B C B B                             ;.;.;.J F J &.&.&.2.3.l.l.l.      ",
"                                                        :.:.:.B B N B B B B B B N B B N B B B B N B B B B B C B                             ;.:.;.J F H &.&.&.3.3.l.l.        ",
"                                                        Y Y Y B B B M M B B B B B B B B B B B B B B B N V M m M                             l.z.l.4.4.4.<.6.7.Q Q             ",
"                                                        Y Y Y B B B N V B B B B B B B B B B B B B B B N N M M m                             l.l.l.4.4.4.7.7.7.Q Q             ",
"                                                        Y Y Y B B B M N B B B N B B B B B B B B B B B N N m Z M                             l.l.l.4.4.4.0.>.9.Q Q             ",
"                                                  ~ ~ ~ C B B B B B B B B B B B B B B B B B B N B B B B B B N B m M m o.o.o.                5.5.5.0.w.0.6.6.6.B B             ",
"                                                  ~ ~ ~ B C C B B B B B B B B B B B B B B B B B B B B B B N N V m m m o.o.o.                5.5.5.7.0.0.6.,.<.B B             ",
"                                            ~ ~ ~ B B B C B B C C C C C B B B B B B B B B B B B B B B D D F F D M V M h h h                 4.>.4.0.w.0.6.6.0.C C B B B       ",
"                                            ~ ~ ~ B B B B B B C C C C C B B B B B B B B B B B B B B B D D F F D N M M h h h                 4.2.4.0.w.w.7.7.6.C C B C B       ",
"                                            ~ ~ ~ N B B B B B C C C C C B B B B B B B B B B B B B B B D D D F D M N M h h h                 4.4.4.0.w.0.7.6.7.C V C B B       ",
"                                    G.v.= # e e e p.p.p.g.M.x.D.D.D.B.B.H H H N N N F F F C C S A A A / ( D.D.D.i.y.i.@ @ o 5 4 4           9.4.6.w.w.w.6.6.6.o.o.B B B J F J ",
"                                  v.v.p.# = e e e p.p.p.x.x.x.D.D.D.S.B.H H H V N V F F F C S C A H A ( ( D.D.D.i.u.y.@ @ @ 4 : 4  .t.G.k.G.6.6.9.w.w.w.6.6.6.o.o.B B B J F J ",
"                                  v.G.v.= # r e e p.p.i.M.g.M.D.D.D.B.B.H H H M V N F D F S C S A A A ( ( D.D.D.i.i.i.@ @ @ 4 4 4 y.t.G.k.v.4.6.,.w.w.w.>.6.<.o.o.B B B F J F ",
"                              b.b.9 9 9  .8.k.k.z.Z.Z.Z.Z.Z.Z.0 0 0 b.b.S.S.S.g g g C C C C C C y y y e e N.c.c.C.Z.C.A.b.b.0 0 q . o 3 3 3 0.q.q.w.0.0.r.r.r.    K K K B B B ",
"                            A.b.b.9 q 9  .*.k.z.k.Z.Z.V.Z.Z.Z.0 0 0 A.A.S.S.S.g g g C V C C C S y y y r e c.c.c.C.C.V.b.b.b.q q q . . 3 3 3 q.w.w.w.w.0.r.r.r.    K K K B B B ",
"                            b.b.b.9 9 0 *.t.k.k.z.Z.Z.Z.Z.C.C.0 0 0 b.b.S.S.F.g g g V S C C C C y y y e e c.c.c.C.C.Z.b.A.b.q q q . . 3 3 3 0.q.w.w.0.0.r.r.      K K K B B B ",
"                            : : : [ [ [ n.n.V.V.V.C.C.C.k.n.k.; ; ; s.s. . . .q q q ] ] ] D.A.D.( ) ( 9 9 | | | d.d.d.m.m.m.D.D.D.t.t.. . . 9.9.9.4.4.4.                ^ ^ ^ ",
"                            : 3 : [ [ [ v.m.V.V.V.C.C.C.k.k.k.; ; ; s.s. . . .q q q ] ] ] D.D.D.( ( ( 9 9 } { | e.s.d.m.m.N.D.D.D. .t.o o . q.9.q.4.4.4.                ^ ^ ^ ",
"                            : : : [ [ [ N.b.V.V.C.C.C.C.k.k.k.; ; ; s.5. .*. .q q q ] ] ] F.D.F.( ) ( 9 9 | | } d.s.d.m.m.m.D.D.D.t. .. . . q.9.9.4.4.4.                ^ ^ ^ ",
"                            %.%.%.6 6 6 9 9 _ _ _ A.D.A.r r r - - - d.d.s.s.d.9 9 9 r e r z.z.z. .*. .5 5 } } } G.G.p.m.m.m.B.B.V.y.y.@ @ @ 3.3.3.l.l.                        ",
"                            %.%.%.6 6 6 9 9 _ _ _ F.A.D.e r e - - - d.d.s.s.s.9 0 9 r r r z.z.z.t.t.t.5 5 } } ` G.p.G.m.m.m.B.b.B.y.y.@ @ o 3.3.3.l.l.                        ",
"                          F.%.%.%.6 6 3 9 9 ` ` _ A.D.D.r r r - - - d.d.s.s.s.9 9 9 e r e z.z.l.t.t.t.5 5 } } } G.p.G.m.m.z.B.b.V.y.y.@ @ @ 3.3.3.l.                          ",
"                f.f.f.6.6.6.w.w.0.w.w.0.*.*.5 5 5 p.p.i.: : : t.y.t.A.A.F.D.D.r r t 9 9 0 z.x.z.v.v.v.4 5 i.i.i.e r e y.y.y.} } } r r # # # C.A.                              ",
"                f.f.f.6.6.6.w.w.w.0.0.0.*.2.4 5 5 p.p.p.: > : t.t.t.A.F.D.D.D.r r r 9 9 9 z.k.m.v.k.v.5 5 i.y.i.r r e y.y.y.} } } r t # # #                                   ",
"                0.w.0.w.w.w.w.w.w.0.6.0.8.8.; : > @ @ @ . . . u.u.u.v.k.D.D.D./ / / 5 5 9 D.D.D.v.v.v.5 5  . . .# # @ u u u = = = e e p.p.p.                                  ",
"              N.0.w.0.w.w.0.w.w.w.9.q.9.8.8.; ; : @ @ @ . . . u.u.u.v.k.D.D.D./ / / 5 5 5 D.D.D.v.b.v.5 4  . . .@ # # y u u = - = r e p.i.                                    ",
"              N.w.w.0.w.w.w.w.w.w.9.0.9.8.8.> : > @ @ @ o o o u.u.u.n.k.D.D.D.u / / 5 5 9 D.D.D.v.v.v.5 4  . . .# # # y u u - = - e e                                         ",
"            6.6.0.0.0.0.0.1.<.<.<.N.c.N.                R R R N V V $.$.g.g.g./ / / 5 5 9 D.D.D.p.G.G.5 9       * * *                                                         ",
"            9.6.0.w.0.0.0.7.<.<.<.c.N.                  R R R V V N $.$.g.g.g./ / / 5 5 9 D.D.D.  G.p.5 5       * * *                                                         ",
"            6.9.0.0.0.0.1.0.<.<.<.                      R R R V V V $.$.g.g.g./ ( / 5 5 5         G.G.9 5       * * *                                                         ",
"        x.x.w.w.w.w.0.<.<.<.x.g.x.                W W W N N N C B N B B B B N A A A l l l T T T Y Y Y b b V V V N N N                                                         ",
"      x.x.x.q.w.w.0.0.<.<.<.x.l.                  W W W N N N B B B B B B B B A v A l l l T T T Y Y Y b b C V V V N N                                                         ",
"      x.x.x.w.w.0.w.w.<.<.<.f.                    W W W N N N B B B B B B B N A A A l l l T T T Y Y Y b g V C V N N N                                                         ",
"      q.q.q.7.9.0.0.w.x.x.x.                      C C C B B B m m m c v N N N B B B B B C B B B B B N C C B B B m m m , , ,                                                   ",
"      q.q.0.7.0.0.0.0.x.x.                    h.h.C C C B B B m m M c c N B N B B B B B B B B B B B B B B B B B m m m , , , | }                                               ",
"      q.q.q.0.7.w.0.0.x.z.                    h.h.B C C B B B m m m c m N N B B B B B B B B B B B B B B B B B B m m m , , , | |                                               ",
"      q.9.9.0.0.,.,.,.c.N.                  S S S B B B x x x & & & + + z x x d d d z x z x x x c c c f f p p p i i i s s s a a a                                             ",
"      q.9.6.7.0.,.,.,.z.c.                  F S F B B B x x x & & & + + z x z d d d z z z x c x c c c f f p i p i i i s s s s a s                                             ",
"      e.e.e.6.6.>.3.3.2.5.  # @ @ ' ' ' K K B B B B B C . . . . . . + $ d d s . . . . . . . . . . . . . . . . . . . . . . . x c c                                             ",
"      e.e.e.9.6.3.3.4.3.2.2.@ @ # ' ' ' K K B B B B B C . . . . . . $ $ d d d . . . . . . . . . . . . . . . . . . . . . . . c c c                                             ",
"      e.e.e.6.,.3.3.3.5.2.2.@ @ @ ' ' ' K K B B B B C B . . . . . . + $ s d s . . . . . . . . . . . . . . . . . . . . . . . c x c                                             ",
"            l.l.{ { { . . . . o . a a p B B B B B ! ! ! . . . . . . i i < < < . . . . . . . . . . . . . . . . . . . . . . . 1 1 2                                             ",
"            l.l.{ { { . . . . . . a a a B B B B C ! ! ! . . . . . . i i < < < . . . . . . . . . o . . . . . . . . . . . . . 1 1 1                                             ",
"              l.{ { { . X X . . . a a a V B C B B ! ! ~ . . . . . . i i < < < . . . . . . . . . . . . . . . . . . . . . . . 1 1 1 j.                                          ",
"              k.. o . . . . X X X v m v Z Z j j j 4 4 5 . . . . . . x x + + + . . . e q e t.y.t.u u u . . . . . . . . . . . , , , =.                                          ",
"                o . . . . . X X X m m m Z Z j j j 4 5 5 . . . . . . x z + + + . . . e e q t.  t.u u u . . . . . . . . . . . , , , =.                                          ",
"                . . o . . . X X . m m m Z Z j j j 5 4 5 . . . . . . x x + + + . . . q e e       u u u . . . . . . . . . . . , , , =.                                          ",
"            ( ( . X o . . . . . . O O O 1 1 , , , % % % X X X 2 2 2 s a X . . . . . } }               r r . . . . . . . . . p i p ..                                          ",
"            ) ( . . . . . . . . . O O O 1 1 < , < % % % X X X 2 2 1 s s . . . . . . } |               r r . . . . . . . . . p p p ....                                        ",
"            ) ) o . . . . . . . . O O O 2 2 , < , % % % X X X 2 2 2 s a . . . . . .                   r e . . . . . . . . . p p p ....                                        ",
"            . . . . . . . .       = = = . . $ $ $ 2 2 2 s s s i 2 i X X . . . ; ; ;                     ` . . . . . . . . . % % % @ @                                         ",
"            . . . . . . . .       = = = . X $ $ $ 2 2 2 d s s i i 2 X X . . . ; ; ;                     ` . . . . . . . . . % % % @ @                                         ",
"            . . . . . t r t             . . . . . . . . . . . . . . . . 5 5 9                         u u . . . . . . . . . . . . . X . . . 0 9 9                             ",
"          t.. . . . . r t t             . . . . . . . . . . . . . . . . 9 9 5                         u u . . . . . . . . . . . . . . . . . 9 0 0                             ",
"           .. . . . . t t r             . . . . . . . . . . . . . . . . 5 5 5                         u u . . . . . . . . . . . . . . . . . 9 9 9                             ",
"            t t t t t                       u u u @ @ @ . o . # # # ` )                                 | o o o . . . . . . . . . X . @ o o 9 9 5                             ",
"            t r t t t                       u u u @ # @ . X . # # # ) _                                 | o o o . . . . . . . . . . . o o o 5 5 5                             ",
"            r t t t t                       u u u # @ @ . . o # # # ` )                                 | o o o . . . . . . . . . . o o o o 5 5 9                             "
};
