/* XPM */
static char *player[] = {
/* columns rows colors chars-per-pixel */
"70 49 207 2 ",
"   c #291618",
".  c #331A1D",
"X  c #3A1B1E",
"o  c #3E1D21",
"O  c #372729",
"+  c #2E3334",
"@  c #3B3637",
"#  c #322B2D",
"$  c #401E22",
"%  c #422125",
"&  c #44292D",
"*  c #4A2729",
"=  c #532D2D",
"-  c #592E2D",
";  c #4A2D31",
":  c #4E3136",
">  c #49393A",
",  c #53363A",
"<  c #583537",
"1  c #643B39",
"2  c #693D3B",
"3  c #623635",
"4  c #7B3E3C",
"5  c #763C3A",
"6  c #6E3029",
"7  c #6B403E",
"8  c #78433B",
"9  c #7E5239",
"0  c #4E3E40",
"q  c #593D41",
"w  c #533D41",
"e  c #395052",
"r  c #2F4648",
"t  c #366667",
"y  c #337374",
"u  c #584449",
"i  c #584C52",
"p  c #5D5153",
"a  c #6D4A4A",
"s  c #654749",
"d  c #744542",
"f  c #764A44",
"g  c #7C4D4A",
"h  c #764B49",
"j  c #694E51",
"k  c #6C5255",
"l  c #67595E",
"z  c #755859",
"x  c #665C65",
"c  c #775E60",
"v  c #6F6164",
"b  c #7B6A6D",
"n  c #766669",
"m  c #756C73",
"M  c #893E31",
"N  c #954A38",
"B  c #A84937",
"V  c #B64C34",
"C  c #91603F",
"Z  c #C65337",
"A  c #DB5A3A",
"S  c #EB5F3A",
"D  c #E65D39",
"F  c #854541",
"G  c #8A4B46",
"H  c #954E49",
"J  c #9A4C45",
"K  c #87514D",
"L  c #9C514B",
"P  c #895855",
"I  c #945D57",
"U  c #AB5952",
"Y  c #A85853",
"T  c #B35D56",
"R  c #BB5F57",
"E  c #AB554C",
"W  c #996742",
"Q  c #8A634B",
"!  c #BE6159",
"~  c #B4615B",
"^  c #B27A4A",
"/  c #84696B",
"(  c #836D71",
")  c #87777A",
"_  c #957A7B",
"`  c #916F70",
"'  c #B57268",
"]  c #A77371",
"[  c #A66966",
"{  c #D15A41",
"}  c #C4645C",
"|  c #C9675D",
" . c #D56A5B",
".. c #D86049",
"X. c #EB6445",
"o. c #CC6960",
"O. c #D56D63",
"+. c #D96F65",
"@. c #DD7166",
"#. c #DA7167",
"$. c #C47C77",
"%. c #D27D76",
"&. c #E47569",
"*. c #EE7A6E",
"=. c #E8776B",
"-. c #B88354",
";. c #B48A6C",
":. c #C48852",
">. c #D99958",
",. c #CD9156",
"<. c #E19F59",
"1. c #E8A65B",
"2. c #F4AF5F",
"3. c #C69565",
"4. c #D3A87E",
"5. c #FBB561",
"6. c #FABA6C",
"7. c #777B86",
"8. c #8A7E81",
"9. c #917D80",
"0. c #7C8490",
"q. c #938285",
"w. c #9D8282",
"e. c #948688",
"r. c #9A898D",
"t. c #96898D",
"y. c #868B96",
"u. c #9C8D91",
"i. c #958F95",
"p. c #88919D",
"a. c #93949C",
"s. c #9D9598",
"d. c #8B8081",
"f. c #A38686",
"g. c #A29295",
"h. c #A49698",
"j. c #A69A9D",
"k. c #AA9B9D",
"l. c #B49792",
"z. c #BC928D",
"x. c #8B97A3",
"c. c #939AA4",
"v. c #AC9EA1",
"b. c #A39EA2",
"n. c #9BA3AD",
"m. c #91A1AE",
"M. c #96ACBB",
"N. c #9AADBA",
"B. c #98A7B3",
"V. c #9AB0BE",
"C. c #A7A4AA",
"Z. c #B4A9AC",
"A. c #B9ACAE",
"S. c #B3A5A7",
"D. c #B6AEB2",
"F. c #A8B2BC",
"G. c #BCB1B4",
"H. c #BDB5B9",
"J. c #B8B7BD",
"K. c #A2A8B1",
"L. c #C78E8A",
"P. c #C9918D",
"I. c #CCA789",
"U. c #C1B6B9",
"Y. c #C4BABD",
"T. c #C4B8B8",
"R. c #CAADA9",
"E. c #F5CC9B",
"W. c #CFC2BD",
"Q. c #E8CBB1",
"!. c #EECEB0",
"~. c #9AB4C4",
"^. c #AAB8C3",
"/. c #BCBCC3",
"(. c #B5BBC3",
"). c #C4BDC1",
"_. c #C9BFC2",
"`. c #B9C3CC",
"'. c #CBC2C5",
"]. c #C9C7CC",
"[. c #D2CACD",
"{. c #D4C8C8",
"}. c #CDCDD3",
"|. c #D5CED1",
" X c #DAD3D6",
".X c #DDD6D9",
"XX c #DED9DC",
"oX c #D6D3D7",
"OX c #C8D2DA",
"+X c #E1DBDD",
"@X c #E5D4CA",
"#X c #EEE2DA",
"$X c #DBDDE2",
"%X c #E4DDE0",
"&X c #E7E2E4",
"*X c #E8E3E6",
"=X c #EBE6E9",
"-X c #EDE9EC",
";X c #E6E6EA",
":X c #F3ECEB",
">X c #F2EEF1",
",X c #F5F2F4",
"<X c #F8F4F7",
"1X c #FAF7F9",
"2X c #FEFBFE",
"3X c #F8F0EC",
"4X c None",
/* pixels */
"4X4X4X4X4X4X4X4X4X4X4X4X4X4X4X4X4X4X4X4X4X4X4X4X4X4X4X4X4X4X4X4X4X4X4X4X4X4X4X4X4X4X4X4X4X4X4X4X4X4X4X4X4X4X4X4X4X4X4X4X4X4X4X4X4X4X4X4X4X4X",
"4X4X4X4X4X4X4X4X4X4X4X4X4X4X4X4X4X4X4X4X4X4X4X4X4X4X4X4X4X4X4X4X4X4X4X4X4X4X4X4X4X4X4X4X4X4X4X4X4X4X4X4X4X4X4X4X4X4X4X4X4X4X4X4X4X4X4X4X4X4X",
"4X4X4X4X4X4X4X4X4X4X4X4X4X4X4X4X4X4X4X4X4X4X4X4X4X4X4X4X4X4X4X4X4X4X4X4X4X4X4X4X4X4X4X4X4X4X4X4X4X4X4X4X4X4X4X4X4X4X4X4X4X4X4X4X4X4X4X4X4X4X",
"4X4X4X4X4X4X4X4X4X4X4X4X4X4X4X4X4X4X4X4X4X4X4X4X4X4X4X4X4X4X4X4X4X4X# t t + 4X4X4X4X4X4X4X4X4X4X4X4X4X4X4X4X4X4X4X4X4X4X4X4X4X4X4X4X4X4X4X4X",
"4X4X4X4X4X4X4X4X4X4X4X4X4X4X4X4X4X4X4X4X4X4X4X4X4X4X4X4X4X4X4X4X4X4Xr y y e + 4X4X4X4X4X4X4X4X4X4X4X4X4X4X4X4X4X4X4X4X4X4X4X4X4X4X4X4X4X4X4X",
"4X4X4X4X4X4X4X4X4X4X4X4X4X4X4X4X4X4X4X4X4X4X4X4X4X4X4X4X4X. 4X4X4X4X# @ O y y + 4X4X4X4X4X4X4X4X4X4X4X4X4X4X4X4X4X4X4X4X4X4X4X4X4X4X4X4X4X4X",
"4X4X4X4X4X4X4X4X4X4X4X4X4X4X4X4X4X4X4X4X4X4X4X4X4X4X4X4X4X4X  4X4X4Xt @ e g g 4X4X4X4X4X4X4X4X4X4X4X4X4X4X4X4X4X4X4X4X4X4X4X4X4X4X4X4X4X4X4X",
"4X4X4X4X4X4X4X4X4X4X4X4X4X4X4X4X4X4X4X4X4X4X4X4X4X4X4X4X4X4X4X  4X4X4Xd #.R &.- 4X4X4X4X4X4X4X4X4X4X4X4X4X4X4X4X4X4X4X4X4X4X4X4X4X4X4X4X4X4X",
"4X4X4X4X4X4X4X4X4X4X4X4X4X4X4X4X4X4X4X4X4X4X4X4X4X4X4X4X4X4X4X4X4X4X4X' L.*.*.} 4X4X4X4X4X4X4X4X4X4X4X4X4X4X4X4X4X4X4X4X4X4X4X4X4X4X4X4X4X4X",
"4X4X4X4X4X4X4X4X4X4X4X4X4X4X4X4X4X4X4X4X4X4X4X4X4X4X4X4X4X= 8 - 4X4XH P.3X%.*.*.F > x j x c , . 4X4X4X4X4X4X4X4X4X4X4X4X4X4X4X4X4X4X4X4X4X4X",
"4X4X4X4X4X4X4X4X4X4X4X4X4X4X4X4X4X4X4X4X4X4X4X4X4X4X4X4X* +.*.=.H 4XS.f.:XR.*.*.+.P I y.M.N.(.v.9.u . 0 4X4X4X4X4X4X4X4X4X4X4X4X4X4X4X4X4X4X",
"4X4X4X4X4X4X4X4X4X4X4X4X4X4X4X4X4Xm 4X4X4X4X4X4X4X4X4X4XL *.*.*.*.R / `  XL.E } *.! *.~ p.m.~.~.n.n G.1XU.&       4X4X4X4X4X4X4X4X4X4X4X4X4X",
"4X4X4X4X4X4X4X4X4X4X4X4X4X4X4X4X4XA.b.4X4X4X4X4X4X4X4X4X+.*.*.*.*.*.} %.' B V V } &.N U A.>X.Xb.( >X2X2X=X|..X+X) l 4X4X4X4X4X4X4X4X4X4X4X4X",
"4X4X4X4X4X4X4X4X4X4X4X4X4X4X4X4X4X# 4X4X4X4X4X4X4X4X4X. =.*.*.*.=.@.*.} Z D Z 6 V  .T +.v.}.-Xq.1X2X2X=Xq.2X1X( < v 4X4X4X4X4X4X4X4X4X4X4X4X",
"4X4X4X4X4X4X4X4X4X4X4X4X4X4X4X4X4X4X4X4X4XO # 4X4X4X4X4X .*.*.*.*.} +...S S S D V X.o.( ~.~.B.b.2X2X2X'.-X2Xk.U ! 4 4X4X4X4X4X4X4X4X4X4X4X4X",
"4X4X4X4X4X4X4X4X4X4X4X4X4X4X4X[.4X4X4X4X4Xj.4X4X4X4X4X4X5 *.*.*.*.*.*.Z S S S S D Z =.v.}.^.M.Z.2X2X2Xr.2X,XK +.#.*.4 4X4X4X4X4X4X4X4X4X4X4X",
"4X4X4X4X4X4X4X4X4X4X4X4X4Xq.4X4X4X4X4X4X4Xj.p 4X4X4X4X4X4X3 | *.*.&. .A S S S S D { ~ ).>Xu.h.Z.2X2X1XXX2XS.+.*.*.*.o.o 4X4X4X4X4X4X4X4X4X4X",
"4X4X4X4X4X4X4X4X4X4X4X4X4X;.> G.|.4X4X4Xn 4X4X4X4Xu 4X4X4XM M B B Z D A S S D Z J o.j OX1Xx.^.A.2X2X2X+X2X] *.*.*.*.=.o.F F G 4 % 4X4X4X4X4X",
"4X4X4X4X4X4X4X> ) 4X4X4X;X1XH.D.2Xi.4X4XG.'.4X4Xv 4X4X4X4XM d V { Z A B B N J } T / 8.(.2X/.~.i.'.'.1X2X<X9.d a I E =.=.| =.*.*.@.4X4X4X4X4X",
"4X4X4X4X4X4X4Xp 4X4X4Xb ].)._.;X&XS.) 4X4X4X4Xb _.4X4X4X4Xi M.y.D.[.( c ~ &.] g.h._.r.x.>X>XN.c.1X`.J.2X;Xb l ~.}..X[ *.=.| } *.*.1 4X4X4X4X",
"4X4X4X4XO '.|.4X4X4X1X|..X%X X].[.=X1X4X4X4X4X4X4X4X4X4X4X7.b.F.=X(.1X%X).; >X-X2X2Xu.y.$X1Xc.~.$X-XN.a.b U.K.~.M.J.o.*.*.*.*.*.*.F 4X4X4X4X",
"4X4X4Xs.XX X4X4X4XW.2X-X|.{.-X2X.X[.%X( H.k 4X4X= . 4X4X4XN.) c.=XC.1Xq , % q : .X2Xu.w `.U./.~.^.1X`.~.B.*X-Xn.~.P *.*.*.*.*.*.O.H 4X4X4X4X",
"4X4Xb ) p 4X4X4X0 ,X=X.X2X>X<X<X-XY._.Y.{.n 4X| *.o.% 4Xi a.1Xc.%XC.%Xo o o o %  X2XU.u y.>X>X~.~.$X,XN.~.K.1X.Xm.R | O.*.*.*.*.&.L 4X4X4X4X",
"4Xb .X4X4X4X4X4X4Xb g..X[. X%X{.U.@XS.G. .*.Y O.*.&.- r.%XG.r.Z.;X).,X: o o o s U.9.%X& x ].2X].~.F.,XoX~.~./.2X(.P U a @.*.*.U L * 4X4X4X4X",
"4X4X4X4X4X4Xn 4X4Xj k.,X2X=XT.E.l.:.:.k.o.*.O.4 L U r.-XU.%X%X}.}.%X2X9.o o o q >Xr.'.b $ c.1X1XB.~.(.2X^.~.~.>X,XM.`.'.= R T 4X4X4X4X4X4X4X",
"4X4X4X4X4XC.Z.4X4X> k.A.1Xv.< :.C W 5.@XY T ! *.T o.9.D..X-X].;X_.2X2X_.o o o o ( 2X2X[.o m _.2X/.~.M.%X*XN.m.D.-X(.^.k.4X4X4X4X4X4X4X4X4X4X",
"4X4X4X4Xp Y.4X4X4X0.,X[.[.;.Q ,.2.,.5.Q.$.*.*.o.T F ` 9.9.{.].>X_.2X2X/ o o o o o 9.2X2Xj u B.>X,Xn.~.(.U.l 7.c.2X^.0.4X4X4X4X4X4X4X4X4X4X4X",
"4X4X4X4Xt.4X4X4X4X;.-X XQ.5.5.2.5.1.>.z [ Y 4 T *.*.*.@.&.#.f.%X*X2X_.o o o o o $ % >X2Xh.w ~.(.2X/.B.l U. X~.N.,Xk o 4X4X4X4X4X4X4X4X4X4X4X",
"4X4X4X4X4X4X4X4X4X; n +XI.<.C >.1.* 1.I.3.} H *.+.*.*.*.*.*.P.T.2X2XH.o o o o o o v.2X2X[.0 x.c.1X+Xy.M. X2XB.N.'.% . 4X4X4X4X4X4X4X4X4X4X4X",
"4X4X4X4X4Xt.> 4X4X4Xr.k.I.1.9 -.5.:.1.E.l.H * Y - O.*.*.*.*.P.G.2X2X1Xs o o o $ v.2X2X2X%Xo m.p.) U.x.~.`.2XF.~.w o 4X4X4X4X4X4X4X4X4X4X4X4X",
"4X4X4X4X4Xs.4X4X4X4XC.#X6.5.5.>.5.1.5.9 D.( 4X4X4X% L O.*.O.] S.2X2X2X+X; o o 9.2X2X2X2X.X8.F.& o o : y.F.2XF.x o o 4X4X4X4X4X4X4X4X4X4X4X4X",
"4X4X4X4Xl ) 4X4X4X4Xw G.C 2.N -.5.Q I.W.9.4X4X4X4X4X4X4X* = & ) 1X2X2X2XA.o s ,X2X2X2X1XS.[.Z.o o o o % v Y.j o o o 4X4X4X4X4X4X4X4X4X4X4X4X",
"4X4X4X4X4X4X4X4X4X4X4XH.R.6.^ 3.!.%XXX&X4X4X  4X4X4X4X4X4X4X4Xb k r.H.-X1X9.|.2X2X2X2XH.y.XXq.$ o o o o o o o o o 4X4X4X4X4X4X4X4X4X4X4X4X4X",
"4X4X4X4X4X4X4X4X4X4X4Xn &X3X!.3X2X-XA.0 4X4X4X4X4X4X4X4X4X4X4X& r.x z : m g.,X1Xh.( s < j t.q o o o o o o o o o X 4X4X4X4X4X4X4X4X4X4X4X4X4X",
"4X4X4X4X4X4X4X4X4X4X4X4XO s ) d.n 4X4X4X4X4X4X4X  4X4X4X4X4X4X4Xo i y.+X^.J.A.U.9.f._ a 2 d % $ X o o o o o o o 4X4X4X4X4X4X4X4X4X4X4X4X4X4X",
"4X4X4X4X4X4X4Xs.2X4X4X4X4X4X4X4X4X4X4X4X4X4X4X4X4X4X4X4X4X4X4X4X4X4X. , c a.|.).w.f.f.w.k d 2 % $ o $ . o o o 4X4X4X4X4X4X4X4X4X4X4X4X4X4X4X",
"4X4X4X4X4X4X4Xp ;.4X4X4X4X4X4X4X4X4X4X4X4X4X4X4X4X4X4X4X4X4X4X4X4X4X4Xo o x x.y.w.f.f.f.f.a 2 h $ o o . o o 4X4X4X4X4X4X4X4X4X4X4X4X4X4X4X4X",
"4X4X4X4X4X4X4X4X4X4X4X4X4X4X4X4X4X4X4X4X4X4X4X4X4X4X4X4X4X4X4X4X4X4X4X4X4Xo & 0 a f.f.f.f._ 2 < = o o . . 4X4X4X4X4X4X4X4X4X4X4X4X4X4X4X4X4X",
"4X4X4X4X4X4X4X4X4X4X4X4X4X4X4X4X4X4X4X4X4X4X4X4X4X4X4X4X4X4X4X4X4X4X4X4X4X4Xo o ; f.f.f.f.f.l < g $ o 2 & 4X4X4X4X4X4X4X4X4X4X4X4X4X4X4X4X4X",
"4X4X4X4X4X4X4X4X4X4X4X4X4X4X4X4X4X4X4X4X4X4X4X4X4X4X4X4X4X4X4X4X4X4X4X4X4X4X4Xo o s f.f.f.f.;.7 5 < o K 2 4X4X4X4X4X4X4X4X4X4X4X4X4X4X4X4X4X",
"4X4X4X4X4X4X4X4X4X4X4X4X4X4X4X4X4X4X4X4X4X4X4X4X4X4X4X4X4X4X4X4X4X4X4X4X4X4X4Xo o o s ) / c k < k d < I 2 4X4X4X4X4X4X4X4X4X4X4X4X4X4X4X4X4X",
"4X4X4X4X4X4X4X4X4X4X4X4X4X4X4X4X4X4X4X4X4X4X4X4X4X4X4X4X4X4X4X4X4X4X4X4X4X4X4X4Xo o o $ o $ a / z 3 f P = 4X4X4X4X4X4X4X4X4X4X4X4X4X4X4X4X4X",
"4X4X4X4X4X4X4X4X4X4X4X4X4X4X4X4X4X4X4X4X4X4X4X4X4X4X4X4X4X4X4X4X4X4X4X4X4X4X4X4X4X4X. * = K a / n F f - 4X4X4X4X4X4X4X4X4X4X4X4X4X4X4X4X4X4X",
"4X4X4X4X4X4X4X4X4X4X4X4X4X4X4X4X4X4X4X4X4X4X4X4X4X4X4X4X4X4X4X4X4X4X4X4X4X4X4X4X4X4X* f K K g c ;.a d = 4X4X4X4X4X4X4X4X4X4X4X4X4X4X4X4X4X4X",
"4X4X4X4X4X4X4X4X4X4X4X4X4X4X4X4X4X4X4X4X4X4X4X4X4X4X4X4X4X4X4X4X4X4X4X4X4X4X4X4X4X4X1 I P K K K s d 1 4X4X4X4X4X4X4X4X4X4X4X4X4X4X4X4X4X4X4X",
"4X4X4X4X4X4X4X4X4X4X4X4X4X4X4X4X4X4X4X4X4X4X4X4X4X4X4X4X4X4X4X4X4X4X4X4X4X4X4X4X4X4X= I I I P K a 7 4X4X4X4X4X4X4X4X4X4X4X4X4X4X4X4X4X4X4X4X",
"4X4X4X4X4X4X4X4X4X4X4X4X4X4X4X4X4X4X4X4X4X4X4X4X4X4X4X4X4X4X4X4X4X4X4X4X4X4X4X4X4X4X4X* 7 7 f 2 2 4X4X4X4X4X4X4X4X4X4X4X4X4X4X4X4X4X4X4X4X4X",
"4X4X4X4X4X4X4X4X4X4X4X4X4X4X4X4X4X4X4X4X4X4X4X4X4X4X4X4X4X4X4X4X4X4X4X4X4X4X4X4X4X4X4X4X4X= < 4X4X4X4X4X4X4X4X4X4X4X4X4X4X4X4X4X4X4X4X4X4X4X",
"4X4X4X4X4X4X4X4X4X4X4X4X4X4X4X4X4X4X4X4X4X4X4X4X4X4X4X4X4X4X4X4X4X4X4X4X4X4X4X4X4X4X4X4X4X4X4X4X4X4X4X4X4X4X4X4X4X4X4X4X4X4X4X4X4X4X4X4X4X4X"
};
