/* XPM */
static char *talon[] = {
/* columns rows colors chars-per-pixel */
"39 50 185 2 ",
"   c #000000",
".  c #0B0D0D",
"X  c #080808",
"o  c #100C0B",
"O  c #14110F",
"+  c #131514",
"@  c #1A1513",
"#  c #161B1D",
"$  c #191E19",
"%  c #181816",
"&  c #0F1314",
"*  c #211D19",
"=  c #221D17",
"-  c #2D0E06",
";  c #1D221B",
":  c #23251C",
">  c #171D20",
",  c #1D2527",
"<  c #282A25",
"1  c #322A23",
"2  c #2A3426",
"3  c #3B332B",
"4  c #383A2A",
"5  c #282F31",
"6  c #363936",
"7  c #293337",
"8  c #5B1A08",
"9  c #411208",
"0  c #711F06",
"q  c #792208",
"w  c #772F19",
"e  c #433B31",
"r  c #483F35",
"t  c #50392B",
"y  c #494432",
"u  c #484939",
"i  c #544B3A",
"p  c #43543D",
"a  c #585538",
"s  c #61573E",
"d  c #6B4A38",
"f  c #313D41",
"g  c #37454A",
"h  c #384649",
"j  c #3E4D53",
"k  c #454947",
"l  c #5B4F41",
"z  c #495B43",
"x  c #5A5347",
"c  c #5B5C5A",
"v  c #445155",
"b  c #655848",
"n  c #6B5D4C",
"m  c #635744",
"M  c #725E49",
"N  c #55694D",
"B  c #6E604F",
"V  c #6A6744",
"C  c #75614C",
"Z  c #75724A",
"A  c #686057",
"S  c #736552",
"D  c #776855",
"F  c #7C6A54",
"G  c #6F7B5A",
"H  c #485A61",
"J  c #4E6168",
"K  c #51656C",
"L  c #596569",
"P  c #586E76",
"I  c #5D757E",
"U  c #6A6B68",
"Y  c #6D7577",
"T  c #8B2607",
"R  c #91381C",
"E  c #BD3104",
"W  c #A62B04",
"Q  c #CB3301",
"!  c #C63405",
"~  c #984224",
"^  c #84523A",
"/  c #AC4726",
"(  c #D4572D",
")  c #C7532B",
"_  c #E25D2F",
"`  c #FC6732",
"'  c #F46431",
"]  c #8B5D44",
"[  c #826C52",
"{  c #84735D",
"}  c #8D7359",
"|  c #91775B",
" . c #AD6D4C",
".. c #887865",
"X. c #9A7E61",
"o. c #967A66",
"O. c #7E9F72",
"+. c #928D5B",
"@. c #9E8162",
"#. c #9A866D",
"$. c #9A876E",
"%. c #898577",
"&. c #9B9271",
"*. c #A58766",
"=. c #AC8C6B",
"-. c #B58967",
";. c #B2916E",
":. c #A28D73",
">. c #AA9678",
",. c #B59571",
"<. c #BA9772",
"1. c #BD9A75",
"2. c #B29B7D",
"3. c #A09C65",
"4. c #81A274",
"5. c #B4AD6E",
"6. c #BAB373",
"7. c #BBB472",
"8. c #B6AF71",
"9. c #C19D77",
"0. c #CBA47D",
"q. c #C1BB77",
"w. c #C3BD78",
"e. c #CAC27C",
"r. c #D0C77F",
"t. c #657F88",
"y. c #668189",
"u. c #69858E",
"i. c #6D8993",
"p. c #6B8791",
"a. c #718F99",
"s. c #718890",
"d. c #74939D",
"f. c #79949D",
"g. c #70838A",
"h. c #7696A1",
"j. c #7A9BA5",
"k. c #7C9EA9",
"l. c #7FA1AC",
"z. c #8A8A89",
"x. c #A49688",
"c. c #B69F80",
"v. c #AAA496",
"b. c #81A3AE",
"n. c #82A5B1",
"m. c #86AAB5",
"M. c #88ADB9",
"N. c #87ACB8",
"B. c #8CB1BD",
"V. c #ADADAD",
"C. c #AAA9A7",
"Z. c #B8B8B6",
"A. c #B3B1AF",
"S. c #D4AB81",
"D. c #DAB287",
"F. c #E6BA8C",
"G. c #E9BB8E",
"H. c #E0B489",
"J. c #ECBF90",
"K. c #D3CB81",
"L. c #DAD184",
"P. c #EEC091",
"I. c #F5C595",
"U. c #F8C796",
"Y. c #FECB99",
"T. c #FAC897",
"R. c #E3DB8A",
"E. c #EBE28D",
"W. c #F0E790",
"Q. c #F3E992",
"!. c #C2C2BF",
"~. c #8EB4C1",
"^. c #92B9C6",
"/. c #95BDCA",
"(. c #90B7C2",
"). c #97C0CD",
"_. c #99C3D1",
"`. c #C9C9C9",
"'. c #D4D4D3",
"]. c #DEDEDE",
"[. c #ECECEC",
"{. c #E1E1E1",
"}. c #F2F2F2",
"|. c #FDFDFD",
" X c None",
/* pixels */
" X X X X X X X X X X X X X X X X X X X X X X X X X X X X X X X X X X X X X X X",
" X X X X X X X X X X X X X X X X X X X X X X X; 4 <  X X X X X X X X X X X X X",
" X X X X X X X X X X X X X X X X X X X X X Xp O.O.O.2  X X X X X X X X X X X X",
" X X X X X X X X X X X X X X X X X X X X X Xp p + h $  X X X X X X X X X X X X",
" X X X X X X X X X X X X X X X X X X X X X X X  ; 2 N z 4  X X X X X X X X X X",
" X X X X X X X X X X X X X X X X X X X X Xz 2 u b V O.N 2  X X X X X X X X X X",
" X X X X X X X X X X X X X X X X X X X X X2 x D.Y.Y.;.,  X X X X X X X X X X X",
" X X X X X X X X X X X X X X X X X X X X X XP.U.Y.Y.P. X X X X X X X X X X X X",
" X X X X X X X X X X X X X X X X X X X XX.M ,.<.@.I.T. X X X X X X X X X X X X",
" X X X X X X X X X X X X X Xq T 0  X X$...U %.A #.S.Y. X X X X X X X X X X X X",
" X X X X X X X X X X X X X8 Q Q ! ! T o.v.Z.}.'.&.Y.I.+ | *.1  X X X X X X X X",
" X X X X X X X X X X X X X8 Q Q Q ! Q Q ! ~ d 0.1.F ,.@.;.J.i  X X X X X X X X",
" X X X X X X X X X X X X X- ! Q Q Q Q Q Q T ~  .F.=.F.<.@.J. X X X X X X X X X",
" X X X X X X X X X X X X X X- W ! Q Q Q q ( ` ` ^ G.T.=.D.m  X X X X X X X X X",
" X X X X X X X X X X X X X X X X9 0 0 T ( ` ` `  .Y.Y.<.=  X X X X X X X X X X",
" X X X X X X X X X X X X X X X Xw ' ' ' _ _ ) ~  .Y.Y.U. X X X X X X X X X X X",
" X X X X X X X X X X X X X X X Xw ( / ~ t ^ ] 1.U.Y.J.;. X X X X X X X X X X X",
" X X X X X X X X X X X X X X X X& ] -...U.Y.Y.Y.S.x.A.<  X X X X X X X X X X X",
" X X X X X X X X X X X X X X X X X3 X.| Y.Y.D.x.`.`.t.P  X X X X X X X X X X X",
" X X X XY c  X X6  X X X X X X X X Xr A *.| z.|.`.h.j./.j  X X X X X X X X X X",
" X X6 z.|.|.[.[.|.C.c  X X X X X X X5 s.> + f.{.f.n./._.p. X X X X X X X X X X",
" Xk |.|.|.|.|.|.|.|.C. X X X X X XH n.j.  h b.L m.M.M._.(. X X X X X X X X X X",
" X XU |.!.|.}.'.!.v.4  X X X X Xp.n.~.t.. n.j.(.h._.t.n.j.v  X X X X X X X X X",
" X XZ >.3.{.>.r.W.Q.m  X X X Xu.N.k.k.. , n._.k./._.y.j.a.K  X X X X X X X X X",
" X Xa 5.7.%.e.5.6.e.s 0.P.C 6 ).M.l.&   7 _./.k._./.u.j.i.K  X X X X X X X X X",
" X Xa Q.7.E.W.7.R.e.[ P.*.c m.j.a..     5 _./.k._.m.h.h.h.J  X X X X X X X X X",
" X Xy Q.7.Q.Q.e.r.r.M 0.v B.l.I X       # _.M.~._.Y p.h.j.z. X X X X X X X X X",
" X Xy Q.e.W.W.5.r.w.t v ^.f._.&         . /.l./.k.z.'.A.{.A. X X X X X X X X X",
" X Xa Q.r.Q.E.7.K.K.$ m.j./._.g       . H /.k._./.Y V.A.}.[. X X X X X X X X X",
" X XV Q.L.5.+.y V Z t.N.n._.k.h.    > j._._.n._./.U Z.`.C.U  X X X X X X X X X",
" X Xy V o X     : k /.h._./.k./.& # l.n._._.n._._.a.{ F.0.I  X X X X X X X X X",
" X X XZ 3.+.4 : V i.n.~._.j._._.j j.j._._._.j._._.k.:.Y.1.a. X X X X X X X X X",
" X X X X X X X X7 M.B._./.l._._.B._.d._._._.d._./.j.:.Y.;.i. X X X X X X X X X",
" X X X X X X XJ /._.b._.n.(.^.p.j./.a._._._.t.v # X =.Y.o.% @ } [  X X X X X X",
" X X X X X X XP I J g I d.P +   , g # g P f         <.Y.X.C <.=.F.1  X X X X X",
" X X X X X X X X X X                                ;.Y.I.=.C X.1. X X X X X X",
" X X X X X X X X X X X                              S.Y.Y.Y.F.Y.|  X X X X X X",
" X X X X X X X X X X X X                          X J.G.Y.9.Y.G. X X X X X X X",
" X X X X X X X X X X X X X                        X *.=.,.D.[ @  X X X X X X X",
" X X X X X X X X X X X X X X X X                    | @.9.M .  X X X X X X X X",
" X X X X X X X X X X X X X X X X X X                = X.X.*  X X X X X X X X X",
" X X X X X X X X X X X X X X X X X X                       X X X X X X X X X X",
" X X X X X X X X X X X X X X X X X X                     X X X X X X X X X X X",
" X X X X X X X X X X X X X X X X X X                       X X X X X X X X X X",
" X X X X X X X X% e b } :.#.n < 3 b ..D 3 $   + e m n S S l * * i m 3  X X X X",
" X X X X X X Xi 2.c.c.c.c.c.2.:.$.$.c.c.c.#.M c.2.c.c.c...n { 2.c.c.c.{  X X X",
" X X X X X X Xi 2.2.c.c.c.c.2.c.c.c.#.b e @ D >.c.c.c.c.:.:.c.c.c.c.c.c.e  X X",
" X X X X X X X X< S 2.c.c.2.2.2.F e  X X X X X X1 b :.c.c.c.c.c.c.c.#.u  X X X",
" X X X X X X X X X X Xy x l y  X X X X X X X X X X X Xr S S B n i 1  X X X X X",
" X X X X X X X X X X X X X X X X X X X X X X X X X X X X X X X X X X X X X X X"
};
