/* XPM */
static char *talon_right[] = {
/* columns rows colors chars-per-pixel */
"39 50 185 2 ",
"   c #000000",
".  c #0B0D0D",
"X  c #080808",
"o  c #100C0B",
"O  c #14110F",
"+  c #131514",
"@  c #1A1513",
"#  c #161B1D",
"$  c #191E19",
"%  c #181816",
"&  c #0F1314",
"*  c #211D19",
"=  c #221D17",
"-  c #2D0E06",
";  c #1D221B",
":  c #23251C",
">  c #171D20",
",  c #1D2527",
"<  c #282A25",
"1  c #322A23",
"2  c #2A3426",
"3  c #3B332B",
"4  c #383A2A",
"5  c #282F31",
"6  c #363936",
"7  c #293337",
"8  c #5B1A08",
"9  c #411208",
"0  c #711F06",
"q  c #792208",
"w  c #772F19",
"e  c #433B31",
"r  c #483F35",
"t  c #50392B",
"y  c #494432",
"u  c #484939",
"i  c #544B3A",
"p  c #43543D",
"a  c #585538",
"s  c #61573E",
"d  c #6B4A38",
"f  c #313D41",
"g  c #37454A",
"h  c #384649",
"j  c #3E4D53",
"k  c #454947",
"l  c #5B4F41",
"z  c #495B43",
"x  c #5A5347",
"c  c #5B5C5A",
"v  c #445155",
"b  c #655848",
"n  c #6B5D4C",
"m  c #635744",
"M  c #725E49",
"N  c #55694D",
"B  c #6E604F",
"V  c #6A6744",
"C  c #75614C",
"Z  c #75724A",
"A  c #686057",
"S  c #736552",
"D  c #776855",
"F  c #7C6A54",
"G  c #6F7B5A",
"H  c #485A61",
"J  c #4E6168",
"K  c #51656C",
"L  c #596569",
"P  c #586E76",
"I  c #5D757E",
"U  c #6A6B68",
"Y  c #6D7577",
"T  c #8B2607",
"R  c #91381C",
"E  c #BD3104",
"W  c #A62B04",
"Q  c #CB3301",
"!  c #C63405",
"~  c #984224",
"^  c #84523A",
"/  c #AC4726",
"(  c #D4572D",
")  c #C7532B",
"_  c #E25D2F",
"`  c #FC6732",
"'  c #F46431",
"]  c #8B5D44",
"[  c #826C52",
"{  c #84735D",
"}  c #8D7359",
"|  c #91775B",
" . c #AD6D4C",
".. c #887865",
"X. c #9A7E61",
"o. c #967A66",
"O. c #7E9F72",
"+. c #928D5B",
"@. c #9E8162",
"#. c #9A866D",
"$. c #9A876E",
"%. c #898577",
"&. c #9B9271",
"*. c #A58766",
"=. c #AC8C6B",
"-. c #B58967",
";. c #B2916E",
":. c #A28D73",
">. c #AA9678",
",. c #B59571",
"<. c #BA9772",
"1. c #BD9A75",
"2. c #B29B7D",
"3. c #A09C65",
"4. c #81A274",
"5. c #B4AD6E",
"6. c #BAB373",
"7. c #BBB472",
"8. c #B6AF71",
"9. c #C19D77",
"0. c #CBA47D",
"q. c #C1BB77",
"w. c #C3BD78",
"e. c #CAC27C",
"r. c #D0C77F",
"t. c #657F88",
"y. c #668189",
"u. c #69858E",
"i. c #6D8993",
"p. c #6B8791",
"a. c #718F99",
"s. c #718890",
"d. c #74939D",
"f. c #79949D",
"g. c #70838A",
"h. c #7696A1",
"j. c #7A9BA5",
"k. c #7C9EA9",
"l. c #7FA1AC",
"z. c #8A8A89",
"x. c #A49688",
"c. c #B69F80",
"v. c #AAA496",
"b. c #81A3AE",
"n. c #82A5B1",
"m. c #86AAB5",
"M. c #88ADB9",
"N. c #87ACB8",
"B. c #8CB1BD",
"V. c #ADADAD",
"C. c #AAA9A7",
"Z. c #B8B8B6",
"A. c #B3B1AF",
"S. c #D4AB81",
"D. c #DAB287",
"F. c #E6BA8C",
"G. c #E9BB8E",
"H. c #E0B489",
"J. c #ECBF90",
"K. c #D3CB81",
"L. c #DAD184",
"P. c #EEC091",
"I. c #F5C595",
"U. c #F8C796",
"Y. c #FECB99",
"T. c #FAC897",
"R. c #E3DB8A",
"E. c #EBE28D",
"W. c #F0E790",
"Q. c #F3E992",
"!. c #C2C2BF",
"~. c #8EB4C1",
"^. c #92B9C6",
"/. c #95BDCA",
"(. c #90B7C2",
"). c #97C0CD",
"_. c #99C3D1",
"`. c #C9C9C9",
"'. c #D4D4D3",
"]. c #DEDEDE",
"[. c #ECECEC",
"{. c #E1E1E1",
"}. c #F2F2F2",
"|. c #FDFDFD",
" X c None",
/* pixels */
" X X X X X X X X X X X X X X X X X X X X X X X X X X X X X X X X X X X X X X X",
" X X X X X X X X X X X X X2 2 $  X X X X X X X X X X X X X X X X X X X X X X X",
" X X X X X X X X X X X X< O.O.O.p  X X X X X X X X X X X X X X X X X X X X X X",
" X X X X X X X X X X X X$ h + p p  X X X X X X X X X X X X X X X X X X X X X X",
" X X X X X X X X X X4 N N 4 :    X X X X X X X X X X X X X X X X X X X X X X X",
" X X X X X X X X X X2 N G G m p 2 z  X X X X X X X X X X X X X X X X X X X X X",
" X X X X X X X X X X X: ;.T.Y.D.V 2  X X X X X X X X X X X X X X X X X X X X X",
" X X X X X X X X X X X XG.Y.Y.I.G. X X X X X X X X X X X X X X X X X X X X X X",
" X X X X X X X X X X X XY.I.@.,.,.B o. X X X X X X X X X X X X X X X X X X X X",
" X X X X X X X X X X X XY.0.o.A z.U ..$. X X0 T q  X X X X X X X X X X X X X X",
" X X X X X X X X1 *.| + I.Y.x.'.}.Z.v.o.T E Q Q Q 8  X X X X X X X X X X X X X",
" X X X X X X X Xi G.=.*.,.F 9.0.d ~ ! Q Q Q Q Q Q 8  X X X X X X X X X X X X X",
" X X X X X X X X XI.*.,.F.=.G. .R T Q Q Q Q Q Q E -  X X X X X X X X X X X X X",
" X X X X X X X X Xs D.=.T.G.^ ` ` ( T Q Q ! Q W -  X X X X X X X X X X X X X X",
" X X X X X X X X X X@ 1.Y.Y. .` ` ` ( w q 0 9  X X X X X X X X X X X X X X X X",
" X X X X X X X X X X XT.Y.Y. .~ ) _ _ ' ` ' w  X X X X X X X X X X X X X X X X",
" X X X X X X X X X X X;.I.T.T.1.] ^ t ~ / _ w  X X X X X X X X X X X X X X X X",
" X X X X X X X X X X X< A.x.S.Y.T.Y.T.|  .] &  X X X X X X X X X X X X X X X X",
" X X X X X X X X X X XP u.`.`.x.D.Y.T.| | 3  X X X X X X X X X X X X X X X X X",
" X X X X X X X X X Xh /.h.h.`.|.z.| *.A k  X X X X X X X X X6  X XU U  X X X X",
" X X X X X X X X X Xi._./.b.f.{.f.% > s.5  X X X X X X Xc C.|.[.[.|.|.z.6  X X",
" X X X X X X X X X X(._.M.M.m.L b.g   j.n.H  X X X X X XC.|.|.|.|.|.|.|.|.k  X",
" X X X X X X X X Xj j.b.t._.h.~.k.n.X t.~.n.y. X X X X Xy v.Z.'.|.|.!.|.U  X X",
" X X X X X X X X XK a.k.y._./.b./.n., . b.k.N.y. X X X Xa Q.Q.L.&.].3.>.Z  X X",
" X X X X X X X X XK i.j.y._._.j._._.5   & l.M./.g M J.S.s e.8.7.w.%.q.5.a  X X",
" X X X X X X X X XK h.j.j.n._.b./._.5     . a.j.m.c *.J.[ w.R.q.W.E.6.W.i  X X",
" X X X X X X X X Xz.d.d.i.I /.B.M._.#       X I j.B.v S.m K.K.q.W.Q.q.Q.y  X X",
" X X X X X X X X XA.{.Z.'.z.k./.l.)..         & _.f.).z e e.r.8.Q.Q.e.Q.y  X X",
" X X X X X X X X X[.}.A.A.Y /._.j._.H .       h _./.j.m.@ K.K.7.E.W.e.Q.a  X X",
" X X X X X X X X XU C.`.Z.L )._.l._._.j.>     d.j._.n.B.I Z Z y +.6.K.Q.V  X X",
" X X X X X X X X XI 9.F.{ a._._.n._._.l.l.# + ).k.^._.h./.k :       . V i  X X",
" X X X X X X X X Xa.9.Y.:.b._._.j._._._.j.j.j _._.j._.~.n.u.V : 4 +.3.Z  X X X",
" X X X X X X X X Xi.,.Y.>.j.^._.d._._._.d._.B._._.l./._.B.M.7  X X X X X X X X",
" X X X X X X[ } + % | Y.=.X # v I _._._.d./.j.u.^.^.n._.b._.^.J  X X X X X X X",
" X X X X X1 F.=.<.C *.Y.1.        g P g # g ,   + P d.I h J I K  X X X X X X X",
" X X X X X X1.@.C =.I.T.;.                                 X X X X X X X X X X",
" X X X X X X| Y.F.Y.Y.Y.S.                               X X X X X X X X X X X",
" X X X X X X XG.T.1.Y.G.J.X                            X X X X X X X X X X X X",
" X X X X X X X@ [ D.,.=.*.X                          X X X X X X X X X X X X X",
" X X X X X X X Xo M 9.X.X.                     X X X X X X X X X X X X X X X X",
" X X X X X X X X X= @.X.*                  X X X X X X X X X X X X X X X X X X",
" X X X X X X X X X X                       X X X X X X X X X X X X X X X X X X",
" X X X X X X X X X X X                     X X X X X X X X X X X X X X X X X X",
" X X X X X X X X X X                       X X X X X X X X X X X X X X X X X X",
" X X X Xe m i * * l S S n m e O   $ 3 F ..b 3 < n #.:...b e %  X X X X X X X X",
" X X X{ c.c.c.c...n ..c.c.c.c.2.n #.c.2.2.$.#.:.c.c.c.2.c.c.2.i  X X X X X X X",
" X Xe c.c.c.c.c.2.:.:.c.c.c.c.>.F @ e b :.2.c.c.c.c.c.c.c.c.2.y  X X X X X X X",
" X X Xy $.c.2.c.c.c.c.c.:.b 1  X X X X X Xr F >.c.c.c.c.>.S 1  X X X X X X X X",
" X X X X X1 l n n S S r  X X X X X X X X X X X Xy l x r  X X X X X X X X X X X",
" X X X X X X X X X X X X X X X X X X X X X X X X X X X X X X X X X X X X X X X"
};
